<svg xmlns="http://www.w3.org/2000/svg" width="39" height="45" viewBox="0 0 39 45"><g><g><path fill="#fff" d="M18.066 32c-2.796-.696-4.62-3.288-4.256-6.05.364-2.76 2.802-4.83 5.69-4.83 2.888 0 5.326 2.07 5.69 4.83.363 2.762-1.46 5.354-4.256 6.05v5.72h-2.868zm-1.434-5.335c0 1.527 1.284 2.764 2.868 2.764 1.584 0 2.868-1.237 2.868-2.764 0-1.526-1.284-2.763-2.868-2.763-1.584 0-2.868 1.237-2.868 2.763zM38.14 15.61v27.638c0 .763-.642 1.382-1.434 1.382H2.294c-.792 0-1.434-.619-1.434-1.382V15.61c0-.763.642-1.382 1.434-1.382H8.03V3.173C8.03 1.647 9.313.41 10.897.41h17.206c1.584 0 2.868 1.238 2.868 2.764v11.055h5.735c.792 0 1.434.619 1.434 1.382zm-27.243-1.382h17.206V3.173H10.897zm24.375 2.764H3.728v24.874h31.544z"/></g></g></svg>