<svg xmlns="http://www.w3.org/2000/svg" width="40" height="45" viewBox="0 0 40 45"><g><g><path fill="#fff" d="M18.5 32c-2.925-.696-4.833-3.288-4.452-6.05.38-2.76 2.93-4.83 5.952-4.83 3.021 0 5.571 2.07 5.952 4.83.38 2.762-1.527 5.354-4.452 6.05v5.72h-3zM17 26.664c0 1.527 1.343 2.764 3 2.764s3-1.237 3-2.764c0-1.526-1.343-2.763-3-2.763s-3 1.237-3 2.763zM39.5 15.61v27.638c0 .763-.672 1.382-1.5 1.382H2c-.828 0-1.5-.619-1.5-1.382V15.61c0-.763.672-1.382 1.5-1.382h6V3.173C8 1.647 9.343.41 11 .41h18c1.657 0 3 1.238 3 2.764v11.055h6c.828 0 1.5.619 1.5 1.382zM11 14.228h18V3.173H11zm25.5 2.764h-33v24.874h33z"/></g></g></svg>