<svg xmlns="http://www.w3.org/2000/svg" width="26" height="25" viewBox="0 0 26 25"><g><g><path fill="#00fb83" d="M11.698 3.168h3.116v.681h-2.41v1.31h2.147v.682h-2.146v1.825h-.707z"/></g><g><path fill="#00fb83" d="M11.02 17.593l.867 3.444.9-3.444h.765l.906 3.489.868-3.49h.719l-1.156 4.498h-.855l-.86-3.347-.862 3.347h-.862l-1.156-4.497z"/></g><g><path fill="#00fb83" d="M7.329 23.74a.328.328 0 0 1-.16-.041A12.606 12.606 0 0 1 .574 12.615c0-4.594 2.504-8.828 6.532-11.048a.337.337 0 0 1 .456.132.334.334 0 0 1-.132.456 11.944 11.944 0 0 0-6.185 10.46c0 4.381 2.392 8.402 6.245 10.494.08.044.137.114.161.2a.334.334 0 0 1-.321.43"/></g><g><path fill="#00fb83" d="M19.17 23.66a.334.334 0 0 1-.323-.426.336.336 0 0 1 .159-.202 11.958 11.958 0 0 0 6.103-10.416c0-4.38-2.392-8.4-6.245-10.494a.333.333 0 0 1-.134-.454.336.336 0 0 1 .455-.135 12.605 12.605 0 0 1 6.595 11.083c0 4.555-2.47 8.77-6.446 11a.336.336 0 0 1-.163.044"/></g><g><path fill="#00fb83" d="M13.19 24.687c-1.374 0-2.662-.562-3.627-1.584-1.87-1.975-1.979-4.778-.263-6.816.45-.487.905-.985 1.36-1.483l.937-1.023a.36.36 0 0 1 .26-.103c.093 0 .178.03.236.086.064.057.101.147.106.244a.355.355 0 0 1-.086.253l-2.268 2.47c-1.507 1.789-1.413 4.153.229 5.888.846.894 1.95 1.386 3.108 1.386 1.158 0 2.254-.492 3.089-1.387.863-.927 1.311-1.999 1.294-3.1-.02-1.164-.532-2.284-1.522-3.331L9.79 9.542c-1.1-1.163-1.693-2.478-1.715-3.805-.02-1.287.495-2.532 1.488-3.598A4.881 4.881 0 0 1 13.162.557c1.373 0 2.661.562 3.628 1.584 1.87 1.975 1.977 4.778.261 6.815l-1.36 1.485-.936 1.021a.362.362 0 0 1-.266.107.35.35 0 0 1-.236-.085.356.356 0 0 1-.107-.247.357.357 0 0 1 .085-.255l2.276-2.468c1.507-1.79 1.413-4.155-.23-5.89-.844-.894-1.95-1.386-3.11-1.386-1.161 0-2.26.494-3.094 1.388-.864.927-1.312 1.998-1.294 3.1.018 1.164.53 2.283 1.522 3.33l6.262 6.647c1.044 1.041 1.585 2.25 1.705 3.808-.002 1.198-.543 2.51-1.485 3.599a4.873 4.873 0 0 1-3.593 1.577z"/></g></g></svg>