<svg xmlns="http://www.w3.org/2000/svg" width="41" height="18" viewBox="0 0 41 18"><g><g><path fill="#fefefe" d="M5.83 4.66h5.324v1.175H7.037v2.26h3.667v1.176H7.037v3.147H5.83z"/></g><g><path fill="#fefefe" d="M28.781 4.66l1.483 5.94L31.8 4.66h1.307l1.548 6.018L36.14 4.66h1.23l-1.977 7.758h-1.46L32.46 6.644l-1.472 5.774h-1.471L27.54 4.66z"/></g><g><path fill="#fefefe" d="M40.937 8.704c0 2.31-.952 4.477-2.68 6.102-3.344 3.146-8.087 3.328-11.535.442-.826-.757-1.668-1.523-2.51-2.289-.577-.525-1.155-1.05-1.73-1.575a.601.601 0 0 1-.176-.438c0-.154.052-.3.145-.399a.596.596 0 0 1 .415-.175.599.599 0 0 1 .427.143l4.178 3.816c3.03 2.536 7.031 2.377 9.967-.386 1.513-1.422 2.346-3.279 2.346-5.228 0-1.947-.833-3.792-2.347-5.195-1.569-1.454-3.383-2.206-5.248-2.176-1.969.032-3.865.893-5.637 2.56L15.305 14.423c-1.967 1.85-4.193 2.848-6.438 2.884-2.179.035-4.284-.83-6.089-2.504C1.051 13.204.1 11.054.1 8.751c0-2.31.952-4.477 2.68-6.102 3.344-3.146 8.088-3.328 11.536-.442.825.757 1.668 1.523 2.51 2.29.578.524 1.155 1.049 1.73 1.574.113.103.181.27.181.446 0 .155-.052.3-.143.4a.605.605 0 0 1-.418.178.604.604 0 0 1-.432-.142l-4.177-3.828C10.537.588 6.536.747 3.599 3.509 2.087 4.932 1.253 6.792 1.253 8.745c0 1.952.834 3.8 2.348 5.202 1.568 1.454 3.383 2.207 5.248 2.177 1.968-.032 3.864-.893 5.636-2.56L25.733 3.031C27.495 1.273 29.542.364 32.178.16c2.027.004 4.247.914 6.09 2.498 1.719 1.592 2.67 3.742 2.67 6.045z"/></g></g></svg>