<?xml version="1.0" encoding="utf-8"?>
<svg width="35px" height="31px" viewBox="0 0 35 31" version="1.1" xmlns:xlink="http://www.w3.org/1999/xlink" xmlns="http://www.w3.org/2000/svg">
  <path d="M19.1282 4.71204C19.0201 4.82818 18.8965 4.88571 18.7605 4.88571L15.9813 4.88571C15.8453 4.88571 15.7238 4.82818 15.6146 4.71204C15.5188 4.61082 15.4714 4.48723 15.4714 4.34232C15.4714 4.19742 15.5188 4.06743 15.6146 3.9513C15.7238 3.85008 15.8464 3.8 15.9813 3.8L18.7605 3.8C18.9109 3.8 19.0324 3.85008 19.1282 3.9513C19.224 4.06743 19.2714 4.19849 19.2714 4.34232C19.2714 4.48723 19.224 4.61082 19.1282 4.71204L19.1282 4.71204ZM19.1282 6.90585C19.0324 7.00707 18.9099 7.05714 18.7605 7.05714L15.9813 7.05714C15.8453 7.05714 15.7238 7.00707 15.6146 6.90585C15.5188 6.80356 15.4714 6.67357 15.4714 6.51482C15.4714 6.36992 15.5188 6.24632 15.6146 6.1451C15.7238 6.02896 15.8464 5.97143 15.9813 5.97143L18.7605 5.97143C18.8965 5.97143 19.0201 6.02896 19.1282 6.1451C19.224 6.24632 19.2714 6.36992 19.2714 6.51482C19.2714 6.67357 19.224 6.80356 19.1282 6.90585L19.1282 6.90585ZM34.0411 0.142663C34.147 0.250408 34.2 0.373118 34.2 0.508797L34.2 13.2846C34.2 13.4203 34.147 13.542 34.0411 13.6507C33.9491 13.7455 33.8361 13.7924 33.7042 13.7924C33.5723 13.7924 33.4533 13.7455 33.3473 13.6507C33.2554 13.555 33.2084 13.4332 33.2084 13.2846L33.2084 10.9451L23.6923 10.9451L23.6923 23.6192L33.2084 23.6192L33.2084 15.5223C33.2084 15.3866 33.2554 15.2709 33.3483 15.1761C33.4533 15.0674 33.5723 15.0135 33.7042 15.0135C33.8371 15.0135 33.9501 15.0674 34.0421 15.1761C34.147 15.2709 34.2 15.3866 34.2 15.5223L34.2 30.4341C34.2 30.5697 34.147 30.6915 34.0411 30.8002C33.9491 30.895 33.8361 30.9429 33.7042 30.9429L14.771 30.9429C14.638 30.9429 14.5201 30.895 14.4141 30.8002C14.3211 30.7044 14.2742 30.5837 14.2742 30.4341C14.2742 30.2984 14.3211 30.1827 14.4141 30.0879C14.5191 29.9791 14.638 29.9253 14.771 29.9253L33.2084 29.9253L33.2084 24.6358L0.991594 24.6358L0.991594 29.9253L12.4119 29.9253C12.5439 29.9253 12.6558 29.9791 12.7488 30.0879C12.8537 30.1827 12.9077 30.2984 12.9077 30.4341C12.9077 30.5697 12.8537 30.6915 12.7488 30.8002C12.6558 30.895 12.5439 30.9429 12.4119 30.9429L0.495797 30.9429C0.363851 30.9429 0.245899 30.895 0.138943 30.8002C0.0469808 30.7044 0 30.5837 0 30.4341L0 7.10022C0 6.96454 0.0469808 6.84183 0.138943 6.73308C0.2449 6.63831 0.363851 6.59142 0.495797 6.59142C0.627743 6.59142 0.740697 6.63931 0.832659 6.73308C0.938616 6.84183 0.991594 6.96454 0.991594 7.10022L0.991594 9.92753L11.4593 9.92753L11.4593 1.0166L0.991594 1.0166L0.991594 4.80065C0.991594 4.93633 0.938616 5.05904 0.832659 5.16679C0.740697 5.26256 0.627743 5.30945 0.495797 5.30945C0.363851 5.30945 0.2449 5.26156 0.138943 5.16679C0.0469808 5.07201 0 4.9503 0 4.80065L0 0.508797C0 0.373118 0.0469808 0.250408 0.138943 0.142663C0.2449 0.0478868 0.363851 0 0.495797 0L33.7042 0C33.8361 0 33.9491 0.0478868 34.0411 0.142663L34.0411 0.142663ZM29.8946 3.8C30.0301 3.8 30.1442 3.85114 30.238 3.95236C30.347 4.0685 30.4 4.19849 30.4 4.34339C30.4 4.48829 30.347 4.61082 30.238 4.71204C30.1442 4.82818 30.0301 4.88571 29.8946 4.88571L27.1065 4.88571C26.9709 4.88571 26.8558 4.82818 26.762 4.71204C26.654 4.61082 26.6 4.48829 26.6 4.34339C26.6 4.19849 26.654 4.06743 26.762 3.95236C26.8558 3.85114 26.9709 3.8 27.1065 3.8L29.8946 3.8ZM30.238 6.14511C30.347 6.24633 30.4 6.36886 30.4 6.51483C30.4 6.65973 30.347 6.78971 30.238 6.90585C30.1442 7.00707 30.0301 7.05714 29.8946 7.05714L27.1065 7.05714C26.9709 7.05714 26.8558 7.00707 26.762 6.90585C26.654 6.78865 26.6 6.65866 26.6 6.51483C26.6 6.36992 26.654 6.24633 26.762 6.14511C26.8558 6.02898 26.9709 5.97144 27.1065 5.97144L29.8946 5.97144C30.0301 5.97038 30.1442 6.02898 30.238 6.14511L30.238 6.14511ZM23.6143 9.77143L33.1143 9.77143L33.1143 0.814286L23.6143 0.814286L23.6143 9.77143ZM30.238 18.0335C30.1442 18.1346 30.0301 18.1857 29.8946 18.1857L27.1065 18.1857C26.9709 18.1857 26.8558 18.1346 26.762 18.0335C26.654 17.9175 26.6 17.7876 26.6 17.6429C26.6 17.4992 26.654 17.3746 26.762 17.2735C26.8558 17.1575 26.9709 17.1 27.1065 17.1L29.8946 17.1C30.0301 17.1 30.1442 17.1585 30.238 17.2735C30.347 17.3746 30.4 17.4981 30.4 17.6429C30.4 17.7876 30.347 17.9175 30.238 18.0335L30.238 18.0335ZM19.1282 18.0344C19.0324 18.1356 18.9099 18.1857 18.7605 18.1857L15.9813 18.1857C15.8453 18.1857 15.7238 18.1356 15.6146 18.0344C15.5188 17.9321 15.4714 17.8021 15.4714 17.6434C15.4714 17.4985 15.5188 17.3749 15.6146 17.2737C15.7238 17.1575 15.8464 17.1 15.9813 17.1L18.7605 17.1C18.8965 17.1 19.0201 17.1575 19.1282 17.2737C19.224 17.3749 19.2714 17.4985 19.2714 17.6434C19.2714 17.8021 19.224 17.9332 19.1282 18.0344L19.1282 18.0344ZM12.4857 23.6143L22.8 23.6143L22.8 10.8571L12.4857 10.8571L12.4857 23.6143ZM12.4857 9.77143L22.8 9.77143L22.8 0.814286L12.4857 0.814286L12.4857 9.77143ZM8.14286 4.34232C8.14286 4.48723 8.09443 4.61082 7.99963 4.71204C7.89042 4.82818 7.7678 4.88571 7.63179 4.88571L4.85289 4.88571C4.71585 4.88571 4.59427 4.82818 4.48505 4.71204C4.39025 4.61082 4.34286 4.48723 4.34286 4.34232C4.34286 4.19742 4.39025 4.06743 4.48505 3.9513C4.59427 3.85008 4.71688 3.8 4.85289 3.8L7.63179 3.8C7.78223 3.8 7.90484 3.85008 7.99963 3.9513C8.09443 4.06743 8.14286 4.19849 8.14286 4.34232L8.14286 4.34232ZM4.48501 6.90585C4.39024 6.80356 4.34286 6.67357 4.34286 6.51482C4.34286 6.36992 4.39024 6.24632 4.48501 6.1451C4.59523 6.02896 4.71678 5.97143 4.85275 5.97143L7.63193 5.97143C7.7679 5.97143 7.89048 6.02896 7.99967 6.1451C8.09444 6.24632 8.14286 6.36992 8.14286 6.51482C8.14286 6.67357 8.09444 6.80463 7.99967 6.90585C7.90387 7.00707 7.78129 7.05714 7.63193 7.05714L4.85275 7.05714C4.71678 7.05714 4.59523 7.00707 4.48501 6.90585L4.48501 6.90585ZM1.08571 23.6143L11.4 23.6143L11.4 10.8571L1.08571 10.8571L1.08571 23.6143ZM4.48501 18.0344C4.39024 17.9321 4.34286 17.8021 4.34286 17.6434C4.34286 17.4985 4.39024 17.3749 4.48501 17.2737C4.59523 17.1575 4.71678 17.1 4.85275 17.1L7.63193 17.1C7.7679 17.1 7.89048 17.1575 7.99967 17.2737C8.09444 17.3749 8.14286 17.4985 8.14286 17.6434C8.14286 17.8021 8.09444 17.9332 7.99967 18.0344C7.90387 18.1356 7.78129 18.1857 7.63193 18.1857L4.85275 18.1857C4.71678 18.1857 4.59523 18.1356 4.48501 18.0344L4.48501 18.0344Z" id="Fill-1" fill="#4E58F8" fill-rule="evenodd" stroke="none" />
</svg>
