<?xml version="1.0" encoding="utf-8"?>
<svg width="23px" height="35px" viewBox="0 0 23 35" version="1.1" xmlns:xlink="http://www.w3.org/1999/xlink" xmlns="http://www.w3.org/2000/svg">
  <defs>
    <filter id="filter_1">
      <feColorMatrix in="SourceGraphic" type="matrix" values="0 0 0 0 0 0 0 0 0 0.98039216 0 0 0 0 0.5137255 0 0 0 1 0" />
    </filter>
    <path d="M0 0L14.1143 0L14.1143 4.76182L0 4.76182L0 0Z" id="path_1" />
    <clipPath id="mask_1">
      <use xlink:href="#path_1" />
    </clipPath>
  </defs>
  <g id="Group-11" filter="url(#filter_1)">
    <path d="M0 0L0 34.2L15.4714 31.2911L15.4714 25.5406L14.2792 25.5406L14.2792 30.3362L1.19113 32.7974L1.19113 1.40262L14.2792 3.86273L14.2792 8.65944L15.4714 8.65944L15.4714 2.9078L0 0Z" id="Fill-1" fill="#00FFB2" fill-rule="evenodd" stroke="none" />
    <path d="M8.04934 2.42672L8.04934 4.74119L9.22857 4.74119L9.22857 1.44063L0 0L0 26.3286L9.22857 24.889L9.22857 21.5896L8.04934 21.5896L8.04934 23.903L1.17923 24.9749L1.17923 1.35478L8.04934 2.42672Z" transform="translate(3.257143 3.8000002)" id="Fill-2" fill="#00FFB2" fill-rule="evenodd" stroke="none" />
    <g id="Group-10" transform="translate(8.142858 8.685715)">
      <g id="Group-5">
        <path d="M0 0L14.1143 0L14.1143 4.76182L0 4.76182L0 0Z" id="Clip-4" fill="none" fill-rule="evenodd" stroke="none" />
        <g clip-path="url(#mask_1)">
          <path d="M6.38605 1.81204C6.30207 1.80765 6.21587 1.80325 6.12305 1.80325C5.34399 1.80325 4.8843 1.97677 4.50527 2.15907C4.44117 2.18872 4.37929 2.21947 4.31851 2.25022C4.01573 2.40177 3.76489 2.52477 3.31182 2.55882C3.23446 2.56431 3.15269 2.5676 3.06208 2.5676C3.03224 2.5676 3.00683 2.56541 2.9792 2.56541C2.41784 2.55223 2.14379 2.41935 1.80454 2.25022C1.38573 2.04047 0.910556 1.80325 0 1.80325L0 2.95637C0.621035 2.95637 0.901716 3.09694 1.25754 3.27375C1.66309 3.47692 2.12389 3.70315 2.9792 3.71743C3.00683 3.71852 3.03224 3.72072 3.06208 3.72072C3.15048 3.72072 3.23115 3.71633 3.31182 3.71193C3.83671 3.68448 4.20359 3.57466 4.50527 3.44397C4.63456 3.38906 4.7528 3.33086 4.86661 3.27485C5.22133 3.09694 5.50312 2.95637 6.12305 2.95637C6.21919 2.95637 6.30538 2.96186 6.38605 2.96735C6.83028 3.00249 7.08002 3.12439 7.38059 3.27485C7.44468 3.3067 7.51099 3.33964 7.5795 3.37149C7.95632 3.5505 8.41491 3.72072 9.18513 3.72072C9.79069 3.72072 10.2029 3.61529 10.5344 3.48351C10.7012 3.41652 10.8493 3.34404 10.9897 3.27485C11.2063 3.16613 11.3963 3.07278 11.6505 3.01567L11.6505 4.76182L14.1147 2.38091L11.6505 0L11.6505 1.84279C11.1587 1.91198 10.8283 2.06023 10.5344 2.2041C10.5034 2.21947 10.4725 2.23485 10.4427 2.25022C10.0868 2.42813 9.80506 2.5676 9.18513 2.5676C8.5652 2.5676 8.28341 2.42813 7.92759 2.25022C7.81819 2.19531 7.70326 2.13821 7.5795 2.08439C7.27782 1.95371 6.91095 1.84169 6.38605 1.81204" id="Fill-3" fill="#00FFB2" fill-rule="evenodd" stroke="none" />
        </g>
      </g>
      <path d="M14.1136 2.38091L11.6494 0L11.6494 1.84389C11.1587 1.91198 10.8272 2.06023 10.5344 2.2052C10.5034 2.21947 10.4714 2.23485 10.4416 2.25022C10.0857 2.42813 9.80506 2.5676 9.18402 2.5676C8.56299 2.5676 8.28231 2.42813 7.92648 2.25022C7.81708 2.19531 7.70326 2.1393 7.57839 2.08549C7.27672 1.95481 6.90984 1.84169 6.38605 1.81314C6.30096 1.80874 6.21587 1.80435 6.12195 1.80435C5.34289 1.80435 4.88319 1.97787 4.50416 2.15907C4.44007 2.18982 4.37819 2.22057 4.31851 2.25022C4.01463 2.40178 3.76378 2.52477 3.31182 2.55882C3.23446 2.56431 3.15269 2.5676 3.06097 2.5676C3.03114 2.5676 3.00572 2.56541 2.97809 2.56541C2.41784 2.55223 2.14268 2.41935 1.80454 2.25022C1.38462 2.04156 0.910556 1.80435 0 1.80435L0 2.95747C0.61993 2.95747 0.901716 3.09694 1.25644 3.27485C1.66309 3.47692 2.1239 3.70315 2.97809 3.71743C3.00683 3.71852 3.03114 3.72072 3.06097 3.72072C3.14938 3.72072 3.23115 3.71633 3.31182 3.71193C3.83561 3.68558 4.20359 3.57466 4.50416 3.44507C4.63345 3.39016 4.7528 3.33195 4.86551 3.27485C5.22133 3.09804 5.50202 2.95747 6.12195 2.95747C6.21808 2.95747 6.30428 2.96186 6.38605 2.96845C6.83028 3.00359 7.07891 3.12439 7.37949 3.27485C7.44358 3.3067 7.51099 3.33964 7.57839 3.37149C7.95521 3.5516 8.41381 3.72072 9.18402 3.72072C9.79069 3.72072 10.2018 3.61529 10.5344 3.48351C10.7001 3.41762 10.8493 3.34513 10.9886 3.27485C11.2051 3.16722 11.3952 3.07388 11.6494 3.01567L11.6494 4.76292L14.1136 2.38091Z" transform="translate(0.00055252213 6.032772)" id="Fill-6" fill="#00FFB2" fill-rule="evenodd" stroke="none" />
      <path d="M14.1136 2.38091L11.6494 0L11.6494 1.84389C11.1587 1.91198 10.8272 2.06023 10.5344 2.2052C10.5034 2.21947 10.4714 2.23485 10.4416 2.25022C10.0857 2.42813 9.80506 2.5676 9.18402 2.5676C8.56299 2.5676 8.28231 2.42813 7.92648 2.25022C7.81708 2.19531 7.70326 2.1393 7.57839 2.08549C7.27672 1.95481 6.90984 1.84169 6.38605 1.81314C6.30096 1.80874 6.21587 1.80435 6.12195 1.80435C5.34289 1.80435 4.88319 1.97787 4.50416 2.15907C4.44007 2.18982 4.37819 2.22057 4.31851 2.25022C4.01463 2.40178 3.76378 2.52477 3.31182 2.55882C3.23446 2.56431 3.15269 2.5676 3.06097 2.5676C3.03114 2.5676 3.00572 2.56541 2.97809 2.56541C2.41784 2.55223 2.14268 2.41935 1.80454 2.25022C1.38462 2.04156 0.910556 1.80435 0 1.80435L0 2.95747C0.61993 2.95747 0.901716 3.09694 1.25644 3.27485C1.66309 3.47692 2.1239 3.70315 2.97809 3.71743C3.00683 3.71852 3.03114 3.72072 3.06097 3.72072C3.14938 3.72072 3.23115 3.71633 3.31182 3.71193C3.83561 3.68558 4.20359 3.57466 4.50416 3.44507C4.63345 3.39016 4.7528 3.33196 4.86551 3.27485C5.22133 3.09804 5.50202 2.95747 6.12195 2.95747C6.21808 2.95747 6.30428 2.96186 6.38605 2.96845C6.83028 3.00359 7.07891 3.12439 7.37949 3.27485C7.44358 3.3067 7.51099 3.33964 7.57839 3.37149C7.95521 3.5516 8.41381 3.72072 9.18402 3.72072C9.79069 3.72072 10.2018 3.61529 10.5344 3.48351C10.7001 3.41762 10.8493 3.34513 10.9886 3.27485C11.2051 3.16722 11.3952 3.07388 11.6494 3.01567L11.6494 4.76292L14.1136 2.38091Z" transform="translate(0.00055252213 12.065654)" id="Fill-8" fill="#00FFB2" fill-rule="evenodd" stroke="none" />
    </g>
  </g>
</svg>
