<?xml version="1.0" encoding="utf-8"?>
<svg width="39px" height="15px" viewBox="0 0 39 15" version="1.1" xmlns:xlink="http://www.w3.org/1999/xlink" xmlns="http://www.w3.org/2000/svg">
  <defs>
    <filter id="filter_1">
      <feColorMatrix in="SourceGraphic" type="matrix" values="0 0 0 0 0 0 0 0 0 0.98039216 0 0 0 0 0.5137255 0 0 0 1 0" />
    </filter>
  </defs>
  <g id="Group-7" filter="url(#filter_1)">
    <path d="M36.6347 6.67805C35.7821 6.20179 34.6819 5.81237 33.3654 5.52053C32.0722 5.23316 30.7495 5.05054 29.5823 4.8894C28.8817 4.79271 26.9995 3.6164 25.9583 2.88411C25.826 2.80085 22.6703 0.834948 19.1205 0.236941C15.5992 -0.357485 8.21531 0.349739 7.87838 0.383757L4.04254 0.974602C3.80034 1.0122 3.63501 1.2378 3.67165 1.4804C3.70918 1.72211 3.9353 1.88683 4.1766 1.85102L7.98831 1.26286C7.99456 1.26197 8.06159 1.2557 8.17331 1.24585C7.16162 2.05782 6.59858 2.59316 6.50116 2.83666C6.32331 3.28427 6.38408 4.01208 6.39838 4.15353C6.41983 4.37196 6.59768 4.54116 6.81575 4.5528C6.91317 4.55727 11.3505 4.78734 16.2507 5.04696C16.3267 6.25103 16.4688 9.08261 16.341 11.8533L8.77031 11.6519C8.77121 11.6188 8.77478 11.5874 8.77478 11.5543C8.77478 9.84265 7.38505 8.45058 5.67715 8.45058C3.96836 8.45058 2.57863 9.84265 2.57863 11.5543C2.57863 11.5731 2.58131 11.591 2.58131 11.6098L1.9003 11.548C1.60001 11.3395 1.09238 10.9017 0.996749 10.5364C0.872522 10.0629 0.877884 8.97697 0.894865 8.4479C1.06557 8.22499 1.39177 7.74873 1.53298 7.22234C2.06027 7.12655 2.94684 6.73624 3.42498 5.24212C3.49916 5.00936 3.37047 4.75959 3.1381 4.68529C2.90394 4.61009 2.65549 4.739 2.58131 4.97176C2.32392 5.77746 1.93783 6.11943 1.63933 6.26356C1.67955 5.75239 1.73407 5.15438 1.76356 4.84374L4.31513 3.16879C4.51979 3.0345 4.57698 2.75967 4.44293 2.55467C4.30887 2.35055 4.0345 2.29326 3.82984 2.42754L1.10042 4.21888C0.988705 4.29229 0.91542 4.41314 0.902908 4.54653C0.896652 4.60919 0.753657 6.08004 0.717015 6.78368C0.692885 7.23219 0.279093 7.8114 0.121798 7.99671C0.0574507 8.07191 0.0199145 8.1659 0.0154459 8.26438C0.00829615 8.44163 -0.0551579 10.0163 0.140566 10.762C0.363102 11.6089 1.39624 12.2803 1.51332 12.3546C1.5723 12.3913 1.63933 12.4146 1.70904 12.4209L2.73235 12.514C3.1372 13.7565 4.30261 14.6571 5.67715 14.6571C7.04275 14.6571 8.20369 13.7664 8.61391 12.5346L16.5644 12.7458C16.6163 12.7718 16.6735 12.7879 16.7351 12.7915L16.761 12.7915C16.8218 12.7915 16.879 12.7781 16.9317 12.7557L29.3196 13.0851C29.854 14.0224 30.8595 14.6571 32.0115 14.6571C33.2225 14.6571 34.2708 13.9562 34.7793 12.9401C34.883 12.9428 34.984 12.9446 35.0814 12.9446C37.4042 12.9446 37.9654 12.1747 38.0575 12.0145C38.0825 11.9706 38.0995 11.9231 38.1084 11.8739C38.112 11.856 38.188 11.4281 38.2621 10.2339C38.339 8.99756 37.952 7.41392 36.6347 6.67805M5.67715 13.7709C4.45633 13.7709 3.46431 12.7763 3.46431 11.5543C3.46431 10.3323 4.45633 9.33775 5.67715 9.33775C6.89708 9.33775 7.89 10.3323 7.89 11.5543C7.89 12.7763 6.89708 13.7709 5.67715 13.7709M7.26171 3.68801C7.26082 3.48748 7.27423 3.28785 7.30819 3.19833C7.46191 2.9593 8.70596 1.93517 9.77932 1.11605C11.3371 1.00325 13.6679 0.869861 15.7717 0.890451C15.9174 2.01306 16.1104 3.51882 16.181 4.15532C12.1673 3.94315 8.48611 3.75157 7.26171 3.68801M16.6672 0.910146C17.5314 0.939689 18.3268 1.00146 18.9739 1.11068C22.345 1.68004 25.4569 3.6164 25.4685 3.62266C25.6169 3.7274 26.3694 4.25111 27.2193 4.75601C24.8733 4.61994 20.899 4.40598 17.0756 4.20276C17.0167 3.6155 16.8048 1.9674 16.6672 0.910146M32.0115 13.7709C30.7915 13.7709 29.7986 12.7763 29.7986 11.5543C29.7986 10.3323 30.7915 9.33775 32.0115 9.33775C33.2314 9.33775 34.2243 10.3323 34.2243 11.5543C34.2243 12.7763 33.2314 13.7709 32.0115 13.7709M37.3791 10.1784C37.33 10.9697 37.2799 11.4057 37.2549 11.5964C37.1012 11.7235 36.5551 12.0592 35.0653 12.0574C35.0921 11.8936 35.11 11.7262 35.11 11.5543C35.11 9.84265 33.7203 8.45058 32.0115 8.45058C30.3036 8.45058 28.9138 9.84265 28.9138 11.5543C28.9138 11.7718 28.9362 11.984 28.9791 12.189L17.2267 11.8766C17.3509 9.14169 17.2177 6.35129 17.14 5.0944C22.7597 5.39251 28.6752 5.7139 29.1784 5.7694C29.1945 5.77119 29.2114 5.77209 29.2275 5.77209C29.274 5.77209 29.3187 5.76134 29.3616 5.74702C29.3947 5.75418 29.4304 5.76403 29.4617 5.7685C30.6119 5.92696 31.9158 6.1069 33.1742 6.38621C34.3888 6.65567 35.4371 7.0245 36.2039 7.45241C37.1629 7.98865 37.4363 9.25539 37.3791 10.1784" id="Fill-1" fill="#00FFB2" fill-rule="evenodd" stroke="none" />
    <path d="M1.96547 0.814286L1.97768 0.814286C2.22945 0.814286 2.43613 0.646221 2.4427 0.433971C2.44928 0.217775 2.24636 0.0386642 1.98989 0.033141L0.477391 0.000790557C0.21059 -0.0134121 0.00673151 0.165699 0.000155426 0.381105C-0.00642066 0.596512 0.196499 0.776412 0.452966 0.781935L1.96547 0.814286Z" transform="translate(7.328572 5.9714284)" id="Fill-3" fill="#00FFB2" fill-rule="evenodd" stroke="none" />
    <path d="M1.73001 0.00407143L0.442312 0.00407143C0.19797 0.00407143 0 0.184843 0 0.407143C0 0.630257 0.19797 0.810214 0.442312 0.810214L1.73001 0.810214C1.97346 0.810214 2.17143 0.630257 2.17143 0.407143C2.17143 0.184843 1.97346 0.00407143 1.73001 0.00407143" transform="translate(18.457144 6.242857)" id="Fill-5" fill="#00FFB2" fill-rule="evenodd" stroke="none" />
  </g>
</svg>
