<?xml version="1.0" encoding="utf-8"?>
<svg width="25px" height="31px" viewBox="0 0 25 31" version="1.1" xmlns:xlink="http://www.w3.org/1999/xlink" xmlns="http://www.w3.org/2000/svg">
  <defs>
    <filter id="filter_1">
      <feColorMatrix in="SourceGraphic" type="matrix" values="0 0 0 0 0.30588236 0 0 0 0 0.34509805 0 0 0 0 0.972549 0 0 0 1 0" />
    </filter>
    <path d="M0 0L5.15714 0L5.15714 1.9L0 1.9L0 0Z" id="path_1" />
    <path d="M0 30.9429L24.4286 30.9429L24.4286 0L0 0L0 30.9429Z" id="path_2" />
    <clipPath id="mask_1">
      <use xlink:href="#path_1" />
    </clipPath>
    <clipPath id="mask_2">
      <use xlink:href="#path_2" />
    </clipPath>
  </defs>
  <g id="Group-126" filter="url(#filter_1)">
    <path d="M0.179918 0.109353C0.123306 0.354615 0.0628163 0.588941 0 0.813895L0.887183 0.674861L3.52857 1.08571L3.52857 0.410853L0.886408 0L0.179918 0.109353Z" transform="translate(13.571426 11.671429)" id="Fill-1" fill="#00FFB2" fill-rule="evenodd" stroke="none" />
    <path d="M0 0.814285L1.08571 0.622556L1.08571 0L0.165131 0.162406C0.113278 0.38797 0.0582345 0.604511 0 0.814285" transform="translate(11.399999 11.128572)" id="Fill-3" fill="#00FFB2" fill-rule="evenodd" stroke="none" />
    <path d="M3.25714 0.470724L0.726173 0.010411L0.669963 0L0.133689 0.0981605C0.0934301 0.319022 0.0478545 0.532446 0 0.739178L0.670722 0.615734L3.25714 1.08571L3.25714 0.470724Z" transform="translate(13.8428545 10.857143)" id="Fill-5" fill="#00FFB2" fill-rule="evenodd" stroke="none" />
    <path d="M2.98571 0.52404L0.493839 0L0.0936465 0.0852098C0.0651136 0.284743 0.0343858 0.477885 0 0.666766L0.49457 0.563094L2.98571 1.08571L2.98571 0.52404Z" transform="translate(14.114284 10.042858)" id="Fill-7" fill="#00FFB2" fill-rule="evenodd" stroke="none" />
    <path d="M0.814285 0L0.112561 0.168015C0.0776528 0.390732 0.0406074 0.605634 0 0.814285L0.814285 0.618919L0.814285 0Z" transform="translate(11.671427 10.585714)" id="Fill-9" fill="#00FFB2" fill-rule="evenodd" stroke="none" />
    <path d="M2.98571 0.573072L0.395459 0L0.0661633 0.0740105C0.0471508 0.253944 0.0250964 0.429804 0 0.600911L0.396219 0.514L2.98571 1.08571L2.98571 0.573072Z" transform="translate(14.114284 9.5)" id="Fill-11" fill="#00FFB2" fill-rule="evenodd" stroke="none" />
    <path d="M0 0.814285L0.814285 0.595358L0.814285 0L0.10672 0.190577C0.0738266 0.40478 0.0387407 0.61347 0 0.814285" transform="translate(9.499998 10.585714)" id="Fill-13" fill="#00FFB2" fill-rule="evenodd" stroke="none" />
    <path d="M0.801257 0.000814285L0.106671 0.172628C0.0789857 0.392485 0.0480428 0.605014 0.0130286 0.813471L0.801257 0.6156L0.801257 0.000814285Z" transform="translate(11.671427 9.771429)" id="Fill-15" fill="#00FFB2" fill-rule="evenodd" stroke="none" />
    <path d="M0.798407 0.00447857L0.103821 0.199907C0.0785785 0.40755 0.04845 0.611935 0.0158786 0.809807L0.798407 0.591578L0.798407 0.00447857Z" transform="translate(9.499998 9.771429)" id="Fill-17" fill="#00FFB2" fill-rule="evenodd" stroke="none" />
    <path d="M2.98571 0.771326L0.322885 0L0.0375266 0.0838044C0.028145 0.2864 0.0156361 0.48574 0 0.681013L0.323667 0.585817L2.98571 1.35714L2.98571 0.771326Z" transform="translate(14.114284 8.685715)" id="Fill-19" fill="#00FFB2" fill-rule="evenodd" stroke="none" />
    <path d="M0.747107 0.0183214L0.130693 0.19095C0.112779 0.398593 0.0916071 0.598093 0.0671785 0.795965L0.747107 0.605422L0.747107 0.0183214Z" transform="translate(11.942856 9.228572)" id="Fill-21" fill="#00FFB2" fill-rule="evenodd" stroke="none" />
    <path d="M0.969615 0.663011L0.969615 1.19297L0.969615 1.72517L0.969615 2.25513L0.969615 2.78658L0.969615 3.31728L0.969615 3.84799L0.969615 4.37944L0.969615 4.91238L0.969615 5.44457L0.969615 5.75006L0 5.75006L0 6.24286L11.6714 6.24286L11.6714 5.75006L10.7018 5.75006L10.7018 5.30186L10.7018 4.62695L10.7018 3.95205L10.7018 3.27789L10.7018 2.60819L8.14371 2.29527L7.26723 2.40304C7.19513 2.64907 7.12002 2.88172 7.04341 3.10099L8.14371 2.96497L9.92522 3.18349L8.14371 3.01923L7.03515 3.1218C6.94352 3.38195 6.84964 3.62277 6.75576 3.84576C6.64085 4.11706 6.52593 4.3616 6.41703 4.57567C6.29761 4.8098 6.18495 5.01123 6.08431 5.17847L6.08431 4.59648L6.08431 3.9082L6.08431 3.21843L6.08431 2.54873L5.47821 2.6238L6.08431 2.53014L6.08431 1.8872L5.05762 2.04552C4.99603 2.2804 4.92994 2.50487 4.86159 2.71894C4.78574 2.95902 4.70687 3.18572 4.62576 3.3983C4.53488 3.63913 4.4425 3.86286 4.35087 4.06875C4.24122 4.3118 4.13382 4.53107 4.03242 4.72284C3.9423 4.89602 3.85593 5.04765 3.77481 5.17847L3.77481 4.73993L3.77481 4.12152L3.77481 3.50311L3.77481 2.88544L3.77481 2.26776L3.77481 1.65232L3.72299 1.66199L3.77481 1.65009L3.77481 1.06141L2.93813 1.24203C2.89457 1.4561 2.84651 1.66273 2.79694 1.86193C2.74286 2.07674 2.68653 2.28263 2.6272 2.48034C2.56336 2.69515 2.49651 2.89881 2.42817 3.09281C2.35381 3.30688 2.2772 3.50905 2.1991 3.6971C2.11272 3.91117 2.0256 4.10963 1.93998 4.29025C1.83709 4.50654 1.73795 4.70054 1.64481 4.87075C1.58398 4.98299 1.52389 5.0863 1.46832 5.17773L1.46832 4.88116L1.46832 4.3341L1.46832 3.78778L1.46832 3.24073L1.46832 2.69367L1.46832 2.1481L1.46832 1.60178L1.46832 1.05472L1.46832 0.519557L1.11307 0.618414L1.46832 0.509151L1.46832 0L0.969615 0.15386L0.969615 0.663011ZM8.14371 3.71792L9.01043 3.7967L8.14371 3.74393L7.28375 3.7967L8.14371 3.71792Z" transform="translate(6.514285 10.042858)" id="Fill-23" fill="#00FFB2" fill-rule="evenodd" stroke="none" />
    <path d="M0.74955 0.0219857L0.126621 0.215786C0.108707 0.411215 0.0875357 0.6042 0.0647357 0.792301L0.74955 0.578143L0.74955 0.0219857Z" transform="translate(9.499998 9.228572)" id="Fill-25" fill="#00FFB2" fill-rule="evenodd" stroke="none" />
    <path d="M2.71429 0.821943L0.253584 0L0.0115594 0.0812567C0.0101145 0.263303 0.00577969 0.443005 0 0.620364L0.254306 0.533638L2.71429 1.35714L2.71429 0.821943Z" transform="translate(14.385713 7.871429)" id="Fill-27" fill="#00FFB2" fill-rule="evenodd" stroke="none" />
    <path d="M0.70965 0.0346071L0.142907 0.211307C0.132321 0.403478 0.120107 0.594835 0.104636 0.779678L0.70965 0.592393L0.70965 0.0346071Z" transform="translate(11.942856 8.414286)" id="Fill-29" fill="#00FFB2" fill-rule="evenodd" stroke="none" />
    <path d="M2.71429 0.870464L0.241076 0L0 0.0856194L0 0.572298L0.241802 0.48743L2.71429 1.35714L2.71429 0.870464Z" transform="translate(14.385713 7.328572)" id="Fill-31" fill="#00FFB2" fill-rule="evenodd" stroke="none" />
    <path d="M0.68685 0.445414L0.68685 0.298843L0.68685 0.0480429L0.143721 0.232886C0.143721 0.244286 0.143721 0.255686 0.142093 0.266271C0.140464 0.435643 0.134764 0.602571 0.127436 0.766243L0.68685 0.5757L0.68685 0.445414Z" transform="translate(11.942856 7.871429)" id="Fill-33" fill="#00FFB2" fill-rule="evenodd" stroke="none" />
    <path d="M0.136393 0.236957L0.136393 0.7638L0.677893 0.578143L0.677893 0.0504857L0.136393 0.236957Z" transform="translate(7.3285704 9.5)" id="Fill-35" fill="#00FFB2" fill-rule="evenodd" stroke="none" />
    <path d="M0.714128 0.0382714L0.139243 0.234514C0.129471 0.419357 0.114814 0.5985 0.100157 0.776014L0.714128 0.565114L0.714128 0.0382714Z" transform="translate(9.499998 8.685715)" id="Fill-37" fill="#00FFB2" fill-rule="evenodd" stroke="none" />
    <path d="M0.137207 0.258943L0.137207 0.6783L0.137207 0.679929L0.137207 0.757286L0.677078 0.555343L0.677078 0.057L0.137207 0.258943Z" transform="translate(11.942856 7.057143)" id="Fill-39" fill="#00FFB2" fill-rule="evenodd" stroke="none" />
    <path d="M0.136393 0.25935L0.136393 0.756878L0.677893 0.554121L0.677893 0.0574071L0.136393 0.25935Z" transform="translate(7.3285704 8.957144)" id="Fill-41" fill="#00FFB2" fill-rule="evenodd" stroke="none" />
    <path d="M2.71429 0.914895L0.241076 0L0 0.0897524L0 0.532L0.241802 0.442248L2.71429 1.35714L2.71429 0.914895Z" transform="translate(14.385713 6.514286)" id="Fill-43" fill="#00FFB2" fill-rule="evenodd" stroke="none" />
    <path d="M0.691328 0.0525215L0.1425 0.256907C0.138428 0.427907 0.131914 0.597279 0.122957 0.761765L0.691328 0.55005L0.691328 0.0525215Z" transform="translate(9.499998 8.142858)" id="Fill-45" fill="#00FFB2" fill-rule="evenodd" stroke="none" />
    <path d="M0.136393 0.282964L0.136393 0.750364L0.677893 0.531321L0.677893 0.0639214L0.136393 0.282964Z" transform="translate(7.3285704 8.414286)" id="Fill-47" fill="#00FFB2" fill-rule="evenodd" stroke="none" />
    <path d="M0.679114 0.0627L0.139243 0.282557L0.139243 0.377829C0.139243 0.504857 0.137614 0.627 0.135171 0.751586L0.679114 0.5301L0.679114 0.0627Z" transform="translate(9.499998 7.328572)" id="Fill-49" fill="#00FFB2" fill-rule="evenodd" stroke="none" />
    <path d="M2.71429 0.956217L0.241076 0L0 0.0942945L0 0.495221L0.241802 0.402323L2.71429 1.35714L2.71429 0.956217Z" transform="translate(14.385713 5.7000003)" id="Fill-51" fill="#00FFB2" fill-rule="evenodd" stroke="none" />
    <path d="M0.137207 0.282557L0.137207 0.750771L0.677078 0.531729L0.677078 0.0635143L0.137207 0.282557Z" transform="translate(11.942856 6.514286)" id="Fill-53" fill="#00FFB2" fill-rule="evenodd" stroke="none" />
    <path d="M0.137207 0.305764L0.137207 0.743036L0.677078 0.508521L0.677078 0.09405L0.677078 0.07125L0.137207 0.305764Z" transform="translate(9.499998 6.7857146)" id="Fill-55" fill="#00FFB2" fill-rule="evenodd" stroke="none" />
    <path d="M2.71429 1.1931L0.241076 0L0 0.117367L0 0.552031L0.241802 0.434663L2.71429 1.62857L2.71429 1.1931Z" transform="translate(14.385713 4.8857145)" id="Fill-57" fill="#00FFB2" fill-rule="evenodd" stroke="none" />
    <path d="M0.136393 0.306579L0.136393 0.74385L0.677893 0.507707L0.677893 0.0704357L0.136393 0.306579Z" transform="translate(7.3285704 7.871429)" id="Fill-59" fill="#00FFB2" fill-rule="evenodd" stroke="none" />
    <path d="M0.137207 0.306579L0.137207 0.74385L0.677078 0.508521L0.677078 0.0704357L0.137207 0.306579Z" transform="translate(11.942856 5.7000003)" id="Fill-61" fill="#00FFB2" fill-rule="evenodd" stroke="none" />
    <path d="M0 1.62857L2.71429 0.361421L2.71429 0.308442L2.71429 0L0 1.2657L0 1.62857Z" transform="translate(7.599999 6.2428575)" id="Fill-63" fill="#00FFB2" fill-rule="evenodd" stroke="none" />
    <path d="M2.71429 1.23709L0.241076 0L0 0.122143L0 0.197308L0 0.507363L0 0.51206L0.241802 0.391484L2.71429 1.62857L2.71429 1.23709Z" transform="translate(14.385713 4.3428574)" id="Fill-65" fill="#00FFB2" fill-rule="evenodd" stroke="none" />
    <path d="M0.137207 0.3306L0.137207 0.736929L0.677078 0.4845L0.677078 0.0773571L0.137207 0.3306Z" transform="translate(11.942856 5.157143)" id="Fill-67" fill="#00FFB2" fill-rule="evenodd" stroke="none" />
    <path d="M0.137614 0.3534L0.137614 0.7296L0.676671 0.459257L0.676671 0.0846857L0.137614 0.3534Z" transform="translate(9.499998 5.7000003)" id="Fill-69" fill="#00FFB2" fill-rule="evenodd" stroke="none" />
    <path d="M2.71429 1.27932L0.241076 0L0 0.126034L0 0.476803L0.241802 0.350769L2.71429 1.62857L2.71429 1.27932Z" transform="translate(14.385713 3.5285716)" id="Fill-71" fill="#00FFB2" fill-rule="evenodd" stroke="none" />
    <path d="M0.137207 0.354621L0.137207 0.729193L0.677078 0.459664L0.677078 0.0850929L0.137207 0.354621Z" transform="translate(11.942856 4.3428574)" id="Fill-73" fill="#00FFB2" fill-rule="evenodd" stroke="none" />
    <path d="M2.71429 1.31921L0.241076 0L0 0.129638L0 0.439L0.241802 0.310099L2.71429 1.62857L2.71429 1.31921Z" transform="translate(14.385713 2.7142859)" id="Fill-75" fill="#00FFB2" fill-rule="evenodd" stroke="none" />
    <path d="M0.137207 0.377421L0.137207 0.721864L0.677078 0.434421L0.677078 0.0924214L0.137207 0.377421Z" transform="translate(11.942856 3.8000002)" id="Fill-77" fill="#00FFB2" fill-rule="evenodd" stroke="none" />
    <path d="M0.137614 0.379864L0.137614 0.721864L0.676671 0.435236L0.676671 0.0924214L0.137614 0.379864Z" transform="translate(9.499998 4.8857145)" id="Fill-79" fill="#00FFB2" fill-rule="evenodd" stroke="none" />
    <path d="M2.71429 1.35655L0.241076 0L0 0.132433L0 0.405174L0.241802 0.272025L2.71429 1.62857L2.71429 1.35655Z" transform="translate(14.385713 2.1714287)" id="Fill-81" fill="#00FFB2" fill-rule="evenodd" stroke="none" />
    <path d="M0 1.9L2.71428 0.292603L2.71428 0.0499192L2.71428 0L0 1.60817L0 1.9Z" transform="translate(9.771427 3.257143)" id="Fill-83" fill="#00FFB2" fill-rule="evenodd" stroke="none" />
    <path d="M2.71429 1.39403L0.241076 0L0 0.137802L0 0.373736L0.241802 0.23663L2.71429 1.62857L2.71429 1.39403Z" transform="translate(14.385713 1.3571429)" id="Fill-85" fill="#00FFB2" fill-rule="evenodd" stroke="none" />
    <path d="M0.1368 0.429536L0.1368 0.704764L0.677485 0.38475L0.677485 0.109521L0.1368 0.429536Z" transform="translate(11.942856 2.4428573)" id="Fill-87" fill="#00FFB2" fill-rule="evenodd" stroke="none" />
    <path d="M0.1368 0.455186L0.1368 0.696214L0.677485 0.3591L0.677485 0.118071L0.1368 0.455186Z" transform="translate(11.942856 1.9000001)" id="Fill-89" fill="#00FFB2" fill-rule="evenodd" stroke="none" />
    <path d="M2.71429 1.66656L0.241076 0L0 0.163807L0 0.397251L0.241802 0.234236L2.71429 1.9L2.71429 1.66656Z" transform="translate(14.385713 0.54285717)" id="Fill-91" fill="#00FFB2" fill-rule="evenodd" stroke="none" />
    <g id="Group-95" transform="translate(11.942856 0)">
      <path d="M0 0L5.15714 0L5.15714 1.9L0 1.9L0 0Z" id="Clip-94" fill="none" fill-rule="evenodd" stroke="none" />
      <g clip-path="url(#mask_1)">
        <path d="M5.15714 1.69543L2.57857 0L0 1.70693L0 1.90008L2.57933 0.19315L5.15714 1.88935L5.15714 1.69543Z" transform="translate(0 -7.66469E-05)" id="Fill-93" fill="#00FFB2" fill-rule="evenodd" stroke="none" />
      </g>
    </g>
    <path d="M0.758989 0.163579C0.963479 0.163579 1.10517 0.253387 1.23154 0.38008L1.34795 0.249377C1.19784 0.101034 1.03471 0 0.761286 0C0.319373 0 0 0.366448 0 0.81629C0 1.27014 0.320139 1.62857 0.755159 1.62857C1.02781 1.62857 1.1986 1.51872 1.35714 1.35193L1.24456 1.23726C1.10057 1.3808 0.965011 1.46419 0.758989 1.46419C0.428128 1.46419 0.176919 1.17873 0.176919 0.812281C0.176919 0.44503 0.42583 0.163579 0.758989 0.163579" transform="translate(6.785713 20.085716)" id="Fill-96" fill="#00FFB2" fill-rule="evenodd" stroke="none" />
    <path d="M1.08571 1.21818L0.168081 1.21818L0.168081 0.743214L0.979717 0.743214L0.979717 0.602868L0.168081 0.602868L0.168081 0.139655L1.07511 0.139655L1.07511 0L0 0L0 1.35714L1.08571 1.35714L1.08571 1.21818Z" transform="translate(8.414284 20.085716)" id="Fill-98" fill="#00FFB2" fill-rule="evenodd" stroke="none" />
    <path d="M1.03958 0.405138C1.03958 0.160396 0.85373 0 0.564251 0L0 0L0 1.35714L0.148417 1.35714L0.148417 0.830326L0.523469 0.830326L0.903871 1.35714L1.08571 1.35714L0.682583 0.803362C0.889163 0.763955 1.03958 0.632596 1.03958 0.405138M0.551548 0.692053L0.148417 0.692053L0.148417 0.141729L0.553554 0.141729C0.766151 0.141729 0.889163 0.242668 0.889163 0.410669C0.889163 0.587658 0.7481 0.692053 0.551548 0.692053" transform="translate(9.771427 20.085716)" id="Fill-100" fill="#00FFB2" fill-rule="evenodd" stroke="none" />
    <path d="M0.62242 1.35714L0.62242 0.141729L1.08571 0.141729L1.08571 0L0 0L0 0.141729L0.463999 0.141729L0.463999 1.35714L0.62242 1.35714Z" transform="translate(11.128571 20.085716)" id="Fill-102" fill="#00FFB2" fill-rule="evenodd" stroke="none" />
    <path d="M0 30.9429L24.4286 30.9429L24.4286 0L0 0L0 30.9429Z" id="Clip-105" fill="none" fill-rule="evenodd" stroke="none" />
    <g clip-path="url(#mask_2)">
      <path d="M0.317571 1.35714L0.496714 1.35714L0.496714 0L0.317571 0L0.317571 1.35714Z" transform="translate(12.214285 20.085716)" id="Fill-104" fill="#00FFB2" fill-rule="evenodd" stroke="none" />
      <path d="M0 1.35714L0.170052 1.35714L0.170052 0.766029L0.988762 0.766029L0.988762 0.627065L0.170052 0.627065L0.170052 0.141729L1.08571 0.141729L1.08571 0L0 0L0 1.35714Z" transform="translate(13.299999 20.085716)" id="Fill-106" fill="#00FFB2" fill-rule="evenodd" stroke="none" />
      <path d="M0.317164 1.35714L0.497121 1.35714L0.497121 0L0.317164 0L0.317164 1.35714Z" transform="translate(14.114284 20.085716)" id="Fill-107" fill="#00FFB2" fill-rule="evenodd" stroke="none" />
      <path d="M0 1.35714L1.08571 1.35714L1.08571 1.21818L0.167441 1.21818L0.167441 0.743214L0.9804 0.743214L0.9804 0.602868L0.167441 0.602868L0.167441 0.139655L1.07586 0.139655L1.07586 0L0 0L0 1.35714Z" transform="translate(15.199998 20.085716)" id="Fill-108" fill="#00FFB2" fill-rule="evenodd" stroke="none" />
      <path d="M0 0L0 1.35714L0.536563 1.35714C1.02199 1.35714 1.35714 1.06124 1.35714 0.676843C1.35714 0.292446 1.02199 0 0.536563 0L0 0ZM1.17619 0.6803C1.17619 0.983117 0.926791 1.21611 0.536563 1.21611L0.173872 1.21611L0.173872 0.141729L0.536563 0.141729C0.926791 0.141729 1.17619 0.378866 1.17619 0.6803L1.17619 0.6803Z" transform="translate(16.55714 20.085716)" id="Fill-109" fill="#00FFB2" fill-rule="evenodd" stroke="none" />
      <path d="M0 0.00647543L0.665553 0.00647543L1.06108 1.24976L1.49997 0L2.04154 0L2.48042 1.24976L2.87595 0.00647543L3.52857 0.00647543L2.76946 2.17143L2.22028 2.17143L1.76238 0.933901L1.30829 2.17143L0.759871 2.17143L0 0.00647543Z" transform="translate(6.514285 17.1)" id="Fill-110" fill="#00FFB2" fill-rule="evenodd" stroke="none" />
      <path d="M0.0684 2.17143L0.745886 2.17143L0.745886 0L0.0684 0L0.0684 2.17143Z" transform="translate(10.314284 17.1)" id="Fill-111" fill="#00FFB2" fill-rule="evenodd" stroke="none" />
      <path d="M0 0L1.11612 0C1.47632 0 1.72593 0.0864793 1.8847 0.235456C2.02293 0.359725 2.09402 0.527596 2.09402 0.741251L2.09402 0.747791C2.09402 1.07917 1.90128 1.29937 1.60823 1.41419L2.17143 2.17143L1.41629 2.17143L0.940768 1.51375L0.654035 1.51375L0.654035 2.17143L0 2.17143L0 0ZM1.08532 1.04211C1.30807 1.04211 1.43603 0.942551 1.43603 0.784854L1.43603 0.778313C1.43603 0.608262 1.30096 0.521056 1.08216 0.521056L0.654035 0.521056L0.654035 1.04211L1.08532 1.04211Z" transform="translate(11.399999 17.1)" id="Fill-112" fill="#00FFB2" fill-rule="evenodd" stroke="none" />
      <path d="M0 0L1.88354 0L1.88354 0.511608L0.641956 0.511608L0.641956 0.840811L1.76675 0.840811L1.76675 1.31536L0.641956 1.31536L0.641956 1.65909L1.9 1.65909L1.9 2.17143L0 2.17143L0 0Z" transform="translate(13.571426 17.1)" id="Fill-113" fill="#00FFB2" fill-rule="evenodd" stroke="none" />
      <path d="M0 0L0.881426 0C1.69782 0 2.17143 0.446204 2.17143 1.07336L2.17143 1.07917C2.17143 1.7056 1.69169 2.17143 0.868418 2.17143L0 2.17143L0 0ZM0.891372 1.63729C1.27011 1.63729 1.52184 1.4389 1.52184 1.08862L1.52184 1.08281C1.52184 0.73471 1.27011 0.53341 0.891372 0.53341L0.633525 0.53341L0.633525 1.63729L0.891372 1.63729Z" transform="translate(15.742855 17.1)" id="Fill-114" fill="#00FFB2" fill-rule="evenodd" stroke="none" />
      <path d="M0 0.677893L11.6714 0.677893L11.6714 0.136393L0 0.136393L0 0.677893Z" transform="translate(6.514285 22.257145)" id="Fill-115" fill="#00FFB2" fill-rule="evenodd" stroke="none" />
      <path d="M18.0656 0L18.0656 1.24184C21.2328 3.19651 23.3488 6.68219 23.3488 10.6543C23.3488 16.7597 18.3534 21.727 12.2143 21.727C6.07446 21.727 1.07979 16.7597 1.07979 10.6543C1.07979 6.68219 3.19503 3.19651 6.36225 1.24259L6.36225 0.000747198C2.57511 2.06526 0 6.06501 0 10.6543C0 17.3514 5.48008 22.8 12.2143 22.8C18.95 22.8 24.4286 17.3514 24.4286 10.6543C24.4286 6.06501 21.8535 2.06526 18.0656 0" transform="translate(0 8.142858)" id="Fill-116" fill="#00FFB2" fill-rule="evenodd" stroke="none" />
      <path d="M15.9926 0L15.9926 0.659768C18.3167 2.41518 19.8211 5.19409 19.8211 8.31665C19.8211 13.6134 15.4954 17.9231 10.1782 17.9231C4.86251 17.9231 0.536048 13.6134 0.536048 8.31665C0.536048 5.19409 2.04042 2.41518 4.36454 0.659768L4.36454 0C1.72834 1.83426 0 4.87723 0 8.31665C0 13.9079 4.56612 18.4571 10.1782 18.4571C15.791 18.4571 20.3571 13.9079 20.3571 8.31665C20.3571 4.87723 18.6288 1.83352 15.9926 0" transform="translate(2.1714282 10.314286)" id="Fill-117" fill="#00FFB2" fill-rule="evenodd" stroke="none" />
      <path d="M0 0L0.550852 0C0.876246 0 1.08571 0.141116 1.08571 0.381485L1.08571 0.384861C1.08571 0.640761 0.852261 0.7758 0.532463 0.7758L0.356575 0.7758L0.356575 1.08571L0 1.08571L0 0ZM0.525268 0.540156C0.652388 0.540156 0.729139 0.484115 0.729139 0.399041L0.729139 0.395665C0.729139 0.302488 0.652388 0.252523 0.523669 0.252523L0.356575 0.252523L0.356575 0.540156L0.525268 0.540156Z" transform="translate(7.599999 24.157145)" id="Fill-118" fill="#00FFB2" fill-rule="evenodd" stroke="none" />
      <path d="M0 0L0.296466 0L0.296466 0.822388L0.814285 0.822388L0.814285 1.08571L0 1.08571L0 0Z" transform="translate(8.957142 24.157145)" id="Fill-119" fill="#00FFB2" fill-rule="evenodd" stroke="none" />
      <path d="M0.516756 0L0.841142 0L1.35714 1.08571L0.996546 1.08571L0.908283 0.893369L0.440562 0.893369L0.353808 1.08571L0 1.08571L0.516756 0ZM0.811721 0.660811L0.675931 0.354533L0.539387 0.660811L0.811721 0.660811Z" transform="translate(9.771427 24.157145)" id="Fill-120" fill="#00FFB2" fill-rule="evenodd" stroke="none" />
      <path d="M0.371651 0.263837L0 0.263837L0 0L1.08571 0L1.08571 0.263837L0.714832 0.263837L0.714832 1.08571L0.371651 1.08571L0.371651 0.263837Z" transform="translate(11.128571 24.157145)" id="Fill-121" fill="#00FFB2" fill-rule="evenodd" stroke="none" />
      <path d="M0.224743 1.08571L0.589543 1.08571L0.589543 0L0.224743 0L0.224743 1.08571Z" transform="translate(11.942856 24.157145)" id="Fill-122" fill="#00FFB2" fill-rule="evenodd" stroke="none" />
      <path d="M0 0L0.297338 0L0.770507 0.573916L0.770507 0L1.08571 0L1.08571 1.08571L0.806245 1.08571L0.315207 0.490192L0.315207 1.08571L0 1.08571L0 0Z" transform="translate(12.757141 24.157145)" id="Fill-123" fill="#00FFB2" fill-rule="evenodd" stroke="none" />
      <path d="M0 0.748169L0 0L0.328324 0L0.328324 0.740712C0.328324 0.932933 0.413122 1.02407 0.542857 1.02407C0.672592 1.02407 0.757391 0.936247 0.757391 0.749826L0.757391 0L1.08571 0L1.08571 0.738226C1.08571 1.16907 0.871181 1.35714 0.539233 1.35714C0.208011 1.35714 0 1.16492 0 0.748169" transform="translate(14.114284 23.885715)" id="Fill-124" fill="#00FFB2" fill-rule="evenodd" stroke="none" />
      <path d="M0 0L0.374028 0L0.678968 0.420647L0.983114 0L1.35714 0L1.35714 1.08571L1.00535 1.08571L1.00535 0.462509L0.678968 0.887207L0.671821 0.887207L0.347028 0.46521L0.347028 1.08571L0 1.08571L0 0Z" transform="translate(15.471427 24.157145)" id="Fill-125" fill="#00FFB2" fill-rule="evenodd" stroke="none" />
    </g>
  </g>
</svg>
