<?xml version="1.0" encoding="utf-8"?>
<svg width="22px" height="34px" viewBox="0 0 22 34" version="1.1" xmlns:xlink="http://www.w3.org/1999/xlink" xmlns="http://www.w3.org/2000/svg">
  <defs>
    <filter id="filter_1">
      <feColorMatrix in="SourceGraphic" type="matrix" values="0 0 0 0 0.30588236 0 0 0 0 0.34509805 0 0 0 0 0.972549 0 0 0 1 0" />
    </filter>
  </defs>
  <g id="Group-17" filter="url(#filter_1)">
    <path d="M20.6806 0L1.03369 0C0.462597 0 0 0.470606 0 1.0515L0 31.5542C0 32.135 0.462597 32.6056 1.03369 32.6056L1.80917 32.6056L1.80917 33.1318C1.80917 33.4223 2.04131 33.6571 2.32644 33.6571C2.61241 33.6571 2.84371 33.4223 2.84371 33.1318L2.84371 32.6056L18.8714 32.6056L18.8714 33.1318C18.8714 33.4223 19.1027 33.6571 19.3878 33.6571C19.6738 33.6571 19.9051 33.4223 19.9051 33.1318L19.9051 32.6056L20.6806 32.6056C21.2517 32.6056 21.7143 32.135 21.7143 31.5542L21.7143 1.0515C21.7143 0.470606 21.2517 0 20.6806 0L20.6806 0ZM1.03369 24.1911L20.6806 24.1911L20.6806 1.0515L1.03369 1.0515L1.03369 24.1911ZM1.03369 31.5541L20.6806 31.5541L20.6806 25.2435L1.03369 25.2435L1.03369 31.5541Z" id="Fill-1" fill="#00FFB2" fill-rule="evenodd" stroke="none" />
    <path d="M1.04363 20.0857L12.5269 20.0857C13.1035 20.0857 13.5714 19.6127 13.5714 19.0289L13.5714 1.05768C13.5714 0.473839 13.1035 0 12.5269 0L1.04363 0C0.467043 0 0 0.473839 0 1.05768L0 19.0289C0 19.6127 0.467043 20.0857 1.04363 20.0857L1.04363 20.0857ZM12.5269 4.22902L12.5269 6.34268L11.4833 6.34268L11.4833 5.81469C11.4833 5.52277 11.2498 5.28585 10.9611 5.28585C10.6732 5.28585 10.4397 5.52277 10.4397 5.81469L10.4397 6.34268L9.39521 6.34268L9.39521 5.81469C9.39521 5.52277 9.16169 5.28585 8.87382 5.28585C8.5851 5.28585 8.35158 5.52277 8.35158 5.81469L8.35158 6.34268L7.3071 6.34268L7.3071 5.81469C7.3071 5.52277 7.07358 5.28585 6.78571 5.28585C6.49699 5.28585 6.26347 5.52277 6.26347 5.81469L6.26347 6.34268L3.13174 6.34268L3.13174 5.81469C3.13174 5.52277 2.89821 5.28585 2.6095 5.28585C2.32163 5.28585 2.08726 5.52277 2.08726 5.81469L2.08726 6.34268L1.04363 6.34268L1.04363 4.22902L12.5269 4.22902ZM10.9611 14.7999C10.6732 14.7999 10.4397 15.0368 10.4397 15.3287L10.4397 15.8575L9.39521 15.8575L9.39521 15.3287C9.39521 15.0368 9.16169 14.7999 8.87382 14.7999C8.5851 14.7999 8.35158 15.0368 8.35158 15.3287L8.35158 15.8575L7.3071 15.8575L7.3071 15.3287C7.3071 15.0368 7.07358 14.7999 6.78571 14.7999C6.49699 14.7999 6.26347 15.0368 6.26347 15.3287L6.26347 15.8575L5.21984 15.8575L5.21984 15.3287C5.21984 15.0368 4.98547 14.7999 4.6976 14.7999C4.40889 14.7999 4.17537 15.0368 4.17537 15.3287L4.17537 15.8575L3.13174 15.8575L3.13174 15.3287C3.13174 15.0368 2.89821 14.7999 2.6095 14.7999C2.32163 14.7999 2.08726 15.0368 2.08726 15.3287L2.08726 15.8575L1.04363 15.8575L1.04363 13.743L12.5269 13.743L12.5269 15.8575L11.4833 15.8575L11.4833 15.3287C11.4833 15.0368 11.2498 14.7999 10.9611 14.7999L10.9611 14.7999ZM12.5269 7.40036L12.5269 9.51402L11.4833 9.51402L11.4833 8.98603C11.4833 8.69411 11.2498 8.45719 10.9611 8.45719C10.6732 8.45719 10.4397 8.69411 10.4397 8.98603L10.4397 9.51402L9.39521 9.51402L9.39521 8.98603C9.39521 8.69411 9.16169 8.45719 8.87382 8.45719C8.5851 8.45719 8.35158 8.69411 8.35158 8.98603L8.35158 9.51402L7.3071 9.51402L7.3071 8.98603C7.3071 8.69411 7.07358 8.45719 6.78571 8.45719C6.49699 8.45719 6.26347 8.69411 6.26347 8.98603L6.26347 9.51402L5.21984 9.51402L5.21984 8.98603C5.21984 8.69411 4.98547 8.45719 4.6976 8.45719C4.40889 8.45719 4.17537 8.69411 4.17537 8.98603L4.17537 9.51402L3.13174 9.51402L3.13174 8.98603C3.13174 8.69411 2.89821 8.45719 2.6095 8.45719C2.32163 8.45719 2.08726 8.69411 2.08726 8.98603L2.08726 9.51402L1.04363 9.51402L1.04363 7.40036L12.5269 7.40036ZM12.5269 10.5717L12.5269 12.6862L11.4833 12.6862L11.4833 12.1574C11.4833 11.8654 11.2498 11.6285 10.9611 11.6285C10.6732 11.6285 10.4397 11.8654 10.4397 12.1574L10.4397 12.6862L7.3071 12.6862L7.3071 12.1574C7.3071 11.8654 7.07358 11.6285 6.78571 11.6285C6.49699 11.6285 6.26347 11.8654 6.26347 12.1574L6.26347 12.6862L5.21984 12.6862L5.21984 12.1574C5.21984 11.8654 4.98547 11.6285 4.6976 11.6285C4.40889 11.6285 4.17537 11.8654 4.17537 12.1574L4.17537 12.6862L3.13174 12.6862L3.13174 12.1574C3.13174 11.8654 2.89821 11.6285 2.6095 11.6285C2.32163 11.6285 2.08726 11.8654 2.08726 12.1574L2.08726 12.6862L1.04363 12.6862L1.04363 10.5717L12.5269 10.5717ZM11.4833 19.0289L11.4833 18.5C11.4833 18.2081 11.2498 17.9712 10.9611 17.9712C10.6732 17.9712 10.4397 18.2081 10.4397 18.5L10.4397 19.0289L9.39521 19.0289L9.39521 18.5C9.39521 18.2081 9.16169 17.9712 8.87382 17.9712C8.5851 17.9712 8.35158 18.2081 8.35158 18.5L8.35158 19.0289L7.3071 19.0289L7.3071 18.5C7.3071 18.2081 7.07358 17.9712 6.78571 17.9712C6.49699 17.9712 6.26347 18.2081 6.26347 18.5L6.26347 19.0289L3.13174 19.0289L3.13174 18.5C3.13174 18.2081 2.89821 17.9712 2.6095 17.9712C2.32163 17.9712 2.08726 18.2081 2.08726 18.5L2.08726 19.0289L1.04363 19.0289L1.04363 16.9144L12.5269 16.9144L12.5269 19.0289L11.4833 19.0289ZM12.5269 1.05768L12.5269 3.17134L11.4833 3.17134L11.4833 2.64335C11.4833 2.35143 11.2498 2.11451 10.9611 2.11451C10.6732 2.11451 10.4397 2.35143 10.4397 2.64335L10.4397 3.17134L9.39521 3.17134L9.39521 2.64335C9.39521 2.35143 9.16169 2.11451 8.87382 2.11451C8.5851 2.11451 8.35158 2.35143 8.35158 2.64335L8.35158 3.17134L7.3071 3.17134L7.3071 2.64335C7.3071 2.35143 7.07358 2.11451 6.78571 2.11451C6.49699 2.11451 6.26347 2.35143 6.26347 2.64335L6.26347 3.17134L5.21984 3.17134L5.21984 2.64335C5.21984 2.35143 4.98547 2.11451 4.6976 2.11451C4.40889 2.11451 4.17537 2.35143 4.17537 2.64335L4.17537 3.17134L3.13174 3.17134L3.13174 2.64335C3.13174 2.35143 2.89821 2.11451 2.6095 2.11451C2.32163 2.11451 2.08726 2.35143 2.08726 2.64335L2.08726 3.17134L1.04363 3.17134L1.04363 1.05768L12.5269 1.05768Z" transform="translate(2.4428568 2.442857)" id="Fill-3" fill="#00FFB2" fill-rule="evenodd" stroke="none" />
    <path d="M0.543152 1.08571L1.0863 1.08571C1.3857 1.08571 1.62857 0.84232 1.62857 0.542423C1.62857 0.242525 1.3857 0 1.0863 0L0.543152 0C0.243756 0 0 0.242525 0 0.542423C0 0.84232 0.243756 1.08571 0.543152 1.08571" transform="translate(17.642855 8.142857)" id="Fill-5" fill="#00FFB2" fill-rule="evenodd" stroke="none" />
    <path d="M0.543152 1.08571L1.0863 1.08571C1.3857 1.08571 1.62857 0.84232 1.62857 0.542423C1.62857 0.242525 1.3857 0 1.0863 0L0.543152 0C0.243756 0 0 0.242525 0 0.542423C0 0.84232 0.243756 1.08571 0.543152 1.08571" transform="translate(17.642855 10.314285)" id="Fill-7" fill="#00FFB2" fill-rule="evenodd" stroke="none" />
    <path d="M0.543152 1.08571L1.0863 1.08571C1.3857 1.08571 1.62857 0.84232 1.62857 0.542423C1.62857 0.242525 1.3857 0 1.0863 0L0.543152 0C0.243756 0 0 0.242525 0 0.542423C0 0.84232 0.243756 1.08571 0.543152 1.08571" transform="translate(17.642855 17.642857)" id="Fill-9" fill="#00FFB2" fill-rule="evenodd" stroke="none" />
    <path d="M1.62835 0L0.543078 0C0.24284 0 0 0.243395 0 0.543292C0 0.843189 0.24284 1.08571 0.543078 1.08571L1.62835 1.08571C1.92771 1.08571 2.17143 0.843189 2.17143 0.543292C2.17143 0.243395 1.92771 0 1.62835 0" transform="translate(13.8428545 27.957142)" id="Fill-11" fill="#00FFB2" fill-rule="evenodd" stroke="none" />
    <path d="M2.48783 0L0.497079 0C0.222633 0 0 0.24333 0 0.543147L0 2.714C0 3.01381 0.222633 3.25714 0.497079 3.25714L2.48783 3.25714C2.76227 3.25714 2.98571 3.01381 2.98571 2.714L2.98571 0.543147C2.98571 0.24333 2.76227 0 2.48783 0L2.48783 0ZM0.994968 2.17172L1.98994 2.17172L1.98994 1.08629L0.994968 1.08629L0.994968 2.17172Z" transform="translate(2.7142854 26.871428)" id="Fill-13" fill="#00FFB2" fill-rule="evenodd" stroke="none" />
    <path d="M2.48783 0L0.497079 0C0.222633 0 0 0.24333 0 0.543147L0 2.714C0 3.01381 0.222633 3.25714 0.497079 3.25714L2.48783 3.25714C2.76227 3.25714 2.98571 3.01381 2.98571 2.714L2.98571 0.543147C2.98571 0.24333 2.76227 0 2.48783 0L2.48783 0ZM0.994968 2.17172L1.98994 2.17172L1.98994 1.08629L0.994968 1.08629L0.994968 2.17172Z" transform="translate(6.785713 26.871428)" id="Fill-15" fill="#00FFB2" fill-rule="evenodd" stroke="none" />
  </g>
</svg>
