<?xml version="1.0" encoding="utf-8"?>
<svg width="28px" height="28px" viewBox="0 0 28 28" version="1.1" xmlns:xlink="http://www.w3.org/1999/xlink" xmlns="http://www.w3.org/2000/svg">
  <defs>
    <filter id="filter_1">
      <feColorMatrix in="SourceGraphic" type="matrix" values="0 0 0 0 0.30588236 0 0 0 0 0.34509805 0 0 0 0 0.972549 0 0 0 1 0" />
    </filter>
  </defs>
  <g id="Group-17" transform="translate(0.125 0.125)" filter="url(#filter_1)">
    <path d="M2.71429 5.42857C1.21526 5.42857 0 4.21331 0 2.71429C0 1.21526 1.21526 0 2.71429 0C4.21331 0 5.42857 1.21526 5.42857 2.71429C5.42857 4.21331 4.21331 5.42857 2.71429 5.42857M2.71429 1.80923C2.21461 1.80923 1.80923 2.21461 1.80923 2.71429C1.80923 3.21396 2.21461 3.61934 2.71429 3.61934C3.21396 3.61934 3.61934 3.21396 3.61934 2.71429C3.61934 2.21461 3.21396 1.80923 2.71429 1.80923" transform="translate(11.12857 22.257145)" id="Fill-1" fill="#00FFB2" fill-rule="evenodd" stroke="none" />
    <path d="M2.71429 5.42857C1.21526 5.42857 0 4.21331 0 2.71429C0 1.21526 1.21526 0 2.71429 0C4.21331 0 5.42857 1.21526 5.42857 2.71429C5.42857 4.21331 4.21331 5.42857 2.71429 5.42857ZM2.71429 1.80923C2.21461 1.80923 1.80923 2.21461 1.80923 2.71429C1.80923 3.21396 2.21461 3.61934 2.71429 3.61934C3.21396 3.61934 3.61934 3.21396 3.61934 2.71429C3.61934 2.21461 3.21396 1.80923 2.71429 1.80923Z" transform="translate(11.12857 22.257145)" id="Stroke-3" fill="none" fill-rule="evenodd" stroke="#FFFFFF" stroke-width="0.25" />
    <path d="M27.484 5.32904C27.1963 5.7138 26.6604 5.81425 26.2531 5.55954C18.7191 0.603376 8.94805 0.603376 1.41407 5.55954C1.00586 5.81425 0.470862 5.7138 0.183134 5.32904L0.167848 5.31021C-0.125275 4.89405 -0.02457 4.32005 0.392636 4.02767C0.398031 4.02318 0.404325 4.0196 0.410619 4.01511C8.56142 -1.33837 19.1246 -1.33837 27.2745 4.01511C27.6989 4.29763 27.8131 4.86894 27.5308 5.29227C27.5263 5.29855 27.5218 5.30482 27.5182 5.31021L27.484 5.32904Z" id="Fill-5" fill="#00FFB2" fill-rule="evenodd" stroke="none" />
    <path d="M27.484 5.32904C27.1963 5.7138 26.6604 5.81425 26.2531 5.55954C18.7191 0.603376 8.94805 0.603376 1.41407 5.55954C1.00586 5.81425 0.470862 5.7138 0.183134 5.32904L0.167848 5.31021C-0.125275 4.89405 -0.02457 4.32005 0.392636 4.02767C0.398031 4.02318 0.404325 4.0196 0.410619 4.01511C8.56142 -1.33837 19.1246 -1.33837 27.2745 4.01511C27.6989 4.29763 27.8131 4.86894 27.5308 5.29227C27.5263 5.29855 27.5218 5.30482 27.5182 5.31021L27.484 5.32904Z" id="Stroke-7" fill="none" fill-rule="evenodd" stroke="#FFFFFF" stroke-width="0.25" />
    <path d="M19.0725 3.97159C18.7852 4.35606 18.2483 4.45686 17.8393 4.20352C12.8254 1.04034 6.41527 1.04034 1.40137 4.20352C0.992399 4.45686 0.455516 4.35606 0.168158 3.97159L0.168158 3.95018C-0.125506 3.53628 -0.0246154 2.96537 0.39336 2.67456C0.399666 2.6701 0.405972 2.66564 0.411376 2.66208C6.03873 -0.887359 13.2326 -0.887359 18.86 2.66208C19.2842 2.94218 19.3995 3.5113 19.1158 3.93234C19.1122 3.93859 19.1077 3.94394 19.1032 3.95018L19.0725 3.97159Z" transform="translate(4.342856 7.6000004)" id="Fill-9" fill="#00FFB2" fill-rule="evenodd" stroke="none" />
    <path d="M19.0725 3.97159C18.7852 4.35606 18.2483 4.45686 17.8393 4.20352C12.8254 1.04034 6.41527 1.04034 1.40137 4.20352C0.992399 4.45686 0.455516 4.35606 0.168158 3.97159L0.168158 3.95018C-0.125506 3.53628 -0.0246154 2.96537 0.39336 2.67456C0.399666 2.6701 0.405972 2.66564 0.411376 2.66208C6.03873 -0.887359 13.2326 -0.887359 18.86 2.66208C19.2842 2.94218 19.3995 3.5113 19.1158 3.93234C19.1122 3.93859 19.1077 3.94394 19.1032 3.95018L19.0725 3.97159Z" transform="translate(4.342856 7.6000004)" id="Stroke-11" fill="none" fill-rule="evenodd" stroke="#FFFFFF" stroke-width="0.25" />
    <path d="M10.6687 2.61004C10.3851 2.994 9.84577 3.09992 9.43205 2.8519C6.94158 1.4617 3.88472 1.4617 1.39425 2.8519C0.98053 3.09992 0.442148 2.994 0.1576 2.61004L0.1576 2.59151C-0.127851 2.17666 -0.0149352 1.61351 0.410531 1.33459C0.434921 1.3187 0.459311 1.3037 0.485507 1.28958C3.55682 -0.429859 7.33091 -0.429859 10.4031 1.28958C10.843 1.54555 10.9885 2.10163 10.7274 2.53149C10.7148 2.55267 10.7012 2.57209 10.6877 2.59151L10.6687 2.61004Z" transform="translate(8.414283 14.928572)" id="Fill-13" fill="#00FFB2" fill-rule="evenodd" stroke="none" />
    <path d="M10.6687 2.61004C10.3851 2.994 9.84577 3.09992 9.43205 2.8519C6.94158 1.4617 3.88472 1.4617 1.39425 2.8519C0.98053 3.09992 0.442148 2.994 0.1576 2.61004L0.1576 2.59151C-0.127851 2.17666 -0.0149352 1.61351 0.410531 1.33459C0.434921 1.3187 0.459311 1.3037 0.485507 1.28958C3.55682 -0.429859 7.33091 -0.429859 10.4031 1.28958C10.843 1.54555 10.9885 2.10163 10.7274 2.53149C10.7148 2.55267 10.7012 2.57209 10.6877 2.59151L10.6687 2.61004Z" transform="translate(8.414283 14.928572)" id="Stroke-15" fill="none" fill-rule="evenodd" stroke="#FFFFFF" stroke-width="0.25" />
  </g>
</svg>
