<?xml version="1.0" encoding="utf-8"?>
<svg width="30px" height="18px" viewBox="0 0 30 18" version="1.1" xmlns:xlink="http://www.w3.org/1999/xlink" xmlns="http://www.w3.org/2000/svg">
  <defs>
    <filter id="filter_1">
      <feColorMatrix in="SourceGraphic" type="matrix" values="0 0 0 0 0 0 0 0 0 0.98039216 0 0 0 0 0.5137255 0 0 0 1 0" />
    </filter>
    <path d="M0 0L29.8571 0L29.8571 17.6429L0 17.6429L0 0Z" id="path_1" />
    <clipPath id="mask_1">
      <use xlink:href="#path_1" />
    </clipPath>
  </defs>
  <g id="Group-3" filter="url(#filter_1)">
    <path d="M0 0L29.8571 0L29.8571 17.6429L0 17.6429L0 0Z" id="Clip-2" fill="none" fill-rule="evenodd" stroke="none" />
    <g clip-path="url(#mask_1)">
      <path d="M24.1435 6.22614C23.6128 6.22614 23.1005 6.30451 22.613 6.44045L20.8752 1.91518L24.2811 1.91518C24.8359 1.91518 25.2865 2.36539 25.2865 2.91955C25.2865 3.47292 24.8359 3.92312 24.2811 3.92312C23.9826 3.92312 23.7408 4.16542 23.7408 4.46369C23.7408 4.76197 23.9826 5.00346 24.2811 5.00346C25.4314 5.00346 26.3679 4.06866 26.3679 2.91875C26.3679 1.76964 25.4322 0.834843 24.2811 0.834843L20.1099 0.834843L20.1043 0.834843L20.0891 0.834843C20.0795 0.834843 20.0699 0.837242 20.0603 0.837242C20.0371 0.838841 20.0131 0.840441 19.9899 0.844439C19.9707 0.848437 19.9523 0.854835 19.933 0.860432C19.9202 0.863631 19.9082 0.86603 19.8954 0.870028C19.893 0.871628 19.8914 0.873227 19.889 0.874026C19.8682 0.882023 19.849 0.893218 19.829 0.903614C19.817 0.910811 19.8042 0.916408 19.793 0.923605C19.777 0.934801 19.7633 0.946795 19.7481 0.95879C19.7353 0.969186 19.7217 0.978782 19.7105 0.989977C19.6977 1.00197 19.6873 1.01637 19.6761 1.02996C19.6657 1.04275 19.6537 1.05555 19.6441 1.06914C19.6337 1.08434 19.6257 1.10113 19.6169 1.11792C19.6089 1.13152 19.6001 1.14511 19.5945 1.1587C19.5872 1.1755 19.5824 1.19229 19.5776 1.20908C19.572 1.22588 19.5656 1.24267 19.5616 1.25946C19.5584 1.27386 19.5576 1.28905 19.556 1.30344C19.5528 1.32423 19.5496 1.34503 19.5496 1.36582C19.5496 1.36901 19.5488 1.37141 19.5488 1.37461C19.5488 1.38741 19.552 1.4002 19.5528 1.413C19.5536 1.43299 19.5552 1.45298 19.5584 1.47297C19.5624 1.49296 19.5688 1.51295 19.5752 1.53215C19.5784 1.54414 19.58 1.55614 19.5848 1.56813L20.4205 3.7448L11.5955 3.90953L10.7005 1.07954L12.528 1.07954C12.8266 1.07954 13.0683 0.838042 13.0683 0.539769C13.0683 0.241497 12.8266 0 12.528 0L8.37121 0C8.07264 0 7.8309 0.242296 7.8309 0.539769C7.8309 0.838042 8.07264 1.07954 8.37121 1.07954L9.56629 1.07954L10.5749 4.26778L8.62255 6.94503C7.76926 6.43725 6.77669 6.14058 5.71368 6.14058C2.56307 6.14138 0 8.70188 0 11.8501C0 14.9976 2.56307 17.5581 5.71368 17.5581C8.68178 17.5581 11.1272 15.2855 11.4001 12.3899L11.9373 12.3899C12.0365 12.7186 12.2366 13.0008 12.5064 13.2008L12.1918 14.2555C12.107 14.541 12.2694 14.8417 12.556 14.9272C12.6072 14.9424 12.6593 14.9496 12.7105 14.9496C12.9434 14.9496 13.158 14.7977 13.2284 14.5634L13.543 13.507C14.3707 13.4566 15.0302 12.7737 15.0302 11.9349C15.0302 11.7102 14.9814 11.4967 14.8966 11.3032L20.9392 5.09622L21.6044 6.82828C19.7265 7.76468 18.4298 9.69905 18.4298 11.9349C18.4298 15.0824 20.9937 17.6429 24.1443 17.6429C27.2949 17.6429 29.8571 15.0824 29.8571 11.9349C29.8571 8.78745 27.2941 6.22614 24.1435 6.22614L24.1435 6.22614ZM10.9799 5.54803L12.5808 10.6115C12.3223 10.7818 12.1158 11.0233 11.9917 11.3096L11.4001 11.3096C11.2609 9.8294 10.5509 8.51636 9.49585 7.58236L10.9799 5.54803ZM10.3123 11.3104L6.77669 11.3104L8.85629 8.45879C9.64554 9.18967 10.181 10.1876 10.3123 11.3104L10.3123 11.3104ZM5.71368 16.4786C3.15941 16.4786 1.08142 14.4026 1.08142 11.8501C1.08142 9.29763 3.15941 7.22171 5.71368 7.22171C6.53895 7.22171 7.313 7.44082 7.98458 7.81986L5.27743 11.5319C5.15736 11.6966 5.13975 11.9133 5.2326 12.0948C5.32466 12.2756 5.51036 12.3899 5.71368 12.3899L10.3123 12.3899C10.0434 14.6881 8.08544 16.4786 5.71368 16.4786L5.71368 16.4786ZM13.4461 12.4363C13.1692 12.4363 12.9434 12.2116 12.9434 11.9341C12.9434 11.6574 13.1692 11.4319 13.4461 11.4319C13.7239 11.4319 13.9496 11.6574 13.9496 11.9341C13.9496 12.2116 13.7239 12.4363 13.4461 12.4363L13.4461 12.4363ZM14.5556 10.1037L14.702 9.61349C14.7869 9.32721 14.6244 9.02734 14.3378 8.94178C14.0521 8.85542 13.7511 9.01935 13.6654 9.30562L13.4885 9.89897L11.9349 4.98427L19.6801 4.83953L14.5556 10.1037ZM24.1435 16.5625C21.5892 16.5625 19.5104 14.4866 19.5104 11.9341C19.5104 10.1581 20.519 8.61472 21.9918 7.83905L23.6384 12.1276C23.7208 12.3419 23.9257 12.4739 24.1435 12.4739C24.2075 12.4739 24.2731 12.4627 24.3372 12.4379C24.6157 12.3315 24.755 12.0189 24.6478 11.7406L23.002 7.45361C23.3678 7.36085 23.7488 7.30568 24.1435 7.30568C26.6977 7.30568 28.7765 9.38159 28.7765 11.9341C28.7765 14.4866 26.6977 16.5625 24.1435 16.5625L24.1435 16.5625Z" id="Fill-1" fill="#00FFB2" fill-rule="evenodd" stroke="none" />
    </g>
  </g>
</svg>
