<?xml version="1.0" encoding="utf-8"?>
<svg width="25px" height="25px" viewBox="0 0 25 25" version="1.1" xmlns:xlink="http://www.w3.org/1999/xlink" xmlns="http://www.w3.org/2000/svg">
  <defs>
    <filter id="filter_1">
      <feColorMatrix in="SourceGraphic" type="matrix" values="0 0 0 0 0.30588236 0 0 0 0 0.34509805 0 0 0 0 0.972549 0 0 0 1 0" />
    </filter>
    <path d="M0 0L24.1571 0L24.1571 24.9714L0 24.9714L0 0Z" id="path_1" />
    <clipPath id="mask_1">
      <use xlink:href="#path_1" />
    </clipPath>
  </defs>
  <g id="Group-3" filter="url(#filter_1)">
    <path d="M0 0L24.1571 0L24.1571 24.9714L0 24.9714L0 0Z" id="Clip-2" fill="none" fill-rule="evenodd" stroke="none" />
    <g clip-path="url(#mask_1)">
      <path d="M23.4399 24.9714L0.717232 24.9714C0.321739 24.9714 0 24.6503 0 24.2531L0 3.49838C0 3.10122 0.321739 2.78007 0.717232 2.78007L23.4399 2.78007C23.8365 2.78007 24.1571 3.10122 24.1571 3.49838L24.1571 24.2531C24.1571 24.6503 23.8365 24.9714 23.4399 24.9714L23.4399 24.9714ZM1.43446 23.5348L22.7227 23.5348L22.7227 4.21668L1.43446 4.21668L1.43446 23.5348ZM23.3651 9.64944L0.78671 9.64944C0.390148 9.64944 0.0694785 9.32829 0.0694785 8.93114C0.0694785 8.53505 0.390148 8.21284 0.78671 8.21284L23.3651 8.21284C23.7616 8.21284 24.0823 8.53505 24.0823 8.93114C24.0823 9.32829 23.7616 9.64944 23.3651 9.64944L23.3651 9.64944ZM4.69354 6.93895C4.29805 6.93895 3.97631 6.61673 3.97631 6.22064L3.97631 0.718302C3.97631 0.322219 4.29805 0 4.69354 0C5.0901 0 5.41077 0.322219 5.41077 0.718302L5.41077 6.22064C5.41077 6.6178 5.0901 6.93895 4.69354 6.93895L4.69354 6.93895ZM19.7586 6.93895C19.3621 6.93895 19.0414 6.61673 19.0414 6.22064L19.0414 0.718302C19.0414 0.322219 19.3621 0 19.7586 0C20.1552 0 20.4758 0.322219 20.4758 0.718302L20.4758 6.22064C20.4758 6.6178 20.1552 6.93895 19.7586 6.93895L19.7586 6.93895ZM10.8515 19.7603C10.6612 19.7603 10.4784 19.6843 10.3437 19.5494L7.88955 17.0904C7.60843 16.81 7.60843 16.355 7.88955 16.0745C8.1696 15.7941 8.62282 15.7941 8.90394 16.0745L10.8515 18.0261L15.2543 13.6167C15.5343 13.3362 15.9886 13.3362 16.2687 13.6167C16.5487 13.8972 16.5487 14.3521 16.2687 14.6326L11.3581 19.5494C11.2234 19.6843 11.0417 19.7603 10.8515 19.7603L10.8515 19.7603Z" id="Fill-1" fill="#00FFB2" fill-rule="evenodd" stroke="none" />
    </g>
  </g>
</svg>
