<?xml version="1.0" encoding="utf-8"?>
<svg width="20px" height="35px" viewBox="0 0 20 35" version="1.1" xmlns:xlink="http://www.w3.org/1999/xlink" xmlns="http://www.w3.org/2000/svg">
  <defs>
    <filter id="filter_1">
      <feColorMatrix in="SourceGraphic" type="matrix" values="0 0 0 0 0.30588236 0 0 0 0 0.34509805 0 0 0 0 0.972549 0 0 0 1 0" />
    </filter>
  </defs>
  <g id="Group-5" transform="translate(0.125 0.125)" filter="url(#filter_1)">
    <path d="M1.82732 0C0.821202 0 0 0.853651 0 1.90022L0 32.2998C0 33.3453 0.821202 34.2 1.82732 34.2L17.1737 34.2C18.1788 34.2 19 33.3453 19 32.2998L19 1.90022C19 0.853651 18.1788 0 17.1737 0L1.82732 0ZM1.82732 0.759689L17.1737 0.759689C17.7871 0.759689 18.2693 1.26148 18.2693 1.90022L18.2693 3.80044L0.730731 3.80044L0.730731 1.90022C0.730731 1.26148 1.21391 0.759689 1.82732 0.759689L1.82732 0.759689ZM0.730731 28.1195L18.2693 28.1195L18.2693 4.56013L0.730731 4.56013L0.730731 28.1195ZM9.48857 9.50011C9.42792 9.50511 9.36827 9.5251 9.31756 9.55909L4.20245 12.5988C4.09309 12.6648 4.02151 12.7908 4.01952 12.9197L4.01952 19.0002C4.02151 19.1292 4.09309 19.2551 4.20245 19.3201L9.31756 22.3608C9.36529 22.3928 9.42096 22.4128 9.47763 22.4198C9.54921 22.4198 9.62179 22.4008 9.68343 22.3608L14.7985 19.3201C14.9069 19.2551 14.9795 19.1292 14.9815 19.0002L14.9815 12.9197C14.9785 12.7908 14.9069 12.6648 14.7985 12.5988L9.68343 9.55909C9.62576 9.5211 9.55717 9.50011 9.48857 9.50011L9.48857 9.50011ZM9.5005 10.3188L13.873 12.9197L9.5005 15.5206L5.12705 12.9197L9.5005 10.3188ZM4.76218 13.5734L9.13463 16.1734L9.13463 21.3862L4.76218 18.7863L4.76218 13.5734ZM14.2388 13.5734L14.2388 18.7863L9.86536 21.3862L9.86536 16.1734L14.2388 13.5734ZM0.730731 28.8802L18.2693 28.8802L18.2693 32.2998C18.2693 32.9375 17.7871 33.4393 17.1737 33.4393L1.82732 33.4393C1.21391 33.4393 0.730731 32.9375 0.730731 32.2998L0.730731 28.8802ZM9.50049 30.0197C8.89503 30.0197 8.4039 30.5305 8.4039 31.1592C8.4039 31.789 8.89503 32.2998 9.50049 32.2998C10.106 32.2998 10.5961 31.789 10.5961 31.1592C10.5961 30.5305 10.106 30.0197 9.50049 30.0197L9.50049 30.0197Z" id="Fill-1" fill="#00FFB2" fill-rule="evenodd" stroke="none" />
    <path d="M1.82732 0C0.821202 0 0 0.853651 0 1.90022L0 32.2998C0 33.3453 0.821202 34.2 1.82732 34.2L17.1737 34.2C18.1788 34.2 19 33.3453 19 32.2998L19 1.90022C19 0.853651 18.1788 0 17.1737 0L1.82732 0ZM1.82732 0.759689L17.1737 0.759689C17.7871 0.759689 18.2693 1.26148 18.2693 1.90022L18.2693 3.80044L0.730731 3.80044L0.730731 1.90022C0.730731 1.26148 1.21391 0.759689 1.82732 0.759689ZM0.730731 28.1195L18.2693 28.1195L18.2693 4.56013L0.730731 4.56013L0.730731 28.1195ZM9.48857 9.50011C9.42792 9.50511 9.36827 9.5251 9.31756 9.55909L4.20245 12.5988C4.09309 12.6648 4.02151 12.7908 4.01952 12.9197L4.01952 19.0002C4.02151 19.1292 4.09309 19.2551 4.20245 19.3201L9.31756 22.3608C9.36529 22.3928 9.42096 22.4128 9.47763 22.4198C9.54921 22.4198 9.62179 22.4008 9.68343 22.3608L14.7985 19.3201C14.9069 19.2551 14.9795 19.1292 14.9815 19.0002L14.9815 12.9197C14.9785 12.7908 14.9069 12.6648 14.7985 12.5988L9.68343 9.55909C9.62576 9.5211 9.55717 9.50011 9.48857 9.50011ZM9.5005 10.3188L13.873 12.9197L9.5005 15.5206L5.12705 12.9197L9.5005 10.3188ZM4.76218 13.5734L9.13463 16.1734L9.13463 21.3862L4.76218 18.7863L4.76218 13.5734ZM14.2388 13.5734L14.2388 18.7863L9.86536 21.3862L9.86536 16.1734L14.2388 13.5734ZM0.730731 28.8802L18.2693 28.8802L18.2693 32.2998C18.2693 32.9375 17.7871 33.4393 17.1737 33.4393L1.82732 33.4393C1.21391 33.4393 0.730731 32.9375 0.730731 32.2998L0.730731 28.8802ZM9.50049 30.0197C8.89503 30.0197 8.4039 30.5305 8.4039 31.1592C8.4039 31.789 8.89503 32.2998 9.50049 32.2998C10.106 32.2998 10.5961 31.789 10.5961 31.1592C10.5961 30.5305 10.106 30.0197 9.50049 30.0197Z" id="Stroke-3" fill="none" fill-rule="evenodd" stroke="#8EDDB8" stroke-width="0.25" />
  </g>
</svg>
