<?xml version="1.0" encoding="utf-8"?>
<svg width="31px" height="31px" viewBox="0 0 31 31" version="1.1" xmlns:xlink="http://www.w3.org/1999/xlink" xmlns="http://www.w3.org/2000/svg">
  <defs>
    <filter id="filter_1">
      <feColorMatrix in="SourceGraphic" type="matrix" values="0 0 0 0 0.30588236 0 0 0 0 0.34509805 0 0 0 0 0.972549 0 0 0 1 0" />
    </filter>
    <path d="M0 0L30.9429 0L30.9429 30.9429L0 30.9429L0 0Z" id="path_1" />
    <clipPath id="mask_1">
      <use xlink:href="#path_1" />
    </clipPath>
  </defs>
  <g id="Group-6" filter="url(#filter_1)">
    <g id="Group-3">
      <path d="M0 0L30.9429 0L30.9429 30.9429L0 30.9429L0 0Z" id="Clip-2" fill="none" fill-rule="evenodd" stroke="none" />
      <g clip-path="url(#mask_1)">
        <path d="M15.4715 0C15.0916 0 14.7841 0.307493 14.7841 0.687338L14.7841 6.87609C14.7841 7.25593 15.0916 7.56343 15.4715 7.56343C15.8513 7.56343 16.1588 7.25593 16.1588 6.87609L16.1588 0.687338C16.1588 0.307493 15.8513 0 15.4715 0L15.4715 0ZM5.01758 4.33023C4.84122 4.33023 4.66848 4.39987 4.53373 4.53372C4.26512 4.80232 4.26512 5.23281 4.53373 5.50051L8.90647 9.8841C9.17508 10.1527 9.61642 10.1527 9.88503 9.8841C10.1527 9.61549 10.1527 9.17505 9.88503 8.90645L5.50143 4.53372C5.36667 4.39987 5.19394 4.33023 5.01758 4.33023L5.01758 4.33023ZM25.9254 4.33023C25.749 4.33023 25.5763 4.39987 25.4415 4.53372L21.0579 8.90645C20.7893 9.17505 20.7893 9.61549 21.0579 9.8841C21.3265 10.1527 21.7679 10.1527 22.0365 9.8841L26.4092 5.50051C26.6778 5.23281 26.6778 4.80232 26.4092 4.53372C26.2745 4.39987 26.1017 4.33023 25.9254 4.33023L25.9254 4.33023ZM0.68734 14.7841C0.308398 14.7841 0 15.0916 0 15.4714C0 15.8513 0.308398 16.1588 0.68734 16.1588L6.87611 16.1588C7.25595 16.1588 7.56345 15.8513 7.56345 15.4714C7.56345 15.0916 7.25595 14.7841 6.87611 14.7841L0.68734 14.7841ZM24.0668 14.7841C23.687 14.7841 23.3786 15.0916 23.3786 15.4714C23.3786 15.8513 23.687 16.1588 24.0668 16.1588L30.2547 16.1588C30.6345 16.1588 30.9429 15.8513 30.9429 15.4714C30.9429 15.0916 30.6345 14.7841 30.2547 14.7841L24.0668 14.7841ZM9.39032 20.8643C9.21397 20.8643 9.04123 20.924 8.90647 21.0579L4.53373 25.4414C4.26512 25.71 4.26512 26.1405 4.53373 26.4082C4.80233 26.6768 5.23282 26.6768 5.50143 26.4082L9.88503 22.0355C10.1527 21.7669 10.1527 21.3265 9.88503 21.0579C9.75027 20.924 9.56668 20.8643 9.39032 20.8643L9.39032 20.8643ZM21.5526 20.8643C21.3763 20.8643 21.1927 20.924 21.0579 21.0579C20.7893 21.3265 20.7893 21.7669 21.0579 22.0355L25.4415 26.4082C25.7101 26.6768 26.1406 26.6768 26.4092 26.4082C26.6778 26.1405 26.6769 25.71 26.4092 25.4414L22.0365 21.0579C21.9017 20.924 21.7281 20.8643 21.5526 20.8643L21.5526 20.8643ZM15.4715 23.3785C15.0916 23.3785 14.7841 23.6869 14.7841 24.0668L14.7841 30.2546C14.7841 30.6345 15.0916 30.9429 15.4715 30.9429C15.8513 30.9429 16.1588 30.6345 16.1588 30.2546L16.1588 24.0668C16.1588 23.6869 15.8513 23.3785 15.4715 23.3785L15.4715 23.3785Z" id="Fill-1" fill="#00FFB2" fill-rule="evenodd" stroke="none" />
      </g>
    </g>
    <path d="M5.56428 1.37002C7.87756 1.37002 9.75934 3.25165 9.75934 5.56474C9.75934 7.87782 7.87756 9.75946 5.56428 9.75946C3.25101 9.75946 1.36923 7.87782 1.36923 5.56474C1.36923 3.25165 3.25101 1.37002 5.56428 1.37002M5.56429 0C2.49073 0 0 2.49143 0 5.56474C0 8.63804 2.49073 11.1286 5.56429 11.1286C8.63784 11.1286 11.1286 8.63804 11.1286 5.56474C11.1286 2.49143 8.63784 0 5.56429 0" transform="translate(10.042856 10.042858)" id="Fill-4" fill="#00FFB2" fill-rule="evenodd" stroke="none" />
  </g>
</svg>
