<?xml version="1.0" encoding="utf-8"?>
<svg width="22px" height="18px" viewBox="0 0 22 18" version="1.1" xmlns:xlink="http://www.w3.org/1999/xlink" xmlns="http://www.w3.org/2000/svg">
  <defs>
    <filter id="filter_1">
      <feColorMatrix in="SourceGraphic" type="matrix" values="0 0 0 0 0.30588236 0 0 0 0 0.34509805 0 0 0 0 0.972549 0 0 0 1 0" />
    </filter>
  </defs>
  <g id="Group-5" filter="url(#filter_1)">
    <path d="M17.7463 11.5386C18.8416 11.5386 19.424 11.7543 19.7034 12.4114C19.8648 12.7911 19.9131 13.4094 19.9131 13.4094L1.26465 13.4094C1.36595 11.9588 1.89698 11.5386 3.42437 11.5386L17.7463 11.5386ZM0 14.0333C0 14.3781 0.278571 14.6571 0.622037 14.6571L20.5486 14.6571C20.8921 14.6571 21.1714 14.3781 21.1714 14.0333C21.1714 11.4277 20.2107 10.2909 17.7463 10.2909L3.42437 10.2909C0.959963 10.2909 0 11.4277 0 14.0333L0 14.0333ZM10.5857 0C4.75312 0 1.24487 3.47681 1.24487 8.42013C1.24487 8.76416 1.52423 9.04399 1.86769 9.04399L19.3029 9.04399C19.6472 9.04399 19.9258 8.76416 19.9258 8.42013C19.9258 3.47681 16.4175 0 10.5857 0L10.5857 0ZM2.63377 6.85691C3.28113 3.46888 6.09691 1.24772 10.5857 1.24772C15.4797 1.24772 18.3849 3.88823 18.6587 7.79627L2.50952 7.79627C2.50952 7.79627 2.5388 7.35394 2.63377 6.85691L2.63377 6.85691Z" transform="translate(0 3.257143)" id="Fill-1" fill="#00FFB2" fill-rule="evenodd" stroke="none" />
    <path d="M1.83195 1.25287L1.83195 3.44499C1.83195 3.79045 2.10519 4.07143 2.44286 4.07143C2.77975 4.07143 3.05376 3.79045 3.05376 3.44499L3.05376 1.25287L4.27481 1.25287C4.61247 1.25287 4.88571 0.972685 4.88571 0.626435C4.88571 0.28098 4.61247 0 4.27481 0L0.610132 0C0.27324 0 0 0.28098 0 0.626435C0 0.972685 0.27324 1.25287 0.610132 1.25287L1.83195 1.25287Z" transform="translate(8.142856 0)" id="Fill-3" fill="#00FFB2" fill-rule="evenodd" stroke="none" />
  </g>
</svg>
