<svg xmlns="http://www.w3.org/2000/svg" width="36" height="36" viewBox="0 0 36 36"><g><g><path fill="#00fa83" d="M14.794 10.519a4.275 4.275 0 1 1 8.55 0 4.275 4.275 0 0 1-8.55 0zm2.137 0a2.137 2.137 0 1 0 4.275 0 2.137 2.137 0 0 0-4.275 0zM35.1 1.969V34.03c0 .59-.478 1.069-1.069 1.069H1.97C1.379 35.1.9 34.622.9 34.031V1.97C.9 1.379 1.378.9 1.969.9H34.03c.59 0 1.069.478 1.069 1.069zm-6.85 30.993L13.724 18.438 3.038 29.126v3.836zm4.712-5.974l-8.55-8.55-3.836 3.837 10.687 10.688h1.7zm0-23.95H3.037v23.074l9.94-9.929a1.069 1.069 0 0 1 1.507 0l4.585 4.585 4.595-4.585a1.069 1.069 0 0 1 1.507 0l7.792 7.791z"/></g></g></svg>