<?xml version="1.0" encoding="utf-8"?>
<!-- Generator: Adobe Illustrator 25.2.0, SVG Export Plug-In . SVG Version: 6.00 Build 0)  -->
<svg version="1.1" id="Слой_1" xmlns="http://www.w3.org/2000/svg" xmlns:xlink="http://www.w3.org/1999/xlink" x="0px" y="0px"
	 width="680px" height="681px" viewBox="0 0 680 681" enable-background="new 0 0 680 681" xml:space="preserve">
<path id="Combined-Shape" fill="#00FA83" d="M361.7,0L0.6,317.8L0,318.3l317.8,361.1l0.5,0.6l361.1-317.8l0.6-0.5L362.2,0.6L361.7,0
	z M2.3,318.4L361.6,2.3l316.2,359.3L318.4,677.7L2.3,318.4z M318.8,673l-0.5-0.6L7,318.7l0.6-0.5L361.2,7l0.5,0.6L673,361.3
	l-0.6,0.5L318.8,673z M9.3,318.9l309.6,351.8l351.8-309.6L361.1,9.3L9.3,318.9z M319.2,665.9l-0.5-0.6L14.1,319.2l0.6-0.5
	L360.8,14.1l0.5,0.6l304.6,346.1l-0.6,0.5L319.2,665.9z M16.3,319.3l303,344.3l344.3-303l-303-344.3L16.3,319.3z M319.6,658.9
	l-0.5-0.6l-298-338.7l0.6-0.5l338.6-298l0.5,0.6l298,338.6l-0.6,0.5L319.6,658.9z M23.4,319.8l296.4,336.8l336.8-296.4L360.2,23.4
	L23.4,319.8z M320.1,651.9l-0.5-0.6L28.1,320.1l0.6-0.5L359.9,28.1l0.5,0.6l291.4,331.2l-0.6,0.5L320.1,651.9z M30.4,320.2
	l289.8,329.4l329.4-289.8L359.8,30.4L30.4,320.2z M320.5,644.8l-0.5-0.6L35.2,320.5l0.6-0.5L359.5,35.2l0.5,0.6l284.8,323.7
	l-0.6,0.5L320.5,644.8z M37.4,320.7l283.3,321.9l321.9-283.3L359.3,37.4L37.4,320.7z M321,637.8l-0.5-0.6L42.2,321l0.6-0.5L359,42.2
	l0.5,0.6L637.8,359l-0.6,0.5L321,637.8z M44.5,321.1l276.7,314.4l314.4-276.7L358.9,44.5L44.5,321.1z M321.4,630.8l-0.5-0.6
	L49.2,321.4l0.6-0.5L358.6,49.2l0.5,0.6l271.7,308.7l-0.6,0.5L321.4,630.8z M51.5,321.6l270.1,306.9l306.9-270.1L358.4,51.5
	L51.5,321.6z M321.9,623.7l-0.5-0.6L56.3,321.9l0.6-0.5L358.1,56.3l0.5,0.6l265.1,301.2l-0.6,0.5L321.9,623.7z M58.5,322L322,621.5
	L621.5,358L358,58.5L58.5,322z M322.3,616.7l-0.5-0.6L63.3,322.3l0.6-0.5L357.7,63.3l0.5,0.6l258.5,293.8l-0.6,0.5L322.3,616.7z
	 M65.6,322.5l256.9,291.9l291.9-256.9L357.5,65.6L65.6,322.5z M322.8,609.7l-0.5-0.6L70.3,322.8l0.6-0.5L357.2,70.3l0.5,0.6
	l251.9,286.3l-0.6,0.5L322.8,609.7z M72.6,322.9l250.3,284.5l284.5-250.3L357.1,72.6L72.6,322.9z M323.2,602.6l-0.5-0.6L77.4,323.2
	l0.6-0.5L356.8,77.4l0.5,0.6l245.3,278.8l-0.6,0.5L323.2,602.6z M79.6,323.4l243.7,277l277-243.7l-243.7-277L79.6,323.4z
	 M323.7,595.6l-0.5-0.6L84.4,323.7l0.6-0.5L356.3,84.4l0.5,0.6l238.7,271.3l-0.6,0.5L323.7,595.6z M86.7,323.8l237.2,269.5
	l269.5-237.2L356.2,86.7L86.7,323.8z M324.1,588.6l-0.5-0.6L91.4,324.1l0.6-0.5L355.9,91.4l0.5,0.6l232.2,263.8l-0.6,0.5
	L324.1,588.6z M93.7,324.3l230.6,262l262-230.6l-230.6-262L93.7,324.3z M324.6,581.5l-0.5-0.6L98.5,324.6l0.6-0.5L355.4,98.5
	l0.5,0.6l225.6,256.3l-0.6,0.5L324.6,581.5z M100.7,324.7l224,254.5l254.5-224l-224-254.5L100.7,324.7z M325,574.5l-0.5-0.6
	L105.5,325l0.6-0.5l248.8-219l0.5,0.6l219,248.8l-0.6,0.5L325,574.5z M107.8,325.2l217.4,247l247-217.4l-217.4-247L107.8,325.2z
	 M325.5,567.4l-0.5-0.6L112.5,325.5l0.6-0.5l241.4-212.4l0.5,0.6l212.4,241.4l-0.6,0.5L325.5,567.4z M114.8,325.6l210.8,239.6
	l239.6-210.8L354.4,114.8L114.8,325.6z M325.9,560.4l-0.5-0.6L119.6,325.9l0.6-0.5l233.9-205.8l0.5,0.6l205.8,233.9l-0.6,0.5
	L325.9,560.4z M121.8,326.1l204.2,232.1l232.1-204.2L353.9,121.8L121.8,326.1z M326.4,553.4l-0.5-0.6L126.6,326.4l0.6-0.5
	l226.4-199.2l0.5,0.6l199.2,226.4l-0.6,0.5L326.4,553.4z M128.9,326.5l197.6,224.6l224.6-197.6L353.5,128.9L128.9,326.5z
	 M326.8,546.3l-0.5-0.6L133.7,326.8l0.6-0.5l218.9-192.6l0.5,0.6l192.6,218.9l-0.6,0.5L326.8,546.3z M135.9,327L327,544.1L544.1,353
	L353,135.9L135.9,327z M327.3,539.3l-0.5-0.6L140.7,327.3l0.6-0.5l211.4-186.1l0.5,0.6l186.1,211.4l-0.6,0.5L327.3,539.3z
	 M143,327.4L327.4,537L537,352.6L352.6,143L143,327.4z M327.7,532.3l-0.5-0.6L147.7,327.7l0.6-0.5l203.9-179.5l0.5,0.6l179.5,203.9
	l-0.6,0.5L327.7,532.3z M150,327.9L327.9,530L530,352.1L352.1,150L150,327.9z M328.2,525.2l-0.5-0.6L154.8,328.2l0.6-0.5
	l196.5-172.9l0.5,0.6l172.9,196.5l-0.6,0.5L328.2,525.2z M157,328.3L328.3,523L523,351.7L351.7,157L157,328.3z M328.6,518.2
	l-0.5-0.6l-166.3-189l0.6-0.5l189-166.3l0.5,0.6l166.3,189l-0.6,0.5L328.6,518.2z M164.1,328.8l164.7,187.2l187.2-164.7L351.2,164.1
	L164.1,328.8z M329.1,511.2l-0.5-0.6L168.8,329.1l0.6-0.5l181.5-159.7l0.5,0.6l159.7,181.5l-0.6,0.5L329.1,511.2z M171.1,329.2
	l158.1,179.7l179.7-158.1L350.8,171.1L171.1,329.2z M329.5,504.1l-0.5-0.6l-153.1-174l0.6-0.5l174-153.1l0.5,0.6l153.1,174l-0.6,0.5
	L329.5,504.1z M178.1,329.7l151.5,172.2l172.2-151.5L350.3,178.1L178.1,329.7z M330,497.1l-0.5-0.6L182.9,330l0.6-0.5L350,182.9
	l0.5,0.6L497.1,350l-0.6,0.5L330,497.1z M185.2,330.1l145,164.7l164.7-145l-145-164.7L185.2,330.1z M330.4,490.1l-0.5-0.6l-140-159
	l0.6-0.5l159-140l0.5,0.6l140,159l-0.6,0.5L330.4,490.1z M192.2,330.6l138.4,157.2l157.2-138.4L349.4,192.2L192.2,330.6z M330.9,483
	l-0.5-0.6L197,330.9l0.6-0.5L349.1,197l0.5,0.6L483,349.1l-0.6,0.5L330.9,483z M199.2,331L331,480.8L480.8,349L349,199.2L199.2,331z
	 M331.3,476l-0.5-0.6L204,331.3l0.6-0.5L348.7,204l0.5,0.6L476,348.7l-0.6,0.5L331.3,476z M206.3,331.5l125.2,142.3l142.3-125.2
	L348.5,206.3L206.3,331.5z M331.8,469l-0.5-0.6L211,331.8l0.6-0.5L348.2,211l0.5,0.6L469,348.2l-0.6,0.5L331.8,469z M213.3,331.9
	l118.6,134.8l134.8-118.6L348.1,213.3L213.3,331.9z M332.2,461.9l-0.5-0.6L218.1,332.2l0.6-0.5l129.1-113.6l0.5,0.6l113.6,129.1
	l-0.6,0.5L332.2,461.9z M220.3,332.4l112,127.3l127.3-112l-112-127.3L220.3,332.4z M332.7,454.9l-0.5-0.6l-107-121.6l0.6-0.5
	l121.6-107l0.5,0.6l107,121.6l-0.6,0.5L332.7,454.9z M227.4,332.8l105.4,119.8l119.8-105.4L347.2,227.4L227.4,332.8z M333.1,447.9
	l-0.5-0.6L232.1,333.1l0.6-0.5l114.1-100.4l0.5,0.6l100.4,114.1l-0.6,0.5L333.1,447.9z M234.4,333.3l98.9,112.3l112.3-98.9
	l-98.9-112.3L234.4,333.3z M333.6,440.8l-0.5-0.6l-93.9-106.7l0.6-0.5l106.7-93.9l0.5,0.6l93.9,106.7l-0.6,0.5L333.6,440.8z
	 M241.4,333.7l92.3,104.9l104.9-92.3l-92.3-104.9L241.4,333.7z M334,433.8l-0.5-0.6L246.2,334l0.6-0.5l99.2-87.3l0.5,0.6l87.3,99.2
	l-0.6,0.5L334,433.8z M248.5,334.2l85.7,97.4l97.4-85.7l-85.7-97.4L248.5,334.2z M334.5,426.8l-0.5-0.6l-80.7-91.7l0.6-0.5
	l91.7-80.7l0.5,0.6l80.7,91.7l-0.6,0.5L334.5,426.8z M255.5,334.6l79.1,89.9l89.9-79.1l-79.1-89.9L255.5,334.6z M334.9,419.7
	l-0.5-0.6l-74.1-84.2l0.6-0.5l84.2-74.1l0.5,0.6l74.1,84.2l-0.6,0.5L334.9,419.7z M262.5,335.1l72.5,82.4l82.4-72.5l-72.5-82.4
	L262.5,335.1z M335.4,412.7l-0.5-0.6l-67.5-76.7l0.6-0.5l76.7-67.5l0.5,0.6l67.5,76.7l-0.6,0.5L335.4,412.7z M269.6,335.5l65.9,74.9
	l74.9-65.9l-65.9-74.9L269.6,335.5z M335.8,405.7l-0.5-0.6l-60.9-69.2l0.6-0.5l69.2-60.9l0.5,0.6l60.9,69.2l-0.6,0.5L335.8,405.7z
	 M276.6,336l59.3,67.4l67.4-59.3L344,276.6L276.6,336z M336.3,398.6l-0.5-0.6l-54.4-61.8l0.6-0.5l61.8-54.3l0.5,0.6l54.4,61.8
	l-0.6,0.5L336.3,398.6z M283.6,336.4l52.8,60l60-52.8l-52.8-60L283.6,336.4z M336.7,391.6l-0.5-0.6l-47.8-54.3l0.6-0.5l54.3-47.8
	l0.5,0.6l47.8,54.3l-0.6,0.5L336.7,391.6z M290.7,336.8l46.2,52.5l52.5-46.2l-46.2-52.5L290.7,336.8z"/>
</svg>
