<svg xmlns="http://www.w3.org/2000/svg" width="473.679" height="473.668" viewBox="0 0 125.328 125.325"><path d="M0 .105l.104 125.012.001.208 125.014-.105h.209L125.223.208V0L.207.105zm.521 124.802L.417.521l124.39-.104.103 124.386zm123.51-.982h-.208l-122.424.103v-.208L1.296 1.4h.209l122.423-.103v.208zm-122.216-.314l121.798-.102-.101-121.795-121.798.101zm120.92-.98h-.208l-119.833.1v-.208l-.1-119.829H2.8l119.832-.1V2.8zm-119.626-.316l119.208-.1-.1-119.205-119.207.1zm118.33-.978h-.209l-117.242.098v-.208L3.888 3.988h.21l117.24-.099v.209zm-117.035-.318l116.617-.099-.098-116.614-116.617.099zm115.738-.976h-.209l-114.65.096-.001-.208L5.186 5.282h.208l114.651-.096v.208zm-114.444-.321l114.026-.096-.095-114.023L5.603 5.7zm113.147-.974h-.208l-112.06.095v-.21L6.482 6.578h.208l112.06-.094v.207zm-111.853-.323l111.435-.093-.092-111.433-111.436.094zm110.556-.971h-.207l-109.47.092v-.209L7.778 7.871h.208l109.469-.092v.208zm-109.262-.325l108.845-.091-.09-108.842-108.846.091zm107.966-.97h-.208l-106.879.09v-.208L9.074 9.165h.21l106.877-.09v.209zm-106.671-.327l106.254-.089-.09-106.251-106.253.09zm105.375-.967h-.209l-104.287.088v-.208L10.37 10.46h.21l104.286-.088v.208zm-104.08-.329l103.662-.087-.087-103.66-103.663.087zm102.783-.965h-.208l-101.697.085v-.207l-.086-101.695h.208l101.697-.086v.208zm-101.49-.332l101.072-.085-.084-101.069-101.072.085zm100.193-.963h-.208l-99.106.084v-.208l-.084-99.104h.209l99.105-.083.001.208zm-98.898-.333l98.481-.083-.082-98.478-98.482.082zm97.602-.96h-.208l-96.516.08v-.208l-.08-96.512.207-.001 96.515-.081v.208zm-96.308-.336l95.89-.081-.08-95.888-95.89.08zm95.011-.959h-.208l-93.924.079v-.208l-.08-93.922h.21l93.923-.08v.21zm-93.717-.338l93.3-.078-.078-93.298-93.3.079zm92.42-.956h-.207l-91.334.076v-.207l-.077-91.332h.208l91.334-.077v.208zm-91.125-.34l90.708-.077-.075-90.706-90.71.076zm89.829-.955h-.208l-88.743.075v-.208l-.075-88.74.209-.001 88.743-.075v.209zm-88.535-.342l88.118-.074-.074-88.116-88.118.074zm87.239-.952h-.208l-86.153.073v-.209l-.072-86.15h.208l86.152-.072v.208zm-85.945-.344l85.527-.072-.07-85.525-85.528.072zm84.648-.95h-.208l-83.562.07v-.208l-.07-83.56h.209l83.56-.07.001.208zm-83.354-.347l82.937-.07-.07-82.934-82.935.07zm82.058-.947h-.209l-80.97.067v-.207l-.068-80.969h.208l80.97-.068v.208zm-80.763-.35l80.345-.066-.067-80.344-80.346.067zm79.466-.945h-.208l-78.38.067v-.21l-.066-78.376h.209l78.38-.066v.208zm-78.172-.35l77.755-.066-.065-77.753-77.755.065zm76.876-.944h-.209l-75.789.064v-.209l-.063-75.786h.208l75.788-.064v.209zm-75.581-.353l75.163-.063-.063-75.162-75.164.063zm74.284-.94l-.208-.001-73.198.061v-.208l-.062-73.196h.209l73.197-.062v.208zm-72.99-.357l72.573-.06-.06-72.571-72.574.06zm71.694-.939h-.209l-70.607.06v-.209l-.06-70.605h.21l70.606-.06v.21zm-70.4-.357l69.983-.059-.06-69.98-69.981.058zm69.103-.937h-.208l-68.016.057-.001-.208-.057-68.014h.209l68.015-.058.001.208zm-67.808-.36l67.39-.056-.056-67.39-67.39.057zm66.512-.934h-.209l-65.425.055v-.209l-.055-65.423h.208l65.425-.055v.208zm-65.218-.362l64.8-.054-.054-64.799-64.8.054zm63.921-.932h-.208l-62.835.053V94l-.053-62.833h.209l62.834-.053v.209zm-62.627-.364l62.21-.053-.053-62.208-62.21.053zm61.33-.93h-.208l-60.244.05v-.208l-.05-60.242h.208l60.243-.051v.208zm-60.035-.367l59.618-.05-.05-59.617-59.619.05zm58.739-.928h-.208l-57.653.048-.001-.208-.048-57.65.208-.002 57.653-.048v.208zm-57.445-.369l57.028-.047-.048-57.027-57.028.047zm56.148-.925h-.208l-55.062.046v-.208l-.046-55.061h.208l55.062-.046v.208zm-54.854-.371l54.437-.046-.045-54.435-54.438.045zm53.558-.923h-.208l-52.472.043v-.208l-.044-52.47h.209l52.47-.044v.208zm-52.264-.373l51.847-.044-.044-51.845-51.846.043zm50.967-.922h-.208l-49.88.042-.001-.208-.042-49.88h.209l49.88-.041v.208zm-49.672-.375l49.255-.041-.041-49.255-49.256.042zm48.375-.92l-.207.001-47.29.04v-.208l-.04-47.289h.208l47.29-.04v.208zm-47.081-.377l46.664-.038-.038-46.664-46.665.039zm45.785-.916h-.208l-44.699.038v-.21l-.037-44.697h.207l44.7-.038v.208zm-44.491-.38l44.074-.037-.037-44.073-44.073.038zm43.195-.914h-.209l-42.107.034-.001-.208-.035-42.107h.208l42.108-.035v.208zm-41.901-.382l41.484-.035-.035-41.482-41.483.035zm40.604-.913h-.208l-39.517.033-.001-.208-.033-39.516h.209l39.516-.033.001.208zm-39.31-.384l38.893-.032-.032-38.892-38.893.033zm38.013-.91h-.208l-36.926.03v-.208l-.031-36.924.208-.001 36.926-.032v.21zm-36.718-.386l36.301-.03-.03-36.302-36.301.032zm35.422-.909h-.208l-34.336.03v-.209l-.03-34.334h.21l34.335-.03v.208zm-34.128-.388l33.711-.028-.028-33.71-33.71.028zm32.832-.906h-.209l-31.745.027v-.208L46.673 46.7l.208-.001 31.744-.027v.21zm-31.538-.39l31.12-.026-.025-31.12-31.12.027zm30.24-.904h-.207l-29.154.024-.001-.208-.024-29.153h.209l29.153-.025v.208zm-28.945-.392l28.53-.024-.025-28.529-28.529.024zm27.65-.902h-.209l-26.563.022v-.208l-.022-26.563h.208l26.563-.022v.208zm-26.357-.395l25.94-.021-.022-25.938-25.939.022zm25.06-.9h-.208l-23.973.02v-.208l-.02-23.971h.208l23.972-.021.001.208zm-23.764-.396l23.347-.02-.02-23.347-23.347.02zm22.467-.898h-.208l-21.382.018v-.208l-.018-21.381h.209l21.38-.018.001.208zm-21.174-.399l20.758-.017-.018-20.756-20.757.017zm19.878-.895h-.208l-18.792.016v-.209l-.015-18.79h.208l18.79-.016.001.208zm-18.583-.401l18.166-.015-.015-18.166-18.166.015z" fill="#00FA83" opacity=".9"/></svg>