<?xml version="1.0" encoding="utf-8"?>
<!-- Generator: Adobe Illustrator 25.2.0, SVG Export Plug-In . SVG Version: 6.00 Build 0)  -->
<svg version="1.1" id="Слой_1" xmlns="http://www.w3.org/2000/svg" xmlns:xlink="http://www.w3.org/1999/xlink" x="0px" y="0px"
	 width="632px" height="632px" viewBox="0 0 632 632" enable-background="new 0 0 632 632" xml:space="preserve">
<path id="Combined-Shape" fill="#FFFFFF" d="M336.2,0L0.6,295.3L0,295.8l295.3,335.6l0.5,0.6l335.6-295.3l0.6-0.5L336.7,0.6L336.2,0
	z M2.1,296L336,2.1L629.9,336L296,629.9L2.1,296z M296.3,625.5l-0.5-0.6L6.5,296.2l0.6-0.5L335.7,6.5l0.5,0.6l289.2,328.7l-0.6,0.5
	L296.3,625.5z M8.6,296.4l287.7,327l327-287.7L335.6,8.6L8.6,296.4z M296.7,618.9l-0.5-0.6L13.1,296.7l0.6-0.5L335.3,13.1l0.5,0.6
	l283.1,321.7l-0.6,0.5L296.7,618.9z M15.2,296.8l281.6,320l320-281.6l-281.6-320L15.2,296.8z M297.1,612.4l-0.5-0.6l-277-314.7
	l0.6-0.5l314.7-277l0.5,0.6l277,314.7l-0.6,0.5L297.1,612.4z M21.7,297.2l275.5,313.1l313.1-275.5L334.8,21.7L21.7,297.2z
	 M297.5,605.8l-0.5-0.6L26.2,297.5l0.6-0.5L334.5,26.2l0.5,0.6l270.9,307.8l-0.6,0.5L297.5,605.8z M28.3,297.6l269.4,306.1
	l306.1-269.4L334.4,28.3L28.3,297.6z M297.9,599.3l-0.5-0.6L32.7,297.9l0.6-0.5L334.1,32.7l0.5,0.6l264.7,300.8l-0.6,0.5
	L297.9,599.3z M34.8,298l263.3,299.2L597.2,334L333.9,34.8L34.8,298z M298.3,592.8l-0.5-0.6L39.2,298.3l0.6-0.5L333.7,39.2l0.5,0.6
	l258.6,293.9l-0.6,0.5L298.3,592.8z M41.3,298.5l257.1,292.2l292.2-257.1L333.5,41.3L41.3,298.5z M298.8,586.2l-0.5-0.6L45.8,298.7
	l0.6-0.5L333.2,45.8l0.5,0.6l252.5,286.9l-0.6,0.5L298.8,586.2z M47.9,298.9l251,285.2l285.2-251l-251-285.2L47.9,298.9z
	 M299.2,579.7l-0.5-0.6l-246.4-280l0.6-0.5l280-246.4l0.5,0.6l246.4,280l-0.6,0.5L299.2,579.7z M54.4,299.3l244.9,278.3l278.3-244.9
	L332.7,54.4L54.4,299.3z M299.6,573.2l-0.5-0.6l-240.3-273l0.6-0.5l273-240.3l0.5,0.6l240.3,273l-0.6,0.5L299.6,573.2z M60.9,299.7
	l238.8,271.3l271.3-238.8L332.3,60.9L60.9,299.7z M300,566.6l-0.5-0.6L65.4,300l0.6-0.5L332,65.4l0.5,0.6L566.6,332l-0.6,0.5
	L300,566.6z M67.5,300.1l232.7,264.4l264.4-232.7L331.9,67.5L67.5,300.1z M300.4,560.1l-0.5-0.6l-228-259.1l0.6-0.5l259.1-228
	l0.5,0.6l228,259.1l-0.6,0.5L300.4,560.1z M74,300.6L300.6,558L558,331.4L331.4,74L74,300.6z M300.8,553.5l-0.5-0.6L78.5,300.8
	l0.6-0.5L331.2,78.5l0.5,0.6l221.9,252.1l-0.6,0.5L300.8,553.5z M80.6,301L301,551.4L551.4,331L331,80.6L80.6,301z M301.3,547
	l-0.5-0.6L85,301.3l0.6-0.5L330.7,85l0.5,0.6L547,330.7l-0.6,0.5L301.3,547z M87.1,301.4l214.3,243.5l243.5-214.3L330.6,87.1
	L87.1,301.4z M301.7,540.5l-0.5-0.6L91.5,301.7l0.6-0.5L330.3,91.5l0.5,0.6l209.7,238.2l-0.6,0.5L301.7,540.5z M93.6,301.8
	l208.2,236.6l236.6-208.2L330.2,93.6L93.6,301.8z M302.1,533.9l-0.5-0.6L98.1,302.1l0.6-0.5L329.9,98.1l0.5,0.6l203.5,231.3
	l-0.6,0.5L302.1,533.9z M100.2,302.2l202.1,229.6l229.6-202L329.8,100.2L100.2,302.2z M302.5,527.4l-0.5-0.6L104.6,302.5l0.6-0.5
	l224.3-197.4l0.5,0.6l197.4,224.3l-0.6,0.5L302.5,527.4z M106.7,302.6l195.9,222.7l222.6-195.9L329.4,106.7L106.7,302.6z
	 M302.9,520.9l-0.5-0.6L111.1,302.9l0.6-0.5l217.4-191.3l0.5,0.6l191.3,217.4l-0.6,0.5L302.9,520.9z M113.2,303.1l189.8,215.7
	l215.7-189.8L328.9,113.2L113.2,303.1z M303.3,514.3l-0.5-0.6L117.7,303.3l0.6-0.5l210.4-185.2l0.5,0.6l185.2,210.4l-0.6,0.5
	L303.3,514.3z M119.8,303.5l183.7,208.7l208.7-183.7L328.5,119.8L119.8,303.5z M303.8,507.8l-0.5-0.6L124.2,303.8l0.6-0.5l203.5-179
	l0.5,0.6l179.1,203.5l-0.6,0.5L303.8,507.8z M126.3,303.9l177.6,201.8l201.8-177.6L328.1,126.3L126.3,303.9z M304.2,501.2l-0.5-0.6
	L130.8,304.2l0.6-0.5l196.5-172.9l0.5,0.6l172.9,196.5l-0.6,0.5L304.2,501.2z M132.9,304.3l171.5,194.8l194.8-171.4L327.7,132.9
	L132.9,304.3z M304.6,494.7l-0.5-0.6L137.3,304.6l0.6-0.5l189.5-166.8l0.5,0.6l166.8,189.6l-0.6,0.5L304.6,494.7z M139.4,304.7
	l165.3,187.9l187.9-165.3L327.3,139.4L139.4,304.7z M305,488.2l-0.5-0.6L143.8,305l0.6-0.5L327,143.8l0.5,0.6L488.2,327l-0.6,0.5
	L305,488.2z M145.9,305.1l159.2,180.9l180.9-159.2L326.9,145.9L145.9,305.1z M305.4,481.6l-0.5-0.6L150.4,305.4l0.6-0.5l175.6-154.6
	l0.5,0.6l154.6,175.6l-0.6,0.5L305.4,481.6z M152.5,305.6l153.1,174l174-153.1l-153.1-174L152.5,305.6z M305.8,475.1l-0.5-0.6
	L156.9,305.8l0.6-0.5l168.7-148.4l0.5,0.6l148.4,168.7l-0.6,0.5L305.8,475.1z M159,306l147,167l167-147L326,159L159,306z
	 M306.3,468.5l-0.5-0.6L163.4,306.3l0.6-0.5l161.7-142.3l0.5,0.6l142.3,161.7l-0.6,0.5L306.3,468.5z M165.6,306.4l140.8,160.1
	l160-140.8L325.6,165.5L165.6,306.4z M306.7,462l-0.5-0.6L170,306.7l0.6-0.5L325.3,170l0.5,0.6L462,325.3l-0.6,0.5L306.7,462z
	 M172.1,306.8l134.7,153.1l153.1-134.7L325.2,172.1L172.1,306.8z M307.1,455.5l-0.5-0.6L176.5,307.1l0.6-0.5l147.8-130.1l0.5,0.6
	l130.1,147.8l-0.6,0.5L307.1,455.5z M178.6,307.2l128.6,146.1l146.1-128.6L324.8,178.6L178.6,307.2z M307.5,448.9l-0.5-0.6
	l-124-140.9l0.6-0.5l140.9-124l0.5,0.6l124,140.9l-0.6,0.5L307.5,448.9z M185.2,307.6l122.5,139.2l139.2-122.5L324.3,185.2
	L185.2,307.6z M307.9,442.4l-0.5-0.6L189.6,307.9l0.6-0.5l133.9-117.8l0.5,0.6l117.8,133.9l-0.6,0.5L307.9,442.4z M191.7,308.1
	l116.4,132.2l132.2-116.4L323.9,191.7L191.7,308.1z M308.3,435.9l-0.5-0.6l-111.7-127l0.6-0.5l127-111.7l0.5,0.6l111.7,127l-0.6,0.5
	L308.3,435.9z M198.2,308.5l110.2,125.3l125.3-110.2L323.5,198.2L198.2,308.5z M308.8,429.3l-0.5-0.6l-105.6-120l0.6-0.5l120-105.6
	l0.5,0.6l105.6,120l-0.6,0.5L308.8,429.3z M204.8,308.9l104.1,118.3l118.3-104.1L323.1,204.8L204.8,308.9z M309.2,422.8l-0.5-0.6
	l-99.5-113l0.6-0.5l113-99.5l0.5,0.6l99.5,113l-0.6,0.5L309.2,422.8z M211.3,309.3l98,111.4l111.4-98l-98-111.4L211.3,309.3z
	 M309.6,416.2l-0.5-0.6l-93.4-106.1l0.6-0.5l106.1-93.4l0.5,0.6l93.4,106.1l-0.6,0.5L309.6,416.2z M217.9,309.7l91.9,104.4
	l104.4-91.9l-91.9-104.4L217.9,309.7z M310,409.7l-0.5-0.6L222.3,310l0.6-0.5l99.1-87.2l0.5,0.6l87.2,99.1l-0.6,0.5L310,409.7z
	 M224.4,310.1l85.8,97.5l97.5-85.8l-85.8-97.5L224.4,310.1z M310.4,403.2l-0.5-0.6l-81.1-92.2l0.6-0.5l92.2-81.1l0.5,0.6l81.1,92.2
	l-0.6,0.5L310.4,403.2z M230.9,310.6l79.6,90.5l90.5-79.6l-79.6-90.5L230.9,310.6z M310.9,396.6l-0.5-0.6l-75-85.2l0.6-0.5l85.2-75
	l0.5,0.6l75,85.2l-0.6,0.5L310.9,396.6z M237.5,311l73.5,83.5l83.5-73.5L321,237.5L237.5,311z M311.3,390.1l-0.5-0.6l-68.9-78.3
	l0.6-0.5l78.3-68.9l0.5,0.6l68.9,78.3l-0.6,0.5L311.3,390.1z M244,311.4l67.4,76.6l76.6-67.4L320.6,244L244,311.4z M311.7,383.6
	l-0.5-0.6l-62.8-71.3l0.6-0.5l71.3-62.8l0.5,0.6l62.8,71.3l-0.6,0.5L311.7,383.6z M250.5,311.8l61.3,69.6l69.6-61.3l-61.3-69.6
	L250.5,311.8z M312.1,377l-0.5-0.6L255,312.1l0.6-0.5l64.4-56.6l0.5,0.6l56.6,64.4l-0.6,0.5L312.1,377z M257.1,312.2l55.2,62.7
	l62.7-55.2l-55.2-62.7L257.1,312.2z M312.5,370.5l-0.5-0.6l-50.5-57.4l0.6-0.5l57.4-50.5l0.5,0.6l50.5,57.4l-0.6,0.5L312.5,370.5z
	 M263.6,312.7l49,55.7l55.7-49l-49-55.7L263.6,312.7z M312.9,363.9l-0.5-0.6l-44.4-50.4l0.6-0.5l50.4-44.4l0.5,0.6l44.4,50.4
	l-0.6,0.5L312.9,363.9z M270.2,313.1l42.9,48.8l48.8-42.9l-42.9-48.8L270.2,313.1z"/>
</svg>
