<svg xmlns="http://www.w3.org/2000/svg" width="38" height="38" viewBox="0 0 38 38"><g><g><path fill="#00fa83" d="M15.2 10.45a4.75 4.75 0 1 1 9.5 0 4.75 4.75 0 0 1-9.5 0zm2.375 0a2.375 2.375 0 1 0 4.75 0 2.375 2.375 0 0 0-4.75 0zM38 1.188v35.624c0 .656-.532 1.188-1.188 1.188H1.188A1.187 1.187 0 0 1 0 36.812V1.188C0 .531.532 0 1.188 0h35.624C37.468 0 38 .532 38 1.188zm-7.612 34.437L14.25 19.487 2.375 31.362v4.263zm5.237-6.638l-9.5-9.5-4.263 4.263 11.875 11.875h1.888zm0-26.612H2.375v25.638l11.044-11.032a1.187 1.187 0 0 1 1.674 0l5.094 5.095 5.107-5.095a1.187 1.187 0 0 1 1.674 0l8.657 8.657z"/></g></g></svg>