<svg xmlns="http://www.w3.org/2000/svg" width="76" height="72" viewBox="0 0 76 72"><g><g><path fill="#0ed2fd" d="M33.927 8.09h9.243v2.02h-7.147v3.888h6.366v2.02h-6.366v5.412h-2.096zm-1.992 42.755l2.573 10.215 2.668-10.215h2.268l2.687 10.349 2.573-10.349h2.134l-3.43 13.34h-2.535l-2.553-9.928-2.554 9.929h-2.554l-3.43-13.34zM20.966 69.1a.978.978 0 0 1-.473-.12A37.384 37.384 0 0 1 .931 36.108 37.417 37.417 0 0 1 20.305 3.34a.995.995 0 0 1 .959 1.741A35.428 35.428 0 0 0 2.918 36.11a35.399 35.399 0 0 0 18.523 31.123.987.987 0 0 1 .478.592.988.988 0 0 1-.08.756zm35.122-.245a.996.996 0 0 1-.958-1.263.99.99 0 0 1 .47-.598c11.166-6.264 18.103-18.1 18.103-30.888A35.395 35.395 0 0 0 55.18 4.985a.987.987 0 0 1-.478-.591.995.995 0 0 1 1.426-1.155A37.38 37.38 0 0 1 75.69 36.105c0 13.507-7.325 26.007-19.117 32.622zm-17.722 3.036c-4.072 0-7.892-1.668-10.758-4.696-5.546-5.86-5.866-14.172-.778-20.214 1.334-1.447 2.684-2.922 4.034-4.398.926-1.012 1.851-2.024 2.777-3.032.178-.192.468-.308.773-.308.272 0 .528.092.702.253.185.171.298.436.31.727.01.291-.082.564-.253.75l-6.727 7.321c-4.47 5.31-4.191 12.32.68 17.466 2.508 2.65 5.78 4.11 9.216 4.11 3.434 0 6.687-1.46 9.16-4.113 2.563-2.749 3.89-5.928 3.837-9.196-.056-3.45-1.574-6.773-4.513-9.877L28.282 26.976c-3.263-3.448-5.02-7.349-5.085-11.282-.062-3.818 1.464-7.507 4.414-10.67C30.433 1.998 34.223.33 38.284.33c4.07 0 7.891 1.668 10.757 4.696 5.547 5.86 5.867 14.172.78 20.215a1472.343 1472.343 0 0 0-4.037 4.399c-.925 1.011-1.85 2.022-2.775 3.03-.183.199-.477.318-.787.318-.273 0-.53-.092-.704-.252a1.055 1.055 0 0 1-.316-.732c-.013-.293.079-.57.25-.757l6.75-7.319c4.473-5.31 4.193-12.32-.677-17.467-2.509-2.65-5.787-4.11-9.23-4.11-3.442 0-6.7 1.462-9.173 4.114-2.563 2.748-3.89 5.928-3.837 9.195.055 3.45 1.574 6.772 4.512 9.877l18.571 19.709c3.098 3.09 4.702 6.675 5.058 11.295-.006 3.552-1.61 7.44-4.403 10.673-2.806 3.01-6.596 4.676-10.656 4.676z"/></g></g></svg>