<svg xmlns="http://www.w3.org/2000/svg" width="69" height="67" viewBox="0 0 69 67"><g><g><g><path fill="#00fa83" d="M67.179 33.293l-.005.518c-.287 17.067-14.718 30.818-32.478 30.818-17.938 0-32.482-14.03-32.482-31.336 0-17.306 14.544-31.336 32.482-31.336 17.76 0 32.191 13.751 32.478 30.818zm1.821 0l-.005-.547C68.692 14.722 53.452.2 34.696.2 15.752.2.393 15.017.393 33.293c0 18.276 15.359 33.093 34.303 33.093 18.756 0 33.996-14.522 34.3-32.546z"/></g><g><path fill="#00fa83" d="M53.48 43.25h2.466V23.921H53.48zM29.916 23.921h-2.524l3.383 19.329h2.523zm5.85 19.329l3.048-19.329h-2.523L33.299 43.25zm8.593 0l.003-.018-3.022-19.31h-2.526L41.84 43.25zm2.521 0l3.383-19.329h-2.521l-3.38 19.31.003.019zM15.252 32.005V26.03h9.814v-2.109H12.84V43.25h2.413v-9.218h8.04v-2.027z"/></g></g></g></svg>