<svg xmlns="http://www.w3.org/2000/svg" width="76" height="77" viewBox="0 0 76 77"><g><g><path d="M13.914 64.44c0-1.046-.21-1.851-.63-2.418-.423-.562-1.023-.846-1.808-.846-.785 0-1.387.284-1.812.846-.424.567-.635 1.372-.635 2.418 0 1.047.211 1.854.635 2.422.425.566 1.027.853 1.812.853.785 0 1.385-.287 1.807-.853.42-.568.631-1.375.631-2.422zm17.144.982v-.972c-.19.105-.378.187-.57.25a4.89 4.89 0 0 1-.79.18l-.673.11c-.625.101-1.077.218-1.35.36-.467.238-.696.609-.696 1.11 0 .445.14.77.425.967.281.2.626.298 1.031.298.644 0 1.238-.164 1.777-.495.543-.331.826-.933.846-1.808zm22.836-1.376c0-.936-.226-1.648-.67-2.139-.447-.488-1.047-.73-1.794-.73-1.022 0-1.727.423-2.117 1.273-.203.454-.305 1.012-.305 1.678 0 .573.108 1.084.327 1.53.394.832 1.104 1.248 2.126 1.248.681 0 1.256-.226 1.725-.683.471-.455.708-1.18.708-2.177zm6.537-.424h4.895c-.053-.802-.305-1.412-.756-1.825-.454-.414-1.015-.62-1.687-.62-.729 0-1.294.219-1.696.658-.402.44-.653 1.035-.756 1.787zm.15 1.939c.04 1.005.384 1.711 1.033 2.117.394.251.868.377 1.424.377.588 0 1.064-.153 1.431-.46.2-.167.378-.396.53-.69h2.636c-.069.595-.389 1.198-.957 1.813-.882.976-2.12 1.463-3.712 1.463-1.316 0-2.473-.412-3.478-1.233-1.004-.825-1.505-2.165-1.505-4.02 0-1.737.453-3.07 1.36-3.998.906-.928 2.083-1.391 3.53-1.391.858 0 1.633.156 2.32.47.689.313 1.257.808 1.708 1.485.402.595.665 1.288.785 2.075.07.459.097 1.124.085 1.992zm-4.23 3.977c0 1.326-.22 2.326-.66 2.998-.758 1.158-2.21 1.738-4.355 1.738-1.298 0-2.355-.258-3.175-.775-.819-.515-1.27-1.285-1.358-2.308h2.886c.075.312.195.538.361.677.287.247.768.366 1.444.366.954 0 1.594-.322 1.917-.969.209-.415.315-1.113.315-2.095v-.661c-.255.442-.527.77-.819.991-.527.41-1.212.614-2.055.614-1.303 0-2.344-.466-3.122-1.392-.779-.929-1.17-2.184-1.17-3.771 0-1.526.378-2.811 1.126-3.85.75-1.043 1.812-1.562 3.188-1.562.508 0 .949.077 1.33.235.644.272 1.163.767 1.56 1.492v-1.484h2.587zm-11.422.643h-2.906v-6.324c0-.545-.075-.965-.227-1.257-.277-.534-.802-.803-1.58-.803-.955 0-1.608.392-1.967 1.175-.182.414-.274.942-.274 1.584v5.625h-2.837v-.316h-2.96a2.812 2.812 0 0 1-.173-.573 6.472 6.472 0 0 1-.076-.61c-.38.395-.814.729-1.307 1.008-.59.326-1.254.49-1.997.49-.95 0-1.731-.26-2.351-.783-.617-.52-.927-1.258-.927-2.215 0-1.24.499-2.14 1.49-2.694.547-.3 1.35-.517 2.407-.646l.935-.114c.504-.06.866-.137 1.087-.228.39-.161.586-.412.586-.752 0-.413-.15-.7-.45-.855-.301-.157-.741-.236-1.322-.236-.65 0-1.114.154-1.385.463-.194.229-.322.537-.385.925h-2.627c.055-.882.313-1.607.766-2.176.722-.889 1.963-1.33 3.722-1.33 1.144 0 2.16.219 3.05.656.89.438 1.335 1.265 1.335 2.48v4.627c0 .32.006.711.018 1.165.018.348.074.58.163.704a.938.938 0 0 0 .4.306v-9.672h2.748v1.517c.362-.533.707-.92 1.03-1.156.58-.418 1.318-.627 2.21-.627 1.115 0 2.028.28 2.738.844.71.562 1.066 1.494 1.066 2.798zm-21.204-7.839a4.806 4.806 0 0 0-.434-.037 5.197 5.197 0 0 0-.306-.012c-1.037 0-1.733.357-2.087 1.068-.199.401-.298 1.018-.298 1.85v4.97h-2.596V59.785h2.458v1.813c.397-.692.746-1.167 1.04-1.421.482-.425 1.11-.638 1.879-.638l.122.002c.033.004.107.01.222.014zm-8.675 6.28c-.875 1.039-2.205 1.559-3.985 1.559-1.784 0-3.11-.52-3.985-1.56-.878-1.04-1.315-2.292-1.315-3.755 0-1.44.437-2.689 1.315-3.741.875-1.057 2.201-1.586 3.985-1.586 1.78 0 3.11.53 3.985 1.586.876 1.052 1.312 2.3 1.312 3.74 0 1.464-.436 2.716-1.312 3.757zM.87 76.729h75.063V.6H.87z"/></g></g></svg>