<svg xmlns="http://www.w3.org/2000/svg" width="211" height="54" viewBox="0 0 211 54"><defs><clipPath id="7hcma"><path d="M.75 16.92h20.164v17.044H.75z"/></clipPath><clipPath id="7hcmb"><path d="M155.63 50.27h54.492v.54H155.63z"/></clipPath><clipPath id="7hcmc"><path d="M128.38 48.58h4.81v4.872h-4.81z"/></clipPath></defs><g><g><g><g><path d="M140.312 18.955c.15-.008.284-.02.419-.02 4.125-.001 8.25-.017 12.374.015.67.006 1.364.159 2.004.367 1.243.403 1.658 1.46 1.833 2.589.156 1.007.204 2.031.26 3.05.037.709.05 1.423-.004 2.13-.075 1.01-.205 2.018-.617 2.966-.457 1.055-1.265 1.667-2.427 1.792a23.9 23.9 0 0 1-2.448.163c-3.706.017-7.413.007-11.12.006-.08 0-.162-.008-.274-.014zM138.08 33.88h.528c5.053-.027 10.107-.05 15.16-.089a9.229 9.229 0 0 0 1.553-.165c1.96-.353 3.184-1.551 3.664-3.375.318-1.208.45-2.478.532-3.728.073-1.118-.011-2.248-.071-3.37-.04-.735-.122-1.471-.252-2.195-.226-1.256-.876-2.276-1.964-2.995-.827-.548-1.789-.749-2.76-.804a99.756 99.756 0 0 0-5.027-.167c-3.609-.024-7.218-.007-10.827-.007h-.536z"/></g><g><path d="M177.514 18.948c.984.043 1.97.166 2.942.324.903.147 1.52.862 1.597 1.752.071.818.13 1.638.166 2.458.045 1.015.116 2.034.073 3.047a32.036 32.036 0 0 1-.34 3.567c-.142.914-.86 1.465-1.775 1.58-1.05.132-2.111.214-3.17.248-1.806.059-3.614.088-5.42.081a35.783 35.783 0 0 1-3.272-.168 8.756 8.756 0 0 1-1.907-.41c-.514-.173-.854-.589-.926-1.143-.123-.942-.284-1.886-.323-2.832a50.384 50.384 0 0 1 0-4c.032-.84.165-1.68.31-2.51.233-1.324.88-1.539 2.1-1.76 2.074-.374 4.175-.217 6.06-.248zm-2.808 14.933c1.207 0 2.417.042 3.622-.013.999-.045 2-.153 2.984-.327 1.393-.246 2.334-1.042 2.74-2.4.393-1.317.45-2.675.487-4.025.038-1.41-.007-2.823-.08-4.231a18.917 18.917 0 0 0-.342-2.831c-.23-1.116-.883-1.95-2.014-2.399-1.273-.504-2.622-.542-3.954-.657-.993-.087-1.996-.086-2.995-.088-.845-.002-1.69.05-2.535.075-1.013.03-2.027.034-3.037.088-1.06.056-2.126.094-3.17.255-1.61.248-2.728 1.102-3.117 2.763-.35 1.494-.393 3.01-.465 4.52-.052 1.108.006 2.224.078 3.332.063.961.14 1.932.344 2.871.3 1.398 1.255 2.333 2.637 2.7.955.254 1.98.313 2.978.354 1.819.073 3.641.068 5.462.095.126.002.252 0 .377 0z"/></g><g><path d="M70.793 18.933h.466c3.863 0 7.725-.013 11.588.013.636.004 1.28.138 1.905.276.945.21 1.287.954 1.416 1.774a6.496 6.496 0 0 1-.123 2.713c-.303 1.137-.76 1.42-1.884 1.587-.965.144-1.955.17-2.935.176-3.304.019-6.61.007-9.914.007h-.519zm-.005 14.922v-6.487c.09-.01.13-.02.171-.02 4.297.083 8.6-.199 12.891.167 1.3.11 1.957.866 2.06 2.152.102 1.296.072 2.601.1 3.903.002.092.01.183.015.277h2.065c0-1.646.011-3.26-.005-4.873-.008-.85-.463-1.48-1.182-1.908-.364-.216-.79-.335-1.219-.512.125-.039.235-.075.347-.107.85-.24 1.614-.588 2.051-1.413.333-.627.392-1.308.413-1.983.025-.81.003-1.627-.084-2.433-.098-.903-.413-1.731-1.1-2.405-.747-.735-1.694-.977-2.684-1.052a58.486 58.486 0 0 0-4.109-.169c-3.806-.022-7.612-.007-11.418-.007h-.47v16.87z"/></g><g><path d="M114.367 33.869h-2.227V16.986h.508c.962 0 1.923.01 2.885-.006a.832.832 0 0 1 .651.266c4.904 4.798 9.816 9.587 14.718 14.386.238.233.466.374.848.266V17.016h2.234v16.866c-.758 0-1.53-.074-2.28.017-1.144.14-1.909-.3-2.703-1.088-4.562-4.533-9.188-9.006-13.784-13.506-.24-.235-.472-.364-.85-.243z"/></g><g><path d="M207.896 17h2.228v16.882h-.68c-.934 0-1.869-.01-2.803.006-.274.005-.46-.084-.65-.27-4.875-4.769-9.757-9.531-14.632-14.3-.235-.23-.458-.392-.866-.244v14.788h-2.223V16.987c.436 0 .876-.002 1.316 0 .794.005 1.675-.196 2.357.076.667.266 1.133 1.014 1.685 1.553 4.426 4.322 8.856 8.64 13.274 12.97.282.277.556.427.994.307z"/></g></g><g><path d="M94.53 24.172h13.535v1.948h-13.53v5.967h14.172v1.877H92.35V16.91h16.352v1.926H94.53z"/></g><g><g><path d="M54.097 22.029l-.194-1.213-.189-.01c-.06.282-.166.564-.17.847-.002.276-.112.42-.32.586-.325.259-.61.57-.894.876-.075.08-.138.228-.119.33.083.435-.162.639-.5.84-1.586.946-2.73 2.302-3.574 3.895-.485.913-.803 1.893-.765 2.958.031.867.007 1.735.007 2.626H42.24c.357-.635.69-1.243 1.039-1.843.639-1.101 1.29-2.196 1.93-3.296.916-1.576 1.829-3.153 2.742-4.73l1.73-2.993c.73-1.266 1.455-2.534 2.196-3.793.058-.099.23-.185.35-.187a87.129 87.129 0 0 1 3.117.004c.15.003.358.136.434.268 1.366 2.338 2.716 4.685 4.068 7.032 1.418 2.46 2.832 4.924 4.252 7.385.407.706.823 1.407 1.258 2.148h-5.16c0-.798-.01-1.596.004-2.393.016-.935-.301-1.786-.67-2.619a10.913 10.913 0 0 0-2.556-3.607c-.422-.392-.931-.694-1.394-1.045-.086-.065-.185-.166-.199-.261-.138-.944-.446-1.38-1.284-1.805"/></g><g><g/><g clip-path="url(#7hcma)"><path d="M20.734 22.511h-2.038c-.08-.659-.143-1.296-.236-1.93-.103-.705-.604-1.085-1.25-1.217-.81-.166-1.639-.302-2.463-.327-2.169-.068-4.341-.119-6.51-.075-1.166.023-2.332.224-3.49.4-.979.15-1.258.94-1.427 1.745-.393 1.87-.25 3.77-.249 5.66 0 .804.073 1.613.165 2.415.08.707.103 1.44.685 2.002.386.373.86.527 1.36.568 1.08.086 2.166.13 3.25.17 1.131.041 2.263.091 3.393.076a71.326 71.326 0 0 0 4.25-.171c.556-.041 1.112-.226 1.643-.414.526-.185.748-.647.8-1.165.054-.522.056-1.05.093-1.573.011-.157.063-.311.1-.48h2.104c-.047.73-.089 1.44-.141 2.149-.085 1.138-.377 2.208-1.478 2.786a5.46 5.46 0 0 1-1.889.56c-2.509.286-5.035.297-7.558.257a90.51 90.51 0 0 1-4-.166 13.262 13.262 0 0 1-1.862-.249c-1.604-.328-2.543-1.329-2.814-2.894-.167-.962-.246-1.939-.339-2.91a14.042 14.042 0 0 1-.08-1.698c.03-1.146.073-2.293.162-3.435.068-.865.157-1.736.342-2.583.356-1.637 1.5-2.458 3.112-2.687a35.422 35.422 0 0 1 5.548-.336c.77.012 1.542-.083 2.312-.067 1.237.025 2.478.055 3.708.172.86.08 1.739.215 2.548.496 1.128.392 1.91 1.18 2.037 2.428.084.814.14 1.632.212 2.493"/></g></g></g><g><path d="M.75 1.312h209.372V.84H.75z"/></g><g><path d="M40.01 32.09v1.874H24.47V16.91h2.152v15.18z"/></g><g><g><g/><g clip-path="url(#7hcmb)"><path d="M210.112 50.683h-.433c-17.867 0-35.734 0-53.602-.006-.17 0-.511.133-.437-.281h.433c17.867 0 35.734 0 53.601.006.17 0 .512-.133.438.281"/></g></g><g><path d="M.758 50.397h.436c17.504 0 35.008 0 52.512.006.17 0 .512-.133.438.281h-.432c-17.504 0-35.008 0-52.512-.005-.177 0-.505.122-.442-.282"/></g><g><g/><g clip-path="url(#7hcmc)"><path d="M128.968 50.98c-.018-.972.949-1.809 1.817-1.807.845.002 1.814.834 1.815 1.855 0 .916-.872 1.875-1.82 1.752zm4.098-.717c-.294-.828-.847-1.474-1.848-1.642-1.01-.17-1.8.191-2.376.958-.695.926-.62 2.33.318 3.217.51.483 1.193.769 1.975.614 1.357-.267 2.069-1.334 2.055-2.39z"/></g></g><g><path d="M61.287 50.932c.015-.941.863-1.76 1.864-1.749.91.01 1.806.87 1.758 1.904-.045 1-.772 1.694-1.875 1.693zm3.435-1.724c-.852-.847-2.314-.766-3.11-.106-1.234 1.024-1.269 2.962.223 3.95.47.313 1.02.467 1.63.356 1.198-.217 2.125-1.29 2.01-2.395z"/></g><g><path d="M121.195 49.175c.486.025.97.002 1.431.085.534.097.735.487.651 1.068-.046.322-.46.643-.876.663-.277.013-.556.002-.834.002h-.372zm2.713 4.147c-.283-.537-.531-1.051-.823-1.545-.142-.241-.141-.354.143-.521.546-.323.806-.827.693-1.402-.125-.632-.499-1.119-1.308-1.174-.523-.036-1.05-.035-1.572-.076-.368-.03-.444.112-.44.409.013 1.341.005 2.683.006 4.024 0 .106.015.213.022.306h.57v-1.838c.243 0 .444.026.632-.006.414-.072.562.163.693.432.169.345.367.683.495 1.04.14.397.416.47.89.35z"/></g><g><path d="M115.729 49.27l-.382.39c-.613-.468-1.263-.666-1.993-.33-.719.331-1.07 1.104-.995 1.818.057.54.298.935.704 1.319.396.373 1.503.394 1.946.148.075-.042.132-.155.141-.24.021-.196.007-.395.007-.653-.176 0-.337-.008-.496.002-.252.017-.35-.075-.346-.302.004-.205.086-.294.32-.287.348.009.695.002 1.095.002 0 .59.045 1.16-.029 1.72-.02.156-.368.335-.603.406-1.73.52-2.86-.265-3.313-1.518-.467-1.291.323-2.74 1.666-3.089.812-.211 1.744.026 2.278.613"/></g><g><path d="M147.076 49.27c.401 0 .786-.018 1.169.005.398.024.664.39.657.85-.008.443-.345.841-.764.864-.343.02-.688.004-1.062.004zm-.02 2.384c.284 0 .506-.005.727 0 .514.013.928-.16 1.29-.482.738-.655.599-2.177-.716-2.475-.472-.108-.99-.053-1.484-.092-.356-.029-.488.07-.483.41.02 1.34.008 2.681.01 4.022 0 .107.014.213.022.315.635.032.635.032.635-.504z"/></g><g><path d="M99.843 51.28v1.501c.658 0 1.32.01 1.983-.004.293-.006.39.122.33.34-.028.096-.17.236-.263.238-.863.018-1.726.01-2.615.01-.011-.116-.029-.21-.029-.305-.002-1.354.009-2.707-.009-4.06-.004-.315.11-.41.455-.4.67.021 1.34.012 2.01.005.277-.003.462.065.462.347 0 .304-.253.237-.448.239-.613.004-1.225.001-1.867.001v1.502c.523 0 1.047.002 1.572-.001.223-.002.428-.008.41.278-.016.259-.167.32-.434.313-.511-.015-1.024-.005-1.557-.005"/></g><g><path d="M137.857 50.431V48.98c-.001-.19-.029-.383.3-.376.304.006.275.186.275.362 0 .844-.012 1.688.004 2.532.009.417.103.832.48 1.122.351.27.81.232 1.179.11.44-.147.689-.51.692-.955.006-.943.01-1.887-.003-2.83-.004-.26.1-.39.384-.329.108.024.267.155.266.236-.01 1.063.03 2.131-.092 3.185-.112.975-.904 1.395-1.8 1.388-.947-.008-1.733-.897-1.69-1.616.028-.457.005-.917.005-1.377"/></g><g><path d="M94.546 49.269l-.307.407c-.491-.42-1.072-.596-1.684-.466-.334.071-.665.293-.91.522-.64.593-.626 1.795.004 2.513.31.354.749.58 1.257.518.455-.055.893-.224 1.385-.354.36.352.35.372-.161.685-1.187.726-2.539.177-3.103-.585-.86-1.16-.655-2.613.524-3.514.702-.537 2.23-.657 2.995.274"/></g><g><path d="M73.078 49.184h-2.214v1.655h1.32c.598 0 .598 0 .558.575h-1.9v1.907c-.649.083-.665.071-.665-.447 0-1.29.01-2.58-.007-3.869-.004-.314.136-.41.46-.405.641.009 1.282.002 1.924.003.56 0 .56 0 .524.581"/></g><g><path d="M78.285 51.432v1.918h-.541c-.01-.095-.025-.19-.025-.285-.002-1.352.007-2.705-.009-4.056-.003-.306.093-.418.448-.405.654.022 1.31.006 1.965.006.084 0 .206-.028.243.01.108.106.216.233.25.367.013.048-.187.196-.293.2-.654.018-1.309.008-1.997.008v1.651c.505 0 1.029.012 1.551-.005.276-.009.412.068.426.32.017.29-.2.272-.416.271-.514-.002-1.027 0-1.602 0"/></g><g><path d="M85.831 51.002c0 .683-.005 1.366.004 2.05.002.214-.066.318-.331.318-.26 0-.335-.097-.334-.315a427.62 427.62 0 0 0 0-4.137c0-.214.066-.318.33-.318.262 0 .338.097.335.315-.01.696-.004 1.391-.004 2.087"/></g></g></g></g></svg>