<?xml version="1.0" encoding="utf-8"?>
<svg width="135px" height="110px" viewBox="0 0 135 110" version="1.1" xmlns:xlink="http://www.w3.org/1999/xlink" xmlns="http://www.w3.org/2000/svg">
  <path d="M54.721 89.574C35.473 89.574 19.869 73.97 19.869 54.721C19.869 35.472 35.473 19.869 54.721 19.869C73.97 19.869 89.574 35.472 89.574 54.721C89.574 73.97 73.97 89.574 54.721 89.574M54.721 0C24.499 0 0 24.5 0 54.721C0 84.943 24.499 109.443 54.721 109.443C84.943 109.443 109.442 84.943 109.442 54.721C109.442 24.5 84.943 0 54.721 0" transform="translate(12.477539 0)" id="Fill-29" fill="#7A75B5" fill-rule="evenodd" stroke="none" />
  <path d="M0 20.964L134.391 20.964L134.391 0L0 0L0 20.964Z" transform="translate(0 44.74298)" id="Fill-32" fill="#2B2E87" fill-rule="evenodd" stroke="none" />
  <g id="Group-73" transform="translate(7.1186523 44.299316)">
    <path d="M0.025 0.440498L0 0.440498C0.036 0.480498 0.059 0.529498 0.118 0.555498C0.294 0.601498 0.474 0.587498 0.653 0.587498C6.711 0.588498 12.769 0.588498 18.827 0.586498C19.005 0.586498 19.185 0.605498 19.36 0.544498C19.426 0.504498 19.468 0.459498 19.495 0.410498C19.48 0.423498 19.461 0.421498 19.447 0.438498C12.973 0.439498 6.499 0.439498 0.025 0.440498" transform="translate(93.91997 0)" id="Fill-33" fill="#2B2E87" fill-rule="evenodd" stroke="none" />
    <path d="M0.141 0.546914C0.326 0.601914 0.518 0.582914 0.706 0.582914C6.744 0.584914 12.781 0.584914 18.818 0.582914C19.007 0.582914 19.198 0.601914 19.384 0.543914C19.438 0.519914 19.463 0.475914 19.496 0.436914L19.464 0.436914C18.133 0.436914 16.803 0.438914 15.473 0.438914C10.329 0.436914 5.185 0.435914 0.042 0.433914C0.03 0.419914 0.013 0.424914 0 0.413914C0.027 0.462914 0.069 0.508914 0.141 0.546914" transform="translate(6.7456694 0.003883888)" id="Fill-35" fill="#2B2E87" fill-rule="evenodd" stroke="none" />
    <path d="M19.356 0.453086C19.17 0.398086 18.978 0.417086 18.789 0.417086C12.753 0.414086 6.717 0.414086 0.682 0.417086C0.492 0.417086 0.301 0.399086 0.114 0.454086C0.06 0.479086 0.035 0.524086 0 0.563086C0.011 0.564086 0.021 0.564086 0.032 0.564086C0.982 0.563086 1.932 0.561086 2.883 0.561086C8.406 0.563086 13.93 0.564086 19.454 0.566086C19.466 0.579086 19.484 0.575086 19.496 0.586086C19.47 0.537086 19.428 0.491086 19.356 0.453086" transform="translate(93.91307 20.846512)" id="Fill-37" fill="#2B2E87" fill-rule="evenodd" stroke="none" />
    <path d="M19.468 0.56002L19.493 0.56002C19.457 0.52002 19.434 0.47102 19.375 0.44602C19.2 0.39902 19.019 0.41302 18.841 0.41302C12.783 0.41202 6.725 0.41202 0.667 0.41302C0.489 0.41402 0.308 0.39502 0.133 0.45602C0.066 0.49502 0.027 0.54102 0 0.58902C0.015 0.57602 0.033 0.57802 0.046 0.56202C6.52 0.56202 12.994 0.56102 19.468 0.56002" transform="translate(6.741969 20.849678)" id="Fill-39" fill="#2B2E87" fill-rule="evenodd" stroke="none" />
    <path d="M2.07395 0.0727438C1.43495 -0.0582562 0.779946 0.0307438 0.131946 0.0157438C-0.0310537 0.0127438 0.00294627 0.137744 0.00294627 0.231744C0.000946272 0.679744 0.00194627 1.12674 0.00194627 1.57474C0.00194627 2.02274 0.00394627 2.47074 0.000946272 2.91874C-0.00105373 3.04274 0.00394627 3.13074 0.171946 3.12774C0.720946 3.11674 1.27195 3.15074 1.81795 3.10974C2.76195 3.03874 3.29295 2.52474 3.35195 1.69074C3.41095 0.855744 2.95995 0.255744 2.07395 0.0727438" transform="translate(46.348522 11.563654)" id="Fill-41" fill="#2B2E87" fill-rule="evenodd" stroke="none" />
    <path d="M0.737507 2.54659C0.949507 2.54659 1.16351 2.56359 1.37451 2.54359C2.04951 2.47759 2.51251 1.97859 2.51751 1.32859C2.52351 0.620589 2.11351 0.155589 1.41051 0.0505894C1.04251 -0.00441062 0.674507 0.0225894 0.306507 0.00158938C0.078507 -0.0114106 -0.007493 0.0525894 0.000506999 0.295589C0.018507 0.808589 0.006507 1.32359 0.006507 1.83759C0.006507 2.56059 0.006507 2.56059 0.737507 2.54659" transform="translate(46.343464 7.0353084)" id="Fill-43" fill="#2B2E87" fill-rule="evenodd" stroke="none" />
    <path d="M0.0264537 3.847C-0.0455463 4.036 0.0364537 4.049 0.187454 4.049C1.11445 4.045 2.04045 4.046 3.01745 4.046C2.49545 2.691 1.99045 1.379 1.45945 0C0.963454 1.334 0.499454 2.592 0.0264537 3.847" transform="translate(35.825115 8.159298)" id="Fill-45" fill="#2B2E87" fill-rule="evenodd" stroke="none" />
    <path d="M10.164 0.00216609C9.64998 0.0231661 9.13298 0.0251661 8.61898 0.00116609C8.35298 -0.0118339 8.31398 0.0831661 8.31498 0.321166C8.32298 2.72917 8.31998 5.13617 8.31998 7.54417L8.31998 7.95417C7.68498 7.13117 7.10598 6.38417 6.52998 5.63517C5.14498 3.83717 3.75798 2.03917 2.37898 0.236166C2.25098 0.0681661 2.11898 -0.00383391 1.90498 0.00316609C1.36798 0.0181661 0.829983 0.0161661 0.292983 0.00416609C0.0809828 -0.00083391 -0.0190172 0.0471661 0.00298278 0.281166C0.0229828 0.481166 0.00698278 0.683166 0.00698278 0.885166C0.00698278 4.31117 0.00998278 7.73717 0.000982781 11.1642C-1.72193e-05 11.4372 0.0639828 11.5322 0.348983 11.5192C0.851983 11.4962 1.35698 11.4942 1.85998 11.5192C2.14598 11.5332 2.20598 11.4382 2.20498 11.1652C2.19398 8.79117 2.19898 6.41717 2.19898 4.04417L2.19898 3.60917C2.28698 3.70717 2.31898 3.73817 2.34698 3.77417C4.28098 6.27817 6.21698 8.78217 8.14698 11.2892C8.26498 11.4442 8.38398 11.5242 8.58898 11.5182C9.12598 11.5022 9.66398 11.4992 10.201 11.5182C10.443 11.5262 10.497 11.4442 10.495 11.2152C10.486 9.77017 10.491 8.32617 10.491 6.88217C10.491 4.69817 10.486 2.51517 10.497 0.332166C10.499 0.0651661 10.427 -0.00883391 10.164 0.00216609" transform="translate(100.676186 5.117932)" id="Fill-47" fill="#FFFFFF" fill-rule="evenodd" stroke="none" />
    <path d="M4.0883 9.59811C3.5433 9.63911 2.9913 9.60411 2.4433 9.61611C2.2753 9.61911 2.2703 9.53111 2.2713 9.40611C2.2743 8.95911 2.2723 8.51111 2.2723 8.06311C2.2723 7.61511 2.2713 7.16811 2.2733 6.71911C2.2743 6.62611 2.2393 6.50011 2.4023 6.50411C3.0503 6.51811 3.7063 6.42911 4.3443 6.56111C5.2303 6.74411 5.6813 7.34511 5.6223 8.17911C5.5633 9.01311 5.0323 9.52711 4.0883 9.59811M2.5723 1.96211C2.9393 1.98311 3.3083 1.95511 3.6763 2.01111C4.3793 2.11511 4.7893 2.58011 4.7833 3.28811C4.7783 3.93911 4.3153 4.43711 3.6393 4.50311C3.4293 4.52411 3.2153 4.50611 3.0033 4.50611C2.2723 4.52011 2.2723 4.52011 2.2723 3.79711C2.2723 3.28311 2.2843 2.76911 2.2663 2.25511C2.2583 2.01211 2.3443 1.94811 2.5723 1.96211M6.8073 5.83511C6.4093 5.53611 5.9493 5.37411 5.4343 5.22611C5.8223 5.08611 6.1223 4.90311 6.3683 4.63211C7.3193 3.58211 7.1763 1.73211 6.0773 0.839106C5.5123 0.381106 4.8603 0.146106 4.1473 0.0721055C2.8413 -0.0628945 1.5303 0.0401055 0.222304 0.00410555C0.0353044 -0.000894454 0.000304387 0.0701055 0.00430439 0.237106C0.0133044 0.673106 0.00730439 1.11011 0.00730439 1.54611C0.00730439 4.75911 0.00730439 7.97211 0.00830439 11.1841C0.00930439 11.3341 -0.0676956 11.5171 0.228304 11.5141C1.6163 11.4961 3.0053 11.5351 4.3913 11.4821C5.5273 11.4391 6.5133 11.0211 7.2343 10.0771C8.2463 8.75511 8.0563 6.77611 6.8073 5.83511" transform="translate(44.077866 5.0753922)" id="Fill-49" fill="#FFFFFF" fill-rule="evenodd" stroke="none" />
    <path d="M9.43804 0.00274813C8.89004 0.0147481 8.34004 0.0187481 7.79304 0.000748135C7.54404 -0.00725187 7.46904 0.0607481 7.47204 0.316748C7.48604 1.58175 7.47204 2.84675 7.48404 4.11175C7.48604 4.34975 7.41904 4.40775 7.18604 4.40675C5.64104 4.39575 4.09604 4.39475 2.55104 4.40675C2.30504 4.40875 2.22904 4.35375 2.23104 4.09475C2.24604 2.82975 2.23204 1.56475 2.24404 0.299748C2.24504 0.0657481 2.18604 -0.00725187 1.94704 0.000748135C1.41104 0.0187481 0.872038 0.0197481 0.336038 0.000748135C0.0750378 -0.00825187 -0.00196224 0.0617481 3.77644e-05 0.330748C0.0130378 2.14475 0.00603776 3.95875 0.00603776 5.77275C0.00603776 7.58675 0.0100378 9.40075 0.00103776 11.2147C3.77644e-05 11.4427 0.0510378 11.5247 0.295038 11.5167C0.832038 11.4977 1.37004 11.4977 1.90704 11.5177C2.16504 11.5257 2.24704 11.4607 2.24504 11.1887C2.23104 9.72175 2.24904 8.25475 2.23004 6.78875C2.22504 6.46675 2.32904 6.40675 2.62404 6.40975C4.12404 6.42375 5.62504 6.42675 7.12504 6.40775C7.43704 6.40375 7.48704 6.50075 7.48504 6.78275C7.47104 8.26075 7.48304 9.73875 7.47304 11.2167C7.47104 11.4507 7.53604 11.5237 7.77304 11.5167C8.33204 11.4997 8.89204 11.4997 9.45204 11.5167C9.68504 11.5237 9.72904 11.4377 9.72804 11.2277C9.72304 7.57775 9.72204 3.92775 9.73004 0.277748C9.73004 0.0427481 9.64704 -0.00225187 9.43804 0.00274813" transform="translate(71.56783 5.1194496)" id="Fill-51" fill="#FFFFFF" fill-rule="evenodd" stroke="none" />
    <path d="M4.28778 7.08733C4.13678 7.08733 4.05478 7.07533 4.12678 6.88533C4.59978 5.63133 5.06378 4.37333 5.55978 3.03833C6.09078 4.41733 6.59578 5.72933 7.11778 7.08533C6.14078 7.08533 5.21378 7.08433 4.28778 7.08733M6.78378 0.227331C6.71478 0.0503313 6.62178 -0.00166872 6.43978 0.00133128C5.83578 0.0123313 5.23078 0.0163313 4.62578 0.000331279C4.40978 -0.00566872 4.31278 0.0693313 4.23878 0.266331C3.78178 1.48633 3.31178 2.70233 2.84678 3.91933C1.91578 6.35433 0.98678 8.79033 0.0477799 11.2213C-0.0442201 11.4603 -0.0162201 11.5213 0.24578 11.5153C0.87278 11.4993 1.49978 11.5003 2.12678 11.5153C2.33078 11.5203 2.41878 11.4483 2.48378 11.2643C2.70778 10.6233 2.95478 9.99033 3.17978 9.34933C3.24378 9.16233 3.33278 9.09333 3.53778 9.09533C4.89178 9.10633 6.24678 9.10733 7.60178 9.09433C7.82678 9.09233 7.91178 9.18133 7.97978 9.37133C8.21278 10.0093 8.45878 10.6423 8.69878 11.2783C8.74678 11.4063 8.78178 11.5163 8.96678 11.5143C9.69278 11.5033 10.4208 11.5093 11.1818 11.5093C11.1558 11.4093 11.1478 11.3533 11.1288 11.3023C9.67978 7.61033 8.22878 3.92133 6.78378 0.227331" transform="translate(31.72469 5.1204667)" id="Fill-53" fill="#FFFFFF" fill-rule="evenodd" stroke="none" />
    <path d="M7.26306 9.44701C5.69506 9.46101 4.12806 9.44901 2.56006 9.45901C2.32506 9.46101 2.26006 9.40001 2.26506 9.16501C2.28006 8.35801 2.28006 7.55201 2.26506 6.74601C2.26006 6.49401 2.31206 6.40401 2.58906 6.41001C3.65206 6.42801 4.71606 6.40201 5.78006 6.42501C6.10306 6.43301 6.17106 6.32701 6.15606 6.03201C6.13206 5.59701 6.13006 5.15801 6.15606 4.72301C6.17206 4.44401 6.06706 4.39301 5.81306 4.39601C4.72706 4.40901 3.64106 4.39301 2.55506 4.40801C2.31206 4.41101 2.25906 4.33801 2.26506 4.10901C2.28206 3.51601 2.28506 2.92201 2.26406 2.32901C2.25506 2.07101 2.33206 2.01601 2.57906 2.01801C4.00106 2.03101 5.42306 2.01701 6.84506 2.03101C7.11806 2.03301 7.18706 1.95101 7.17606 1.69201C7.15506 1.23401 7.15306 0.773007 7.17706 0.316007C7.19006 0.0560073 7.10406 0.00100735 6.85706 0.00200735C4.68506 0.0110073 2.51206 0.0140073 0.340061 7.34577e-06C0.0440608 -0.000992654 -0.00193922 0.100007 6.0784e-05 0.364007C0.0100608 2.16701 0.00506078 3.97001 0.00506078 5.77301C0.00506078 7.58701 0.00706078 9.40101 0.00306078 11.215C0.00206078 11.406 0.0140608 11.518 0.265061 11.517C2.62706 11.508 4.99006 11.509 7.35306 11.516C7.55506 11.517 7.59206 11.443 7.58906 11.263C7.57806 10.771 7.57106 10.277 7.59106 9.78501C7.60106 9.52801 7.53606 9.44501 7.26306 9.44701" transform="translate(113.57901 5.1187906)" id="Fill-55" fill="#FFFFFF" fill-rule="evenodd" stroke="none" />
    <path d="M9.281 9.405C7.613 9.418 5.945 9.412 4.277 9.409C4.162 9.409 4.036 9.452 3.904 9.356C5.794 6.249 7.68 3.148 9.572 0.039C9.52 0.02 9.51 0.014 9.5 0.014C6.455 0.011 3.411 0.009 0.366 0C0.17 0 0.154 0.09 0.155 0.247C0.162 0.728 0.173 1.21 0.152 1.69C0.14 1.954 0.217 2.028 0.485 2.027C2.164 2.014 3.842 2.019 5.521 2.022C5.64 2.023 5.763 1.991 5.909 2.065C3.945 5.204 1.985 8.337 0 11.508C3.17 11.508 6.27 11.506 9.371 11.512C9.573 11.512 9.612 11.433 9.609 11.255C9.601 10.752 9.593 10.248 9.612 9.744C9.622 9.485 9.553 9.403 9.281 9.405" transform="translate(21.02027 5.122398)" id="Fill-57" fill="#FFFFFF" fill-rule="evenodd" stroke="none" />
    <path d="M7.23702 9.44501C5.68102 9.46201 4.12402 9.44801 2.56702 9.45801C2.33702 9.45901 2.26102 9.40801 2.26502 9.16501C2.28102 8.36001 2.28102 7.55301 2.26502 6.74601C2.26102 6.49201 2.31802 6.40401 2.59202 6.40901C3.67902 6.42601 4.76502 6.41001 5.85202 6.42001C6.06702 6.42301 6.14002 6.37001 6.13202 6.14601C6.11402 5.66501 6.10902 5.18201 6.13302 4.70201C6.14602 4.43701 6.05202 4.39201 5.81102 4.39501C4.75902 4.40801 3.70702 4.39101 2.65402 4.40701C2.36402 4.41101 2.24502 4.36001 2.26302 4.03401C2.29302 3.48701 2.28702 2.93701 2.26502 2.38901C2.25302 2.10601 2.31302 2.01001 2.62402 2.01401C4.02302 2.03401 5.42302 2.01501 6.82302 2.03001C7.09502 2.03201 7.16502 1.95001 7.15402 1.69101C7.13402 1.22101 7.13702 0.750009 7.15402 0.280009C7.16202 0.0570092 7.09002 0.00100924 6.87302 0.00100924C4.67802 0.00900924 2.48202 0.0100092 0.287017 9.24449e-06C0.0410172 -0.000990756 -0.000982803 0.0790092 1.71967e-05 0.303009C0.0100172 2.11801 0.0060172 3.93201 0.0060172 5.74601C0.0060172 7.57101 0.0060172 9.39701 0.0050172 11.222C0.0050172 11.379 -0.0289828 11.518 0.230017 11.517C2.60402 11.506 4.97802 11.508 7.35202 11.514C7.54602 11.515 7.60102 11.454 7.59602 11.266C7.58502 10.785 7.57502 10.302 7.59902 9.82101C7.61302 9.53501 7.54402 9.44201 7.23702 9.44501" transform="translate(53.35245 5.1199884)" id="Fill-59" fill="#FFFFFF" fill-rule="evenodd" stroke="none" />
    <path d="M7.20807 9.44603C5.64007 9.46103 4.07307 9.44903 2.50607 9.45803C2.28807 9.45903 2.21907 9.40303 2.22307 9.17903C2.23607 8.36203 2.23807 7.54503 2.22207 6.72803C2.21707 6.47803 2.28107 6.40603 2.53607 6.40903C3.62207 6.42403 4.70807 6.40503 5.79407 6.42303C6.06807 6.42703 6.13007 6.34203 6.11907 6.08703C6.09907 5.62803 6.09807 5.16803 6.11907 4.70903C6.13107 4.45603 6.05507 4.39103 5.80307 4.39503C4.72907 4.40903 3.65307 4.38603 2.57907 4.40903C2.26707 4.41603 2.21007 4.31803 2.22107 4.03503C2.24407 3.48803 2.24407 2.93803 2.22107 2.39003C2.21007 2.10603 2.27007 2.01103 2.58107 2.01503C4.00207 2.03403 5.42507 2.01903 6.84607 2.02803C7.05507 2.02903 7.14207 1.98803 7.13307 1.75503C7.11407 1.26303 7.11607 0.769034 7.13307 0.277034C7.14007 0.0530344 7.07007 0.00103438 6.85307 0.00203438C4.67007 0.00903438 2.48607 0.0120344 0.303069 3.43847e-05C0.0380691 -0.00196562 -0.00193087 0.0830344 6.91329e-05 0.320034C0.0100691 2.13403 0.00506913 3.94803 0.00506913 5.76203L0.00506913 11.203C0.00506913 11.368 -0.0399309 11.519 0.243069 11.518C2.59407 11.505 4.94507 11.508 7.29707 11.516C7.51207 11.516 7.56007 11.444 7.55507 11.246C7.54307 10.764 7.53507 10.282 7.55707 9.80203C7.56907 9.52604 7.49307 9.44304 7.20807 9.44603" transform="translate(0 5.1197634)" id="Fill-61" fill="#FFFFFF" fill-rule="evenodd" stroke="none" />
    <path d="M8.15706 0.00803431C5.55906 0.00803431 2.96206 0.0140343 0.363064 3.43071e-05C0.0590639 -0.00196569 -0.0139361 0.0830343 0.0020639 0.372034C0.0280639 0.818034 0.0240639 1.26803 0.0040639 1.71403C-0.0089361 1.97003 0.0730639 2.03503 0.324064 2.03103C1.21906 2.01603 2.11506 2.03703 3.01106 2.01803C3.28706 2.01103 3.34406 2.10203 3.33406 2.35403C3.31506 2.82403 3.32806 3.29503 3.32806 3.76503C3.32806 6.24003 3.33306 8.71503 3.32206 11.19C3.32006 11.46 3.39806 11.527 3.65806 11.518C4.19506 11.499 4.73306 11.5 5.27006 11.518C5.51106 11.526 5.56606 11.444 5.56506 11.215C5.55506 9.73804 5.56006 8.25903 5.56006 6.78203C5.56006 5.31403 5.57006 3.84703 5.55206 2.38103C5.54706 2.07103 5.64406 2.01203 5.92906 2.01803C6.79006 2.03603 7.65306 2.00603 8.51506 2.03403C8.85506 2.04503 8.93506 1.93603 8.90506 1.62303C8.87806 1.33503 8.89906 1.04203 8.89906 0.751034C8.89906 0.00803431 8.89906 0.00803431 8.15706 0.00803431" transform="translate(61.257706 5.1183634)" id="Fill-63" fill="#FFFFFF" fill-rule="evenodd" stroke="none" />
    <path d="M6.70804 9.40889C5.51004 9.42189 4.31304 9.41489 3.11604 9.41489C2.23804 9.41489 2.23804 9.41489 2.23804 8.52289C2.23804 5.79189 2.23304 3.06089 2.24404 0.33089C2.24504 0.0628903 2.17104 -0.00910969 1.91004 0.000890306C1.38504 0.0208903 0.858042 0.0218903 0.333042 0.000890306C0.0670419 -0.00910969 -0.00195809 0.0698903 4.19079e-05 0.33389C0.0120419 2.14689 0.00604191 3.96089 0.00604191 5.77389C0.00604191 7.58689 0.0100419 9.39989 0.00104191 11.2129C4.19079e-05 11.4379 0.0470419 11.5179 0.292042 11.5169C2.44104 11.5079 4.59004 11.5079 6.73804 11.5169C6.95004 11.5169 7.00404 11.4559 6.99904 11.2529C6.98504 10.7389 6.98204 10.2229 6.99904 9.70889C7.00704 9.47889 6.95004 9.40589 6.70804 9.40889" transform="translate(8.941927 5.1188073)" id="Fill-65" fill="#FFFFFF" fill-rule="evenodd" stroke="none" />
    <path d="M6.67113 9.40952C5.31713 9.42352 3.96313 9.40352 2.60913 9.42452C2.28813 9.42852 2.23213 9.32552 2.23313 9.03252C2.24313 6.13452 2.23613 3.23652 2.24513 0.338524C2.24613 0.079524 2.18613 -0.009476 1.91613 0.002524C1.40213 0.024524 0.886127 0.024524 0.372127 0.001524C0.0861267 -0.011476 -0.00387331 0.054524 0.000126694 0.361524C0.0161267 2.16352 0.00712669 3.96452 0.00712669 5.76552C0.00712669 7.57852 0.0131267 9.39152 0.00212669 11.2045C0.000126694 11.4575 0.0681267 11.5195 0.319127 11.5185C2.44513 11.5085 4.57113 11.5095 6.69713 11.5175C6.92413 11.5185 7.01213 11.4675 7.00313 11.2235C6.98513 10.7325 6.98313 10.2385 7.00313 9.74752C7.01413 9.48552 6.94013 9.40652 6.67113 9.40952" transform="translate(87.59964 5.1178737)" id="Fill-67" fill="#FFFFFF" fill-rule="evenodd" stroke="none" />
    <path d="M2.25501 0.312547C2.25601 0.0935469 2.21801 -0.0084531 1.96701 0.000546898C1.39601 0.0185469 0.82501 0.0115469 0.25501 0.0025469C0.07301 0.000546898 9.98553e-06 0.0465469 9.98553e-06 0.245547C0.00600999 3.91555 0.00600999 7.58555 9.98553e-06 11.2555C-0.000990014 11.4685 0.07301 11.5195 0.27101 11.5145C0.80801 11.5025 1.34601 11.4945 1.88201 11.5175C2.16901 11.5295 2.26101 11.4635 2.25901 11.1555C2.24201 9.35355 2.25101 7.55255 2.25101 5.75055C2.25101 3.93855 2.24701 2.12455 2.25501 0.312547" transform="translate(95.97496 5.119851)" id="Fill-69" fill="#FFFFFF" fill-rule="evenodd" stroke="none" />
    <path d="M2.234 0.303622C2.235 0.0796224 2.194 -0.00837755 1.946 0.000622448C1.388 0.0206224 0.828 0.0146224 0.268 0.00262245C0.074 -0.00137755 0 0.0366224 0 0.255622C0.008 3.92462 0.008 7.59362 0 11.2636C0 11.4836 0.075 11.5196 0.27 11.5156C0.796 11.5036 1.322 11.4956 1.847 11.5176C2.14 11.5306 2.241 11.4656 2.238 11.1446C2.22 9.35462 2.229 7.56362 2.229 5.77462C2.229 3.95162 2.225 2.12762 2.234 0.303622" transform="translate(17.335468 5.1191754)" id="Fill-71" fill="#FFFFFF" fill-rule="evenodd" stroke="none" />
  </g>
</svg>
