<svg xmlns="http://www.w3.org/2000/svg" width="139.55" height="27.14" viewBox="0 0 139.55 27.14">
  <g id="Слой_2" data-name="Слой 2">
    <g id="Слой_1-2" data-name="Слой 1">
      <path d="M57.38,0h7.07V1.14H61.51V8.89H60.3V1.14H57.38Zm8.36,0H67V3.76h4.9V0h1.2V8.9H71.9v-4H67v4H65.74Zm9.2,0h6.14V1.14H76.14V3.75h4.41V4.92H76.14V7.74h4.94V8.9H74.94ZM0,13.72H8.84v1.42H1.5v4.65H8.07v1.43H1.5v5.61H0Zm10.77,0h1.5V22a3.74,3.74,0,0,0,1,2.7,3.43,3.43,0,0,0,2.57,1,3.35,3.35,0,0,0,2.54-1,3.74,3.74,0,0,0,1-2.7V13.72h1.5V22a4.88,4.88,0,0,1-4.61,5.13h-.39a4.92,4.92,0,0,1-5.05-4.78,2.16,2.16,0,0,1,0-.36Zm11.73,0H32.71v1.42H28.36V26.86h-1.5V15.14H22.5Zm11.92,0h1.5V22a3.74,3.74,0,0,0,1,2.7,3.39,3.39,0,0,0,2.57,1,3.32,3.32,0,0,0,2.53-1A3.74,3.74,0,0,0,43,22V13.72h1.5V22a5,5,0,0,1-10.06,0Zm12.67,0h5.72a3.65,3.65,0,0,1,3.93,3.35c0,.13,0,.27,0,.4A3.52,3.52,0,0,1,54,21.14l2.75,5.78H55.06l-2.64-5.65H48.59V26.9h-1.5Zm5.66,6.08a2.32,2.32,0,1,0,.3-4.63H48.59V19.8Zm6.1-6.08h9v1.42h-7.5V19.4h6.7v1.42h-6.7v4.56h7.47v1.45h-9Zm16.61,0,2.78,11,2.89-11h1.63l2.89,11.09,2.78-11.09H90L86.57,26.86H84.73L82,16.14,79.2,26.9H77.3L73.92,13.72Zm22.09-.28a6.85,6.85,0,1,1-6.66,7v-.15a6.57,6.57,0,0,1,6.24-6.88Zm0,12.26a5.42,5.42,0,0,0,0-10.82,5.19,5.19,0,0,0-5.17,5.19c0,.09,0,.17,0,.26a5.09,5.09,0,0,0,4.81,5.35h.35Zm9-12h5.72a3.65,3.65,0,0,1,3.93,3.35c0,.13,0,.27,0,.4a3.52,3.52,0,0,1-2.74,3.69l2.74,5.78h-1.66l-2.64-5.65h-3.83V26.9h-1.5Zm5.67,6.08a2.32,2.32,0,1,0,.3-4.63h-4.47v4.63Zm6.1-6.08h1.48V20l6.74-6.33h2.06l-5.95,5.61,6,7.55h-1.92l-5.18-6.5L119.79,22v4.85h-1.48Zm12.14,8.13a4.12,4.12,0,0,0,4.15,3.85c2.1,0,3.41-1,3.41-2.63,0-1.35-1.2-2.14-3.81-2.42-2.91-.3-4.35-1.54-4.35-3.72s1.91-3.47,4.5-3.47a4.9,4.9,0,0,1,3.12,1.05,4.64,4.64,0,0,1,1.69,2.78l-1.47.5a3.42,3.42,0,0,0-3.34-2.89c-1.74,0-3,.83-3,2,0,1.33.95,2,3.19,2.25,3.32.36,5,1.6,5,3.91s-2,4.07-5,4.07a5.56,5.56,0,0,1-3.76-1.31A5.9,5.9,0,0,1,129,22.28Z" fill="#1d1d1b"/>
    </g>
  </g>
</svg>
