<?xml version="1.0" encoding="utf-8"?>
<svg width="135px" height="25px" viewBox="0 0 135 25" version="1.1" xmlns:xlink="http://www.w3.org/1999/xlink" xmlns="http://www.w3.org/2000/svg">
  <defs>
    <path d="M0 0L26.4936 0L26.4936 24.3427L0 24.3427L0 0Z" id="path_1" />
    <clipPath id="mask_1">
      <use xlink:href="#path_1" />
    </clipPath>
  </defs>
  <g id="Group-12">
    <path d="M0 0L0 23.076L20.474 23.076L20.474 16.0154L8.69081 16.0154L8.69081 0L0 0Z" transform="translate(0 0.824144)" id="Fill-1" fill="#000000" fill-rule="evenodd" stroke="none" />
    <g id="Group-11" transform="translate(22.111877 0)">
      <path d="M25.7096 0.0988833L25.7842 0L1.23722 0L1.23722 6.43963L12.086 6.43963C12.066 6.46232 12.0384 6.49198 12.0384 6.49198C11.5676 7.14112 0.497828 22.2586 0.0752326 22.8362L0 22.9351L24.9584 22.9351L24.9584 16.2052L14.0291 16.2052C14.052 16.1703 14.9131 14.9762 14.9131 14.9762C17.5345 11.3338 25.3493 0.582248 25.7096 0.0988833" transform="translate(58.722416 0.9518392)" id="Fill-2" fill="#000000" fill-rule="evenodd" stroke="none" />
      <path d="M13.6735 0C6.41241 0 0 4.49512 0 12.3848C0 20.2717 6.45472 24.7243 13.6735 24.7243C20.8918 24.7243 27.3471 20.2717 27.3471 12.3848C27.3471 4.49512 20.9347 0 13.6735 0M13.6735 18.0916C10.5361 18.0916 8.07223 15.5689 8.07223 12.3575C8.07223 9.14322 10.5361 6.61878 13.6735 6.61878C16.8104 6.61878 19.2742 9.14322 19.2742 12.3575C19.2742 15.5689 16.8104 18.0916 13.6735 18.0916" id="Fill-4" fill="#000000" fill-rule="evenodd" stroke="none" />
      <path d="M14.718 0.00163321C12.2318 0.0388599 9.57218 1.24524 8.01521 3.62949L8.01521 0.643211L0 0.643211L0 23.5911L8.01521 23.5911L8.01521 12.2399C7.99699 8.07691 11.4553 7.05609 13.2127 7.21255C16.0222 7.46034 17.4892 9.1972 17.4892 12.6814C17.4892 12.6837 17.4975 23.5911 17.4975 23.5911L25.5044 23.5911L25.5044 10.3245C25.5044 3.89705 20.8671 -0.0925968 14.718 0.00163321" transform="translate(30.679396 0.2808241)" id="Fill-6" fill="#000000" fill-rule="evenodd" stroke="none" />
      <g id="Group-10" transform="translate(85.70372 0.22580297)">
        <path d="M0 0L26.4936 0L26.4936 24.3427L0 24.3427L0 0Z" id="Clip-9" fill="none" fill-rule="evenodd" stroke="none" />
        <g clip-path="url(#mask_1)">
          <path d="M18.6213 0.53746L18.6213 2.87401L18.5137 2.75768C16.9338 1.03304 14.1743 0 11.7457 0C8.42547 0 5.41087 1.1645 3.25793 3.28293C1.15729 5.34435 0 8.49408 0 12.1516C0 19.0996 5.08819 24.3427 11.8362 24.3427C13.8892 24.3427 16.7134 23.8373 18.509 21.4315L18.6213 21.2826L18.6213 23.6465L26.4936 23.6465L26.4936 0.53746L18.6213 0.53746ZM13.8516 17.8682C10.7594 17.8682 8.24267 15.3106 8.24267 12.169C8.24267 9.02688 10.7594 6.46697 13.8516 6.46697C16.9438 6.46697 19.2778 9.02688 19.2778 12.169C19.2778 15.3106 16.9438 17.8682 13.8516 17.8682L13.8516 17.8682Z" id="Fill-8" fill="#000000" fill-rule="evenodd" stroke="none" />
        </g>
      </g>
    </g>
  </g>
</svg>