<svg xmlns="http://www.w3.org/2000/svg" width="137" height="36" viewBox="0 0 137 36"><defs><clipPath id="zmd7a"><path d="M21.35.75h20.36v32.878H21.35z"/></clipPath></defs><g><g><g><path d="M126.3 19.616l-5.59-8.186h5.047c.543.902 2.587 3.975 3.129 4.877l3.098-4.877h4.822l-5.492 8.053 5.684 8.386h-4.982l-3.29-5.046c-.574.902-2.682 4.144-3.225 5.046h-4.791z"/></g><g><path d="M111.755 24.69c-2.053 0-3.947-1.588-3.947-4.63 0-3.076 1.894-4.63 3.947-4.63 2.051 0 3.945 1.554 3.945 4.63zm0-13.26c-4.64 0-8.145 3.604-8.145 8.63 0 4.992 3.504 8.63 8.145 8.63 4.64 0 8.143-3.638 8.143-8.63z"/></g><g><path d="M89.149 24.142v-6.07h3.578c2.166 0 3.295 1.266 3.295 3.083 0 1.85-1.255 2.987-3.358 2.987zm0-9.78V8.625h3.044c2.103 0 3.202 1.102 3.202 2.853 0 1.75-1.193 2.884-3.17 2.884zM84.88 4.86v23.015h8.6c4.174 0 6.874-2.694 6.874-6.427 0-2.856-1.757-4.902-3.923-5.453 1.852-.65 3.233-2.565 3.233-4.934 0-3.572-2.448-6.201-6.78-6.201z"/></g><g><path d="M67.449 35.264l3.654-8.588L64.52 12.25h4.693l4.126 9.662 3.81-9.662h4.474L71.89 35.264z"/></g><g><path d="M51.681 24.142v-6.07h3.576c2.164 0 3.293 1.266 3.293 3.083 0 1.85-1.255 2.987-3.356 2.987zm0-9.78V8.625h3.042c2.101 0 3.199 1.102 3.199 2.853 0 1.75-1.192 2.884-3.168 2.884zM47.41 4.86v23.015h8.6c4.174 0 6.874-2.694 6.874-6.427 0-2.856-1.757-4.902-3.923-5.453 1.852-.65 3.233-2.565 3.233-4.934 0-3.572-2.448-6.201-6.78-6.201z"/></g><g><g/><g clip-path="url(#zmd7a)"><path d="M21.35 5.025L25.55.75l16.16 16.44-16.16 16.438-4.2-4.273 11.957-12.166z"/></g></g><g><path d="M.18 17.189L15.654.75l15.474 16.439-15.474 16.439z"/></g></g></g></svg>