<svg xmlns="http://www.w3.org/2000/svg" width="375" height="55" viewBox="0 0 375 55"><g><g><g><path d="M31.491 29.797H11.714l-2.93 7.951c-.978 2.568-.52 4.131 2.017 4.131h3.643v2.257H0v-2.257h1.759c1.495 0 2.731-1 3.251-2.375L17.894 4.942c.52-1.377-.196-2.316-1.628-2.316h-3.578V.31h12.233L38.97 39.316c.523 1.376 1.89 2.563 3.192 2.563h1.884v2.257H28.888v-2.257h6.962zm-18.803-2.501h17.891L21.926 3.19h-.327z"/></g><g><path d="M46.96 42.573v-6.138h2.539c.258 3.007.716 4.132 2.018 4.632 1.627.563 3.255.938 6.64.938 6.05 0 9.374-2.382 9.374-7.008 0-4.012-3.128-5.263-9.31-6.263-6.573-1.063-10.545-2.694-10.545-8.704 0-5.633 4.23-8.89 11.781-8.89 5.466 0 8.398.752 10.482 1.566v5.758h-2.473c-.328-2.566-.654-3.506-2.02-4.067-1.432-.564-2.865-.753-6.052-.753-5.597 0-8.331 2.254-8.331 5.95 0 4.068 2.666 5.133 8.786 6.134 7.158 1.125 11.196 3.006 11.196 8.832 0 6.257-4.103 9.826-12.824 9.826-6.056 0-9.112-1.006-11.261-1.813"/></g><g><path d="M81.324 41.889h5.854v2.256H72.799v-2.256h2.864c.975 0 1.887-.875 1.887-1.813V4.513c0-.875-.912-1.877-1.887-1.877H72.54V.32h7.872c.653 0 .912.375.912 1.127v15.776c3.708-3.131 8.911-6.072 14.444-6.072 5.075 0 9.108 1.627 9.108 8.138v20.787c0 .938.977 1.813 1.886 1.813h2.541v2.256H95.248v-2.256h5.854V20.351c0-5.196-2.734-6.259-6.57-6.259-4.882 0-9.372 2.377-13.208 5.383z"/></g><g><path d="M117.044 40.067v1.501c0 1.193-1.236 2.568-1.887 2.568h-1.89V4.505c0-.878-.909-1.879-1.884-1.879h-3.123V.31h7.872c.65 0 .912.375.912 1.129v16.338c2.731-3.255 6.763-6.636 13.205-6.636 6.507 0 13.407 3.631 13.407 16.281 0 12.895-7.94 16.959-15.291 16.959zm22.77-12.4c0-10.955-5.334-13.771-10.801-13.771-5.206 0-9.173 3.19-11.969 6.447v17.085c2.6 2.818 5.595 4.505 10.801 4.505z"/></g><g><path d="M150.82 52.032c3.643-1.25 6.959-4.132 9.628-9.264l-11.842-26.61c-.651-1.38-1.756-2.316-2.929-2.316h-1.237V11.46h12.691v2.382h-5.598L162.4 38.756l9.303-21.973c.719-1.691.066-2.941-1.69-2.941h-2.734V11.46h12.233v2.382h-1.497c-1.171 0-2.149.875-2.796 2.316l-11.455 26.167c-2.666 6.075-6.374 10.207-9.824 11.963h-3.12z"/></g><g><path d="M186.05 22.099c0 14.778 8.46 22.354 20.824 22.354 7.942 0 12.498-2.313 16.011-5.638v-2.813h-2.212c-2.341 3.381-6.64 5.82-13.668 5.82-10.282 0-16.79-6.514-16.79-19.845 0-13.461 7.747-19.348 17.313-19.348 5.141 0 8.72 1.88 10.736 3.571l.715 6.448h2.798V.313h-2.667c-.062.94-.648 1.755-1.105 1.755C216.378 1.378 213.382 0 207.462 0c-11.847 0-21.412 7.329-21.412 22.099"/></g><g><path d="M186.05 22.099c0 14.778 8.46 22.354 20.824 22.354 7.942 0 12.498-2.313 16.011-5.638v-2.813h-2.212c-2.341 3.381-6.64 5.82-13.668 5.82-10.282 0-16.79-6.514-16.79-19.845 0-13.461 7.747-19.348 17.313-19.348 5.141 0 8.72 1.88 10.736 3.571l.715 6.448h2.798V.313h-2.667c-.062.94-.648 1.755-1.105 1.755C216.378 1.378 213.382 0 207.462 0c-11.847 0-21.412 7.329-21.412 22.099"/></g><g><path d="M240.765 11.15c6.897 0 11.58 2.063 11.58 9.075v18.968c0 1.943.844 2.756 2.668 2.756.781 0 1.691-.182 1.691-.182v2.063c-.389.188-1.56.557-2.927.557-3.254 0-5.206-1.313-5.206-4.376v-.688c-2.6 3.126-6.115 5.133-11.122 5.133-6.707 0-11.259-3.007-11.259-9.52 0-6.576 5.661-9.514 13.535-9.514 3.319 0 6.181.313 8.846 1v-5.883c0-5.257-3.316-6.823-8.133-6.823-5.007 0-8.198 1.566-10.15 3.254h-1.884v-3.068zm-2.8 30.8c5.07 0 7.995-2.251 10.593-5.321v-7.893c-2.536-.562-5.264-.938-8.189-.938-6.434 0-10.532 2.064-10.532 7.136z"/></g><g><path d="M240.765 11.15c6.897 0 11.58 2.063 11.58 9.075v18.968c0 1.943.844 2.756 2.668 2.756.781 0 1.691-.182 1.691-.182v2.063c-.389.188-1.56.557-2.927.557-3.254 0-5.206-1.313-5.206-4.376v-.688c-2.6 3.126-6.115 5.133-11.122 5.133-6.707 0-11.259-3.007-11.259-9.52 0-6.576 5.661-9.514 13.535-9.514 3.319 0 6.181.313 8.846 1v-5.883c0-5.257-3.316-6.823-8.133-6.823-5.007 0-8.198 1.566-10.15 3.254h-1.884v-3.068zm-2.8 30.8c5.07 0 7.995-2.251 10.593-5.321v-7.893c-2.536-.562-5.264-.938-8.189-.938-6.434 0-10.532 2.064-10.532 7.136z"/></g><g><path d="M278.574 11.15c6.504 0 13.404 3.882 13.404 16.216 0 12.708-7.806 16.715-15.032 16.715-5.726 0-8.98-1.813-11.387-4.32v12.396h6.053v2.131H257.04v-2.131h2.861c.978 0 1.887-.938 1.887-1.819v-34.62c0-.876-.909-1.877-1.887-1.877h-3.191v-2.38h7.681c.716 0 1.168.626 1.168 2.441v3.879zm-2.215 30.487c5.403 0 11.781-2.563 11.781-14.021 0-11.02-5.662-13.714-10.738-13.714-5.075 0-9.05 3.196-11.846 6.445V37.13z"/></g><g><path d="M278.574 11.15c6.504 0 13.404 3.882 13.404 16.216 0 12.708-7.806 16.715-15.032 16.715-5.726 0-8.98-1.813-11.387-4.32v12.396h6.053v2.131H257.04v-2.131h2.861c.978 0 1.887-.938 1.887-1.819v-34.62c0-.876-.909-1.877-1.887-1.877h-3.191v-2.38h7.681c.716 0 1.168.626 1.168 2.441v3.879zm-2.215 30.487c5.403 0 11.781-2.563 11.781-14.021 0-11.02-5.662-13.714-10.738-13.714-5.075 0-9.05 3.196-11.846 6.445V37.13z"/></g><g><path d="M300.322 6.835c1.429 0 2.537-1.067 2.537-2.446 0-1.38-1.108-2.449-2.537-2.449-1.436 0-2.538 1.07-2.538 2.449 0 1.379 1.102 2.446 2.538 2.446zm-6.832 4.623v2.38h3.515c.972 0 1.881 1 1.881 1.877v24.356c0 .937-.909 1.818-1.881 1.818h-3.194v2.251h13.992v-2.251h-3.253c-.912 0-1.89-.881-1.89-1.818V13.399c0-1.505-.261-1.941-.972-1.941z"/></g><g><path d="M300.322 6.835c1.429 0 2.537-1.067 2.537-2.446 0-1.38-1.108-2.449-2.537-2.449-1.436 0-2.538 1.07-2.538 2.449 0 1.379 1.102 2.446 2.538 2.446zm-6.832 4.623v2.38h3.515c.972 0 1.881 1 1.881 1.877v24.356c0 .937-.909 1.818-1.881 1.818h-3.194v2.251h13.992v-2.251h-3.253c-.912 0-1.89-.881-1.89-1.818V13.399c0-1.505-.261-1.941-.972-1.941z"/></g><g><path d="M312.382 2.44v9.015H307.5v2.38h4.882v23.226c0 5.326 2.861 7.389 8.261 7.389 1.952 0 3.967-.375 5.072-.751v-2.381h-1.819c-.52.313-1.756.625-3.188.625-3.385 0-4.555-1.313-4.555-5.194V13.835h8.849v-2.38h-8.849V2.44z"/></g><g><path d="M312.382 2.44v9.015H307.5v2.38h4.882v23.226c0 5.326 2.861 7.389 8.261 7.389 1.952 0 3.967-.375 5.072-.751v-2.381h-1.819c-.52.313-1.756.625-3.188.625-3.385 0-4.555-1.313-4.555-5.194V13.835h8.849v-2.38h-8.849V2.44z"/></g><g><path d="M342.242 11.15c6.896 0 11.579 2.063 11.579 9.075v18.968c0 1.943.847 2.756 2.669 2.756.781 0 1.69-.182 1.69-.182v2.063c-.389.188-1.563.557-2.926.557-3.257 0-5.206-1.313-5.206-4.376v-.688c-2.603 3.126-6.115 5.133-11.125 5.133-6.701 0-11.253-3.007-11.253-9.52 0-6.576 5.657-9.514 13.532-9.514 3.316 0 6.177.313 8.846 1v-5.883c0-5.257-3.317-6.823-8.133-6.823-5.007 0-8.195 1.566-10.151 3.254h-1.883v-3.068zm-2.799 30.8c5.075 0 8.002-2.251 10.605-5.321v-7.893c-2.538-.562-5.269-.938-8.196-.938-6.444 0-10.542 2.064-10.542 7.136z"/></g><g><path d="M342.242 11.15c6.896 0 11.579 2.063 11.579 9.075v18.968c0 1.943.847 2.756 2.669 2.756.781 0 1.69-.182 1.69-.182v2.063c-.389.188-1.563.557-2.926.557-3.257 0-5.206-1.313-5.206-4.376v-.688c-2.603 3.126-6.115 5.133-11.125 5.133-6.701 0-11.253-3.007-11.253-9.52 0-6.576 5.657-9.514 13.532-9.514 3.316 0 6.177.313 8.846 1v-5.883c0-5.257-3.317-6.823-8.133-6.823-5.007 0-8.195 1.566-10.151 3.254h-1.883v-3.068zm-2.799 30.8c5.075 0 8.002-2.251 10.605-5.321v-7.893c-2.538-.562-5.269-.938-8.196-.938-6.444 0-10.542 2.064-10.542 7.136z"/></g><g><path d="M360.54.31v2.316h3.447c.975 0 1.949 1.004 1.949 1.88v35.562c0 .937-.974 1.818-1.949 1.818h-3.188v2.251h14.054v-2.251H371.6c-.978 0-1.95-.881-1.95-1.818V1.438c0-.753-.199-1.128-.847-1.128z"/></g><g><path d="M360.54.31v2.316h3.447c.975 0 1.949 1.004 1.949 1.88v35.562c0 .937-.974 1.818-1.949 1.818h-3.188v2.251h14.054v-2.251H371.6c-.978 0-1.95-.881-1.95-1.818V1.438c0-.753-.199-1.128-.847-1.128z"/></g></g></g></svg>
