<svg xmlns="http://www.w3.org/2000/svg" width="210" height="33" viewBox="0 0 210 33"><g><g><g><path d="M46.869 15.446c-.713.743-1.069 2.246-1.069 3.258 0 .686.204.981.695.981.712 0 1.44-.64 1.679-1.189l.897-3.588c-.101-.06-.405-.118-.61-.118-.562 0-.983.03-1.592.656"/></g><g><path d="M143.59 11.52h-1.134l-1.786 8.159h1.235a2.76 2.76 0 0 0 2.327-1.249c1.11-1.679 1.345-4.103 1.345-4.746 0-1.107-.325-2.164-1.987-2.164"/></g><g><path d="M132.494 12.51c0-.585-.375-.99-.937-.99-.826 0-1.517.747-1.517 1.654 0 .422.168.887.748 1.61 1.07-.463 1.706-1.368 1.706-2.275"/></g><g><path d="M154.312 13.15c-1.026 0-1.784.592-2.192 2.35 0 0 .408.098.765.098 1.164 0 2.506-.395 2.506-1.401 0-.614-.28-1.047-1.079-1.047"/></g><g><path d="M71.971 14.197c0-.614-.28-1.047-1.081-1.047-1.024 0-1.79.592-2.19 2.35 0 0 .4.098.763.098 1.166 0 2.508-.395 2.508-1.401"/></g><g><path d="M103.295 14.735c-.71.867-1.065 2.62-1.065 3.8 0 .802.202 1.146.694 1.146.712 0 1.439-.746 1.678-1.388l.9-4.185c-.104-.07-.408-.138-.61-.138-.562 0-.987.035-1.597.765"/></g><g><path d="M89.096 15.6h-1.649l-.757 3.264h1.724c.55 0 1.02-.138 1.363-.349.59-.364 1.002-1.112 1.002-1.789 0-.848-.509-1.126-1.683-1.126"/></g><g><path d="M90.004 11.52H88.2l-.689 3.264h1.7c.794 0 1.163-.166 1.518-.412.455-.329.871-.904.871-1.6 0-.881-.396-1.252-1.595-1.252"/></g><g><path d="M127.59 18.444c0 .781.669 1.24 1.85 1.24.94 0 1.71-.221 2.24-.61l-2.561-2.654c-.976.458-1.529 1.156-1.529 2.024"/></g><g><path d="M209.372.1l-19.074 32.636H0V.1zM32.636 13.751c-.826-.279-1.121-.676-1.121-1.16 0-.83.927-1.518 2.032-1.518 1.048 0 1.91.256 2.697.844l1.472-1.66c-.892-.762-2.313-1.21-3.804-1.21-2.889 0-5.2 1.97-5.2 4.392 0 1.401.841 2.058 2.225 2.525l1.278.433c.875.291 1.297.689 1.297 1.295 0 1.194-.998 1.99-2.543 1.99-1.225 0-2.134-.344-3.15-.935l-1.295 1.85c1.014.642 2.292 1.091 4.008 1.091 3.644 0 5.902-2.144 5.902-4.758 0-1.363-.82-2.194-2.396-2.71zm8.343 6.278c-.527 0-.79-.158-.79-.64 0-.207.02-.488.09-.78l.945-4.444h1.556l.843-1.592h-2.085c.195-.898.455-1.868.718-2.681l-2.467.589c-.244.658-.366 1.226-.541 2.092h-.895l-.348 1.592h.89l-1.03 4.807c-.09.416-.123.832-.123 1.142 0 .867.77 1.522 2.119 1.522.609 0 1.31-.123 1.993-.379v-1.403a2.91 2.91 0 0 1-.875.175zm10.205-4.844c.139-.674.385-1.646.577-2.181-.754-.434-1.925-.604-2.977-.604-1.49 0-2.59.414-3.57 1.383-1.068 1.055-1.888 2.941-1.888 5.067 0 1.834.838 2.82 2.467 2.82.98 0 1.715-.361 2.38-1.057.07.35.261.815.683 1.092l1.94-1.435c-.419-.454-.489-.968-.328-1.73zm9.538.19c.085-.38.14-.864.14-1.245 0-1.072-.667-1.747-1.804-1.747-1.312 0-2.275.536-3.025 1.331.036-.381-.072-1.143-.228-1.437l-2.171.848c.192.606.21 1.368 0 2.336l-1.28 5.967h2.312l1.245-5.778c.733-.985 1.399-1.33 1.957-1.33.421 0 .613.12.613.554 0 .19-.053.447-.12.793l-1.245 5.761h2.311zm5.346-4.098c.246-1.122.246-2.35.174-2.75l-2.478.746c.173.587.034 1.4-.212 2.558l-1.413 6.606c-.138.637-.263 1.297-.263 1.609 0 .918.596 1.59 1.853 1.59.506 0 1.03-.086 1.45-.241l-.108-1.385c-.083.036-.172.036-.26.036-.313 0-.454-.175-.454-.502 0-.242.07-.676.296-1.713zm4.468 8.662c-.978 0-1.504-.414-1.504-1.418 0-.223.086-.795.086-.795s.457.123 1.069.123c2.969 0 4.526-1.368 4.526-3.044 0-1.73-1.275-2.422-3.039-2.422-1.193 0-2.19.327-3.075 1.172-1.192 1.143-2.012 3.03-2.012 4.864 0 2.142 1.256 3.25 3.39 3.25 1.258 0 2.427-.378 3.633-1.207l-.593-1.456c-.84.588-1.68.933-2.48.933zm6.706 4.536c.754-.465 1.37-1.206 2.349-2.917l5.195-8.988h-2.52l-2.258 4.218c-.592 1.105-1.205 2.644-1.205 2.644s-.036-1.298-.07-1.83l-.437-5.169-2.417.277.805 6.22c.107.76.192 1.83.23 2.488h.644c-.56.934-.838 1.335-1.557 1.762-.402.24-1.032.432-1.573.553l.47 1.553c.842-.104 1.661-.378 2.344-.81zm16.431-7.093c0-1.125-.703-2.092-1.82-2.334 1.801-.52 2.552-1.867 2.552-3.043 0-1.73-1.325-2.596-3.167-2.596h-4.322l-2.591 12.02h4.41c1.892 0 2.906-.38 3.799-1.28.822-.83 1.14-2.008 1.14-2.767zm5.555-6.105c.244-1.122.244-2.35.174-2.75l-2.48.746c.178.587.036 1.4-.208 2.558l-1.417 6.606c-.139.637-.26 1.297-.26 1.609 0 .918.594 1.59 1.849 1.59.509 0 1.032-.086 1.452-.241l-.105-1.385c-.088.036-.176.036-.262.036-.314 0-.454-.175-.454-.502 0-.242.07-.676.296-1.713zm8.64 3.908c.139-.674.383-1.646.577-2.181-.754-.434-1.925-.604-2.976-.604-1.49 0-2.592.414-3.567 1.383-1.07 1.055-1.894 2.941-1.894 5.067 0 1.834.842 2.82 2.47 2.82.978 0 1.714-.361 2.377-1.057.072.35.264.815.683 1.092l1.945-1.435c-.422-.454-.494-.968-.336-1.73zm4.338 6.468c1.314 0 2.312-.431 3.29-1.175l-.786-1.438c-.664.52-1.314.883-1.961.883-.63 0-1.066-.396-1.066-1.314 0-1.37.594-3.2 1.24-3.927.317-.348.683-.519 1.104-.519.439 0 .944.225 1.33.658l1.365-1.453a3.206 3.206 0 0 0-2.379-1.056c-1.245 0-2.137.38-2.94 1.056-1.241 1.037-2.273 3.044-2.273 5.24 0 1.904 1.082 3.045 3.076 3.045zm6.81-.225l2.064-9.562c.4-1.85.417-2.906.298-3.337l-2.43.744c.122.5.085 1.209-.175 2.437l-2.102 9.718zm5.829 0l-2.416-5.016 3.655-3.842h-2.903l-3.028 3.842 1.926 5.016zm12.058.01l-2.01-2.492c.628-.867 1.121-2.215 1.327-3.394h-1.959c-.038.33-.28 1.383-.596 1.871l-1.613-1.921.227-.104c2.208-1.004 2.699-2.008 2.699-3.34 0-1.264-1.138-2.148-2.941-2.148-2.362 0-4.165 1.559-4.165 3.48 0 .76.191 1.33.914 1.992-1.93.793-2.943 2.077-2.943 3.526 0 1.58 1.348 2.771 3.778 2.771 1.7 0 2.732-.412 3.59-1.004l.597.763zm9.297-1.808c1.5-1.576 2.217-4.15 2.217-6.122 0-1.42-.366-2.211-.926-2.923-.765-.95-2.012-1.176-4.039-1.176h-2.806l-2.59 12.02h2.96c2.678 0 3.903-.465 5.184-1.8zm6.437-1.781c2.977 0 4.531-1.368 4.531-3.044 0-1.73-1.276-2.422-3.041-2.422-1.19 0-2.19.327-3.08 1.172-1.19 1.143-2.016 3.03-2.016 4.864 0 2.142 1.264 3.25 3.398 3.25 1.26 0 2.433-.378 3.636-1.207l-.594-1.456c-.837.588-1.675.933-2.482.933-.982 0-1.504-.414-1.504-1.418 0-.223.086-.795.086-.795s.455.123 1.066.123zm8.399 3.804c1.313 0 2.306-.431 3.287-1.175l-.785-1.438c-.667.52-1.311.883-1.961.883-.631 0-1.064-.396-1.064-1.314 0-1.37.592-3.2 1.243-3.927.309-.348.68-.519 1.098-.519.436 0 .942.225 1.327.658l1.364-1.453a3.208 3.208 0 0 0-2.377-1.056c-1.242 0-2.132.38-2.935 1.056-1.242 1.037-2.277 3.044-2.277 5.24 0 1.904 1.084 3.045 3.08 3.045zm6.815-.225l2.07-9.562c.402-1.85.422-2.906.3-3.337l-2.44.744c.126.5.09 1.209-.174 2.437l-2.105 9.718zm5.835 0l-2.42-5.016 3.66-3.842h-2.907l-3.035 3.842 1.93 5.016zm4.573-3.58c2.977 0 4.532-1.367 4.532-3.043 0-1.73-1.273-2.422-3.04-2.422-1.19 0-2.189.327-3.082 1.172-1.19 1.143-2.016 3.03-2.016 4.864 0 2.142 1.262 3.25 3.4 3.25 1.26 0 2.431-.378 3.638-1.207l-.594-1.456c-.838.588-1.679.933-2.486.933-.98 0-1.504-.414-1.504-1.418 0-.223.086-.795.086-.795s.454.123 1.066.123zm12.037-5.294c-.314-.154-.472-.19-.806-.19-.877 0-1.717.555-2.506 1.35.07-.5-.07-1.143-.21-1.437l-2.174.848c.175.572.207 1.35-.036 2.457l-1.261 5.846h2.35l1.244-5.794c.735-.952 1.245-1.212 1.7-1.212.262 0 .473.054.684.175z"/></g><g><path d="M179.665 13.15c-1.022 0-1.782.592-2.185 2.35 0 0 .403.098.763.098 1.163 0 2.508-.395 2.508-1.401 0-.614-.28-1.047-1.086-1.047"/></g></g></g></svg>