<svg xmlns="http://www.w3.org/2000/svg" width="138" height="33" viewBox="0 0 138 33"><defs><clipPath id="bdixa"><path d="M.37.23h136.755v32.325H.37z"/></clipPath></defs><g><g><g/><g clip-path="url(#bdixa)"><path d="M90.307.23c1.055 0 2.393.164 3.24.42v5.234c-.59-.17-1.049-.229-2.146-.229-1.52 0-2.487.787-2.487 2.333v3.82h4.14v6.151h-4.14v14.02h-7.306v-14.02h-3.392v-6.15h3.392V7.223c0-4.849 2.665-6.993 8.699-6.993zm-77.35 1.147l9.533 30.602h-8.515L10.28 14.904 7.72 31.979H.37L5.196 1.377zm18.279 0l4.41 30.602h-7.307L25.89 14.904l-3.126 15.204-4.222-13.49L23.59 1.377zm39.17 0l9.266 30.602h-7.307l-1.357-4.393h-9.572l-1.394 4.393h-7.348l9.309-30.602zM63.44 20.748h5.605l-2.744-9.402zm40.481-9.095c7.596 0 10.697 5.192 10.697 10.858 0 .343.007.73-.038 1.07h-14.165c.046 2.063 1.389 3.554 3.506 3.554 2.362 0 3.241-.66 3.615-1.605h6.445c-.893 2.872-3.227 7.035-10.364 7.035-6.84 0-10.248-5.253-10.248-10.361 0-5.106 3.747-10.55 10.552-10.55zm22.46 0c7.592 0 10.734 5.192 10.734 10.858 0 .343.002.73-.038 1.07h-14.202c.047 2.063 1.395 3.554 3.505 3.554 2.362 0 3.274-.66 3.652-1.605h6.442c-.884 2.872-3.264 7.035-10.397 7.035-6.832 0-10.242-5.253-10.242-10.361 0-5.106 3.75-10.55 10.545-10.55zm-80.591.343c2.576 0 4.721.627 5.99 1.184v6.421c-1.01-.594-1.96-1.183-4.406-1.183-2.491 0-4.143 1.542-4.143 3.857 0 2.317 1.652 3.555 4.143 3.555 2.322 0 3.477-.551 4.407-1.415v6.613c-1.053.644-2.61 1.447-5.991 1.447-6.586 0-9.87-5.094-9.87-10.2 0-5.104 3.284-10.279 9.87-10.279zm58.014 4.666c-2.238 0-3.27 1.478-3.313 2.684h6.738c-.121-1.206-1.193-2.684-3.425-2.684zm22.507 0c-2.236 0-3.272 1.478-3.312 2.684h6.737c-.127-1.206-1.188-2.684-3.425-2.684z"/></g></g></g></svg>