<svg xmlns="http://www.w3.org/2000/svg" width="62" height="46" viewBox="0 0 62 46"><g><g><g><path d="M.13.11l1.247 45.18h6.062l-.132-18.736h5.085v-5.84H7.307l.02-14.7h6.636L13.93.11z"/></g><g><path d="M15.59.11l.7 45.18h5.692L22.1.11z"/></g><g><path d="M44.88.11v5.698h4.72l-.135 39.482h5.781L56.473 5.8h4.681L61.12.11z"/></g><g><path d="M31.95 21.023l.067-15.349h3.31c1.5 3.418 2.463 7.94 3.218 15.349zM26.663 45.29h5.488l.06-18.683h6.576c.516 3.298.643 13.478.676 18.683h5.323c.502-23.065-1.059-36.103-5.37-45.18H26.16z"/></g></g></g></svg>