<?xml version="1.0" encoding="utf-8"?>
<svg width="153px" height="53px" viewBox="0 0 153 53" version="1.1" xmlns:xlink="http://www.w3.org/1999/xlink" xmlns="http://www.w3.org/2000/svg">
  <defs>
    <path d="M0 0L102.324 0L102.324 14.6173L0 14.6173L0 0Z" id="path_1" />
    <clipPath id="mask_1">
      <use xlink:href="#path_1" />
    </clipPath>
  </defs>
  <g id="Group-24">
    <path d="M3.77978 14.6173L0 14.6173L3.98355 1.41981C4.22128 0.597086 4.99421 0 5.89104 0L8.18595 0L3.77978 14.6173Z" transform="translate(107.235985 18.677658)" id="Fill-1" fill="#000000" fill-rule="evenodd" stroke="none" />
    <path d="M5.87664 0L8.72273 0L5.08847 12.0197L14.7347 12.0197C14.2563 14.2308 13.3561 14.6079 10.267 14.6173L0 14.6173L3.96665 1.42232C4.2235 0.601486 4.97641 0 5.87664 0" transform="translate(2.455786 18.677658)" id="Fill-3" fill="#000000" fill-rule="evenodd" stroke="none" />
    <path d="M4.87167 4.80814L12.2333 4.80814C12.9633 2.3611 12.5203 2.17365 9.29207 2.17365C5.86766 2.17365 5.50823 2.70555 4.87167 4.80814M14.5538 9.71712C13.1338 12.0457 10.346 12.1811 6.34952 12.1811C0.0484039 12.1811 -0.796836 10.7288 0.546727 6.12032C1.79681 1.85897 3.29376 0 9.92468 0C15.844 0 16.9552 1.09833 16.1317 4.84536C16.0935 4.97326 15.9974 5.4754 15.6505 6.62718L12.0582 6.62718L11.7685 6.62718L4.35162 6.62718C3.60513 9.1825 3.45109 9.99255 6.98609 9.99255C8.75096 9.99255 10.0965 10.0196 10.8298 9.09656L13.7711 9.09656L14.0001 9.09656C14.4195 9.09656 14.5149 9.09656 14.6156 9.2495C14.7289 9.4241 14.5538 9.71712 14.5538 9.71712" transform="translate(18.827692 21.925945)" id="Fill-5" fill="#000000" fill-rule="evenodd" stroke="none" />
    <path d="M4.88452 4.80814L12.2397 4.80814C12.9555 2.3611 12.5127 2.17365 9.28616 2.17365C5.88525 2.17365 5.4997 2.70555 4.88452 4.80814M14.5451 9.71712C13.1279 12.0457 10.3415 12.1811 6.36358 12.1811C0.0618 12.1811 -0.800105 10.7288 0.54473 6.12032C1.8139 1.85897 3.29296 0 9.93489 0C15.8511 0 16.967 1.09833 16.1222 4.84536C16.0834 4.97326 15.9834 5.4754 15.6597 6.62718L12.0456 6.62718L11.7778 6.62718L4.34369 6.62718C3.5989 9.1825 3.44363 9.99255 6.9952 9.99255C8.76441 9.99255 10.0882 10.0196 10.8185 9.09656L13.774 9.09656L13.9872 9.09656C14.4273 9.09656 14.5208 9.09656 14.6188 9.2495C14.7405 9.4241 14.5451 9.71712 14.5451 9.71712" transform="translate(71.2178 21.925945)" id="Fill-7" fill="#000000" fill-rule="evenodd" stroke="none" />
    <path d="M4.13123 1.42208L0 14.6173L4.13123 14.6173L5.71259 9.58755L9.52337 9.58755C14.9697 9.58755 17.1802 8.88123 18.4196 4.8739C19.6779 0.916841 18.1135 0 12.5125 0L6.09504 0C5.15915 0 4.37793 0.601382 4.13123 1.42208L4.13123 1.42208ZM6.39917 7.39066L8.03665 2.12589L12.0759 2.12589C14.9912 2.12589 15.2738 2.69082 14.5898 4.83054C14.056 6.55676 13.1606 7.35232 10.644 7.38626L6.39917 7.39066Z" transform="translate(89.22689 18.677658)" id="Fill-9" fill="#000000" fill-rule="evenodd" stroke="none" />
    <path d="M13.6957 0.187796C11.4503 -0.0388325 8.59393 -0.0598402 6.97978 0.248273C6.69751 0.296655 6.4572 0.391508 6.21626 0.509915C6.0338 0.201802 5.7331 0 5.27282 0L3.41328 0L1.87734 5.17363L0 11.3435L2.26387 11.3435C3.10114 11.2831 3.97083 10.8196 4.25055 9.79661L5.79095 4.68027L5.86724 4.48802C5.99693 4.12261 6.38282 3.10087 6.86662 2.717C7.4604 2.26502 7.90478 1.79966 10.0046 1.8716C12.1185 1.95245 12.9163 2.26502 12.4726 3.77757C12.0422 5.29904 10.2106 11.369 10.2106 11.369L14.0289 11.369C14.0289 11.369 15.9596 4.919 16.163 4.13407C16.5705 2.47382 16.6672 0.500366 13.6957 0.187796" transform="translate(132.61244 22.738018)" id="Fill-11" fill="#000000" fill-rule="evenodd" stroke="none" />
    <path d="M12.7819 3.04764C12.8779 3.05981 12.9568 3.08686 13.0521 3.08686L16.2921 3.08686C16.9639 0.0513913 13.2605 0 10.1532 0C5.91406 0 2.64971 0.0764107 1.69065 3.34043C0.808501 6.37116 1.72943 6.95675 7.73357 7.03249C11.6868 7.06495 11.648 7.60117 11.3233 8.63441C10.8448 10.2674 9.50116 10.2181 7.13868 10.2181C5.16337 10.2181 4.29963 10.1275 4.09191 9.51009C4.05116 9.43368 3.91772 9.10166 3.60877 9.09422L3.41748 9.09422L0.0597915 9.09422C-0.45622 12.1811 2.42293 12.1811 6.56219 12.1811C10.7278 12.1811 14.3339 11.8612 15.2759 8.63914C16.4072 4.78412 12.8943 5.0005 9.05877 4.86053C5.66295 4.7449 5.23963 4.69554 5.58407 3.5176C6.02383 1.96301 7.4851 1.96301 9.57741 1.96301C10.7849 1.96301 11.648 1.96301 12.0714 2.22605C12.2074 2.32951 12.2988 2.44514 12.3395 2.60743C12.4158 2.80691 12.5519 2.98407 12.7819 3.04764" transform="translate(53.208694 21.925945)" id="Fill-13" fill="#000000" fill-rule="evenodd" stroke="none" />
    <path d="M11.0579 8.63383C10.5729 10.3262 9.11146 10.2126 7.06942 10.2126C4.46732 10.2126 3.60829 10.0632 4.07533 8.38297C4.56098 6.69326 6.11737 6.627 8.08435 6.627L11.6391 6.627C11.6391 6.62159 11.21 8.10507 11.0579 8.63383M10.1039 0C6.63766 0 3.54991 0.125765 2.38807 3.08732L5.12105 3.08732C5.59195 3.07515 6.05707 3.00821 6.24311 2.92234C6.37656 2.85811 6.45097 2.79455 6.50422 2.76007C7.14192 2.02441 8.24794 1.96085 9.5599 1.96085C12.7638 1.96085 12.7805 2.63227 12.2178 4.5654L12.162 4.80611L7.25355 4.80611C3.28367 4.80611 1.06007 5.53974 0.235688 8.38568C-0.87226 12.2648 2.04934 12.1809 6.41376 12.1809C12.1036 12.1809 13.9218 11.8611 14.5774 9.61019L16.0568 4.57554C17.2007 0.592988 15.2331 0 10.1039 0" transform="translate(36.83679 21.925945)" id="Fill-15" fill="#000000" fill-rule="evenodd" stroke="none" />
    <path d="M11.042 8.63383C10.5762 10.3262 9.0961 10.2126 7.06118 10.2126C4.47844 10.2126 3.59745 10.0632 4.0844 8.38297C4.56942 6.69326 6.12381 6.627 8.06775 6.627L11.6225 6.627C11.6225 6.62159 11.2124 8.10507 11.042 8.63383M10.1097 0C6.6319 0 3.54619 0.125765 2.38521 3.08732L5.13326 3.08732C5.58304 3.07515 6.07063 3.00821 6.2385 2.92234C6.36856 2.85811 6.44609 2.79455 6.49927 2.76007C7.15665 2.02441 8.25676 1.96085 9.55293 1.96085C12.7463 1.96085 12.7668 2.63227 12.2215 4.5654L12.1498 4.80611L7.26813 4.80611C3.30592 4.80611 1.06149 5.53974 0.233677 8.38568C-0.868359 12.2648 2.05012 12.1809 6.40893 12.1809C12.0934 12.1809 13.9252 11.8611 14.58 9.61019L16.0607 4.57554C17.1954 0.592988 15.2303 0 10.1097 0" transform="translate(113.78475 21.925945)" id="Fill-17" fill="#000000" fill-rule="evenodd" stroke="none" />
    <g id="Group-21" transform="translate(49.934315 0)">
      <path d="M0 0L102.324 0L102.324 14.6173L0 14.6173L0 0Z" id="Clip-20" fill="none" fill-rule="evenodd" stroke="none" />
      <g clip-path="url(#mask_1)">
        <path d="M0 14.263C0 14.263 8.1984 0.0948275 30.3248 0.000562767C49.7835 -0.093702 55.6799 11.6856 55.6799 11.6856L102.325 12.8086L101.772 14.6173L48.0146 14.1713C48.0146 14.1713 45.7882 3.61869 30.0165 2.88418C11.2597 2.03263 3.08018 14.263 3.08018 14.263L0 14.263Z" id="Fill-19" fill="#000000" fill-rule="evenodd" stroke="none" />
      </g>
    </g>
    <path d="M95.7757 0.00259222C95.7757 0.00259222 87.5817 14.5158 65.4501 14.6169C46.023 14.6992 40.1088 2.64277 40.1088 2.64277L0 1.95L0.549738 0.0965602L47.7738 0.0965602C47.7738 0.0965602 50.0158 10.9035 65.7778 11.6462C84.5203 12.5308 92.6791 0 92.6791 0L95.7757 0.00259222Z" transform="translate(0 38.167385)" id="Fill-22" fill="#000000" fill-rule="evenodd" stroke="none" />
  </g>
</svg>