<svg xmlns="http://www.w3.org/2000/svg" width="145" height="83" viewBox="0 0 145 83"><g><g><path d="M144.841 7.58c0 4.2-3.408 7.595-7.591 7.595a7.585 7.585 0 0 1-7.59-7.595c0-4.17 3.392-7.58 7.59-7.58 4.183 0 7.591 3.41 7.591 7.58zM60.756 57.084V44.939h23.109V22.771h12.143v22.168h23.015v12.145zm-24.321 0V22.771h12.176v34.313zm10.42 9.093c-3.114 9.449-12.039 16.312-22.529 16.312-10.52 0-19.445-6.863-22.544-16.312h12.179a12.7 12.7 0 0 0 10.365 5.344c4.246 0 8.027-2.106 10.335-5.344zM0 22.771h12.155v34.313H0zm83.869 43.406h12.145v14.737H83.869zm59.454-9.093h-12.145V22.771h12.145zm-12.145 9.093h12.145v14.737h-12.145z"/></g></g></svg>
