<svg xmlns="http://www.w3.org/2000/svg" width="28" height="27" viewBox="0 0 28 27"><g><g><path fill="#00fb83" d="M12.844 3.751h3.346v.732h-2.587V5.89h2.305v.732h-2.305v1.96h-.76z"/></g><g><path fill="#00fb83" d="M12.116 19.242l.931 3.7.967-3.7h.82l.974 3.747.932-3.747h.772l-1.241 4.83h-.918l-.925-3.594-.925 3.595h-.925l-1.241-4.83z"/></g><g><path fill="#00fb83" d="M8.152 25.844a.353.353 0 0 1-.171-.044A13.538 13.538 0 0 1 .897 13.897 13.55 13.55 0 0 1 7.912 2.032a.362.362 0 0 1 .49.142.359.359 0 0 1-.142.49 12.827 12.827 0 0 0-6.643 11.233c0 4.705 2.57 9.023 6.707 11.27a.352.352 0 0 1 .173.215.358.358 0 0 1-.345.462"/></g><g><path fill="#00fb83" d="M20.87 25.758a.359.359 0 0 1-.349-.457.36.36 0 0 1 .171-.217 12.842 12.842 0 0 0 6.555-11.186c0-4.703-2.57-9.021-6.707-11.27a.358.358 0 0 1-.144-.488.36.36 0 0 1 .488-.144 13.537 13.537 0 0 1 7.083 11.902c0 4.892-2.652 9.419-6.922 11.814a.36.36 0 0 1-.176.046"/></g><g><path fill="#00fb83" d="M14.446 26.861c-1.475 0-2.858-.604-3.895-1.7-2.008-2.122-2.125-5.132-.282-7.32.483-.524.971-1.059 1.46-1.593l1.006-1.099a.386.386 0 0 1 .28-.11c.1 0 .191.032.254.091a.378.378 0 0 1 .113.263.38.38 0 0 1-.092.271l-2.436 2.652c-1.618 1.922-1.518 4.462.246 6.324.909.96 2.093 1.49 3.337 1.49 1.244 0 2.422-.53 3.318-1.49.927-.996 1.408-2.147 1.39-3.33-.02-1.25-.572-2.453-1.635-3.577l-6.715-7.137C9.614 9.347 8.977 7.936 8.953 6.51c-.022-1.382.531-2.718 1.598-3.863 1.022-1.096 2.395-1.7 3.865-1.7 1.475 0 2.858.604 3.896 1.701 2.008 2.121 2.124 5.132.281 7.32-.482.524-.971 1.059-1.46 1.594l-1.006 1.097a.388.388 0 0 1-.285.114.377.377 0 0 1-.254-.09.382.382 0 0 1-.115-.266.384.384 0 0 1 .092-.274l2.443-2.65c1.62-1.923 1.518-4.463-.246-6.325-.907-.96-2.095-1.49-3.341-1.49s-2.426.53-3.322 1.49c-.928.996-1.409 2.147-1.39 3.33.02 1.25.57 2.453 1.634 3.577l6.726 7.138c1.12 1.118 1.702 2.416 1.831 4.09-.003 1.286-.584 2.695-1.595 3.865a5.233 5.233 0 0 1-3.859 1.693z"/></g></g></svg>