<svg xmlns="http://www.w3.org/2000/svg" width="191" height="41" viewBox="0 0 191 41"><g><g><g><g><path d="M28.044.83v39.98h11.748V9.717z"/></g><g><path d="M23.307 4.544V41h2.463V2.725z"/></g><g><path d="M18.76 7.951v32.86h2.464V6.136z"/></g><g><path d="M14.022 11.545V40.81h2.463V9.735z"/></g><g><path d="M42.257 40.81h11.749V27.686L42.257 18.83z"/></g><g><path d="M9.285 22.172v18.64h2.464V20.346z"/></g><g><path d="M4.737 25.764V40.81H7.2V23.946z"/></g><g><path d="M0 29.382V41h2.463V27.547z"/></g><g><g><path d="M84.224 22.992c-3.535 0-5.699-1.977-5.699-5.857V9.603h2.897v7.458c0 2.146 1.073 3.256 2.84 3.256s2.84-1.074 2.84-3.164v-7.55h2.896v7.438c0 3.993-2.237 5.95-5.774 5.95"/></g><g><path d="M98.717 22.972c-1.994 0-4.006-.697-5.585-2.108l1.71-2.054c1.185.978 2.426 1.6 3.932 1.6 1.183 0 1.899-.469 1.899-1.243v-.037c0-.734-.451-1.11-2.652-1.676-2.652-.678-4.364-1.466-4.364-4.083v-.038c0-2.39 1.918-3.972 4.608-3.972 1.92 0 3.554.602 4.892 1.675l-1.507 2.184c-1.165-.81-2.313-1.3-3.422-1.3-1.11 0-1.693.51-1.693 1.15v.038c0 .866.565 1.2 2.841 1.785 2.669.697 4.175 1.659 4.175 3.955v.038c0 2.617-1.993 4.086-4.834 4.086"/></g></g><g><path d="M115.714 22.81v-5.248h-5.363v5.247h-2.909V9.735h2.909v5.174h5.363V9.735h2.908v13.074z"/></g><g><path d="M166.376 22.81l-6.226-8.18v8.18h-2.873V9.734h2.683l6.195 8.317V9.735h2.87v13.074z"/></g><g><path d="M109.206 27.547l-5.322 5.714v-5.714h-2.886V40.62h2.886v-3.996l1.518-1.571 4.067 5.567h3.467l-5.584-7.526 5.34-5.548z"/></g><g><path d="M116.158 27.547V40.62H126.2v-2.56h-7.135v-2.745h6.185v-2.558h-6.185v-2.653h7.04v-2.558z"/></g><g><path d="M144.203 40.62h3.032V27.548h-3.032z"/></g><g><path d="M151.213 27.547V40.62h10.043v-2.558h-7.133v-2.747h6.184v-2.558h-6.184v-2.653h7.04v-2.558z"/></g><g><path d="M165.615 27.547V40.62h9.474v-2.616h-6.573V27.547z"/></g><g><g><path d="M178.673 40.62V27.482h5.14c4.143 0 7.004 2.833 7.004 6.531v.038c0 3.696-2.86 6.567-7.004 6.567zm9.114-6.57c0-2.326-1.601-3.959-3.974-3.959h-2.24v7.918h2.24c2.373 0 3.974-1.595 3.974-3.922z"/></g><g><path d="M70.067 20.28c-2.411.043-4.024-1.805-4.064-4.058l-.001-.036c-.038-2.252 1.549-4.118 3.884-4.16a4.138 4.138 0 0 1 3.24 1.454l1.839-2.19c-1.262-1.223-3.034-1.965-5.089-1.93-4.068.071-6.97 3.183-6.903 6.916v.037c.066 3.733 3.037 6.703 7.104 6.634a7.004 7.004 0 0 0 5.174-2.398l-1.953-1.9a4.083 4.083 0 0 1-3.231 1.632"/></g></g><g><path d="M133.519 9.735h3.103v13.074h-2.76v-8.547l-3.735 5.595h-.086l-3.735-5.595v8.547h-2.759V9.735h3.104l3.434 5.484z"/></g><g><path d="M148.426 9.735l5.63 13.074h-3.04l-1.21-2.93h-5.595l-1.21 2.93h-2.967l5.63-13.074zm.341 7.603l-1.758-4.241-1.76 4.24z"/></g><g><path d="M90.729 30.909l1.756 4.24H88.97zm-1.345-3.362L83.755 40.62h2.966l1.211-2.931h5.594l1.208 2.93h3.043L92.15 27.548z"/></g><g><path d="M130.18 27.547V40.62h2.899v-5.063h6.203v-2.614h-6.203v-2.783h7.143v-2.614z"/></g><g><path d="M80.625 27.547l-3.082 9.107-3.081-9.107h-2.826l-3.081 9.107-3.082-9.107h-3.13l4.793 13.074h2.906l3.007-8.976 3.007 8.976h2.907l4.793-13.074z"/></g><g><path d="M190.06 22.952h-3.39l-1.178-1.439c-.873.971-2.311 1.677-3.601 1.677-2.313 0-4.257-1.83-4.336-4.079-.054-1.584 1.082-3.21 2.639-3.86-.487-.574-1.153-1.407-1.187-2.4a3.164 3.164 0 0 1 .879-2.337c.6-.624 1.427-.967 2.328-.967 1.879 0 3.34 1.343 3.404 3.124.042 1.209-.64 2.387-1.722 3.022l1.636 1.945 1.346-1.588 1.827 1.953-1.522 1.697zm-8.243-5.924c-1.308.596-1.755 1.47-1.735 2.053.032.941.862 1.736 1.811 1.735.666-.002 1.433-.437 2.045-1.23zm.492-2.913c.417-.224 1.038-.705 1.038-1.31 0-.533-.357-1.011-1.021-.968-.635.044-.93.585-.855 1.055.073.452.486.9.838 1.223z"/></g></g></g></g></svg>
