<?xml version="1.0" encoding="utf-8"?>
<svg width="127px" height="57px" viewBox="0 0 127 57" version="1.1" xmlns:xlink="http://www.w3.org/1999/xlink" xmlns="http://www.w3.org/2000/svg">
  <path d="M110.657 0.193179C103.126 0.193179 97.9256 3.1837 94.4034 7.36709C93.8056 6.11411 93.3539 5.56731 92.7191 4.84289C89.8396 1.57548 85.202 0.0488313 78.9791 0.0488313C72.9023 0.0488313 67.8365 1.95003 64.318 4.95236C62.4897 1.9715 58.1363 0 52.8869 0C46.0239 0 38.5491 0.971797 34.1138 8.1382C34.0067 5.5555 33.7712 4.19306 32.3304 2.65889C30.5701 0.790424 27.7255 0.304257 24.9531 0.304257C19.9023 0.304257 16.1055 2.51616 13.37 7.01776C9.40405 13.3701 -0.212121 34.271 0.00356956 44.3947C0.145936 50.9343 4.51863 55.6468 12.352 55.8319C18.4695 55.9763 23.2688 54.3407 26.3237 51.2482C29.0614 54.2312 33.2435 55.9843 38.2435 55.9843C43.8118 55.9843 49.4171 54.3053 52.7253 50.6413C55.5154 54.0772 59.9003 56.0723 65.5426 56.0466C72.92 56.0096 79.3976 52.5039 83.629 47.1276C85.9497 53.466 91.8413 55.9843 98.2703 55.9843C112.363 55.9843 118.554 46.2669 123.71 30.9038C124.873 27.4405 126.423 21.6623 126.679 16.8093C127.108 8.73384 123.7 0.193179 110.657 0.193179M16.8847 38.8156C24.1759 37.5427 26.0123 40.1877 25.7805 42.64C25.0949 49.9641 18.3876 51.6056 12.5682 51.465C8.34487 51.3674 4.54806 49.427 4.44316 44.51C4.25798 35.913 13.0039 16.021 17.1224 9.4266C19.0224 6.29763 21.3393 4.75113 25.0344 4.75113C28.5374 4.75113 29.4039 6.55091 29.3514 8.71022C29.215 14.4707 19.9333 31.9776 16.8847 38.8156M40.6305 32.065C40.1478 33.369 39.2342 36.1121 38.4982 39.0205C40.8912 38.4233 42.6847 38.0037 45.7627 38.0777C49.2635 38.1614 51.5029 39.6178 51.5029 42.5305C51.5029 49.5638 43.7417 51.633 38.3564 51.633C32.4412 51.633 27.2465 48.2577 27.2465 41.7771C27.2465 34.1734 31.3569 22.6524 35.2136 14.9783C39.9508 5.54799 44.7891 4.29448 53.1208 4.29448C56.787 4.29448 61.0024 5.8662 61.0024 9.32893C61.0024 14.1391 56.9449 15.97 52.918 16.2007C51.1973 16.2979 48.5528 16.3939 46.968 16.2823C46.968 16.2823 45.6284 18.3321 44.2031 21.9768C51.6586 20.9245 54.8222 22.6191 53.5624 26.9447C51.8631 32.7857 46.8122 33.1699 40.6305 32.065M77.2969 13.8874C75.2818 13.8874 73.9636 15.1715 72.9826 16.5501C70.8214 19.5932 66.1404 31.786 65.4125 36.7931C64.9121 40.2252 66.3898 40.9276 68.0019 40.9276C70.5934 40.9276 73.4985 38.177 74.4892 33.6405C74.4892 33.6405 69.5572 33.5192 70.9204 29.1351C72.2386 24.8793 74.7445 23.9579 78.8994 23.7884C87.0806 23.4503 86.2746 29.5177 85.6184 32.7444C83.4926 43.2351 76.0451 51.6641 65.5115 51.6641C58.2958 51.6641 53.8177 47.6664 53.8177 40.2912C53.8177 35.0341 56.4172 26.7864 58.4788 21.9591C62.8676 11.6889 67.4667 4.4957 79.1873 4.4957C86.2162 4.4957 91.7675 7.02957 90.9534 13.6336C90.3556 18.4824 87.9354 21.3286 83.5407 21.6704C82.3087 21.768 77.2793 21.6387 78.9481 16.8683C79.532 15.1973 79.7734 13.8874 77.2969 13.8874M121.563 22.5622C120.326 28.7445 117.538 36.0633 114.512 41.519C109.575 50.417 103.578 51.6625 98.3463 51.5997C93.1146 51.5375 87.2112 49.5971 87.1684 41.5018C87.1374 35.6941 89.6373 27.4856 91.7595 22.1115C95.4604 12.3624 99.2417 4.41146 111.193 4.55419C125.133 4.72215 122.647 17.1489 121.563 22.5622M111.623 16.4701C111.477 20.2001 106.02 35.1258 104.078 38.4195C103.241 39.848 102.293 41.0275 100.587 41.0275C99.1015 41.0253 98.4336 39.9655 98.395 38.7533C98.288 35.3877 104.45 18.5017 106.561 15.7591C107.499 14.3087 108.543 14.0747 109.737 14.0903C111.487 14.1155 111.668 15.3787 111.623 16.4701" id="Fill-1" fill="#000000" fill-rule="evenodd" stroke="none" />
</svg>