<svg xmlns="http://www.w3.org/2000/svg" width="129" height="37" viewBox="0 0 129 37"><defs><clipPath id="bqxya"><path d="M3.19.08h14.637v18.492H3.19z"/></clipPath><clipPath id="bqxyb"><path d="M124.01 29.94h4.29v4.53h-4.29z"/></clipPath></defs><g><g><g><g><g/><g clip-path="url(#bqxya)"><path d="M17.466.093C8.06 3.035 3.258 6.297 3.19 9.797c-.097 5.07 9.719 8.609 10.138 8.76a.279.279 0 1 0 .2-.52c-5.49-2.35-8.24-4.887-8.159-7.542C5.535 5.03 17.523.663 17.642.618a.277.277 0 1 0-.177-.525"/></g></g><g><path d="M9.738 16.357a.282.282 0 0 0-.356.153.278.278 0 0 0 .145.36c5.543 2.474 8.285 5.067 8.15 7.708-.276 5.39-12.352 9.416-12.475 9.459a.278.278 0 0 0 .16.53c9.48-2.685 14.359-5.794 14.502-9.245.207-5.046-9.705-8.809-10.126-8.965"/></g><g><path d="M5.438 1.887a.282.282 0 0 0-.355.153.278.278 0 0 0 .144.36c5.543 2.474 8.286 5.067 8.15 7.708-.277 5.39-12.352 9.416-12.475 9.459a.275.275 0 0 0-.18.341.281.281 0 0 0 .345.186c9.48-2.682 14.354-5.79 14.497-9.242.207-5.046-9.705-8.808-10.126-8.965"/></g><g><path d="M21.606 13.323c-9.405 2.942-14.208 6.204-14.275 9.7-.097 5.074 9.719 8.61 10.138 8.76a.278.278 0 0 0 .204-.516c-5.494-2.354-8.24-4.89-8.163-7.545.168-5.462 12.153-9.829 12.272-9.874a.277.277 0 1 0-.177-.525"/></g><g><path d="M20.323 8.677c.496 1.167.054 2.391-1.305 2.91-1.106.462-2.076-.539-2.31-1.3-.234-1.171 1.068-1.983 2.457-2.224.51-.029.936.169 1.158.614"/></g><g><path d="M52.89 14.888c0 1.38-.378 1.97-1.782 1.97h-7.49s-.004-4.582 0-4.578c.009-1.274.607-1.942 2.282-1.942h5.208c1.384 0 1.796.582 1.783 1.926zM36.91 8.2v16.696h6.705v-5.897h11.5c2.805 0 4.478-.625 4.478-3.378v-4.044c0-2.776-1.673-3.377-4.478-3.377z"/></g></g><g><path d="M27.7 24.72h6.543V8.29H27.7z"/></g><g><g><path d="M83.26 21.591c0 1.875-.535 3.494-4.343 3.494H63.754v-2.162h11.273c.965 0 1.589-.586 1.589-1.538v-1.92c0-1.26-.539-1.796-1.678-1.796h-8.822c-2.967 0-3.853-1.468-3.853-3.255l-.003-3.053c.01-1.84 1.416-3.041 3.86-3.041h14.669s-.16 2.146-2.795 2.146H70.62c-1.396 0-1.718.813-1.718 1.736v1.585c0 1.002.397 1.732 1.636 1.732l8.556-.003c3.313 0 4.166 1.297 4.166 3.69z"/></g><g><path d="M85.31 25.053V8.29h18.142v2.174h-9.74c-1.112 0-1.735.408-1.735 1.76v3.293h9.522s-.165 2.15-2.8 2.15h-6.722v3.459c0 1.33.652 1.761 1.664 1.761h9.811v2.166z"/></g><g><path d="M128.26 25.083h-5.6c-1.585 0-2.757-.668-3.954-2.032-.868-.99-9.97-11.535-9.97-11.535h-.09v13.567h-3.056V8.32h6.11c.943 0 2.094.16 3.028 1.257.823.97 10.354 12.046 10.354 12.046h.09V8.32h3.088"/></g><g><path d="M28.505 34.084c0 .242-.155.392-.404.392-.247 0-.401-.15-.401-.392V28.83c0-.238.154-.39.4-.39.25 0 .405.152.405.39z"/></g><g><path d="M29.61 30.332c0-.242.155-.392.404-.392.245 0 .403.15.403.392v.173l.018.019c.356-.416.862-.584 1.35-.584.75 0 1.692.434 1.692 1.683v2.461c0 .24-.156.39-.403.39-.245 0-.404-.15-.404-.39v-2.419c0-.777-.596-1.091-1.126-1.091-.53 0-1.127.314-1.127 1.091v2.42c0 .24-.158.39-.403.39-.249 0-.404-.15-.404-.39z"/></g><g><path d="M34.59 30.332c0-.242.156-.392.4-.392.25 0 .407.15.407.392v.173l.018.019c.356-.416.862-.584 1.347-.584.75 0 1.697.434 1.697 1.683v2.461c0 .24-.158.39-.405.39-.249 0-.4-.15-.4-.39v-2.419c0-.777-.6-1.091-1.132-1.091-.531 0-1.125.314-1.125 1.091v2.42c0 .24-.157.39-.406.39-.245 0-.401-.15-.401-.39z"/></g><g><path d="M40.169 32.206c0-.75.345-1.634 1.337-1.634.99 0 1.336.884 1.336 1.634 0 .753-.345 1.636-1.336 1.636zm-.809 0c0 1.175.771 2.268 2.146 2.268 1.373 0 2.145-1.093 2.145-2.268 0-1.175-.772-2.266-2.145-2.266z"/></g><g><path d="M44.144 30.583c-.054-.132-.084-.215-.084-.298 0-.22.177-.345.366-.345.269 0 .36.116.425.284l1.107 3.07h.02l1.107-3.07c.065-.168.156-.284.423-.284.191 0 .368.125.368.345 0 .083-.03.166-.084.298l-1.404 3.577c-.079.217-.163.314-.419.314-.257 0-.341-.097-.424-.314z"/></g><g><path d="M50.425 33.842c-.988 0-1.336-.884-1.336-1.633 0-.752.348-1.635 1.336-1.635.988 0 1.335.883 1.335 1.635 0 .75-.347 1.633-1.335 1.633zm2.097-3.542c0-.26-.218-.36-.375-.36-.165 0-.376.1-.376.36v.232h-.018c-.376-.373-.771-.592-1.328-.592-1.376 0-2.145 1.093-2.145 2.269 0 1.174.77 2.265 2.145 2.265.52 0 .979-.215 1.328-.664h.018v.308c0 .259.21.356.376.356.157 0 .375-.097.375-.356z"/></g><g><path d="M53.892 29.032c0-.242.155-.392.404-.392.245 0 .403.15.403.392v.96h.33c.264 0 .405.116.405.317 0 .199-.141.318-.406.318H54.7v3.458c0 .24-.158.388-.403.388-.249 0-.404-.148-.404-.388v-3.458h-.328c-.268 0-.404-.12-.404-.318 0-.2.136-.316.404-.316h.328z"/></g><g><path d="M56.881 34.093c0 .242-.158.393-.41.393-.249 0-.407-.15-.407-.393v-3.76c0-.244.158-.394.407-.394.252 0 .41.15.41.393zm.089-5.199c0 .253-.218.454-.499.454-.278 0-.501-.2-.501-.454 0-.253.223-.454.501-.454.281 0 .499.2.499.454z"/></g><g><path d="M58.579 32.206c0-.75.345-1.634 1.337-1.634.99 0 1.336.884 1.336 1.634 0 .753-.347 1.636-1.336 1.636zm-.809 0c0 1.175.771 2.268 2.146 2.268 1.374 0 2.145-1.093 2.145-2.268 0-1.175-.771-2.266-2.145-2.266z"/></g><g><path d="M62.96 30.332c0-.242.155-.392.404-.392.246 0 .401.15.401.392v.173l.02.019c.356-.416.863-.584 1.346-.584.755 0 1.696.434 1.696 1.683v2.461c0 .24-.156.39-.403.39-.245 0-.4-.15-.4-.39v-2.419c0-.777-.597-1.091-1.13-1.091-.53 0-1.129.314-1.129 1.091v2.42c0 .24-.155.39-.4.39-.25 0-.405-.15-.405-.39z"/></g><g><path d="M71.332 34.083c0 .242-.155.392-.4.392-.25 0-.407-.15-.407-.392v-3.458h-.329c-.268 0-.406-.119-.406-.32 0-.198.138-.314.406-.314h.33V28.95c0-.641.484-.959 1.071-.959h.247c.212 0 .46.114.46.318 0 .198-.138.318-.44.318h-.2c-.247 0-.331.106-.331.289v1.076h.502c.267 0 .405.116.405.315 0 .2-.138.32-.405.32h-.502z"/></g><g><path d="M73.29 32.206c0-.75.344-1.634 1.336-1.634.99 0 1.336.884 1.336 1.634 0 .753-.345 1.636-1.336 1.636zm-.81 0c0 1.175.772 2.268 2.146 2.268 1.37 0 2.145-1.093 2.145-2.268 0-1.175-.775-2.266-2.145-2.266z"/></g><g><path d="M77.67 30.332c0-.242.155-.392.4-.392.25 0 .407.15.407.392v.377h.018c.184-.345.633-.769 1.097-.769.288 0 .452.168.452.375 0 .209-.164.342-.504.4-.478.074-1.063.401-1.063 1.26v2.11c0 .24-.157.39-.406.39-.246 0-.401-.15-.401-.39z"/></g><g><path d="M85.033 33.846c-.991 0-1.336-.885-1.336-1.636 0-.753.345-1.637 1.336-1.637.99 0 1.337.884 1.337 1.637 0 .75-.347 1.636-1.337 1.636zm-2.063 1.989c0 .24.155.391.404.391.25 0 .405-.151.405-.391v-1.959h.02c.209.275.658.598 1.298.598 1.321 0 2.081-1.091 2.081-2.265 0-1.176-.76-2.269-2.08-2.269-.641 0-1.074.21-1.3.607h-.02v-.215c0-.242-.155-.392-.404-.392-.249 0-.404.15-.404.392z"/></g><g><path d="M90.009 33.842c-.984 0-1.334-.884-1.334-1.633 0-.752.35-1.635 1.334-1.635.986 0 1.332.883 1.332 1.635 0 .75-.346 1.633-1.332 1.633zm2.105-3.542c0-.26-.218-.36-.375-.36-.167 0-.376.1-.376.36v.232h-.018c-.378-.373-.773-.592-1.331-.592-1.373 0-2.144 1.093-2.144 2.269 0 1.174.771 2.265 2.144 2.265.52 0 .978-.215 1.331-.664h.018v.308c0 .259.21.356.376.356.157 0 .375-.097.375-.356z"/></g><g><path d="M93.482 29.032c0-.242.156-.392.404-.392.246 0 .401.15.401.392v.96h.331c.269 0 .406.116.406.317 0 .199-.137.318-.406.318h-.33v3.458c0 .24-.156.388-.402.388-.248 0-.404-.148-.404-.388v-3.458h-.331c-.265 0-.401-.12-.401-.318 0-.2.136-.316.4-.316h.332z"/></g><g><path d="M96.478 34.093c0 .242-.16.393-.414.393-.25 0-.41-.15-.41-.393v-3.76c0-.244.16-.394.41-.394.255 0 .414.15.414.393zm.082-5.199c0 .253-.22.454-.501.454-.277 0-.499-.2-.499-.454 0-.253.222-.454.499-.454.28 0 .501.2.501.454z"/></g><g><path d="M98.075 31.938c.029-.674.385-1.4 1.378-1.366.888 0 1.289.734 1.289 1.366zm3.035.55c.349 0 .45-.133.45-.393 0-1.066-.769-2.155-2.102-2.155-1.363 0-2.188 1.064-2.188 2.265 0 1.176.678 2.266 2.239 2.266.95 0 1.95-.55 1.95-.907 0-.208-.147-.327-.293-.327-.305 0-.578.601-1.652.601-.907 0-1.439-.592-1.439-1.35z"/></g><g><path d="M102.38 30.332c0-.242.155-.392.4-.392.25 0 .407.15.407.392v.173l.018.019c.356-.416.863-.584 1.348-.584.75 0 1.696.434 1.696 1.683v2.461c0 .24-.158.39-.405.39-.249 0-.404-.15-.404-.39v-2.419c0-.777-.596-1.091-1.127-1.091-.532 0-1.126.314-1.126 1.091v2.42c0 .24-.157.39-.406.39-.246 0-.401-.15-.401-.39z"/></g><g><path d="M107.612 29.032c0-.242.156-.392.405-.392.245 0 .404.15.404.392v.96h.328c.264 0 .406.116.406.317 0 .199-.142.318-.406.318h-.328v3.458c0 .24-.159.388-.404.388-.25 0-.405-.148-.405-.388v-3.458h-.327c-.268 0-.405-.12-.405-.318 0-.2.137-.316.405-.316h.327z"/></g><g><path d="M114.11 29.94c.824 0 1.311.26 1.311.56 0 .148-.138.307-.332.307-.31 0-.429-.235-.98-.235-1 0-1.394.886-1.394 1.633 0 .752.394 1.637 1.394 1.637.57 0 .716-.251.972-.251.184 0 .311.108.311.309 0 .273-.45.576-1.283.576-1.483 0-2.199-1.095-2.199-2.27 0-1.173.716-2.266 2.2-2.266"/></g><g><path d="M118.16 33.842c-.984 0-1.331-.884-1.331-1.633 0-.752.347-1.635 1.331-1.635.985 0 1.33.883 1.33 1.635 0 .75-.345 1.633-1.33 1.633zm2.102-3.542c0-.26-.22-.36-.375-.36-.167 0-.376.1-.376.36v.232h-.014c-.38-.373-.774-.592-1.332-.592-1.376 0-2.145 1.093-2.145 2.269 0 1.174.769 2.265 2.145 2.265.521 0 .979-.215 1.332-.664h.014v.308c0 .259.209.356.376.356.155 0 .375-.097.375-.356z"/></g><g><path d="M121.38 30.332c0-.242.156-.392.404-.392.246 0 .401.15.401.392v.377h.02c.184-.345.633-.769 1.1-.769.285 0 .45.168.45.375 0 .209-.165.342-.507.4-.472.074-1.063.401-1.063 1.26v2.11c0 .24-.155.39-.4.39-.25 0-.405-.15-.405-.39z"/></g><g><path d="M127.497 31.937c0-.632-.4-1.366-1.292-1.366-.998-.034-1.356.692-1.385 1.366h2.677"/></g><g><path d="M127.855 32.49h-3.035c0 .759.532 1.351 1.439 1.351 1.074 0 1.35-.601 1.651-.601"/></g><g><g/><g clip-path="url(#bqxyb)"><path d="M128.199 33.564c0 .357-1 .907-1.95.907-1.56 0-2.239-1.09-2.239-2.266 0-1.201.825-2.265 2.19-2.265 1.331 0 2.1 1.089 2.1 2.155"/></g></g></g></g></g></svg>