<svg xmlns="http://www.w3.org/2000/svg" width="49" height="47" viewBox="0 0 49 47"><g><g><path d="M21.546 5.038h6.001v1.311h-4.64v2.525h4.133v1.311h-4.133V13.7h-1.361zM20.252 32.8l1.67 6.633 1.733-6.633h1.473l1.745 6.72 1.67-6.72h1.386l-2.227 8.662h-1.646l-1.658-6.447-1.658 6.447H21.08L18.854 32.8zM13.13 44.653a.635.635 0 0 1-.307-.079A24.274 24.274 0 0 1 .12 23.231c0-8.85 4.82-17.003 12.58-21.277a.646.646 0 0 1 .622 1.13 23.004 23.004 0 0 0-11.91 20.147 22.985 22.985 0 0 0 12.027 20.21.64.64 0 0 1 .31.383c.05.165.03.34-.051.491zm22.806-.159a.647.647 0 0 1-.317-1.208 23.027 23.027 0 0 0 11.754-20.057A22.982 22.982 0 0 0 35.346 3.022a.64.64 0 0 1-.31-.384.646.646 0 0 1 .926-.75 24.272 24.272 0 0 1 12.702 21.341c0 8.77-4.757 16.887-12.413 21.182zm-11.508 1.971c-2.644 0-5.125-1.083-6.985-3.05-3.602-3.804-3.81-9.201-.506-13.125a953 953 0 0 0 2.62-2.855c.6-.657 1.202-1.314 1.803-1.969a.69.69 0 0 1 .502-.2c.176 0 .343.06.455.164.12.112.194.284.201.473a.678.678 0 0 1-.163.486l-4.368 4.754c-2.904 3.448-2.722 8 .44 11.341 1.63 1.721 3.755 2.669 5.985 2.669 2.23 0 4.342-.949 5.948-2.67 1.664-1.786 2.526-3.85 2.492-5.972-.037-2.24-1.023-4.398-2.93-6.413L17.88 17.3c-2.119-2.239-3.26-4.772-3.302-7.326-.04-2.479.951-4.874 2.867-6.928C19.277 1.082 21.738 0 24.375 0c2.643 0 5.124 1.083 6.985 3.05 3.601 3.804 3.81 9.201.505 13.125-.866.939-1.743 1.898-2.62 2.856-.6.657-1.202 1.313-1.802 1.968a.698.698 0 0 1-.511.206.68.68 0 0 1-.457-.163.685.685 0 0 1-.205-.476.684.684 0 0 1 .162-.491l4.383-4.752c2.904-3.448 2.722-8-.44-11.342-1.629-1.721-3.757-2.669-5.993-2.669-2.235 0-4.35.949-5.956 2.671-1.664 1.785-2.526 3.85-2.492 5.97.036 2.24 1.022 4.398 2.93 6.414l12.059 12.798c2.011 2.006 3.052 4.334 3.284 7.334-.004 2.306-1.045 4.831-2.86 6.93-1.821 1.954-4.282 3.036-6.918 3.036z"/></g></g></svg>