<svg xmlns="http://www.w3.org/2000/svg" width="102" height="60" viewBox="0 0 102 60"><defs><clipPath id="cxc7a"><path d="M7.43.73h94.09v40.722H7.43z"/></clipPath><clipPath id="cxc7b"><path d="M.07 59.37h100.635V.73H.07z"/></clipPath></defs><g><g><g><g/><g clip-path="url(#cxc7a)"><path d="M84.72 10.873c.14-.438.406-1.327.426-1.88.057-1.557 1.281-2.077 2.581-3.613.405-.477 1.37-1.38 1.39-2.426.49-.038 1.08.142 1.018 1.276-.035.569-.666 1.174-1.027 1.582-.516.574-.739 1.313-.647 1.91.048.599.899.788 1.384.846.19.024.183.128.115.17-1.038.697-1.209.732-1.974 1.108-1.116.543-2.272.656-3.078 1.11zM34.824 41.452H7.43s6.859-2.48 12.186-2.929c2.472-.207 4.169-.06 4.169-.06s1.015-2.185 2.657-3.349c2.006-1.425 3.491-2.065 4.485-2.358.583-.694 1.189-1.417 1.937-2.051.963-.82 2.144-1.503 2.898-1.916.248-.137.253.038.181.165-.93 1.678-1.312 3.222-1.312 4.346.53-1.459.989-2.233 2.705-3.975.258-.26 1.771-1.155 1.662-3.294-.17-3.303-1.935-5.938-1.52-10.093-.217-.203-2.324-1.965-1.926-4.033.133-.693.623-1.203 1.423-1.057.205.038.786.337 1.391.948-.744-2.107-2.784-1.656-2.784-1.656s-.103-.77.025-1.442c.374-1.976 2.017-3.922 4.467-3.922 3.909 0 2.956 3.673 3.5 4.27.321.349.964.434 1.643.732.522.23 1.382.901 1.806 1.6.37.615.358 3.462.937 3.709.476.204.73.124.73.124s-.563.775-1.485 1.35c.584.258 1.021.738 1.335.894.146.073.031.208-.149.211-.285 0-.782-.036-1.645-.265-.307-.08-.48.065-.649.242-.145.15-.023.265.069.329.436.324 1.45.577 1.45.577s-.379.87-1.436.68c-.347-.062-.563.11-.633.475-.232 1.208 2.585 1.575 2.585 1.575s-1.094 1.133-2.915 1.077c-.76-.022-.953 1.103-.953 1.852 0 .455.075.588.174.76 2.405-1.18 4.99-2.059 7.549-2.355.192-.022.194.084 0 .16l-3.378 3.677a25.02 25.02 0 0 0-5.493 5.979zm6.956-28.401c.001.342.279.51.41.581.66.348.931.661 1.185 1.023.223.315.231.716.181 1.033-.016.13.072.23.237.23.748-.01 1.706-1.375 1.762-3.257-.22-.33-.68-.617-1.632-.608-.957.007-1.403-.372-1.403-.372zm6.819.369c-.077-.187-.41-1.025-.058-1.378.257-.257.344-.326.752-.304 1.116.06 1.704.621 1.71 1.102 0 .207-.283.514-.581.739a.524.524 0 0 1-.308.105zM100.735.864c-.417.092-.88.43-1.29 1.011-.11.224-.59 1.011-.796 1.525-.338.284-.534.5-.784.764-.31.327-.76.876-.786.947-.235.784-.954 2.304-.954 2.304.106-.681.736-2.527.79-2.864.08-.478-.078-1.06-.121-1.54-.03-.367-.06-.728-.065-1.092-.005-.166.166-1.217-.198-1.188-.313.022-.983.287-1.163 1.22-.108.555.027 1.54-.044 2.617-.015.25-.226.616-.364 1.29-.153.765-.342 1.824-.632 2.71.042-.298.32-2.052.366-2.78.047-.728-.585-3.013-.628-3.378-.036-.291-.147-.377-.302-.391-.534-.048-1.075.773-.901 1.883.056.333.468 1.293.43 1.842-.038.55-.302 1.11-.326 1.422-.06.773-.095 1.818-.196 2.3.08-.383-.057-2.308-.088-2.715-.025-.29-.611-1.647-.892-2.402-.118-.323-.343-.342-.5-.262-.632.319-.66 1.426-.532 1.945.072.3.471 1.11.626 1.796-.41 3.207-1.098 3.44-1.098 3.44s-.238.19-1.058.327c-1.438.246-3.967.959-4.663.197-.046-.051-.179-.128-.28-.044-.22.17-2.053 1.78-3.165 2.63-3.538 2.717-5.987 3.457-8.788 5.407-3.237 5.138-6.274 6.862-10.277 7.977-1.719.477-3.432.442-3.743-.474-.761-2.207 2.066-3.353 4.062-3.69.106-.016.107-.169.003-.225-.963-.53-2.075-.776-3.434-.776-3.696-.092-7.299 1.49-10.335 3.853l-5.493 5.979c-1.98 3.032-3.05 6.207-2.738 8.632.013.13.028.26.049.387h10.305c1.45-1.359 2.977-3.114 4.522-5.292 0 0-2.704.566-5.026.402.011-.005 3.097-.563 7.516-3.645 7.234 1.933 13.844-7.65 15.763-4.432.059.098.193.007.231-.018 5.823-3.999 8.108-9.069 12.184-12.591 1.826-1.58 2.187-2.234 5.357-3.089.88-.237.978-.584 1.275-.93.413-.493 1.007-.056 1.436-.816.17-.302-.01-.76.85-.944.87-.188.956-.998 1.37-1.46 1.08-1.21.945-1.131 1.873-2.139.347-.411 1.755-2.143 1.886-2.412.198-.398.684-1.7 1.302-2.425z"/></g></g><g><path d="M34.482 58.564h6.375c.563 0 .937-.396.937-.969v-.493c-.305.067-.766.098-1.634.098h-2.1l3.65-6.78h-7.175v1.344h3.207l-3.057 5.6c-.27.492-.303.888-.203 1.2"/></g><g><path d="M28.7 54.235l1.42 3.066c.396.884.573 1.263 1.466 1.263h2.023c-.115-.101-.22-.314-.426-.721l-2.067-4.268 2.42-3.155H31.38z"/></g><g><path d="M24.61 59.377h3.273v-10.43c0-1.085-.86-1.787-2.047-1.787H24.61z"/></g><g><path d="M23.443 58.574c.15.442.238.654.353.776h-2.409c-.685 0-.937-.299-1.137-.973l-.546-1.822h-3.831l-.907 2.817H13.16l3.98-11.402h1.355c1.403 0 1.755.494 2.09 1.575zm-4.15-3.4l-1.436-4.773-1.542 4.774z"/></g><g><path d="M42.61 55.125c0-2.902 2.062-4.705 4.535-4.705 2.492 0 4.465 1.835 4.465 4.31 0 2.899-2.075 4.649-4.514 4.649zm5.84-.129c0-1.799-.323-3.032-1.322-3.032-1.009 0-1.356 1.167-1.356 2.88 0 1.801.361 2.949 1.356 2.949z"/></g><g><path d="M52.43 59.372h1.872v-7.249l4.762 5.78c.664.816 1.105 1.47 1.82 1.47h1.364V48.956c0-.602-.4-.987-1.012-.987h-.823v6.856l-4.579-5.519c-.684-.826-1.032-1.337-2.027-1.337H52.43z"/></g><g><path d="M63.88 55.125c0-2.902 2.059-4.705 4.533-4.705 2.49 0 4.467 1.84 4.467 4.31 0 2.899-2.082 4.649-4.519 4.649zM69.718 55c0-1.8-.33-3.035-1.323-3.035-1.016 0-1.358 1.167-1.358 2.883 0 1.798.36 2.946 1.358 2.946z"/></g><g><path d="M86.383 55.06c.134 1.388 1.065 2.238 2.508 2.238.95 0 1.794-.24 2.347-.655-.056 1.343-.984 2.736-3.564 2.736-2.576 0-4.154-1.824-4.154-4.453 0-2.72 1.796-4.506 4.257-4.506 2.477 0 3.925 1.616 3.925 3.647 0 .308-.016.654-.068.994zm2.675-1.177s-.216-2.055-1.314-2.055c-.8 0-1.267.793-1.361 2.055z"/></g><g><path d="M82.702 54.355c0 3.264-1.747 5.022-4.889 5.022H74.52V47.16h1.053c1.019 0 1.743.703 1.743 1.791v2.368c.398-.42 1.187-.79 2.142-.79zm-2.896.347c0-1.402-.807-2.458-1.88-2.458-.278 0-.429.015-.61.037v5.637h.427z"/></g><g><path d="M93.34 59.377h3.273V48.95c0-1.088-.866-1.79-2.061-1.79H93.34z"/></g><g/><g clip-path="url(#cxc7b)"><path d="M.07 41.313h96.544v-.531H.07z"/></g></g></g></svg>