<svg xmlns="http://www.w3.org/2000/svg" width="98" height="54" viewBox="0 0 98 54"><defs><clipPath id="ggtaa"><path d="M.86 34.83h96.698v18.893H.86z"/></clipPath></defs><g><g><g><path d="M80.963 23.246c-4.302.029-8.378.062-9.513-.04-2.298-.198-3.834-1.706-4.013-3.925-.121-1.46-.121-2.663-.005-3.813.206-2.161 2.01-4.219 4.018-4.316.717-.039 2.644-.037 6.129-.02l10.145.02V6.927s-8.08-.005-10.509-.018c-3.26-.012-4.903-.016-5.943.018-2.286.09-4.201.908-5.691 2.422-1.41 1.433-2.254 3.715-2.377 6.021-.072 1.248-.097 2.872 0 3.84.232 2.482 1.035 4.43 2.377 5.796 1.433 1.463 3.619 2.392 5.695 2.42 1.701.02 16.448 0 16.448 0v-4.22s-4.477.018-6.761.04"/></g><g><path d="M36.1 6.9v4.288h9.813v16.248h4.139V11.188h9.813V6.9z"/></g><g><path d="M31.18 15.122c-.028-2.275-.808-4.227-2.319-5.801-1.574-1.65-3.978-2.337-5.548-2.426-1.368-.077-6.758-.05-8.025 0-1.784.078-3.08.629-3.731 1.128-.006.003-.013.003-.013-.01V.33H7.42v27.107h4.12s-.084-11.097.008-12.306c.166-2.146 1.745-3.833 3.763-4.012 1.614-.144 6.468-.104 7.991 0 2.092.148 3.633 1.833 3.758 4.101.037.833-.004 12.217-.004 12.217h4.125s.009-11.34 0-12.315"/></g><g><g/><g clip-path="url(#ggtaa)"><path d="M94.06 46.871c-.678-.012-1.08-.238-1.422-.675-.303-.402-.45-1.094-.48-1.803-.006-.052-.006-.109-.006-.168.012-.659.214-1.863.332-2.35.007-.041.014-.078.014-.108.004-.06-.02-.126-.075-.16-.05-.031-.102-.031-.158-.035h-.02c-.187.004-.454.102-.552.102h-.006c-.312-.012-.565-.193-.578-.74v-.016c.013-.348.21-.859 1.65-1.073.197-.017.308-.109.342-.232.368-.844.556-1.599.906-2.168.271-.423.502-.583.75-.583h.018c.122.002.287.122.412.315.13.193.217.456.214.69 0 .11-.024.21-.065.305-.25.528-.37 1.059-.49 1.501l-.033.121.123-.016c.004 0 1.182-.13 1.389-.13h.048c.515.013 1.182.162 1.184.829-.002.003 0 .009 0 .012.04.774-1.604.792-2.927.894-.275.019-.413.173-.463.402-.155.64-.394 1.786-.404 2.54-.004.098 0 .186.007.272.025.491.158.939.617.951h.01c.375-.006.824-.109.958-.141.147-.023.295-.027.408.197.047.155.032.292.032.408.002.686-.807.85-1.677.86zm1.28-1.462l.053-.012-.038.01-.015.002zm-9.142-3.063c0-.107 0-.21-.01-.321.202-.323.51-.497.826-.49.206.002.42.077.62.253.176.21.229.313.244.62l-.005.184v.2l.145-.138c.182-.174.553-.506 1.003-.5.46.013.69.215.83.544.142.328.168.786.162 1.245-.007.3-.021.6-.024.871.012.134.12.21.213.206.174-.007.367-.116.509-.112.045.001.077.008.108.033.022.154.029.297.029.43-.02.939-.537 1.35-1.098 1.346-.679-.01-1.457-.658-1.464-1.947l-.002-.126-.113.046c-.664.272-.924.925-1.186 1.478-.271.562-.517 1.004-1.114.993-.09 0-.188-.012-.294-.033-.51-.118-.556-.34-.565-.727l.012-.256c.085-1.338 1.147-2.301 1.177-3.799zm-4.4 1c.008-.006.094-.219.08-.577a2.685 2.685 0 0 0-.03-.222l-.012-.085-.082.014c-.57.09-.928.552-1.13.806-.166.215-.488.723-.476 1.044-.01.515.492.435.492.435.72-.058 1.144-1.412 1.159-1.415zm1.648-1.81a8.714 8.714 0 0 0-.012 1.32c.025.531.077 1.063.102 1.623.034.662.036 1.357-.061 2.13-.009.089-.016.166-.072.224-.162.174-.325.247-.49.257-.48.019-.991-.547-1.027-1.203v-.334l-.155.216c-.223.31-.712.583-1.127.695-.113.018-.225.03-.329.04-.796.029-1.217-.347-1.363-.86a3.16 3.16 0 0 1-.115-.712c-.115-2.194 2.059-4.016 3.481-4.371l.012-.005a.272.272 0 0 1 .114-.023c.411-.044 1.008.667 1.042 1.002zm-8.368 5.443c-.41-.092-.678-.539-.67-1.068v-.019c.238-1.536 1.575-3.003 1.877-4.57.146-.782.144-1.549.842-1.649.69-.1 1.252.332 1.1 1.157 0 .054-.94 2.554-1.638 3.885-.316.82-.355 1.416-.442 1.625-.192.435-.564.646-1.061.639zm-4.746-10.527a.72.72 0 0 1 .597-.267c.428.003.88.309.93.763.007.033.007.07.007.107 0 .55-.586 1.02-.906 1.56-1.01 1.736-1.485 4.392-1.848 6.08l-.004.006c-.093.86-.255 1.775-.33 1.89-.105.169-.2.477-.689.477-.016-.002-.03-.002-.045-.002-.554-.034-.777-.293-.78-.668 0-.094 0-.188.003-.275.052-3.727 1.7-7.534 3.065-9.671zm4.081-.653a.777.777 0 0 1 .73-.451c.144.003.307.036.491.126v.003c.33.155.418.423.418.707a1.702 1.702 0 0 1-.146.616c-.852 1.682-1.87 4.754-1.87 4.756 0 0-.641 1.968-.9 3.15-.173.826.02 1.36-.447 1.926-.17.214-.485.324-.8.321a3.373 3.373 0 0 0-.134-.01c-.398-.078-.509-.37-.509-.74.351-3.907 2.168-7.174 3.167-10.404zm4.654-.097c.009-.41.22-.774.746-.867h.007c.064-.005.125-.005.178-.005.38.005.55.123.634.205.053.053.392.514.382.954-.002.24-.097.477-.382.682-.22.121-.422.17-.602.165-.58-.007-.97-.588-.963-1.134zm-14.713 1.166c.01-.374.217-.714.803-.83.05-.007.09-.007.13-.007.67.012.974.498.974.998-.015.49-.321.952-.92.957h-.015c-.533-.012-.978-.588-.972-1.118zm.8 4.088c.422.007.94.51.992.944.013.094.02.181.02.273-.007 1.214-1.276 2.436-1.301 3.803-.004.169.012.34.057.513-.02.26-.113.404-.746.45h-.065c-.513-.004-.652-.482-.683-.7a3.487 3.487 0 0 1-.04-.594c.022-1.57.95-3.128 1.255-4.35.129-.253.302-.339.5-.339zm-7.165 5.706c-.036 0-.417-.006-.581-.286-.092-.492-.12-1.05-.114-1.639.013-.944.13-1.967.282-2.923.06-.24.25-.962.942-.948h.017c.523-.014.483.879.51 1.245l.025.26.137-.225c.367-.65 1.439-1.269 2.513-1.25.108 0 .22.007.328.021.333.058.456.142.546.647.004.042.007.086.007.124 0 .502-.486.687-.486.687-1.075.265-1.979.61-2.67 1.877-.319.619-.455 2.455-1.456 2.41zm-4.735-1.807c.415-.326.77-.783.782-1.113.005-.105-.041-.287-.149-.337-.076-.043-.244-.063-.333-.067-.424 0-1.015.416-1.3.774-.241.31-.374.491-.374 1.14l.013.232h.09c.209-.004.765-.247 1.271-.63zm1.304-2.916c.553.209.96 1.03.948 1.854-.007.37-.094.737-.286 1.051-.888 1.354-1.975 1.814-4.465 2.546-.265.092-.403-.146-.484-.246a.594.594 0 0 1-.085-.137c-.005-.018-.012-.035-.016-.044 0-.007-.002-.01-.005-.016v-.009c-.006-.003-.006-.007-.009-.012-.006-.007-.006-.02-.04-.033v-.002c-.486-.188-.802-.01-.918-.563.316-2.35 1.008-5.507 1.35-8.117.11-.876.123-1.76.324-2.425.122-.377.368-.795.927-.786h.074c.701.037.796.648.796 1.034 0 .104-.012.188-.017.233-.48 2.346-.776 4.5-1.276 6.727l-.06.26.198-.178c.671-.593 1.328-1.285 2.301-1.27.226.003.472.04.743.133zm-21.488 10.9c.012-.335.16-.62.72-.671h.17c1.743 0 3.36-.82 4.384-1.984.273-.346.628-.86.924-1.855.192-.743.262-1.487.34-2.291-.065.256-.842.54-1.515.467-.187 0-.378-.032-.563-.102-.384-.172-.723-.439-.939-1.143 0 0-.154-.583-.154-1.34 0-.763.212-1.298.296-1.646.077-.288.25-.686.83-.688h.054c.447.04.515.356.52.583 0 .033 0 .067-.005.098-.059.494-.127.999-.127 1.419 0 .556.127 1.029.628 1.037.15 0 .332-.048.549-.142.29-.142.474-.592.71-1.002.228-.418.49-.77.788-.762.118 0 .256.047.428.184.14.13.166.357.17.357v.008c.159.776.234 1.547.234 2.29-.004 4.414-2.66 8.032-6.95 8.032-.19 0-.376-.007-.572-.023 0 0-.77-.056-.882-.558a1.047 1.047 0 0 1-.038-.267zm1.747-15.666c.17-.096.34-.144.495-.144.296 0 .811.313.766.846 0 .202-.043.395-.072.625-.064.529-.965 4.117-1.214 5.395-.169.853-.156 1.683-.355 2.381-.094.308-.31.877-.836.868 0 0-.235-.004-.307-.02 0 0-.647-.261-.585-1.21V45.9c-.003-.799 1.42-7.374 1.525-7.655.17-.495.226-.864.583-1.073zm-6.121 9.603c-.008 0-.014-.003-.022-.003l-.012.003c-1.116.009-1.451-1.198-1.478-2.32v-.043c0-.625.254-2.437.375-2.955.009-.046.016-.08.016-.114a.184.184 0 0 0-.072-.155c-.052-.033-.104-.033-.154-.035l-1.007-.027c-.273.004-.495-.307-.502-.859v-.019c.04-.345.176-.407.253-.5 0 0 .218-.148.425-.148.108.016.223.003.321.003.287 0 .569-.054.958-.06.21.01.321-.12.352-.233.42-.984.43-1.316.786-2.088.299-.63.608-.975.938-1.019 1.168 0 .75 1.404.628 1.597-.287.541-.461 1.113-.607 1.536l-.04.118s1.398-.084 1.418-.084c.506.008 1.057.033 1.075.72v.016c0 .41-.352.608-.797.708-.44.098-.93.086-1.112.086-.17.007-.526.024-.732.028-.285-.007-.42.186-.457.415-.155.655-.386 2.217-.39 3.044 0 .09.004.167.011.241.03.497.145.613.303.743.255.2.452.378.456.66v.019c-.004.51-.363.704-.933.725zm-6.548-3.375c.034.007.228.01.265.01.436-.019 1.208-.375 1.208-.963v-.025a.334.334 0 0 0-.302-.333c-.012-.002-.027-.002-.034-.002-.371.013-1.085.555-1.2 1.219l-.01.077zm3.369.987c.046.075.046.193.046.193-.03 1.418-1.417 2.282-2.714 2.282-1.126-.007-2.147-.636-2.153-2.136v-.095l-.043-.023c-.342-.204-.556-.474-.642-.937-.003-.027-.003-.055-.007-.083.004-.354.307-.74.646-.74.084 0 .168.022.261.07l.115.063.013-.13c.264-1.094 1.305-1.782 2.321-1.78.585.003 1.077.242 1.276.811.088.258.126.491.126.704.014 1.378-1.746 1.903-2.293 1.985l-.077.025.02.075c.109.508.319.81.921.803h.02c.856-.002 1.23-.63 1.73-1.119.114-.114.199-.107.248-.107.064 0 .138.054.186.139zm-22.8.828c.843-.038 2.443-2.264 2.472-3.179 0-.149-.048-.288-.178-.354a.513.513 0 0 0-.253-.072c-.267.005-.53.205-1.054.716-.564.556-1.441 1.592-1.448 2.32a.595.595 0 0 0 .25.506c.056.044.21.063.21.063zM7.1 41.36c0 .067-.018.208-.018.208-.02.213-.183.87-.325 1.518-.458 2.114-.309 4.58-.66 6.85-.22 1.42-.169 2.883-.94 3.624a.778.778 0 0 1-.469.163c-.38 0-.723-.311-.726-.8 0-.022.929-4.833 1.037-7.603l.007-.177-.14.117c-.608.534-1.577 1.76-2.574 1.75-.183 0-.368-.042-.558-.13-.614-.386-.874-.969-.874-1.664 0-1.092.662-2.427 1.584-3.483.917-1.058 2.092-1.825 3.075-1.825.565.003 1.07.246 1.462.85.002.005.122.297.119.602zm5.432 3.677l-.106.074c-.678.467-1.286 1.35-2.264 1.394-.027.003-.053.003-.085.003-.52-.003-.846-.265-1.065-.709-.217-.44-.303-1.058-.303-1.717-.004-1.436.41-3.079.698-3.6.21-.392.565-.555.911-.558.345-.003.877.298.877.787 0 .08-.008.17-.036.264-.302.866-.936 2.316-.936 3.046-.007.221.072.43.287.461 1.202-.11 1.905-1.71 2.578-2.836.149-.263.371-.339.388-.332.04-.007.08-.007.113-.007.58.007.694.34.71.925.003.585-.163 1.36-.163 2.085 0 .34.038.67.147.963.178.47.445.491.593.909a.596.596 0 0 1 .022.173.78.78 0 0 1-.218.525c-.126.135-.287.215-.397.215-1.435-.206-1.478-.854-1.726-1.94zm4.469 1.6c-.113 0-.227-.01-.347-.025-.302-.05-.545-.339-.545-.7 0-.025 0-.051.004-.074.209-1.689.454-4.029 1.333-4.603.19-.09.362-.13.51-.13.458 0 .725.372.728.841 0 .088-.009.175-.03.269-.38 1.414-.733 2.489-1.01 4.132-.055.209-.307.29-.643.29zm1.311-10.167a1.1 1.1 0 0 1 .633-.215c.646 0 1.186.704 1.186 1.32v.067c-.1.474-.547.653-.915.656-.577 0-1.173-.477-1.178-1.092 0-.226.079-.547.274-.736z"/></g></g></g></g></svg>