<svg xmlns="http://www.w3.org/2000/svg" width="111" height="106" viewBox="0 0 111 106"><g><g><path fill="#fff" d="M110.615 52.115l-.087 2.952c-.037 1.27-.817 2.074-1.866 2.043-.797-.023-1.405-.493-1.642-1.28l-2.437 1.208.037-1.279 2.3-1.109.044-1.466-2.257-.067.034-1.175zm-2.694 2.8c-.019.63.264 1.005.776 1.02.495.015.808-.362.827-.973l.05-1.702-1.603-.047zm1.915-11.238l.143 1.167-3.524.423c-.892.11-1.362.755-1.243 1.726.118.961.73 1.473 1.622 1.364l3.522-.442.143 1.166-3.53.444c-1.425.175-2.557-.785-2.757-2.41-.2-1.633.667-2.838 2.09-3.013zm-12.49 44.896l-1.99 2.184c-.855.938-1.971 1.041-2.747.335-.589-.537-.743-1.29-.41-2.042l-2.635-.671.861-.946 2.467.657.989-1.084-1.668-1.522.792-.869zm-3.868.37c-.424.466-.455.935-.076 1.28.366.333.849.251 1.26-.2l1.148-1.26-1.185-1.08zm3.288-4.277c-1.415-.92-1.756-2.907-.652-4.487 1.06-1.633 3.03-2.063 4.413-1.097 1.429.93 1.784 2.926.669 4.522zm.657-.975c.981.662 2.233.395 2.943-.658s.486-2.315-.496-2.976c-.967-.652-2.196-.392-2.915.677zM83.258 96.573c-.666-.646-1.465-.71-2.209-.216-.721.479-.957 1.059-.66 1.506.242.364.79.322 1.723-.177 1.352-.736 2.324-.666 2.909.215.525.79.067 1.92-1.062 2.669-.509.338-1.04.509-1.575.502a2.036 2.036 0 0 1-1.397-.523l.71-.955c.501.433 1.164.496 1.706.137.587-.39.83-.874.621-1.189-.237-.356-.644-.358-1.462.094-1.498.804-2.547.805-3.146-.096-.627-.944-.201-2.174 1.076-3.022.62-.411 1.246-.606 1.861-.581.62.032 1.165.275 1.627.733zm8.705-2.363l-.874.742-1.592-1.875-.595 3.731-1.226 1.04.621-3.874-4.4-.636 1.147-.974 3.433.5.135-.83-1.331-1.568.875-.743zm15.248-22.324l-4.419-.631 3.425 2.886-.512 1.162-4.464-.59 3.471 2.845-.485 1.102-4.695-3.919.572-1.299 4.284.582-3.32-2.768.568-1.291 6.06.82zm2.941-11.916l-.803 4.587-.992-.173.6-3.429-1.34-.233-.533 3.049-.992-.174.534-3.048-1.472-.257-.6 3.428-.992-.173.803-4.587zm-2.306-24.148l1.47 5.253-.97.271-.575-2.056-4.688 1.313-.317-1.132 4.688-1.313-.578-2.064zm-3.116-7.438l.48 1.073-3.245 1.442c-.82.366-1.08 1.122-.68 2.015.395.885 1.131 1.194 1.952.828l3.237-1.459.48 1.073-3.245 1.463c-1.31.586-2.676 0-3.344-1.494-.672-1.503-.198-2.91 1.113-3.496zm-3.726-6.259l2.454 3.925-.853.535-1.83-2.928-1.303.814 1.626 2.601-.854.535-1.625-2.601-1.972 1.233-.623-.998zm-7.193-8.683l3.169 3.412-.739.685-2.368-2.55-.996.925 2.105 2.267-.739.685-2.105-2.267-1.095 1.016 2.368 2.55-.739.685-3.167-3.412zm-6.404-5.619l.903.752-1.514 1.819 2.463 2.052 1.515-1.819.903.752-3.76 4.515-.902-.753 1.6-1.922-2.464-2.051-1.6 1.922-.904-.753zM80.72 3.354l4.596 2.943-.544.849-1.798-1.152-2.625 4.101-.99-.634 2.625-4.102-1.807-1.157zm-26.025 101.78c-5.94-.001-11.513-2.434-15.694-6.851-8.09-8.548-8.557-20.674-1.135-29.489 1.946-2.11 3.916-4.262 5.886-6.415 1.35-1.476 2.7-2.952 4.05-4.423.26-.28.682-.45 1.127-.45.398 0 .77.135 1.025.37.27.25.435.637.451 1.061.016.424-.118.822-.368 1.093l-9.813 10.68c-6.523 7.745-6.115 17.973.99 25.48 3.66 3.866 8.435 5.995 13.446 5.995 5.01 0 9.755-2.13 13.362-6 3.74-4.01 5.675-8.648 5.598-13.414-.081-5.033-2.297-9.88-6.583-14.41l-27.053-28.75c-4.76-5.029-7.324-10.72-7.417-16.458-.09-5.568 2.136-10.95 6.439-15.565C43.122 3.174 48.651.743 54.576.743c5.938 0 11.512 2.432 15.692 6.85 8.091 8.548 8.559 20.674 1.136 29.489-1.946 2.11-3.917 4.264-5.887 6.417a2893.23 2893.23 0 0 1-4.05 4.42c-.265.291-.694.464-1.147.464-.398 0-.772-.133-1.026-.367-.274-.251-.442-.64-.461-1.068-.02-.428.114-.83.365-1.105l9.846-10.676c6.525-7.746 6.116-17.974-.988-25.48C64.396 5.82 59.614 3.69 54.59 3.69c-5.021 0-9.773 2.131-13.381 6-3.738 4.01-5.675 8.648-5.598 13.414.081 5.032 2.296 9.88 6.583 14.41l27.09 28.75c4.52 4.508 6.86 9.737 7.38 16.477-.009 5.182-2.349 10.855-6.424 15.57-4.093 4.39-9.622 6.821-15.544 6.821zm-25.383-4.08c-.242 0-.474-.06-.69-.177A54.531 54.531 0 0 1 .086 52.93c0-19.882 10.829-38.196 28.261-47.797a1.452 1.452 0 0 1 1.399 2.54c-16.507 9.09-26.76 26.432-26.76 45.257a51.634 51.634 0 0 0 27.02 45.399c.34.185.588.491.698.862.11.372.068.764-.116 1.104zm16.002-26.625l3.755 14.904L52.96 74.43h3.309l3.92 15.099 3.755-15.099h3.114l-5.005 19.464h-3.699L54.63 79.407l-3.725 14.486h-3.726L42.172 74.43zm2.906-62.371h13.486v2.947H51.279v5.672h9.287v2.948h-9.287v7.896H48.22z"/></g></g></svg>