<?xml version="1.0" encoding="utf-8"?>
<svg width="108px" height="54px" viewBox="0 0 108 54" version="1.1" xmlns:xlink="http://www.w3.org/1999/xlink" xmlns="http://www.w3.org/2000/svg">
  <g id="Group-5">
    <path d="M73.2101 48.1219C70.4875 48.118 67.1684 47.5599 63.5542 46.5804C62.7432 46.3604 61.9182 46.1203 61.0786 45.8578C60.2939 46.389 59.4829 46.8899 58.6355 47.3601C53.7538 50.0748 47.8734 51.722 41.573 51.722C19.6641 51.722 6.4102 40.0809 6.4102 27.6398C6.4102 15.1926 19.994 5.10694 36.7467 5.10694C43.721 5.10694 49.9374 5.93981 55.196 8.18767C56.1622 8.60299 57.0992 9.06532 58.0021 9.57859C58.5297 9.27298 59.0696 8.97577 59.6134 8.69479C63.3442 6.79116 67.9856 5.64484 72.2221 5.64484C89.386 5.64484 102.165 15.046 102.165 26.9922C102.165 38.9407 89.9645 48.1342 73.2101 48.1219M74.1208 3.51676C67.9408 3.51676 62.4928 4.92391 57.5372 7.07606C51.425 2.68613 43.246 0 34.2549 0C15.3346 0 0 11.8774 0 26.526C0 41.1746 16.2246 53.8496 40.9659 53.8496C48.652 53.8496 55.5713 51.7584 61.0865 48.2971C67.0015 50.4576 72.5822 51.6504 76.7896 51.6549C94.7079 51.6666 107.699 41.4432 107.699 28.0104C107.699 14.5775 92.4788 3.51676 74.1208 3.51676" id="Fill-1" fill="#000000" fill-rule="evenodd" stroke="none" />
    <path d="M59.8426 14.1822L55.5985 14.1822L55.5985 5.07721L59.8426 5.07721C62.3393 5.07721 64.3666 7.1167 64.3666 9.6297C64.3666 12.1427 62.3393 14.1822 59.8426 14.1822M62.3848 0.000290547L40.8184 0.000290547C40.8184 0.000290547 43.4337 1.43443 43.4832 3.76244L43.4832 23.8919C43.4832 23.8919 43.3848 25.5116 42.7816 25.9665L25.788 12.2598L30.8641 5.4291C30.8641 5.4291 34.2328 1.07859 37.9545 0.0166969L24.7817 0.0166969C24.7817 0.0166969 24.0272 -0.185271 23.0737 1.0288L14.7807 11.6528L14.7807 0.572251C14.7807 0.572251 14.9831 -0.0574146 13.6232 0.00425071L0 0.000290547C0 0.000290547 2.61591 1.07859 2.66482 4.16581L2.66482 23.54C2.66482 23.54 2.86552 26.5741 0 27.7389L14.024 27.7389C14.024 27.7389 14.7807 27.6875 14.7807 26.9322L14.7807 15.6497L24.9863 23.742C24.9863 23.742 29.5575 27.8374 33.3305 27.7389L54.7418 27.7389C54.7418 27.7389 55.5985 27.6377 55.5985 26.7263L55.5985 19.0373L63.1865 19.0373C63.1865 19.0373 76.261 18.5842 76.6624 9.88089C76.6624 9.88089 78.0673 0.440434 62.3848 0.000290547" transform="translate(15.502149 13.870344)" id="Fill-3" fill="#000000" fill-rule="evenodd" stroke="none" />
  </g>
</svg>