<svg id="Слой_1" data-name="Слой 1" xmlns="http://www.w3.org/2000/svg" width="140" height="82" viewBox="0 0 140 82">
  <path d="M57.38,54.86h7.07V56H61.51v7.75H60.3V56H57.38Zm8.36,0H67v3.76h4.9V54.86h1.2v8.9h-1.2v-4H67v4H65.74Zm9.2,0h6.14V56H76.14v2.61h4.41v1.17H76.14V62.6h4.94v1.16H74.94ZM0,68.58H8.84V70H1.5v4.65H8.07v1.43H1.5v5.61H0Zm10.77,0h1.5v8.26a3.73,3.73,0,0,0,1,2.7,3.4,3.4,0,0,0,2.57,1,3.33,3.33,0,0,0,2.54-1,3.77,3.77,0,0,0,1-2.7l0-8.26h1.5l0,8.28a4.88,4.88,0,0,1-5,5.14,4.92,4.92,0,0,1-5.05-5.14Zm11.73,0H32.71V70H28.36V81.72h-1.5V70H22.5Zm11.92,0h1.5l0,8.26a3.74,3.74,0,0,0,1,2.7,3.38,3.38,0,0,0,2.57,1,3.31,3.31,0,0,0,2.53-1,3.74,3.74,0,0,0,1-2.7l0-8.26h1.5l0,8.28a5,5,0,1,1-10.06,0Zm12.67,0h5.72a3.65,3.65,0,0,1,3.94,3.75A3.52,3.52,0,0,1,54,76l2.75,5.78H55.06l-2.64-5.65H48.59v5.63h-1.5Zm5.66,6.08a2.32,2.32,0,1,0,0-4.63H48.59v4.63Zm6.1-6.08h9V70H60.35v4.26h6.7v1.42h-6.7v4.56h7.47v1.45h-9Zm16.61,0,2.78,11,2.89-11h1.63l2.89,11.09,2.78-11.09H90L86.57,81.72H84.73L82,71l-2.8,10.76H77.3L73.92,68.58Zm22.09-.28a6.85,6.85,0,1,1-6.66,6.89,6.57,6.57,0,0,1,6.66-6.89Zm0,12.26a5.42,5.42,0,0,0,0-10.82,5.18,5.18,0,0,0-5.16,5.45,5.09,5.09,0,0,0,5.16,5.36Zm9-12h5.72a3.65,3.65,0,0,1,3.94,3.75A3.52,3.52,0,0,1,113.47,76l2.74,5.78h-1.66l-2.64-5.65h-3.83v5.63h-1.5Zm5.67,6.08a2.32,2.32,0,1,0,0-4.63h-4.17v4.63Zm6.1-6.08h1.48v6.33l6.74-6.33h2.06l-5.95,5.61,6,7.55h-1.92l-5.18-6.5-1.76,1.65v4.85h-1.48Zm12.14,8.13a4.12,4.12,0,0,0,4.15,3.85c2.1,0,3.41-1,3.41-2.63,0-1.35-1.2-2.14-3.81-2.42-2.91-.3-4.35-1.54-4.35-3.72s1.91-3.47,4.5-3.47a4.92,4.92,0,0,1,3.12,1.05,4.68,4.68,0,0,1,1.69,2.78l-1.47.5a3.42,3.42,0,0,0-3.34-2.89c-1.74,0-3,.83-3,2,0,1.33.95,2,3.19,2.25,3.32.36,5,1.6,5,3.91s-2,4.07-5,4.07a5.54,5.54,0,0,1-3.76-1.31A5.89,5.89,0,0,1,129,77.14Z" fill="#1d1d1b"/>
  <path d="M66.55,5h6V6.35H67.91V8.87H72v1.32H67.91V13.7H66.55ZM65.25,32.8l1.67,6.63,1.73-6.63h1.48l1.74,6.72,1.67-6.72h1.39L72.7,41.46H71.06L69.4,35l-1.66,6.45H66.08L63.85,32.8ZM58.13,44.65a.58.58,0,0,1-.31-.08A24.28,24.28,0,0,1,57.7,2a.65.65,0,0,1,.86.31.64.64,0,0,1-.24.82,23,23,0,0,0,.12,40.36.65.65,0,0,1,.31.38.64.64,0,0,1,0,.49Zm22.81-.16a.64.64,0,0,1-.32-1.2A23,23,0,0,0,80.35,3,.62.62,0,0,1,80,2.64a.64.64,0,0,1,.44-.8.62.62,0,0,1,.48,0,24.28,24.28,0,0,1,.29,42.52Zm-11.51,2a9.9,9.9,0,0,1-7.49-16.18l2.62-2.85,1.8-2a.63.63,0,0,1,.5-.2.69.69,0,0,1,.46.16.72.72,0,0,1,0,1L63,31.14a8.2,8.2,0,0,0,.44,11.34,8,8,0,0,0,11.93,0,8.51,8.51,0,0,0,2.49-6,9.52,9.52,0,0,0-2.93-6.41l-12-12.8A11,11,0,0,1,59.58,10a9.83,9.83,0,0,1,2.87-6.92,9.37,9.37,0,0,1,6.93-3,9.53,9.53,0,0,1,7,3.05,9.61,9.61,0,0,1,.5,13.12L74.24,19l-1.8,2a.69.69,0,0,1-.51.2.65.65,0,0,1-.46-.16.67.67,0,0,1-.2-.47.75.75,0,0,1,.16-.5l4.38-4.75A8.2,8.2,0,0,0,75.37,4a8.2,8.2,0,0,0-6-2.67A8.1,8.1,0,0,0,63.43,4a8.54,8.54,0,0,0-2.5,6,9.61,9.61,0,0,0,2.93,6.42L75.92,29.16a11.05,11.05,0,0,1,3.29,7.34,11,11,0,0,1-2.86,6.93,9.42,9.42,0,0,1-6.92,3Z" fill="#1d1d1b"/>
</svg>
