<svg xmlns="http://www.w3.org/2000/svg" width="144" height="64" viewBox="0 0 144 64"><g><g><g><g><path d="M29.071.17c-1.698.043-3.392.48-4.947 1.196-.754.347-1.47.766-2.143 1.234-.144.099-.291.195-.432.3-2.873 2.15-5.03 5.163-6.648 8.338-1.978 3.874-3.242 8.187-3.893 12.41a53.575 53.575 0 0 0-.616 8.22c-.002 2.706.19 5.465.616 8.217.65 4.22 1.915 8.533 3.893 12.409 1.495 2.933 3.457 5.718 6.008 7.821a29.623 29.623 0 0 0 2.28-2.768 33.487 33.487 0 0 1-.714-1.018c-4.079-6.066-6.04-13.33-6.538-20.57a62.188 62.188 0 0 1-.139-4.092c.002-1.37.047-2.736.139-4.095.499-7.239 2.459-14.503 6.54-20.568.51-.76 1.063-1.505 1.647-2.23A27.176 27.176 0 0 1 26.265 2.6 22.033 22.033 0 0 1 28.856.417c.072-.052.144-.11.215-.161z"/></g><g><path d="M11.448 2.902c-2.873 2.151-5.03 5.167-6.65 8.345-1.978 3.876-3.24 8.192-3.893 12.418a53.93 53.93 0 0 0-.613 7.706v1.036c.022 2.545.217 5.131.613 7.708.653 4.224 1.915 8.54 3.893 12.418 1.62 3.178 3.777 6.192 6.648 8.345 2.063 1.546 4.627 2.581 7.218 2.72h.305v-.076c-2.618-1.828-4.836-4.334-6.594-6.95-4.082-6.071-6.04-13.34-6.538-20.587a59.344 59.344 0 0 1-.14-4.096c0-1.37.046-2.736.14-4.096.499-7.245 2.456-14.514 6.54-20.584 1.756-2.62 3.974-5.123 6.592-6.953V.17c-2.694.065-5.38 1.124-7.52 2.731z"/></g><g><path d="M38.712.256c2.623 1.83 4.838 4.333 6.597 6.95 4.079 6.073 6.039 13.342 6.538 20.587a60.901 60.901 0 0 1 0 8.194c-.5 7.245-2.46 14.514-6.54 20.584-1.757 2.617-3.972 5.123-6.595 6.951v.076h.305c2.593-.139 5.157-1.174 7.22-2.72 2.87-2.153 5.028-5.167 6.648-8.345 1.978-3.878 3.24-8.194 3.89-12.418.426-2.754.62-5.515.618-8.224a53.379 53.379 0 0 0-.617-8.226c-.649-4.226-1.913-8.54-3.891-12.418-1.62-3.178-3.777-6.194-6.648-8.345C44.094 1.295 41.41.236 38.712.171z"/></g><g><path d="M38.76.18c-1.7.042-3.398.481-4.958 1.202a14.09 14.09 0 0 0-2.147 1.24c-.145.1-.293.196-.435.302a18.95 18.95 0 0 0-2.38 2.152 23.797 23.797 0 0 0-2.6 3.328 30.757 30.757 0 0 0-1.683 2.905c-1.982 3.895-3.25 8.231-3.902 12.477a54.045 54.045 0 0 0-.616 8.266c-.005 2.722.19 5.496.616 8.263.653 4.244 1.92 8.58 3.902 12.478.231.452.476.9.725 1.344a37.721 37.721 0 0 0 2.621-6.08c-1.285-3.836-2.03-7.864-2.305-11.89a61.335 61.335 0 0 1-.132-4.115h.006c0-1.378.032-2.752.126-4.118.339-4.918 1.366-9.84 3.243-14.401a36.087 36.087 0 0 1 2.604-5.129c.235-.385.453-.779.706-1.153a31.754 31.754 0 0 1 1.65-2.242 27.004 27.004 0 0 1 2.149-2.387c.81-.8 1.68-1.535 2.595-2.195.074-.052.143-.11.215-.162z"/></g><g><path d="M34.92 5.821c.245.336.483.676.712 1.016 4.092 6.063 6.055 13.321 6.555 20.554.092 1.358.137 2.723.139 4.09a61.965 61.965 0 0 1-.14 4.09c-.5 7.235-2.462 14.493-6.554 20.554a31.344 31.344 0 0 1-1.65 2.226 27.55 27.55 0 0 1-2.145 2.373 22.418 22.418 0 0 1-2.597 2.18c-.074.053-.146.111-.217.16v.077h.31c1.596-.085 3.184-.513 4.648-1.186a14.122 14.122 0 0 0 2.149-1.23c.145-.101.293-.198.432-.3 2.88-2.15 5.042-5.16 6.663-8.332 1.983-3.873 3.247-8.182 3.902-12.4.426-2.749.622-5.505.617-8.212.005-2.71-.19-5.464-.617-8.211-.652-4.22-1.92-8.529-3.9-12.399-1.5-2.93-3.464-5.714-6.023-7.815a29.245 29.245 0 0 0-2.283 2.765z"/></g><g><path d="M29.749 15.764c1.284 3.834 2.027 7.86 2.302 11.882.094 1.366.132 2.738.132 4.113h-.004a61.292 61.292 0 0 1-.128 4.113c-.336 4.914-1.36 9.833-3.236 14.391a36.068 36.068 0 0 1-2.595 5.126c-.235.384-.457.78-.707 1.154-.51.76-1.06 1.51-1.645 2.239a27.72 27.72 0 0 1-2.143 2.387 22.577 22.577 0 0 1-2.59 2.191c-.075.054-.142.113-.218.162v.077h.31c1.596-.086 3.178-.515 4.641-1.193.752-.346 1.468-.77 2.14-1.237.145-.101.295-.198.433-.302a19.092 19.092 0 0 0 2.374-2.15 24.094 24.094 0 0 0 2.598-3.326 31.84 31.84 0 0 0 1.678-2.903c1.976-3.894 3.24-8.228 3.891-12.47.423-2.764.62-5.536.616-8.259a54.063 54.063 0 0 0-.616-8.257c-.65-4.244-1.915-8.577-3.89-12.47-.231-.452-.475-.9-.726-1.343-1.056 1.942-1.913 3.978-2.617 6.075z"/></g><g><path d="M30.604 60.361a29.382 29.382 0 0 0 2.287-2.772 37.764 37.764 0 0 1-.714-1.015c-.252-.374-.472-.766-.708-1.15a23.854 23.854 0 0 1-2.608 3.312c.548.576 1.128 1.12 1.743 1.625"/></g><g><path d="M35.98 61.178c-.675.469-1.394.888-2.152 1.233 1.564.72 3.265 1.156 4.97 1.199v-.088a22.025 22.025 0 0 1-2.817-2.344"/></g><g><path d="M28.86 63.61v-.086c-.044-.03-.087-.067-.132-.098a12.2 12.2 0 0 1-.804.119c.312.033.624.058.937.065zm-.132-.184c-.272-.193-.541-.39-.804-.596a23.358 23.358 0 0 1-1.88-1.652c-.677.469-1.396.888-2.151 1.235a13.327 13.327 0 0 0 4.03 1.132c.27-.03.538-.072.805-.12z"/></g><g><path d="M27.117 3.42a29.38 29.38 0 0 0-2.287 2.772c.245.336.485.675.714 1.015.252.375.472.767.708 1.15a23.853 23.853 0 0 1 2.609-3.312 19.254 19.254 0 0 0-1.744-1.625"/></g><g><path d="M21.74 2.602a14.341 14.341 0 0 1 2.152-1.233C22.33.65 20.628.213 18.922.171v.087a22.025 22.025 0 0 1 2.818 2.344"/></g><g><path d="M33.83 1.367A13.312 13.312 0 0 0 29.8.236a10.965 10.965 0 0 0-.937-.065h-.002v.085c.047.031.09.067.135.098.271.193.541.39.804.596.654.514 1.28 1.067 1.88 1.652a14.14 14.14 0 0 1 2.15-1.235"/></g><g><path d="M138.429 14.156h.197c.277 0 .45.012.521.034.07.022.124.06.162.112a.294.294 0 0 1 .059.177c0 .07-.02.13-.061.184a.294.294 0 0 1-.16.112c-.067.022-.24.033-.52.033h-.198zm0 2.008v-.981h.125c.137 0 .247.033.337.1.088.07.2.234.335.493l.2.388h.6l-.283-.482a5.77 5.77 0 0 0-.175-.29c-.07-.09-.124-.151-.162-.182a.585.585 0 0 0-.169-.09.785.785 0 0 0 .477-.229.626.626 0 0 0 .168-.441c0-.126-.029-.24-.09-.34a.618.618 0 0 0-.224-.231.939.939 0 0 0-.373-.095c-.057-.004-.31-.006-.766-.006h-.486v2.386zm.533-3.011c.31 0 .608.078.893.233.285.154.51.376.674.665.161.29.245.594.245.91 0 .314-.081.614-.243.9-.16.285-.382.51-.667.668a1.801 1.801 0 0 1-1.8 0 1.696 1.696 0 0 1-.67-.667 1.83 1.83 0 0 1-.24-.901c0-.316.084-.62.248-.91.161-.289.386-.51.67-.665a1.83 1.83 0 0 1 .89-.233zm-.001-.44a2.3 2.3 0 0 0-1.112.29 2.079 2.079 0 0 0-.836.828 2.246 2.246 0 0 0-.007 2.248c.2.356.477.632.834.831.355.198.728.298 1.121.298s.766-.1 1.123-.298c.355-.2.632-.475.832-.831a2.243 2.243 0 0 0-.007-2.248 2.078 2.078 0 0 0-.836-.829 2.3 2.3 0 0 0-1.112-.289z"/></g><g><path d="M86.743 14.169c-1.69.163-2.201.423-2.82.946-.966.821-.946 2.291-.946 5.068v20.366c.009 8.604-4.94 11.137-10.486 11.137h-.03c-6.528 0-9.221-3.41-10.009-8.435h1.862c.738 2.998 3.12 4.64 5.439 4.67 5.41.071 5.063-5.3 5.065-9.095V20.183c0-2.777.023-4.31-.945-5.13-.333-.282-.786-.47-1.396-.609-.52-.116-1.153-.199-1.93-.275V12.69h16.196zm18.577 0c-1.69.164-2.708.36-3.325.884-.968.821-.948 2.354-.948 5.13V42.78c.016 2.347.324 3.734 1.15 4.26 1.025.657 2.468.778 4.638.778 2.652 0 5.56-.476 7.44-4.566h1.903l-2.582 7.443H89.124v-1.478c1.69-.164 2.202-.423 2.819-.947.776-.658.916-1.734.94-3.564 0-.555-.004-1.172.007-1.863v-22.3c-.01-.69-.006-1.308-.006-1.863-.025-1.83-.165-2.906-.941-3.564-.617-.524-1.128-.783-2.819-.946v-1.48h16.196zm26.987 0c-1.69.164-2.708.36-3.325.884-.968.821-.945 2.354-.945 5.13V42.78c.013 2.347.322 3.734 1.148 4.26 1.024.657 2.467.778 4.638.778 2.652 0 5.56-.476 7.44-4.566h1.902l-2.582 7.443h-24.471v-1.478c1.69-.164 2.202-.423 2.818-.947.777-.658.917-1.734.941-3.564a88.754 88.754 0 0 1 .007-1.863v-22.3a88.685 88.685 0 0 1-.007-1.863c-.024-1.83-.164-2.906-.94-3.564-.617-.524-1.129-.783-2.82-.946v-1.48h16.196z"/></g></g></g></g></svg>
