<svg xmlns="http://www.w3.org/2000/svg" width="119" height="110" viewBox="0 0 119 110"><g><g><path fill="#1d1d1b" d="M86.723 2.86l4.907 3.082-.58.889-1.92-1.206-2.803 4.296-1.057-.664 2.802-4.296-1.929-1.212z"/></g><g><path fill="#1d1d1b" d="M93.864 7.54l.964.788-1.617 1.905 2.631 2.149 1.617-1.905.965.788-4.014 4.729-.965-.788 1.709-2.013-2.631-2.15-1.709 2.013-.964-.788z"/></g><g><path fill="#1d1d1b" d="M100.699 13.43l3.383 3.574-.789.718-2.528-2.672-1.065.969 2.249 2.375-.788.718-2.249-2.376-1.169 1.065 2.528 2.671-.788.718-3.383-3.574z"/></g><g><path fill="#1d1d1b" d="M108.378 22.52l2.62 4.111-.911.56-1.955-3.067-1.39.853 1.736 2.725-.911.559-1.737-2.724-2.104 1.291-.666-1.044z"/></g><g><path fill="#1d1d1b" d="M112.356 29.08l.513 1.124-3.466 1.51c-.875.384-1.153 1.175-.726 2.111.422.927 1.208 1.251 2.084.867l3.457-1.528.512 1.124-3.465 1.532c-1.4.614-2.857.001-3.57-1.564-.718-1.574-.212-3.049 1.188-3.663z"/></g><g><path fill="#1d1d1b" d="M115.685 36.87l1.569 5.502-1.035.285-.614-2.154-5.006 1.375-.339-1.186 5.006-1.375-.617-2.162z"/></g><g><g><path fill="#1d1d1b" d="M117.815 45.1l.153 1.222-3.763.444c-.952.114-1.454.79-1.327 1.807.126 1.007.78 1.544 1.732 1.429l3.76-.463.154 1.222-3.77.464c-1.521.184-2.73-.822-2.943-2.523-.214-1.711.71-2.974 2.232-3.157z"/></g><g><path fill="#1d1d1b" d="M118.641 53.941l-.093 3.092c-.04 1.33-.872 2.173-1.992 2.141-.851-.025-1.5-.516-1.753-1.342l-2.603 1.265.04-1.339 2.456-1.161.047-1.537-2.411-.069.037-1.231zm-2.877 2.933c-.02.66.282 1.053.829 1.069.529.015.863-.38.883-1.019l.053-1.783-1.711-.05z"/></g></g><g><path fill="#1d1d1b" d="M118.147 62.168l-.857 4.805-1.059-.182.64-3.591-1.43-.245-.57 3.194-1.059-.182.57-3.193-1.572-.269-.64 3.591-1.06-.181.857-4.805z"/></g><g><path fill="#1d1d1b" d="M115.01 74.643l-4.718-.661 3.657 3.023-.546 1.217-4.767-.617 3.706 2.979-.519 1.154-5.013-4.104.612-1.362 4.574.61-3.546-2.9.607-1.352 6.471.859z"/></g><g><g><path fill="#1d1d1b" d="M103.856 88.033c-1.511-.963-1.875-3.045-.696-4.7 1.13-1.71 3.234-2.162 4.712-1.149 1.525.973 1.904 3.065.714 4.736zm.698-1.02c1.046.692 2.38.412 3.137-.69.755-1.104.516-2.425-.528-3.118-1.031-.683-2.34-.41-3.106.71z"/></g><g><path fill="#1d1d1b" d="M104.48 92.125l-2.124 2.287c-.914.984-2.106 1.092-2.934.351-.629-.562-.794-1.35-.438-2.138l-2.814-.703.92-.991 2.634.688 1.056-1.136-1.781-1.593.846-.91zm-4.13.392c-.453.49-.486.983-.082 1.345.391.35.907.265 1.347-.21l1.225-1.323-1.265-1.135z"/></g></g><g><path fill="#1d1d1b" d="M98.723 98.029l-.934.777-1.699-1.964-.636 3.909-1.309 1.09.663-4.059-4.698-.666 1.224-1.02 3.666.523.144-.869-1.421-1.642.934-.778z"/></g><g><path fill="#1d1d1b" d="M89.438 100.505c-.711-.677-1.564-.744-2.36-.226-.77.502-1.021 1.11-.703 1.578.257.381.843.337 1.839-.186 1.444-.77 2.48-.698 3.106.225.56.828.07 2.011-1.134 2.796-.543.355-1.11.533-1.681.526-.581-.002-1.078-.185-1.492-.548l.757-1c.536.453 1.244.52 1.822.143.627-.409.887-.915.664-1.245-.253-.373-.688-.375-1.561.1-1.601.84-2.721.842-3.36-.102-.67-.989-.215-2.277 1.149-3.165.66-.43 1.33-.635 1.987-.609a2.609 2.609 0 0 1 1.737.768z"/></g><g><path fill="#1d1d1b" d="M52.02 11.98h14.4v3.087H55.286v5.942h9.917v3.087h-9.917v8.272H52.02z"/></g><g><path fill="#1d1d1b" d="M48.915 77.31l4.009 15.611L57.08 77.31h3.533L64.8 93.125l4.008-15.815h3.325l-5.344 20.388H62.84l-3.979-15.174-3.978 15.174h-3.979L45.56 77.31z"/></g><g><path fill="#1d1d1b" d="M31.828 105.201c-.259 0-.506-.062-.736-.185C12.296 95.001.62 75.757.62 54.794c0-20.825 11.564-40.008 30.178-50.065.232-.125.482-.189.744-.189.566 0 1.087.302 1.359.787.199.355.246.765.131 1.155a1.51 1.51 0 0 1-.741.908C14.666 16.912 3.717 35.076 3.717 54.794c0 19.849 11.055 38.07 28.852 47.553.363.194.628.515.745.904.118.389.073.799-.123 1.156-.271.49-.794.794-1.363.794"/></g><g><path fill="#1d1d1b" d="M58.93 109.474c-6.341-.001-12.292-2.548-16.756-7.175-8.64-8.954-9.138-21.656-1.212-30.888 2.077-2.21 4.18-4.465 6.284-6.72 1.442-1.546 2.883-3.092 4.326-4.633.277-.293.728-.471 1.203-.471.424 0 .823.141 1.094.387.289.262.464.667.482 1.111.017.445-.126.862-.393 1.145L43.48 73.418c-6.965 8.112-6.53 18.825 1.057 26.688 3.908 4.05 9.006 6.28 14.357 6.28 5.349 0 10.416-2.232 14.268-6.285 3.992-4.2 6.06-9.059 5.977-14.051-.087-5.271-2.452-10.349-7.03-15.093L43.224 40.843c-5.082-5.268-7.82-11.229-7.92-17.24-.096-5.832 2.28-11.47 6.876-16.303C46.574 2.676 52.478.13 58.804.13c6.34 0 12.292 2.548 16.756 7.175 8.64 8.954 9.139 21.655 1.213 30.888-2.078 2.21-4.182 4.466-6.286 6.722-1.441 1.545-2.882 3.09-4.324 4.63-.284.305-.742.486-1.225.486-.425 0-.824-.14-1.096-.384-.293-.264-.472-.672-.493-1.12-.02-.448.123-.869.39-1.157l10.515-11.182c6.966-8.114 6.53-18.827-1.056-26.69-3.908-4.05-9.014-6.28-14.377-6.28-5.362 0-10.436 2.232-14.29 6.285-3.99 4.2-6.058 9.058-5.975 14.05.086 5.271 2.45 10.349 7.028 15.093L74.51 68.762c4.826 4.721 7.324 10.199 7.88 17.259-.01 5.428-2.508 11.37-6.86 16.309-4.37 4.598-10.274 7.144-16.598 7.144z"/></g></g></svg>