<svg xmlns="http://www.w3.org/2000/svg" width="92" height="47" viewBox="0 0 92 47"><defs><clipPath id="c0x8a"><path d="M.21.79h91.215v45.903H.21z"/></clipPath></defs><g><g><g/><g clip-path="url(#c0x8a)"><path d="M85.595 40.461h5.84v5.828h-5.84zM73.78 14.472l3.48 26.08 3.46-26.08h5.4L81.08 46.29h-7.695l-5.004-31.817zM3.206 7.171c0-2.258.323-3.844 1.4-4.863C5.681 1.286 7.941.79 10.273.79h1.902v4.328h-.933c-.95 0-1.65.233-2.117.723-.448.494-.646 1.217-.646 2.161v6.467h3.696v4.228H8.48V46.29H3.206V18.697H.21V14.47h2.996zm10.61 7.301h5.288V46.29h-5.289zm29.67 24.525c0 2.144.77 3.647 2.941 3.647 2.153 0 2.96-1.492 2.96-3.646v-3.017h5.094v2.547c0 5.87-3.283 8.156-8.162 8.156-4.878 0-8.125-2.779-8.143-8.156V22.414c0-5.91 2.6-8.309 8.143-8.309 5.346 0 8.162 2.405 8.162 8.27v9.807H43.486zm-.003-11.108h5.907v-6.572c0-1.818-.503-3.649-2.981-3.649-2.46 0-2.926 1.858-2.926 3.651zm-12.507.307c4.664 4.106 5.49 5.35 5.507 9.994v.553c0 6.649-3.354 7.94-7.713 7.94-4.358 0-7.713-1.28-7.713-6.444v-4.2h5.346v4.07c0 1.002.143 2.63 2.367 2.63 2.225 0 2.368-1.615 2.368-3.745.018-3.453-.359-3.805-3.803-6.706l-1.345-1.15c-4.663-4.01-4.663-7.006-4.682-8.896v-.63c.036-6.015 2.942-7.503 7.409-7.503 4.537 0 7.426 1.914 7.443 5.674v4.79h-5.094v-2.935c0-2.253-.25-3.582-2.242-3.582-1.973 0-2.17 1.344-2.17 3.557 0 2.595.323 3.101 4.322 6.583zM61.61 17.633c1.4-2.924 2.584-3.468 5.33-3.526v5.631c-1.436.02-2.567.236-3.482.87-.969.666-1.525 1.797-1.525 3.509v22.18h-5.204V14.472h4.827v3.277z"/></g></g></g></svg>