<?xml version="1.0" encoding="utf-8"?>
<!-- Generator: Adobe Illustrator 25.2.0, SVG Export Plug-In . SVG Version: 6.00 Build 0)  -->
<svg version="1.1" id="Слой_1" xmlns="http://www.w3.org/2000/svg" xmlns:xlink="http://www.w3.org/1999/xlink" x="0px" y="0px"
	 width="780px" height="780px" viewBox="0 0 780 780" enable-background="new 0 0 780 780" xml:space="preserve">
<path id="Combined-Shape" fill="#00FA83" d="M414.9,1L0.7,365.5L0,366.1l364.5,414.2l0.6,0.7l414.2-364.5l0.7-0.6L415.5,1.7L414.9,1
	z M2.6,366.3L414.7,3.6l362.7,412.1L365.3,778.4L2.6,366.3z M365.6,772.9l-0.6-0.7L8.1,366.6l0.7-0.6L414.4,9.1l0.6,0.7l356.9,405.6
	l-0.7,0.6L365.6,772.9z M10.7,366.8l355.1,403.5l403.5-355.1L414.2,11.7L10.7,366.8z M366.1,764.9l-0.6-0.7l-349.4-397l0.7-0.6
	l397-349.4l0.6,0.7l349.4,397l-0.7,0.6L366.1,764.9z M18.7,367.3l347.6,395l395-347.6l-347.6-395L18.7,367.3z M366.7,756.8l-0.6-0.7
	L24.2,367.7l0.7-0.6L413.3,25.2l0.6,0.7l341.8,388.4l-0.7,0.6L366.7,756.8z M26.8,367.8l340,386.4l386.4-340l-340-386.4L26.8,367.8z
	 M367.2,748.7l-0.6-0.7L32.3,368.2l0.7-0.6L412.8,33.3l0.6,0.7l334.3,379.9l-0.7,0.6L367.2,748.7z M34.9,368.3l332.5,377.8
	l377.8-332.5L412.7,35.9L34.9,368.3z M367.7,740.7l-0.6-0.7L40.3,368.7l0.7-0.6L412.3,41.3l0.6,0.7l326.7,371.3l-0.7,0.6
	L367.7,740.7z M42.9,368.8l324.9,369.2l369.2-324.9L412.1,43.9L42.9,368.8z M368.2,732.6l-0.6-0.7L48.4,369.2l0.7-0.6L411.8,49.4
	l0.6,0.7l319.2,362.7l-0.7,0.6L368.2,732.6z M51,369.4L368.4,730L729,412.6L411.6,52L51,369.4z M368.7,724.5l-0.6-0.7L56.5,369.7
	l0.7-0.6L411.3,57.5l0.6,0.7l311.6,354.1l-0.7,0.6L368.7,724.5z M59.1,369.9l309.8,352l352-309.8l-309.8-352L59.1,369.9z
	 M369.2,716.4l-0.6-0.7L64.6,370.2l0.7-0.6L410.8,65.6l0.6,0.7l304.1,345.5l-0.7,0.6L369.2,716.4z M67.1,370.4l302.3,343.5
	l343.5-302.2L410.6,68.1L67.1,370.4z M369.7,708.4l-0.6-0.7L72.6,370.7l0.7-0.6L410.3,73.6l0.6,0.7l296.5,336.9l-0.7,0.6
	L369.7,708.4z M75.2,370.9l294.7,334.9l334.9-294.7L410.1,76.2L75.2,370.9z M370.3,700.3l-0.6-0.7l-289-328.4l0.7-0.6l328.4-289
	l0.6,0.7l289,328.4l-0.7,0.6L370.3,700.3z M83.3,371.4l287.1,326.3l326.3-287.1L409.6,84.3L83.3,371.4z M370.8,692.2l-0.6-0.7
	L88.8,371.8l0.7-0.6L409.2,89.8l0.6,0.7l281.4,319.8l-0.7,0.6L370.8,692.2z M91.4,371.9l279.6,317.7l317.7-279.6L409.1,92.4
	L91.4,371.9z M371.3,684.2l-0.6-0.7L96.8,372.3l0.7-0.6L408.7,97.8l0.6,0.7l273.9,311.2l-0.7,0.6L371.3,684.2z M99.4,372.4
	l272,309.1l309.1-272l-272-309.1L99.4,372.4z M371.8,676.1l-0.6-0.7L104.9,372.8l0.7-0.6l302.6-266.3l0.6,0.7l266.3,302.6l-0.7,0.6
	L371.8,676.1z M107.5,373L372,673.5L672.5,409L408,108.5L107.5,373z M372.3,668l-0.6-0.7L113,373.3l0.7-0.6l294-258.7l0.6,0.7
	l258.8,294l-0.7,0.6L372.3,668z M115.6,373.5l256.9,292l292-256.9l-256.9-292L115.6,373.5z M372.8,660l-0.6-0.7L121,373.8l0.7-0.6
	L407.2,122l0.6,0.7L659,408.2l-0.7,0.6L372.8,660z M123.6,374L373,657.4L656.4,408L407,124.6L123.6,374z M373.4,651.9l-0.6-0.7
	L129.1,374.3l0.7-0.6l276.9-243.6l0.6,0.7l243.6,276.9l-0.7,0.6L373.4,651.9z M131.7,374.5l241.8,274.8l274.8-241.8L406.5,132.7
	L131.7,374.5z M373.9,643.8l-0.6-0.7L137.2,374.9l0.7-0.6l268.3-236.1l0.6,0.7l236.1,268.3l-0.7,0.6L373.9,643.8z M139.8,375
	L374,641.2L640.2,407L406,140.8L139.8,375z M374.4,635.8l-0.6-0.7L145.2,375.4l0.7-0.6l259.7-228.5l0.6,0.7l228.5,259.7l-0.7,0.6
	L374.4,635.8z M147.8,375.5l226.7,257.6l257.6-226.7L405.5,148.8L147.8,375.5z M374.9,627.7l-0.6-0.7l-221-251.1l0.7-0.6l251.1-221
	l0.6,0.7l221,251.1l-0.7,0.6L374.9,627.7z M155.9,376.1l219.2,249l249-219.1l-219.2-249L155.9,376.1z M375.4,619.6l-0.6-0.7
	L161.4,376.4l0.7-0.6l242.5-213.4l0.6,0.7l213.4,242.5l-0.7,0.6L375.4,619.6z M164,376.6L375.6,617L616,405.4L404.4,165L164,376.6z
	 M375.9,611.5l-0.6-0.7L169.4,376.9l0.7-0.6l233.9-205.9l0.6,0.7l205.9,233.9l-0.7,0.6L375.9,611.5z M172,377.1L376.1,609l231.9-204
	L403.9,173L172,377.1z M376.4,603.5l-0.6-0.7L177.5,377.4l0.7-0.6l225.4-198.3l0.6,0.7l198.3,225.4l-0.7,0.6L376.4,603.5z
	 M180.1,377.6l196.5,223.3l223.3-196.5L403.4,181.1L180.1,377.6z M377,595.4l-0.6-0.7L185.6,377.9l0.7-0.6L403,186.6l0.6,0.7
	L594.4,404l-0.7,0.6L377,595.4z M188.2,378.1l188.9,214.7l214.7-188.9L402.9,189.2L188.2,378.1z M377.5,587.3l-0.6-0.7L193.7,378.5
	l0.7-0.6l208.2-183.2l0.6,0.7l183.2,208.2l-0.7,0.6L377.5,587.3z M196.2,378.6l181.4,206.1l206.1-181.4L402.4,197.2L196.2,378.6z
	 M378,579.3l-0.6-0.7L201.7,379l0.7-0.6L402,202.7l0.6,0.7L578.3,403l-0.7,0.6L378,579.3z M204.3,379.1l173.8,197.5l197.5-173.8
	L401.8,205.3L204.3,379.1z M378.5,571.2l-0.6-0.7l-168.1-191l0.7-0.6l191-168.1l0.6,0.7l168.1,191l-0.7,0.6L378.5,571.2z
	 M212.4,379.7l166.3,188.9l188.9-166.3l-166.3-189L212.4,379.7z M379,563.1l-0.6-0.7L217.9,380l0.7-0.6L401,218.9l0.6,0.7L562.1,402
	l-0.7,0.6L379,563.1z M220.5,380.2l158.7,180.4l180.4-158.7L400.8,221.5L220.5,380.2z M379.5,555.1l-0.6-0.7l-153-173.9l0.7-0.6
	l173.9-153l0.6,0.7l153,173.8l-0.7,0.6L379.5,555.1z M228.5,380.7l151.2,171.8l171.8-151.2L400.3,229.5L228.5,380.7z M380,547
	l-0.6-0.7L234,381l0.7-0.6L400,235l0.6,0.7L546,401l-0.7,0.6L380,547z M236.6,381.2l143.6,163.2l163.2-143.6L399.8,237.6
	L236.6,381.2z M380.6,538.9l-0.6-0.7L242.1,381.6l0.7-0.6l156.7-137.9l0.6,0.7l137.9,156.7l-0.7,0.6L380.6,538.9z M244.7,381.7
	l136.1,154.6l154.6-136.1L399.3,245.7L244.7,381.7z M381.1,530.9l-0.6-0.7L250.1,382.1l0.7-0.6l148.1-130.3l0.6,0.7l130.3,148.1
	l-0.7,0.6L381.1,530.9z M252.7,382.2l128.5,146l146-128.5l-128.5-146L252.7,382.2z M381.6,522.8l-0.6-0.7L258.2,382.6l0.7-0.6
	l139.5-122.8l0.6,0.7l122.8,139.5l-0.7,0.6L381.6,522.8z M260.8,382.7l121,137.4l137.4-120.9l-121-137.4L260.8,382.7z M382.1,514.7
	l-0.6-0.7L266.3,383.1l0.7-0.6l130.9-115.2l0.6,0.7l115.2,130.9l-0.7,0.6L382.1,514.7z M268.9,383.3l113.4,128.9l128.9-113.4
	L397.7,269.9L268.9,383.3z M382.6,506.6L382,506L274.3,383.6l0.7-0.6l122.3-107.7l0.6,0.7l107.7,122.3L505,399L382.6,506.6z
	 M276.9,383.8l105.8,120.3l120.3-105.8L397.2,277.9L276.9,383.8z M383.1,498.6l-0.6-0.7L282.4,384.1l0.7-0.6l113.8-100.1l0.6,0.7
	l100.1,113.8l-0.7,0.6L383.1,498.6z M285,384.3L383.3,496L495,397.7L396.7,286L285,384.3z M383.6,490.5l-0.6-0.7l-92.6-105.2
	l0.7-0.6l105.2-92.6l0.6,0.7l92.6,105.2l-0.7,0.6L383.6,490.5z M293.1,384.8l90.7,103.1l103.1-90.7l-90.7-103.1L293.1,384.8z
	 M384.2,482.4l-0.6-0.7l-85-96.6l0.7-0.6l96.6-85l0.6,0.7l85,96.6l-0.7,0.6L384.2,482.4z M301.1,385.3l83.2,94.5l94.5-83.2
	l-83.2-94.5L301.1,385.3z M384.7,474.4l-0.6-0.7l-77.5-88l0.7-0.6l88-77.4l0.6,0.7l77.4,88l-0.7,0.6L384.7,474.4z M309.2,385.8
	l75.6,85.9l85.9-75.6l-75.6-85.9L309.2,385.8z M385.2,466.3l-0.6-0.7l-69.9-79.4l0.7-0.6l79.4-69.9l0.6,0.7l69.9,79.4l-0.7,0.6
	L385.2,466.3z M317.3,386.4l68.1,77.4l77.4-68.1l-68.1-77.4L317.3,386.4z M385.7,458.2l-0.6-0.7l-62.3-70.8l0.7-0.6l70.8-62.3
	l0.6,0.7l62.3,70.8l-0.7,0.6L385.7,458.2z M325.4,386.9l60.5,68.8l68.8-60.5l-60.5-68.8L325.4,386.9z M386.2,450.2l-0.6-0.7
	l-54.8-62.3l0.7-0.6l62.3-54.8l0.6,0.7l54.8,62.3l-0.7,0.6L386.2,450.2z M333.4,387.4l53,60.2l60.2-53l-53-60.2L333.4,387.4z"/>
<path id="Combined-Shape_1_" fill="#4E58F8" d="M720.4,147.6L149.6,60.7l-1-0.1L61.8,631.4l-0.1,1l570.8,86.9l1,0.1l86.9-570.8
	L720.4,147.6z M150.2,62.8l568,86.4l-86.4,568l-568-86.4L150.2,62.8z M68.4,627.4l0.1-1l85.1-559l0.9,0.1l559,85.1l-0.1,1l-85.1,559
	l-1-0.1L68.4,627.4z M155.2,69.6L70.6,625.8l556.1,84.6l84.6-556.2L155.2,69.6z M75.2,622.4l0.1-0.9l83.3-547.2l0.9,0.1l547.2,83.3
	l-0.1,1l-83.3,547.2l-0.9-0.1L75.2,622.4z M160.3,76.4L77.4,620.8l544.3,82.8l82.8-544.3L160.3,76.4z M82.1,617.4l0.1-1L163.7,81
	l1,0.1l535.3,81.5l-0.1,1L618.3,699l-1-0.1L82.1,617.4z M165.3,83.2l-81,532.5l532.5,81l81-532.5L165.3,83.2z M88.9,612.3l0.1-1
	l79.7-523.5l1,0.1l523.5,79.7l-0.1,1l-79.7,523.5l-1-0.1L88.9,612.3z M170.3,90.1L91.1,610.7l520.7,79.2l79.2-520.7L170.3,90.1z
	 M95.7,607.3l0.1-1l77.9-511.7l1,0.1l511.7,77.9l-0.1,1l-77.9,511.7l-0.9-0.1L95.7,607.3z M175.3,96.9L97.9,605.7l508.8,77.4
	l77.4-508.8L175.3,96.9z M102.5,602.3l0.1-0.9l76.1-499.9l1,0.1l499.8,76.1l-0.1,0.9l-76.1,499.9l-1-0.1L102.5,602.3z M180.3,103.7
	l-75.6,497l497,75.6l75.6-497L180.3,103.7z M109.3,597.3l0.1-1l74.3-488l1,0.1l488,74.3l-0.1,1l-74.3,488l-1-0.1L109.3,597.3z
	 M185.3,110.5l-73.8,485.2l485.2,73.8l73.8-485.2L185.3,110.5z M116.1,592.3l0.1-0.9l72.5-476.2l0.9,0.1l476.2,72.5l-0.1,1
	l-72.5,476.2l-1-0.1L116.1,592.3z M190.3,117.3l-72,473.3l473.3,72l72-473.4L190.3,117.3z M122.9,587.3l0.1-1l70.7-464.4l0.9,0.1
	l464.4,70.7l-0.1,1l-70.7,464.4l-0.9-0.1L122.9,587.3z M195.4,124.1l-70.2,461.5l461.5,70.2l70.2-461.5L195.4,124.1z M129.8,582.2
	l0.1-0.9l68.9-452.5l0.9,0.1l452.5,68.9l-0.1,1l-68.9,452.5l-1-0.1L129.8,582.2z M200.4,130.9l-68.4,449.7l449.7,68.4l68.4-449.7
	L200.4,130.9z M136.6,577.2l0.1-1l67.1-440.7l1,0.1l440.7,67.1l-0.1,1l-67.1,440.7l-1-0.1L136.6,577.2z M205.4,137.8l-66.6,437.9
	l437.8,66.6l66.6-437.9L205.4,137.8z M143.4,572.2l0.1-1l65.3-428.9l0.9,0.1l428.9,65.3l-0.1,1l-65.3,428.9l-1-0.1L143.4,572.2z
	 M210.4,144.6l-64.8,426l426,64.8l64.8-426L210.4,144.6z M150.2,567.2l0.1-1l63.5-417.1l0.9,0.1l417,63.5l-0.1,1l-63.5,417.1
	l-0.9-0.1L150.2,567.2z M215.4,151.4l-63,414.2l414.2,63l63-414.2L215.4,151.4z M157,562.2l0.1-0.9L218.8,156l1,0.1L625,217.8
	l-0.1,1L563.2,624l-1-0.1L157,562.2z M220.4,158.2l-61.2,402.4l402.4,61.2l61.2-402.4L220.4,158.2z M163.8,557.2l0.1-1l59.9-393.4
	l1,0.1l393.4,59.9l-0.1,1l-59.9,393.4l-1-0.1L163.8,557.2z M225.4,165L166,555.6L556.6,615L616,224.4L225.4,165z M170.6,552.2l0.1-1
	l58.1-381.6l1,0.1l381.6,58.1l-0.1,1l-58.1,381.6l-0.9-0.1L170.6,552.2z M230.5,171.8l-57.6,378.7l378.7,57.6l57.6-378.7
	L230.5,171.8z M177.5,547.1l0.1-1l56.3-369.7l0.9,0.1l369.7,56.3l-0.1,1l-56.3,369.7l-1-0.1L177.5,547.1z M235.5,178.6l-55.8,366.9
	l366.9,55.8l55.8-366.9L235.5,178.6z M184.3,542.1l0.1-0.9l54.5-357.9l1,0.1l357.9,54.5l-0.1,1l-54.5,357.9l-1-0.1L184.3,542.1z
	 M240.5,185.5l-54,355l355,54l54-355L240.5,185.5z M191.1,537.1l0.1-1l52.7-346.1l1,0.1l346.1,52.7l-0.1,0.9l-52.7,346.1l-1-0.1
	L191.1,537.1z M245.5,192.3l-52.2,343.2l343.2,52.2l52.2-343.2L245.5,192.3z M197.9,532.1l0.1-1l50.9-334.2l1,0.1l334.2,50.9l-0.1,1
	l-50.9,334.2l-1-0.1L197.9,532.1z M250.5,199.1l-50.4,331.4l331.4,50.4l50.4-331.4L250.5,199.1z M204.7,527.1l0.1-1l49.1-322.4
	l1,0.1l322.4,49.1l-0.1,1l-49.1,322.4l-1-0.1L204.7,527.1z M255.5,205.9l-48.6,319.6l319.5,48.6l48.6-319.6L255.5,205.9z
	 M211.5,522.1l0.1-0.9l47.3-310.6l1,0.1l310.6,47.3l-0.1,1l-47.3,310.6l-1-0.1L211.5,522.1z M260.6,212.7l-46.8,307.7l307.7,46.8
	l46.8-307.7L260.6,212.7z M218.4,517l0.1-1L264,217.3l1,0.1L563.6,263l-0.1,0.9L518,562.6l-0.9-0.1L218.4,517z M265.6,219.5
	l-45,295.9l295.9,45l45-295.9L265.6,219.5z M225.2,512l0.1-1L269,224.2l1,0.1L556.8,268l-0.1,1L513,555.8l-1-0.1L225.2,512z
	 M270.6,226.4l-43.2,284.1l284.1,43.2l43.2-284.1L270.6,226.4z M232,507l0.1-1L274,231l0.9,0.1L550,273l-0.1,0.9L508,549l-1-0.1
	L232,507z M275.6,233.2l-41.4,272.2l272.2,41.4l41.4-272.2L275.6,233.2z M238.8,502l0.1-0.9L279,237.8l0.9,0.1L543.2,278l-0.1,1
	L503,542.2l-0.9-0.1L238.8,502z M280.6,240L241,500.4L501.4,540L541,279.6L280.6,240z M245.6,497l0.1-1L284,244.6l0.9,0.1L536.4,283
	l-0.1,1L498,535.4l-0.9-0.1L245.6,497z M285.6,246.8l-37.8,248.6l248.6,37.8l37.8-248.6L285.6,246.8z M252.4,492l0.1-1L289,251.4
	l0.9,0.1L529.6,288l-0.1,1L493,528.6l-1-0.1L252.4,492z M290.6,253.6l-36,236.7l236.7,36l36-236.7L290.6,253.6z M259.2,487l0.1-1
	L294,258.2l1,0.1L522.8,293l-0.1,1L488,521.8l-1-0.1L259.2,487z M295.7,260.4l-34.2,224.9l224.9,34.2l34.2-224.9L295.7,260.4z
	 M266.1,481.9l0.1-0.9l32.9-215.9l1,0.1l215.9,32.9l-0.1,1l-32.9,215.9l-0.9-0.1L266.1,481.9z M300.7,267.2l-32.4,213.1l213.1,32.4
	l32.4-213.1L300.7,267.2z M272.9,476.9l0.1-1l31.1-204.1l1,0.1l204.1,31.1L509,304l-31.1,204.1L477,508L272.9,476.9z M305.7,274.1
	l-30.6,201.3l201.2,30.6l30.6-201.3L305.7,274.1z M279.7,471.9l0.1-1l29.3-192.3l1,0.1l192.3,29.3l-0.1,0.9l-29.3,192.3l-0.9-0.1
	L279.7,471.9z M310.7,280.9l-28.8,189.4l189.4,28.8l28.8-189.4L310.7,280.9z M286.5,466.9l0.1-1l27.5-180.4l1,0.1l180.4,27.5l-0.1,1
	l-27.5,180.4l-1-0.1L286.5,466.9z M315.7,287.7l-27,177.6l177.6,27l27-177.6L315.7,287.7z M293.3,461.9l0.1-0.9l25.7-168.6l1,0.1
	l168.6,25.7l-0.1,1l-25.7,168.6l-1-0.1L293.3,461.9z M320.7,294.5l-25.2,165.8l165.8,25.2l25.2-165.8L320.7,294.5z M300.1,456.9
	l0.1-0.9l23.9-156.8l0.9,0.1l156.8,23.9l-0.1,1l-23.9,156.8l-1-0.1L300.1,456.9z M325.8,301.3l-23.4,153.9l153.9,23.4l23.4-153.9
	L325.8,301.3z M306.9,451.9l0.1-1l22.1-145l1,0.1l145,22.1l-0.1,1l-22.1,145l-1-0.1L306.9,451.9z M330.8,308.1l-21.6,142.1
	l142.1,21.6l21.6-142.1L330.8,308.1z M313.8,446.8l0.1-0.9l20.3-133.1l1,0.1l133.1,20.3l-0.1,1l-20.3,133.1l-0.9-0.1L313.8,446.8z
	 M335.8,314.9L316,445.2L446.2,465L466,334.8L335.8,314.9z M320.6,441.8l0.1-1l18.5-121.3l0.9,0.1l121.3,18.5l-0.1,1l-18.5,121.3
	l-0.9-0.1L320.6,441.8z M340.8,321.8l-18,118.4l118.4,18l18-118.4L340.8,321.8z M327.4,436.8l0.1-0.9l16.7-109.5l1,0.1l109.5,16.7
	l-0.1,1l-16.7,109.5l-1-0.1L327.4,436.8z M345.8,328.6l-16.2,106.6l106.6,16.2l16.2-106.6L345.8,328.6z M334.2,431.8l0.1-1
	l14.9-97.6l1,0.1l97.6,14.9l-0.1,1l-14.9,97.6l-1-0.1L334.2,431.8z M350.8,335.4l-14.4,94.8l94.8,14.4l14.4-94.8L350.8,335.4z
	 M341,426.8l0.1-0.9l13.1-85.8l1,0.1l85.8,13.1l-0.1,1L427.8,440l-1-0.1L341,426.8z M355.8,342.2l-12.6,83l82.9,12.6l12.6-82.9
	L355.8,342.2z"/>
</svg>
