<svg xmlns="http://www.w3.org/2000/svg" width="86" height="86" viewBox="0 0 86 86"><defs><clipPath id="7nu6a"><path d="M65.729 0H86v12.9H65.729z"/></clipPath><clipPath id="7nu6b"><path d="M0 0h20.271v12.9H0z"/></clipPath></defs><g><g><g><g><path fill="#00ffb2" d="M83.132 83.132H17.2v-4.3h7.166c.791 0 1.434-.64 1.434-1.431v-7.168h7.167c.792 0 1.432-.642 1.432-1.433v-7.168h7.167c.792 0 1.434-.64 1.434-1.432v-7.167h7.167c.79 0 1.432-.64 1.432-1.434v-5.733h31.533zm-68.8 0H2.867V45.866h45.867v4.301h-7.167c-.792 0-1.434.64-1.434 1.432v7.168h-7.165c-.792 0-1.434.642-1.434 1.433v7.166h-7.167c-.792 0-1.432.642-1.432 1.434v7.167h-7.167c-.792 0-1.434.64-1.434 1.434zM1.435 43C.642 43 0 43.642 0 44.434v40.132C0 85.358.642 86 1.434 86h83.132c.792 0 1.434-.642 1.434-1.434V44.434c0-.792-.642-1.434-1.434-1.434z"/></g><g><path fill="#00ffb2" d="M21.662 59.71l-.426-.425a1.45 1.45 0 0 0-2.05 0l-4.78 4.782-2.3-2.304 4.777-4.782a1.447 1.447 0 0 0 0-2.051l-.424-.427h5.203zm2.91 3.506V53.053a1.45 1.45 0 0 0-1.45-1.453H12.954a1.452 1.452 0 0 0-1.025 2.478l1.876 1.877-4.78 4.783a1.447 1.447 0 0 0 0 2.051l4.356 4.356a1.446 1.446 0 0 0 2.052 0l4.782-4.78 1.877 1.877a1.45 1.45 0 0 0 2.478-1.026z"/></g><g><path fill="#00ffb2" d="M20.271 18.429v21.5h2.825v-5.734h5.652v5.734h2.827v-5.734H34.4V31.33H23.096V18.428z"/></g><g><path fill="#00ffb2" d="M51.6 34.195h2.825v5.734h2.827v-5.734h5.652v5.734h2.825v-21.5h-2.825v12.9H51.6z"/></g><g><g/><g clip-path="url(#7nu6a)"><path fill="#00ffb2" d="M70.073 7.167h1.449c.8 0 1.447-.64 1.447-1.434 0-1.578 1.3-2.865 2.898-2.865s2.897 1.287 2.897 2.865a1.44 1.44 0 0 0 1.449 1.434h1.449c.386 0 .742.148 1.03.44.27.258.42.612.42.994 0 .79-.652 1.434-1.45 1.434h-11.59c-.385 0-.744-.147-1.03-.44a1.366 1.366 0 0 1-.419-.994zm0 5.734h11.583C84.051 12.9 86 10.972 86 8.6a4.167 4.167 0 0 0-1.265-3.022 4.283 4.283 0 0 0-3.079-1.277h-.183C80.829 1.83 78.557 0 75.864 0 73.17 0 70.9 1.83 70.256 4.302h-.184c-2.395 0-4.343 1.929-4.343 4.3 0 1.162.458 2.244 1.264 3.02z"/></g></g><g><g/><g clip-path="url(#7nu6b)"><path fill="#00ffb2" d="M3.34 7.58c.26-.265.618-.413 1.004-.413h1.45c.8 0 1.446-.64 1.446-1.434 0-1.578 1.3-2.865 2.899-2.865 1.598 0 2.896 1.287 2.896 2.865a1.44 1.44 0 0 0 1.45 1.434h1.448c.798 0 1.45.643 1.45 1.434 0 .382-.15.737-.445 1.022a1.403 1.403 0 0 1-1.005.412H4.344c-.798 0-1.45-.644-1.45-1.434zm1.004 5.32h11.584c1.174 0 2.267-.453 3.05-1.251A4.19 4.19 0 0 0 20.272 8.6c0-2.37-1.948-4.3-4.343-4.3h-.184C15.1 1.83 12.828 0 10.136 0 7.44 0 5.17 1.83 4.527 4.302h-.183c-1.175 0-2.268.453-3.054 1.252A4.197 4.197 0 0 0 0 8.6z"/></g></g><g><path fill="#00ffb2" d="M55.635 22.729H30.1v2.865h11.465V39.93h2.868V25.594H55.9v-1.432"/></g></g></g></g></svg>