<svg xmlns="http://www.w3.org/2000/svg" width="59" height="92" viewBox="0 0 59 92"><g><g><g><path fill="#00ffb2" d="M2.873 68.809h53.254v17.105H2.873zm0-65.573h53.254v62.728H2.873zm0-2.85C1.325.386.071 1.66.071 3.236v82.678c0 1.575 1.254 2.85 2.802 2.85h2.102v1.426c0 .788.63 1.424 1.402 1.424.775 0 1.402-.636 1.402-1.424v-1.426h43.444v1.426c0 .788.627 1.424 1.4 1.424.775 0 1.402-.636 1.402-1.424v-1.426h2.102c1.548 0 2.802-1.275 2.802-2.85V3.236c0-1.575-1.254-2.85-2.802-2.85z"/></g><g><path fill="#00ffb2" d="M40.647 9.874v5.722H37.82v-1.43c0-.79-.633-1.431-1.416-1.431-.78 0-1.413.641-1.413 1.432v1.429h-2.831v-1.43c0-.79-.633-1.431-1.413-1.431-.783 0-1.416.641-1.416 1.432v1.429h-2.831v-1.43c0-.79-.633-1.431-1.413-1.431-.783 0-1.416.641-1.416 1.432v1.429h-2.829v-1.43c0-.79-.635-1.431-1.415-1.431-.783 0-1.416.641-1.416 1.432v1.429h-2.828v-1.43c0-.79-.633-1.431-1.416-1.431-.78 0-1.416.641-1.416 1.432v1.429H9.522V9.874zM37.82 58.585v-1.433c0-.791-.633-1.433-1.416-1.433-.78 0-1.413.642-1.413 1.433v1.433h-2.831v-1.433c0-.791-.633-1.433-1.413-1.433-.783 0-1.416.642-1.416 1.433v1.433h-2.831v-1.433c0-.791-.633-1.433-1.413-1.433-.783 0-1.416.642-1.416 1.433v1.433h-8.488v-1.433c0-.791-.633-1.433-1.416-1.433-.78 0-1.416.642-1.416 1.433v1.433H9.522v-5.731h31.125v5.731zm2.828-22.923v5.731H37.82V39.96c0-.791-.633-1.433-1.416-1.433-.78 0-1.413.642-1.413 1.433v1.433h-8.491V39.96c0-.791-.633-1.433-1.413-1.433-.783 0-1.416.642-1.416 1.433v1.433h-2.829V39.96c0-.791-.635-1.433-1.415-1.433-.783 0-1.416.642-1.416 1.433v1.433h-2.828V39.96c0-.791-.633-1.433-1.416-1.433-.78 0-1.416.642-1.416 1.433v1.433H9.522v-5.731zm0-8.596v5.73H37.82v-1.432c0-.791-.633-1.433-1.416-1.433-.78 0-1.413.642-1.413 1.433v1.431h-2.831v-1.431c0-.791-.633-1.433-1.413-1.433-.783 0-1.416.642-1.416 1.433v1.431h-2.831v-1.431c0-.791-.633-1.433-1.413-1.433-.783 0-1.416.642-1.416 1.433v1.431h-2.829v-1.431c0-.791-.635-1.433-1.415-1.433-.783 0-1.416.642-1.416 1.433v1.431h-2.828v-1.431c0-.791-.633-1.433-1.416-1.433-.78 0-1.416.642-1.416 1.433v1.431H9.522v-5.729zm-5.657 21.49v1.433h-2.831v-1.433c0-.791-.633-1.433-1.413-1.433-.783 0-1.416.642-1.416 1.433v1.433h-2.831v-1.433c0-.791-.633-1.433-1.413-1.433-.783 0-1.416.642-1.416 1.433v1.433h-2.829v-1.433c0-.791-.635-1.433-1.415-1.433-.783 0-1.416.642-1.416 1.433v1.433h-2.828v-1.433c0-.791-.633-1.433-1.416-1.433-.78 0-1.416.642-1.416 1.433v1.433H9.522v-5.731h31.126v5.731h-2.83v-1.433c0-.791-.632-1.433-1.415-1.433-.78 0-1.413.642-1.413 1.433zm5.657-30.086v5.73H37.82v-1.432c0-.791-.633-1.433-1.416-1.433-.78 0-1.413.642-1.413 1.433v1.431h-2.831v-1.431c0-.791-.633-1.433-1.413-1.433-.783 0-1.416.642-1.416 1.433v1.431h-2.831v-1.431c0-.791-.633-1.433-1.413-1.433-.783 0-1.416.642-1.416 1.433v1.431h-8.488v-1.431c0-.791-.633-1.433-1.416-1.433-.78 0-1.416.642-1.416 1.433v1.431H9.522V18.47zm0 42.98c1.563 0 2.832-1.282 2.832-2.865V9.874c0-1.582-1.269-2.867-2.832-2.867H9.522c-1.563 0-2.83 1.284-2.83 2.867v48.711c0 1.583 1.267 2.865 2.83 2.865z"/></g><g><path fill="#00ffb2" d="M49.365 25.4h1.472a1.472 1.472 0 0 0 0-2.943h-1.472a1.472 1.472 0 1 0 0 2.943"/></g><g><path fill="#00ffb2" d="M49.365 31.286h1.472a1.472 1.472 0 0 0 0-2.943h-1.472a1.472 1.472 0 1 0 0 2.943"/></g><g><path fill="#00ffb2" d="M49.365 51.15h1.472a1.472 1.472 0 0 0 0-2.943h-1.472a1.472 1.472 0 1 0 0 2.943"/></g><g><path fill="#00ffb2" d="M42.007 76.164h-2.942a1.472 1.472 0 0 0 0 2.943h2.942a1.472 1.472 0 1 0 0-2.943"/></g><g><path fill="#00ffb2" d="M10.125 76.166h2.69v2.942h-2.69zm-1.35-2.945c-.743 0-1.346.66-1.346 1.473v5.884c0 .812.603 1.472 1.347 1.472h5.396c.744 0 1.35-.66 1.35-1.472v-5.884c0-.813-.606-1.473-1.35-1.473z"/></g><g><path fill="#00ffb2" d="M21.161 76.166h2.69v2.942h-2.69zm-1.35-2.945c-.743 0-1.347.66-1.347 1.473v5.884c0 .812.604 1.472 1.348 1.472h5.396c.744 0 1.35-.66 1.35-1.472v-5.884c0-.813-.607-1.473-1.35-1.473z"/></g></g></g></svg>