<svg xmlns="http://www.w3.org/2000/svg" width="79" height="75" viewBox="0 0 79 75"><g><g><path fill="#00fa83" d="M46.929 74.875H31.73v-7.848h6.285V51.869h-16.02v-7.667h16.02V28.62H12.384v-1.375C12.384 12.43 24.61.375 39.638.375h.261c15.029 0 27.254 12.055 27.254 26.87v1.375H40.767v15.582h16.02v7.667h-16.02v15.158h6.162zm-12.453-2.75h9.694v-2.348h-9.694zM24.744 49.12h29.282v-2.167H24.744zM64.351 25.87C63.625 13.208 52.93 3.125 39.892 3.125h-.26c-13.041 0-23.733 10.083-24.458 22.745zM3.016 74.16L.602 72.846l6.583-12.109L.5 40.052l2.618-.846 3.535 10.945h12.65v2.75h-4.726l-3.853 7.084h13.137v2.75h-2.256l5.44 10.116-2.423 1.302-6.14-11.418H9.228zM7.543 52.9l1.454 4.516 2.45-4.516zM75.594 74.16L69.38 62.735h-9.257L53.98 74.153l-2.424-1.302L57 62.735h-2.26v-2.75h13.144l-3.853-7.084H59.3v-2.75h12.656l3.54-10.945 2.616.846-6.686 20.685 6.587 12.109zM67.154 52.9l2.44 4.517 1.449-4.517z"/></g></g></svg>