<svg xmlns="http://www.w3.org/2000/svg" width="82" height="44" viewBox="0 0 82 44"><g><g><path fill="#0ed2fd" d="M50.758 28.401c0-6.058 3.464-11.322 8.514-13.916l-2.164-5.11-12.931 16.017c.604.761.965 1.723.965 2.77a4.468 4.468 0 0 1-4.461 4.462 4.469 4.469 0 0 1-4.318-3.337h-4.625c-.46 8.209-7.284 14.745-15.607 14.745C7.512 44.032.5 37.02.5 28.402c0-8.62 7.012-15.633 15.63-15.633 2.733 0 5.306.705 7.543 1.943l5.663-7.639-1.944-4.198h-2.925V.625h11.606v2.25h-6.201l1.485 3.206h24.356L53.4.625h9.93v2.25h-6.533l1.358 3.206h1.61l-1.055 1.307 2.632 6.216a15.582 15.582 0 0 1 5.046-.835c8.62 0 15.633 7.012 15.633 15.632 0 8.619-7.013 15.631-15.633 15.631-8.619 0-15.63-7.012-15.63-15.63zm9.395-11.839c-4.244 2.246-7.145 6.707-7.145 11.834 0 7.374 6.002 13.375 13.381 13.375 7.38 0 13.383-6 13.383-13.375 0-7.376-6.003-13.377-13.383-13.377-1.453 0-2.854.233-4.166.664l5.202 12.274-2.072.876zM2.75 28.396c0 7.374 6.003 13.375 13.38 13.375 7.083 0 12.897-5.526 13.353-12.49H12.868l9.451-12.743a13.291 13.291 0 0 0-6.188-1.519c-7.378 0-13.381 6-13.381 13.377zm35.719-.234c0 1.22.992 2.213 2.211 2.213 1.22 0 2.212-.993 2.212-2.213 0-1.22-.992-2.212-2.211-2.212-1.22 0-2.212.992-2.212 2.212zm-2.106-1.125c.212-.816.65-1.54 1.242-2.104L30.413 9.399l-4.85 6.543c3.423 2.599 5.749 6.574 6.141 11.095zm-19.026 0h12.107a13.386 13.386 0 0 0-5.221-9.288zm25.047-3L55.07 8.33H32.4l7.183 15.507a4.456 4.456 0 0 1 2.802.198z"/></g></g></svg>