<?xml version="1.0" encoding="utf-8"?>
<!-- Generator: Adobe Illustrator 25.2.0, SVG Export Plug-In . SVG Version: 6.00 Build 0)  -->
<svg version="1.1" id="Слой_1" xmlns="http://www.w3.org/2000/svg" xmlns:xlink="http://www.w3.org/1999/xlink" x="0px" y="0px"
	 width="567px" height="566px" viewBox="0 0 567 566" enable-background="new 0 0 567 566" xml:space="preserve">
<g>
	<g transform="rotate(-36 1398.51 1158.045)" opacity="0.9">
		<path fill="#4E58F8" d="M1007.5-154.6l-0.5-0.6l-46.9-53.3l0.6-0.5l53.3-46.9l0.5,0.6l46.9,53.3l-0.6,0.5L1007.5-154.6z
			 M962.3-208.4l45.4,51.5l51.5-45.4l-45.4-51.5L962.3-208.4z M1007.1-147.7l-0.5-0.6l-53.4-60.7l0.6-0.5l60.7-53.4l0.5,0.6
			l53.4,60.7l-0.6,0.5L1007.1-147.7z M955.4-208.8l51.8,58.9l58.9-51.8l-51.8-58.9L955.4-208.8z M1006.7-140.8l-0.5-0.6l-59.9-68
			l0.6-0.5l68-59.9l0.5,0.6l59.9,68l-0.6,0.5L1006.7-140.8z M948.5-209.2l58.3,66.2l66.2-58.3l-58.3-66.2L948.5-209.2z
			 M1006.2-133.9l-0.5-0.6l-66.3-75.4l0.6-0.5l75.4-66.3l0.5,0.6l66.3,75.4l-0.6,0.5L1006.2-133.9z M941.6-209.7l64.8,73.6
			l73.6-64.8l-64.8-73.6L941.6-209.7z M1005.8-127l-0.5-0.6l-72.8-82.7l0.6-0.5l82.7-72.8l0.5,0.6l72.8,82.7l-0.6,0.5L1005.8-127z
			 M934.7-210.1l71.2,80.9l80.9-71.2l-71.2-80.9L934.7-210.1z M1005.3-120.1l-0.5-0.6l-79.3-90.1l0.6-0.5l90.1-79.3l0.5,0.6
			l79.3,90.1l-0.6,0.5L1005.3-120.1z M927.8-210.6l77.7,88.3l88.3-77.7l-77.7-88.3L927.8-210.6z M1004.9-113.1l-0.5-0.6l-85.7-97.4
			l0.6-0.5l97.4-85.7l0.5,0.6l85.7,97.4l-0.6,0.5L1004.9-113.1z M920.9-211l84.2,95.6l95.6-84.2l-84.2-95.7L920.9-211z
			 M1004.5-106.2l-0.5-0.6l-92.2-104.8l0.6-0.5l104.8-92.2l0.5,0.6l92.2,104.8l-0.6,0.5L1004.5-106.2z M914-211.5l90.6,103l103-90.6
			l-90.6-103L914-211.5z M1004-99.3l-0.5-0.6L904.8-212l0.6-0.5l112.1-98.7l0.5,0.6l98.7,112.1l-0.6,0.5L1004-99.3z M907.1-211.9
			l97.1,110.4l110.4-97.1L1017.4-309L907.1-211.9z M1003.6-92.4l-0.5-0.6L897.9-212.5l0.6-0.5L1018-318.1l0.5,0.6l105.1,119.5
			l-0.6,0.5L1003.6-92.4z M900.1-212.3l103.6,117.7l117.7-103.6l-103.6-117.7L900.1-212.3z M1003.1-85.5l-0.5-0.6L891-212.9l0.6-0.5
			L1018.4-325l0.5,0.6l111.6,126.8l-0.6,0.5L1003.1-85.5z M893.2-212.8l110,125.1l125.1-110l-110-125L893.2-212.8z M1002.7-78.6
			l-0.5-0.6L884.1-213.4l0.6-0.5L1018.9-332l0.5,0.6l118.1,134.2l-0.6,0.5L1002.7-78.6z M886.3-213.2l116.5,132.4l132.4-116.5
			l-116.5-132.4L886.3-213.2z M1002.3-71.7l-0.5-0.6L877.2-213.8l0.6-0.5l141.5-124.5l0.5,0.6l124.5,141.5l-0.6,0.5L1002.3-71.7z
			 M879.4-213.7l123,139.8l139.8-123l-123-139.8L879.4-213.7z M1001.8-64.8l-0.5-0.6l-131-148.9l0.6-0.5l148.9-131l0.5,0.6
			l131,148.9l-0.6,0.5L1001.8-64.8z M872.5-214.1L1002-67l147.1-129.5l-129.5-147.1L872.5-214.1z M1001.4-57.9l-0.5-0.6L863.4-214.7
			l0.6-0.5l156.2-137.5l0.5,0.6l137.5,156.2l-0.6,0.5L1001.4-57.9z M865.6-214.5l135.9,154.5L1156-196L1020-350.5L865.6-214.5z
			 M1000.9-51l-0.5-0.6l-144-163.6l0.6-0.5l163.6-143.9l0.5,0.6l144,163.6l-0.6,0.5L1000.9-51z M858.7-215l142.4,161.8l161.8-142.4
			l-142.4-161.8L858.7-215z M1000.5-44l-0.5-0.6L849.6-215.6l0.6-0.5l170.9-150.4l0.5,0.6L1172-195l-0.6,0.5L1000.5-44z
			 M851.8-215.4l148.9,169.2l169.2-148.9l-148.9-169.2L851.8-215.4z M1000.1-37.1l-0.5-0.6L842.6-216l0.6-0.5l178.3-156.9l0.5,0.6
			l156.9,178.3l-0.6,0.5L1000.1-37.1z M844.9-215.9l155.3,176.5l176.5-155.3l-155.3-176.5L844.9-215.9z M999.6-30.2l-0.5-0.6
			L835.7-216.4l0.6-0.5L1022-380.3l0.5,0.6l163.4,185.6l-0.6,0.5L999.6-30.2z M838-216.3L999.8-32.4l183.9-161.8l-161.8-183.9
			L838-216.3z M999.2-23.3l-0.5-0.6l-169.8-193l0.6-0.5l193-169.8l0.5,0.6l169.8,193l-0.6,0.5L999.2-23.3z M831-216.7L999.3-25.5
			l191.2-168.3L1022.3-385L831-216.7z M998.7-16.4l-0.5-0.6L821.9-217.3l0.6-0.5l200.3-176.3l0.5,0.6l176.3,200.3l-0.6,0.5
			L998.7-16.4z M824.1-217.2L998.9-18.6l198.6-174.7l-174.7-198.6L824.1-217.2z M998.3-9.5l-0.5-0.6L815-217.8l0.6-0.5L1023.3-401
			l0.5,0.6l182.8,207.7l-0.6,0.5L998.3-9.5z M817.2-217.6L998.4-11.7l205.9-181.2l-181.2-205.9L817.2-217.6z M997.9-2.6l-0.5-0.6
			l-189.2-215l0.6-0.5l215-189.2l0.5,0.6l189.2,215l-0.6,0.5L997.9-2.6z M810.3-218.1L998-4.8l213.3-187.7l-187.7-213.3L810.3-218.1
			z M997.4,4.3l-0.5-0.6L801.2-218.6l0.6-0.5l222.4-195.7l0.5,0.6l195.7,222.4l-0.6,0.5L997.4,4.3z M803.4-218.5L997.6,2.1
			L1218.2-192L1024-412.6L803.4-218.5z M997,11.2l-0.5-0.6L794.3-219.1l0.6-0.5l229.7-202.2l0.5,0.6l202.2,229.7l-0.6,0.5L997,11.2z
			 M796.5-219L997.1,9l228-200.6l-200.6-228L796.5-219z M996.5,18.1l-0.5-0.6L787.4-219.5l0.6-0.5L1025-428.7l0.5,0.6L1234.2-191
			l-0.6,0.5L996.5,18.1z M789.6-219.4L996.7,15.9L1232-191.1l-207.1-235.3L789.6-219.4z M996.1,25.1l-0.5-0.6L780.5-220l0.6-0.5
			l244.4-215.1l0.5,0.6l215.1,244.4l-0.6,0.5L996.1,25.1z M782.7-219.8L996.2,22.8l242.7-213.5l-213.6-242.7L782.7-219.8z M995.6,32
			l-0.5-0.6L773.5-220.4l0.6-0.5l251.8-221.6l0.5,0.6L1248-190.1l-0.6,0.5L995.6,32z M775.8-220.3l220,250l250-220l-220-250
			L775.8-220.3z M995.2,38.9l-0.5-0.6L766.6-220.9l0.6-0.5l259.1-228l0.5,0.6l228.1,259.1l-0.6,0.5L995.2,38.9z M768.9-220.7
			L995.3,36.7l257.4-226.5l-226.5-257.4L768.9-220.7z M994.8,45.8l-0.5-0.6L759.7-221.3l0.6-0.5l266.5-234.5l0.5,0.6l234.5,266.5
			l-0.6,0.5L994.8,45.8z M761.9-221.2l233,264.7l264.7-233l-233-264.7L761.9-221.2z M994.3,52.7l-0.5-0.6l-241-273.8l0.6-0.5
			l273.8-241l0.5,0.6l241,273.8l-0.6,0.5L994.3,52.7z M755-221.6L994.5,50.5l272.1-239.4L1027.1-461L755-221.6z M993.9,59.6
			l-0.5-0.6L745.9-222.2l0.6-0.5l281.2-247.4l0.5,0.6l247.5,281.2l-0.6,0.5L993.9,59.6z M748.1-222L994,57.4l279.4-245.9
			l-245.9-279.4L748.1-222z M993.4,66.5l-0.5-0.6L739-222.6l0.6-0.5l288.5-253.9l0.5,0.6l253.9,288.5l-0.6,0.5L993.4,66.5z
			 M741.2-222.5L993.6,64.3l286.8-252.4L1028-474.8L741.2-222.5z M993,73.4l-0.5-0.6L732.1-223.1l0.6-0.5L1028.6-484l0.5,0.6
			l260.4,295.9l-0.6,0.5L993,73.4z M734.3-222.9L993.1,71.2l294.1-258.8l-258.8-294.1L734.3-222.9z M992.6,80.3l-0.5-0.6
			L725.2-223.5l0.6-0.5L1029-490.9l0.5,0.6L1296.4-187l-0.6,0.5L992.6,80.3z M727.4-223.4L992.7,78.1l301.5-265.3l-265.3-301.5
			L727.4-223.4z M992.1,87.2l-0.5-0.6L718.3-223.9l0.6-0.5l310.6-273.3l0.5,0.6l273.3,310.6l-0.6,0.5L992.1,87.2z M720.5-223.8
			L992.3,85l308.8-271.8l-271.8-308.8L720.5-223.8z M991.7,94.2l-0.5-0.6L711.4-224.4l0.6-0.5l317.9-279.8l0.5,0.6l279.8,317.9
			l-0.6,0.5L991.7,94.2z M713.6-224.2L991.8,91.9L1308-186.3l-278.2-316.2L713.6-224.2z M991.2,101.1l-0.5-0.6L704.4-224.8l0.6-0.5
			l325.3-286.3l0.5,0.6l286.3,325.3l-0.6,0.5L991.2,101.1z M706.7-224.7L991.4,98.8l323.5-284.7l-284.7-323.5L706.7-224.7z
			 M990.8,108l-0.5-0.6L697.5-225.3l0.6-0.5l332.6-292.7l0.5,0.6L1324-185.3l-0.6,0.5L990.8,108z M699.8-225.1l291.2,330.9
			l330.9-291.2l-291.2-330.9L699.8-225.1z M990.4,114.9l-0.5-0.6l-299.2-340l0.6-0.5l340-299.2l0.5,0.6l299.2,340l-0.6,0.5
			L990.4,114.9z M692.8-225.6l297.7,338.2L1328.7-185l-297.7-338.2L692.8-225.6z M989.9,121.8l-0.5-0.6L683.7-226.1l0.6-0.5
			l347.4-305.7l0.5,0.6l305.7,347.4l-0.6,0.5L989.9,121.8z M685.9-226l304.1,345.6l345.6-304.1l-304.1-345.6L685.9-226z
			 M1032.6-538.7l312.2,354.7l-0.6,0.5L989.5,128.7l-0.5-0.6L676.8-226.6l0.6-0.5l354.7-312.1L1032.6-538.7z M989.6,126.5
			l352.9-310.6L1032-537L679-226.4L989.6,126.5z"/>
	</g>
</g>
</svg>
