<svg xmlns="http://www.w3.org/2000/svg" width="647" height="647" viewBox="0 0 647 647"><g><g><path fill="#4e58f8" d="M320.364 372.579l-.503-.57-45.448-51.646.573-.503 51.644-45.445.503.573 45.445 51.64-.57.506zm-43.798-52.08l43.936 49.928 49.924-43.933-43.933-49.927zm43.371 58.774l-.503-.573-51.713-58.764.573-.503 58.762-51.71.503.572 51.713 58.762-.573.503zm-50.064-59.2l50.202 57.048 57.045-50.202-50.202-57.045zm49.637 65.893l-.503-.57-57.978-65.886.57-.506 65.882-57.975.506.573 57.979 65.882-.573.506zm-56.329-66.319l56.467 64.166 64.166-56.466-56.467-64.166zm55.903 73.012l-.504-.573-64.244-73.005.57-.503 73.004-64.242.506.57 64.241 73.006-.57.503zm-62.598-73.441l62.735 71.29 71.284-62.733-62.732-71.287zm62.17 80.134l-.502-.57-70.51-80.127.57-.506 80.125-70.506.503.573 70.509 80.124-.57.503zm-68.862-80.56l69 78.408 78.405-68.998-68.998-78.407zm68.436 87.254l-.503-.573-76.778-87.245.57-.506 87.246-76.772.505.57 76.775 87.245-.573.506zm-75.129-87.68l75.266 85.528 85.526-75.263-75.266-85.529zm74.702 94.373l-.503-.57-83.043-94.37.57-.502 94.364-83.04.505.572 83.043 94.364-.573.505zm-81.394-94.802l81.531 92.65 92.647-81.529-81.531-92.65zm80.966 101.494l-.503-.57-89.309-101.487.573-.506 101.482-89.303.505.57 89.309 101.485-.573.505zm-87.66-101.92l87.797 99.768 99.768-87.797-87.8-99.765zm87.233 108.614l-.503-.573-95.574-108.605.57-.506 108.605-95.57.506.572 95.571 108.605-.57.506zM223.02 317.082l94.065 106.89 106.889-94.061-94.065-106.889zm93.5 115.737l-.502-.573-101.84-115.726.571-.506 115.726-101.836.503.57 101.84 115.729-.571.503zM216.329 316.655l100.33 114.012L430.665 330.34 330.338 216.33zm99.766 122.858l-.503-.573-108.107-122.847.573-.506L330.9 207.486l.503.57L439.51 330.903l-.57.503zM209.636 316.228l106.595 121.13L437.36 330.765 330.763 209.638zm106.031 129.976l-.503-.57-114.373-129.968.57-.506 129.966-114.37.505.573 114.37 129.968-.57.503zM202.943 315.801l112.861 128.251 128.249-112.858-112.861-128.251zM315.24 452.898l-.503-.573L194.099 315.24l.57-.505 137.086-120.636.503.573 120.638 137.086-.57.506zM196.251 315.374l119.126 135.372 135.37-119.126-119.13-135.37zm118.562 144.218l-.503-.573-126.903-144.21.57-.502 144.207-126.901.503.573L459.59 332.185l-.573.504zM189.556 314.947L314.95 457.44l142.488-125.392-125.392-142.49zm124.83 151.339l-.503-.573-133.171-151.33.57-.504 151.327-133.166.504.573L466.28 332.614l-.57.503zM182.864 314.52l131.66 149.61 149.608-131.653-131.66-149.612zM313.96 472.977l-.503-.57-139.438-158.451.57-.504 158.447-139.431.505.57L472.976 333.04l-.57.503zM176.172 314.093l137.925 156.732 156.73-137.923L332.9 176.17zm137.36 165.578l-.502-.573-145.703-165.57.57-.502 165.567-145.698.503.57L479.67 333.467l-.573.505zM169.48 313.666l144.19 163.853L477.518 333.33l-144.19-163.853zm143.627 172.699l-.503-.573-151.97-172.69.572-.503L333.89 160.633l.506.573 151.968 172.688-.573.506zM162.784 313.239L313.243 484.21 484.21 333.757 333.753 162.786zm149.895 179.82l-.503-.573L153.94 312.675l.573-.506 179.806-158.228.503.57 158.233 179.812-.57.503zM156.092 312.812l156.724 178.092 178.087-156.719L334.18 156.093zm156.16 186.938l-.503-.57-164.502-186.932.57-.506L334.745 147.25l.506.57L499.75 334.75l-.57.505zM149.4 312.385l162.989 185.213 185.208-162.987-162.987-185.21zm162.425 194.06l-.503-.574-170.77-194.05.573-.506 194.048-170.761.503.573 170.767 194.05-.573.503zm-169.12-194.487l169.257 192.334L504.291 335.04 335.036 142.706zm168.692 201.18l-.503-.573L133.86 311.394l.57-.506 201.17-177.027.502.573 177.032 201.169-.57.506zM136.014 311.531l175.52 199.452 199.45-175.515-175.521-199.454zm174.956 208.3l-.503-.572-183.3-208.292.572-.506 208.287-183.292.503.57 183.3 208.292-.573.506zM129.318 311.105l181.789 206.573 206.57-181.783L335.89 129.318zm181.225 215.419l-.503-.57L120.474 310.54l.573-.506 215.405-189.558.506.57L526.523 336.46l-.573.503zM122.626 310.677L310.68 524.371l213.691-188.049-188.054-213.696zm187.49 222.54l-.503-.573L113.782 310.11l.57-.503L336.88 113.781l.506.573 195.829 222.531-.57.506zm-194.182-222.97l194.32 220.818 220.808-194.317-194.319-220.814zm193.755 229.664l-.503-.573-202.1-229.655.574-.503 229.65-202.09.502.572L539.91 337.314l-.57.503zm-200.45-230.09l200.587 227.935 227.93-200.58-200.584-227.935zm200.023 236.784l-.503-.573-208.364-236.776.573-.503 236.767-208.356.503.573 208.365 236.77-.573.506zM102.547 309.394L309.399 544.45l235.052-206.845L337.598 102.55zm206.288 243.902l-.503-.57-214.63-243.897.573-.503L338.161 93.704l.506.57 214.63 243.894-.573.504zm-212.98-244.33l213.118 242.178 242.172-213.113L338.026 95.854zM308.407 559.99l-.503-.573L87.01 308.402l.57-.503L338.59 87.01l.502.573 220.896 251.015-.57.503zM89.16 308.54l219.387 249.295 249.29-219.375L338.452 89.16zm218.822 258.144l-.503-.573-227.16-258.135.57-.504 258.13-227.155.503.573 227.16 258.133-.572.506zM82.467 308.113l225.652 256.416 256.41-225.643L338.882 82.469zm225.088 265.265l-.504-.573L73.624 307.548l.573-.503 265.248-233.42.506.57 233.426 265.253-.573.506zM75.775 307.686l231.917 263.537 263.532-231.91L339.307 75.778zm231.353 272.383l-.503-.57L66.93 307.12l.57-.503L339.87 66.93l.505.573 239.692 272.375-.57.506zM69.082 307.259l238.183 270.658 270.65-238.175-238.18-270.66zm237.619 279.504l-.503-.573-245.96-279.495.57-.504 279.49-245.954.503.573 245.96 279.496-.57.503zM62.39 306.832l244.448 277.776 277.771-244.44L340.161 62.39zm243.884 286.625l-.503-.573L53.545 306.268l.57-.504 286.61-252.22.505.574L593.452 340.73l-.57.506zM55.694 306.405l250.717 284.897 284.892-250.708L340.587 55.697zM305.848 600.15l-.503-.573L46.85 305.84l.57-.506L341.154 46.852l.505.573L600.146 341.16l-.57.506zM49.003 305.975l256.981 292.021 292.013-256.973L341.015 49.002zm256.416 300.867l-.503-.57L40.157 305.414l.573-.506L341.58 40.16l.503.57L606.84 341.586l-.57.506zM42.309 305.548L305.556 604.69 604.69 341.451 341.443 42.31zm262.683 307.988l-.503-.573L33.465 304.987l.573-.506L342.006 33.468l.506.57 271.021 307.976-.57.503zM35.617 305.121l269.512 306.26 306.255-269.504-269.515-306.26zm268.948 315.11l-.503-.574L26.772 304.56l.57-.506L342.435 26.773l.504.573 277.29 315.097-.574.503zM28.925 304.693l275.777 313.381 313.373-275.77-275.778-313.38zm275.213 322.23l-.503-.573L20.08 304.133l.57-.506L342.86 20.08l.506.573 283.555 322.215-.573.506zM22.229 304.27l282.046 320.499L624.77 342.731 342.723 22.232zm281.482 329.345l-.503-.57-289.82-329.342.57-.503 329.33-289.812.504.573 289.82 329.336-.57.503zM15.537 303.84l288.311 327.623L631.463 343.16 343.152 15.54zM303.284 640.31l-.503-.573L6.693 303.276l.57-.503L343.715 6.693l.506.573 296.085 336.457-.57.506zM8.844 303.413l294.577 334.741 334.733-294.566L343.58 8.845zM344.647.573L647 344.151l-.57.506-343.573 302.346-.503-.573L0 302.852l.57-.506L344.143 0zm-41.652 644.275l341.854-300.834L344.006 2.152 2.152 302.986z"/></g></g></svg>