<?xml version="1.0" encoding="utf-8"?>
<!-- Generator: Adobe Illustrator 25.2.0, SVG Export Plug-In . SVG Version: 6.00 Build 0)  -->
<svg version="1.1" id="Слой_1" xmlns="http://www.w3.org/2000/svg" xmlns:xlink="http://www.w3.org/1999/xlink" x="0px" y="0px"
	 width="665px" height="665px" viewBox="0 0 665 665" enable-background="new 0 0 665 665" xml:space="preserve">
<g>
	<g transform="rotate(-86 1402.505 1158.615)" opacity="0.9">
		<path fill="#00FA83" d="M2148.7,84.3l-0.5-0.6l-46.9-53.3l0.6-0.5l53.3-46.9l0.5,0.6l46.9,53.3l-0.6,0.5L2148.7,84.3z
			 M2103.5,30.5l45.4,51.5l51.5-45.4l-45.4-51.5L2103.5,30.5z M2148.3,91.2l-0.5-0.6l-53.4-60.7l0.6-0.5l60.7-53.4l0.5,0.6
			l53.4,60.7l-0.6,0.5L2148.3,91.2z M2096.6,30.1l51.8,58.9l58.9-51.8l-51.8-58.9L2096.6,30.1z M2147.8,98.1l-0.5-0.6l-59.9-68
			l0.6-0.5l68-59.9l0.5,0.6l59.9,68l-0.6,0.5L2147.8,98.1z M2089.7,29.6l58.3,66.2l66.2-58.3l-58.3-66.2L2089.7,29.6z M2147.4,105
			l-0.5-0.6L2080.6,29l0.6-0.5l75.4-66.3l0.5,0.6l66.3,75.4l-0.6,0.5L2147.4,105z M2082.8,29.2l64.8,73.6l73.6-64.8l-64.8-73.6
			L2082.8,29.2z M2147,111.9l-0.5-0.6l-72.8-82.7l0.6-0.5l82.7-72.8l0.5,0.6l72.8,82.7l-0.6,0.5L2147,111.9z M2075.9,28.7l71.2,80.9
			l80.9-71.2l-71.2-80.9L2075.9,28.7z M2146.5,118.8l-0.5-0.6l-79.3-90.1l0.6-0.5l90.1-79.3l0.5,0.6l79.3,90.1l-0.6,0.5
			L2146.5,118.8z M2069,28.3l77.7,88.3l88.3-77.7l-77.7-88.3L2069,28.3z M2146.1,125.7l-0.5-0.6l-85.7-97.4l0.6-0.5l97.4-85.7
			l0.5,0.6l85.7,97.4l-0.6,0.5L2146.1,125.7z M2062.1,27.8l84.2,95.7l95.6-84.2l-84.2-95.7L2062.1,27.8z M2145.6,132.6l-0.5-0.6
			l-92.2-104.8l0.6-0.5l104.8-92.2l0.5,0.6L2251,39.9l-0.6,0.5L2145.6,132.6z M2055.1,27.4l90.6,103l103-90.6l-90.6-103L2055.1,27.4
			z M2145.2,139.5l-0.5-0.6L2046,26.8l0.6-0.5l112.1-98.7l0.5,0.6l98.7,112.1l-0.6,0.5L2145.2,139.5z M2048.2,27l97.1,110.4
			l110.3-97.1l-97.1-110.4L2048.2,27z M2144.8,146.4l-0.5-0.6L2039.1,26.4l0.6-0.5l119.5-105.1l0.5,0.6l105.1,119.5l-0.6,0.5
			L2144.8,146.4z M2041.3,26.5l103.6,117.7l117.7-103.6L2159-77.1L2041.3,26.5z M2144.3,153.4l-0.5-0.6L2032.2,25.9l0.6-0.5
			l126.8-111.6l0.5,0.6l111.6,126.8l-0.6,0.5L2144.3,153.4z M2034.4,26.1l110,125.1l125.1-110L2159.5-84L2034.4,26.1z M2143.9,160.3
			l-0.5-0.6L2025.3,25.5l0.6-0.5L2160-93.1l0.5,0.6l118.1,134.2l-0.6,0.5L2143.9,160.3z M2027.5,25.6L2144,158l132.4-116.5
			L2159.9-90.9L2027.5,25.6z M2143.4,167.2l-0.5-0.6L2018.4,25.1l0.6-0.5L2160.5-100l0.5,0.6l124.5,141.5l-0.6,0.5L2143.4,167.2z
			 M2020.6,25.2l123,139.8l139.8-123l-123-139.8L2020.6,25.2z M2143,174.1l-0.5-0.6l-131-148.9l0.6-0.5l148.9-131l0.5,0.6l131,148.9
			l-0.6,0.5L2143,174.1z M2013.7,24.8l129.5,147.1l147.1-129.5l-129.5-147.1L2013.7,24.8z M2142.6,181l-0.5-0.6L2004.6,24.2l0.6-0.5
			l156.2-137.5l0.5,0.6L2299.4,43l-0.6,0.5L2142.6,181z M2006.8,24.3l135.9,154.5l154.5-135.9l-135.9-154.5L2006.8,24.3z
			 M2142.1,187.9l-0.5-0.6l-144-163.6l0.6-0.5l163.6-143.9l0.5,0.6l143.9,163.6l-0.6,0.5L2142.1,187.9z M1999.9,23.9l142.4,161.8
			l161.8-142.4l-142.4-161.8L1999.9,23.9z M2141.7,194.8l-0.5-0.6L1990.7,23.3l0.6-0.5l170.9-150.4l0.5,0.6l150.4,170.9l-0.6,0.5
			L2141.7,194.8z M1993,23.4l148.9,169.2L2311,43.7l-148.9-169.2L1993,23.4z M2141.2,201.7l-0.5-0.6L1983.8,22.9l0.6-0.5
			l178.3-156.9l0.5,0.6l156.9,178.3l-0.6,0.5L2141.2,201.7z M1986,23l155.3,176.5l176.5-155.3l-155.3-176.5L1986,23z M2140.8,208.6
			l-0.5-0.6L1976.9,22.4l0.6-0.5l185.6-163.4l0.5,0.6L2327,44.8l-0.6,0.5L2140.8,208.6z M1979.1,22.6l161.8,183.9l183.9-161.8
			L2163-139.2L1979.1,22.6z M2140.4,215.5l-0.5-0.6L1970,22l0.6-0.5l193-169.8l0.5,0.6l169.8,193l-0.6,0.5L2140.4,215.5z
			 M1972.2,22.1l168.3,191.2l191.2-168.3l-168.3-191.2L1972.2,22.1z M2139.9,222.5l-0.5-0.6L1963.1,21.5l0.6-0.5L2164-155.3l0.5,0.6
			l176.3,200.3l-0.6,0.5L2139.9,222.5z M1965.3,21.7l174.7,198.6l198.6-174.7l-174.7-198.6L1965.3,21.7z M2139.5,229.4l-0.5-0.6
			L1956.2,21.1l0.6-0.5l207.7-182.8l0.5,0.6l182.8,207.7l-0.6,0.5L2139.5,229.4z M1958.4,21.2l181.2,205.9l205.9-181.2L2164.3-160
			L1958.4,21.2z M2139,236.3l-0.5-0.6l-189.2-215l0.6-0.5l215-189.2l0.5,0.6l189.2,215l-0.6,0.5L2139,236.3z M1951.5,20.8
			l187.7,213.3l213.3-187.7l-187.7-213.3L1951.5,20.8z M2138.6,243.2l-0.5-0.6L1942.4,20.2l0.6-0.5L2165.3-176l0.5,0.6L2361.6,47
			l-0.6,0.5L2138.6,243.2z M1944.6,20.4L2138.7,241l220.6-194.1l-194.1-220.6L1944.6,20.4z M2138.2,250.1l-0.5-0.6L1935.5,19.8
			l0.6-0.5l229.7-202.2l0.5,0.6l202.2,229.7l-0.6,0.5L2138.2,250.1z M1937.7,19.9l200.6,228l228-200.6l-200.6-228L1937.7,19.9z
			 M2137.7,257l-0.5-0.6L1928.5,19.3l0.6-0.5l237.1-208.6l0.5,0.6l208.6,237.1l-0.6,0.5L2137.7,257z M1930.8,19.5l207.1,235.3
			l235.3-207.1l-207.1-235.3L1930.8,19.5z M2137.3,263.9l-0.5-0.6L1921.6,18.9l0.6-0.5l244.4-215.1l0.5,0.6l215.1,244.4l-0.6,0.5
			L2137.3,263.9z M1923.9,19l213.6,242.7l242.7-213.5l-213.6-242.7L1923.9,19z M2136.8,270.8l-0.5-0.6L1914.7,18.4l0.6-0.5
			l251.8-221.6l0.5,0.6l221.6,251.8l-0.6,0.5L2136.8,270.8z M1917,18.6l220,250l250-220l-220-250L1917,18.6z M2136.4,277.7l-0.5-0.6
			L1907.8,18l0.6-0.5l259.1-228l0.5,0.6l228,259.1l-0.6,0.5L2136.4,277.7z M1910,18.1l226.5,257.4L2393.9,49l-226.5-257.4L1910,18.1
			z M2135.9,284.6l-0.5-0.6L1900.9,17.6l0.6-0.5L2168-217.5l0.5,0.6L2403,49.6l-0.6,0.5L2135.9,284.6z M1903.1,17.7l233,264.7
			l264.7-232.9l-233-264.7L1903.1,17.7z M2135.5,291.6l-0.5-0.6L1894,17.1l0.6-0.5l273.8-241l0.5,0.6l241,273.8l-0.6,0.5
			L2135.5,291.6z M1896.2,17.3l239.4,272.1l272.1-239.4l-239.4-272.1L1896.2,17.3z M2135.1,298.5l-0.5-0.6L1887.1,16.7l0.6-0.5
			l281.2-247.4l0.5,0.6l247.5,281.2l-0.6,0.5L2135.1,298.5z M1889.3,16.8l245.9,279.4l279.4-245.9l-245.9-279.4L1889.3,16.8z
			 M2134.6,305.4l-0.5-0.6L1880.2,16.2l0.6-0.5l288.5-253.9l0.5,0.6l253.9,288.5l-0.6,0.5L2134.6,305.4z M1882.4,16.4l252.4,286.8
			l286.8-252.4L2169.2-236L1882.4,16.4z M2134.2,312.3l-0.5-0.6L1873.3,15.8l0.6-0.5l295.9-260.4l0.5,0.6l260.4,295.9l-0.6,0.5
			L2134.2,312.3z M1875.5,15.9l258.8,294.1l294.1-258.8l-258.8-294.1L1875.5,15.9z M2133.7,319.2l-0.5-0.6L1866.4,15.4l0.6-0.5
			L2170.2-252l0.5,0.6l266.9,303.2l-0.6,0.5L2133.7,319.2z M1868.6,15.5L2133.9,317l301.5-265.3l-265.3-301.5L1868.6,15.5z
			 M2133.3,326.1l-0.5-0.6L1859.5,14.9l0.6-0.5l310.6-273.3l0.5,0.6l273.3,310.6l-0.6,0.5L2133.3,326.1z M1861.7,15.1l271.8,308.8
			l308.8-271.8l-271.8-308.8L1861.7,15.1z M2132.9,333l-0.5-0.6L1852.5,14.5l0.6-0.5l317.9-279.8l0.5,0.6l279.8,317.9l-0.6,0.5
			L2132.9,333z M1854.8,14.6L2133,330.8l316.2-278.2l-278.2-316.2L1854.8,14.6z M2132.4,339.9l-0.5-0.6L1845.6,14l0.6-0.5
			l325.3-286.3l0.5,0.6l286.3,325.3l-0.6,0.5L2132.4,339.9z M1847.9,14.2l284.7,323.5L2456.1,53l-284.7-323.5L1847.9,14.2z
			 M2132,346.8l-0.5-0.6L1838.7,13.6l0.6-0.5L2172-279.7l0.5,0.6l292.7,332.6l-0.6,0.5L2132,346.8z M1840.9,13.7l291.2,330.9
			L2463,53.4l-291.2-330.9L1840.9,13.7z M2131.5,353.7l-0.5-0.6l-299.2-340l0.6-0.5l340-299.2l0.5,0.6l299.2,340l-0.6,0.5
			L2131.5,353.7z M1834,13.3l297.6,338.2l338.2-297.6l-297.6-338.2L1834,13.3z M2131.1,360.7l-0.5-0.6L1824.9,12.7l0.6-0.5
			l347.3-305.7l0.5,0.6L2479,54.5l-0.6,0.5L2131.1,360.7z M1827.1,12.9l304.1,345.6l345.6-304.1l-304.1-345.6L1827.1,12.9z
			 M2173.8-299.8l312.1,354.7l-0.6,0.5l-354.7,312.1l-0.5-0.6L1818,12.3l0.6-0.5l354.7-312.1L2173.8-299.8z M2130.8,365.3
			l352.9-310.6l-310.6-352.9L1820.2,12.4L2130.8,365.3z"/>
	</g>
</g>
</svg>
