<?xml version="1.0" encoding="utf-8"?>
<!-- Generator: Adobe Illustrator 25.2.0, SVG Export Plug-In . SVG Version: 6.00 Build 0)  -->
<svg version="1.1" id="Слой_1" xmlns="http://www.w3.org/2000/svg" xmlns:xlink="http://www.w3.org/1999/xlink" x="0px" y="0px"
	 width="811px" height="811px" viewBox="0 0 811 811" enable-background="new 0 0 811 811" xml:space="preserve">
<g>
	<g transform="rotate(-14 -28.49 8455.51)" opacity="0.6">
		<path fill="#00FA83" d="M2336.1,812l-0.6-0.7l-57.7-65.6l0.7-0.6l65.6-57.7l0.6,0.7l57.7,65.6l-0.7,0.6L2336.1,812z M2280.5,745.8
			l55.8,63.4l63.4-55.8l-55.8-63.4L2280.5,745.8z M2335.6,820.5l-0.6-0.7l-65.7-74.7l0.7-0.6l74.7-65.7l0.6,0.7l65.7,74.7l-0.7,0.6
			L2335.6,820.5z M2271.9,745.3l63.8,72.5l72.5-63.8l-63.8-72.5L2271.9,745.3z M2335,829l-0.6-0.7l-73.7-83.7l0.7-0.6l83.7-73.7
			l0.6,0.7l73.7,83.7l-0.7,0.6L2335,829z M2263.4,744.7l71.7,81.5l81.5-71.7L2345,673L2263.4,744.7z M2334.5,837.5l-0.6-0.7
			l-81.6-92.8l0.7-0.6l92.7-81.6l0.6,0.7l81.6,92.8l-0.7,0.6L2334.5,837.5z M2254.9,744.2l79.7,90.6l90.6-79.7l-79.7-90.6
			L2254.9,744.2z M2333.9,846l-0.6-0.7l-89.6-101.8l0.7-0.6l101.8-89.6l0.6,0.7l89.6,101.8l-0.7,0.6L2333.9,846z M2246.4,743.6
			l87.7,99.6l99.6-87.7l-87.7-99.6L2246.4,743.6z M2333.4,854.5l-0.6-0.7l-97.5-110.8l0.7-0.6l110.8-97.5l0.6,0.7l97.5,110.8
			l-0.7,0.6L2333.4,854.5z M2237.9,743.1l95.6,108.7l108.7-95.6l-95.6-108.7L2237.9,743.1z M2332.8,863l-0.6-0.7l-105.5-119.9
			l0.7-0.6l119.9-105.5l0.6,0.7l105.5,119.9l-0.7,0.6L2332.8,863z M2229.4,742.5L2333,860.3l117.7-103.6L2347.1,639L2229.4,742.5z
			 M2332.3,871.5l-0.6-0.7l-113.5-128.9l0.7-0.6l128.9-113.5l0.6,0.7L2462,757.4l-0.7,0.6L2332.3,871.5z M2220.9,742l111.5,126.8
			l126.8-111.5l-111.5-126.8L2220.9,742z M2331.8,880l-0.6-0.7l-121.4-138l0.7-0.6l138-121.4l0.6,0.7l121.4,138l-0.7,0.6L2331.8,880
			z M2212.4,741.5l119.5,135.8l135.8-119.5L2348.2,622L2212.4,741.5z M2331.2,888.5l-0.6-0.7l-129.4-147l0.7-0.6l147-129.4l0.6,0.7
			l129.4,147l-0.7,0.6L2331.2,888.5z M2203.9,740.9l127.5,144.8l144.8-127.5l-127.5-144.8L2203.9,740.9z M2330.7,897l-0.6-0.7
			l-137.3-156.1l0.7-0.6l156.1-137.3l0.6,0.7L2487.5,759l-0.7,0.6L2330.7,897z M2195.4,740.4l135.4,153.9l153.9-135.4l-135.4-153.9
			L2195.4,740.4z M2330.1,905.5l-0.6-0.7l-145.3-165.1l0.7-0.6L2350,593.7l0.6,0.7L2496,759.6l-0.7,0.6L2330.1,905.5z M2186.9,739.8
			l143.4,162.9l162.9-143.4l-143.4-162.9L2186.9,739.8z M2329.6,914l-0.6-0.7l-153.3-174.2l0.7-0.6l174.2-153.3l0.6,0.7l153.3,174.2
			l-0.7,0.6L2329.6,914z M2178.4,739.3l151.3,172l172-151.3l-151.3-172L2178.4,739.3z M2329,922.5l-0.6-0.7l-161.2-183.2l0.7-0.6
			l183.2-161.2l0.6,0.7L2513,760.6l-0.7,0.6L2329,922.5z M2169.9,738.7l159.3,181l181-159.3l-159.3-181L2169.9,738.7z M2328.5,931
			l-0.6-0.7L2158.7,738l0.7-0.6l192.3-169.2l0.6,0.7l169.2,192.3l-0.7,0.6L2328.5,931z M2161.4,738.2l167.3,190.1L2518.8,761
			l-167.3-190.1L2161.4,738.2z M2328,939.5l-0.6-0.7l-177.2-201.3l0.7-0.6l201.3-177.1l0.6,0.7L2530,761.7l-0.7,0.6L2328,939.5z
			 M2152.9,737.7l175.2,199.1l199.1-175.2L2352,562.4L2152.9,737.7z M2327.4,948l-0.6-0.7l-185.1-210.4l0.7-0.6l210.3-185.1l0.6,0.7
			l185.1,210.3l-0.7,0.6L2327.4,948z M2144.4,737.1l183.2,208.2l208.2-183.2l-183.2-208.2L2144.4,737.1z M2326.9,956.5l-0.6-0.7
			l-193.1-219.4l0.7-0.6l219.4-193.1l0.6,0.7L2547,762.8l-0.7,0.6L2326.9,956.5z M2135.9,736.6l191.2,217.2l217.2-191.1
			l-191.2-217.2L2135.9,736.6z M2326.3,965l-0.6-0.7l-201-228.4l0.7-0.6l228.4-201l0.6,0.7l201,228.4l-0.7,0.6L2326.3,965z
			 M2127.4,736l199.1,226.3l226.3-199.1l-199.1-226.3L2127.4,736z M2325.8,973.5l-0.6-0.7l-209-237.5l0.7-0.6l237.5-209l0.6,0.7
			l209,237.5l-0.7,0.6L2325.8,973.5z M2118.9,735.5L2326,970.8l235.3-207.1l-207.1-235.3L2118.9,735.5z M2325.2,982l-0.6-0.7
			l-217-246.5l0.7-0.6l246.5-216.9l0.6,0.7l217,246.5l-0.7,0.6L2325.2,982z M2110.4,734.9l215,244.4l244.3-215l-215-244.4
			L2110.4,734.9z M2324.7,990.5l-0.6-0.7l-224.9-255.6l0.7-0.6l255.6-224.9l0.6,0.7L2581,765l-0.7,0.6L2324.7,990.5z M2101.9,734.4
			l223,253.4l253.4-223l-223-253.4L2101.9,734.4z M2324.2,999l-0.6-0.7l-232.9-264.6l0.7-0.6L2356,500.2l0.6,0.7l232.9,264.6
			l-0.7,0.6L2324.2,999z M2093.4,733.9l231,262.4l262.4-231l-231-262.4L2093.4,733.9z M2323.6,1007.5l-0.6-0.7l-240.8-273.7l0.7-0.6
			l273.7-240.8l0.6,0.7L2598,766.1l-0.7,0.6L2323.6,1007.5z M2084.9,733.3l238.9,271.5l271.5-238.9l-238.9-271.5L2084.9,733.3z
			 M2323.1,1016l-0.6-0.7l-248.8-282.7l0.7-0.6l282.7-248.8l0.6,0.7l248.8,282.7l-0.7,0.6L2323.1,1016z M2076.4,732.8l246.9,280.5
			l280.5-246.9l-246.9-280.5L2076.4,732.8z M2322.5,1024.6l-0.6-0.7l-256.8-291.8l0.7-0.6l291.8-256.8l0.6,0.7L2615,767.2l-0.7,0.6
			L2322.5,1024.6z M2067.9,732.2l254.8,289.6L2612.3,767l-254.8-289.6L2067.9,732.2z M2322,1033.1l-0.6-0.7l-264.7-300.8l0.7-0.6
			l300.8-264.7l0.6,0.7l264.7,300.8l-0.7,0.6L2322,1033.1z M2059.4,731.7l262.8,298.6l298.6-262.8L2358,468.9L2059.4,731.7z
			 M2321.5,1041.6l-0.6-0.7L2048.1,731l0.7-0.6l309.8-272.7l0.6,0.7L2632,768.2l-0.7,0.6L2321.5,1041.6z M2050.9,731.1l270.8,307.7
			l307.7-270.8l-270.8-307.7L2050.9,731.1z M2320.9,1050.1l-0.6-0.7l-280.6-318.9l0.7-0.6l318.9-280.6l0.6,0.7l280.6,318.9l-0.7,0.6
			L2320.9,1050.1z M2042.4,730.6l278.7,316.7l316.7-278.7l-278.7-316.7L2042.4,730.6z M2320.4,1058.6l-0.6-0.7l-288.6-328l0.7-0.6
			l327.9-288.6l0.6,0.7l288.6,328l-0.7,0.6L2320.4,1058.6z M2033.9,730.1l286.7,325.8l325.8-286.7l-286.7-325.8L2033.9,730.1z
			 M2319.8,1067.1l-0.6-0.7l-296.6-337l0.7-0.6l337-296.6l0.6,0.7l296.6,337l-0.7,0.6L2319.8,1067.1z M2025.4,729.5l294.6,334.8
			l334.8-294.6l-294.6-334.8L2025.4,729.5z M2319.3,1075.6l-0.6-0.7l-304.5-346l0.7-0.6l346-304.5l0.6,0.7l304.5,346l-0.7,0.6
			L2319.3,1075.6z M2016.8,729l302.6,343.9l343.9-302.6l-302.6-343.9L2016.8,729z M2318.7,1084.1l-0.6-0.7l-312.5-355.1l0.7-0.6
			l355.1-312.5l0.6,0.7L2674.5,771l-0.7,0.6L2318.7,1084.1z M2008.3,728.4l310.6,352.9l352.9-310.6l-310.6-352.9L2008.3,728.4z
			 M2318.2,1092.6l-0.6-0.7l-320.4-364.1l0.7-0.6L2362,406.6l0.6,0.7l320.4,364.1l-0.7,0.6L2318.2,1092.6z M1999.8,727.9l318.5,362
			l361.9-318.5l-318.5-362L1999.8,727.9z M2317.7,1101.1l-0.6-0.7l-328.4-373.2l0.7-0.6l373.2-328.4l0.6,0.7L2691.6,772l-0.7,0.6
			L2317.7,1101.1z M1991.3,727.3l326.5,371l371-326.5l-326.5-371L1991.3,727.3z M2317.1,1109.6l-0.6-0.7l-336.4-382.2l0.7-0.6
			l382.2-336.4l0.6,0.7l336.4,382.2l-0.7,0.6L2317.1,1109.6z M1982.8,726.8l334.4,380.1l380-334.4l-334.4-380.1L1982.8,726.8z
			 M2316.6,1118.1l-0.6-0.7l-344.3-391.3l0.7-0.6l391.3-344.3l0.6,0.7l344.3,391.3l-0.7,0.6L2316.6,1118.1z M1974.3,726.3
			l342.4,389.1L2705.8,773l-342.4-389.1L1974.3,726.3z M2316,1126.6l-0.6-0.7l-352.3-400.3l0.7-0.6l400.3-352.3l0.6,0.7l352.3,400.3
			l-0.7,0.6L2316,1126.6z M1965.8,725.7l350.4,398.1l398.1-350.4L2364,375.4L1965.8,725.7z M2315.5,1135.1l-0.6-0.7L1954.6,725
			l0.7-0.6l409.4-360.2l0.6,0.7l360.3,409.4l-0.7,0.6L2315.5,1135.1z M1957.3,725.2l358.3,407.2L2722.8,774l-358.3-407.2
			L1957.3,725.2z M2314.9,1143.6l-0.6-0.7l-368.2-418.4l0.7-0.6l418.4-368.2l0.6,0.7l368.2,418.4l-0.7,0.6L2314.9,1143.6z
			 M1948.8,724.6l366.3,416.2l416.2-366.3L2365,358.4L1948.8,724.6z M2314.4,1152.1l-0.6-0.7l-376.2-427.5l0.7-0.6l427.5-376.2
			l0.6,0.7l376.2,427.5l-0.7,0.6L2314.4,1152.1z M1940.3,724.1l374.3,425.3l425.3-374.2l-374.2-425.3L1940.3,724.1z M2366.9,339.3
			l384.1,436.5l-0.7,0.6l-436.5,384.1l-0.6-0.7l-384.1-436.5l0.7-0.6l436.5-384.1L2366.9,339.3z M2314,1157.9l434.3-382.2
			l-382.2-434.3l-434.3,382.2L2314,1157.9z"/>
	</g>
</g>
</svg>
