<?xml version="1.0" encoding="utf-8"?><svg xmlns="http://www.w3.org/2000/svg" xmlns:xlink="http://www.w3.org/1999/xlink"><symbol viewBox="0 0 49 40" id="blob" xmlns="http://www.w3.org/2000/svg"><path d="M7.162 2.662c7.81-7.811 20.473-7.811 28.284 0l14.142 14.142-14.142 14.142c-7.81 7.81-20.474 7.81-28.284 0s-7.811-20.474 0-28.284z"/></symbol><symbol viewBox="0 0 49 40" id="blob-left" xmlns="http://www.w3.org/2000/svg"><path d="M41.81 2.69c-7.81-7.81-20.474-7.81-28.284 0L-.616 16.832l14.142 14.142c7.81 7.811 20.473 7.811 28.284 0s7.81-20.473 0-28.284z"/></symbol><symbol viewBox="0 0 50 50" id="btn-down" xmlns="http://www.w3.org/2000/svg"><path d="M35 60c13.807 0 25-11.193 25-25S48.807 10 35 10 10 21.193 10 35s11.193 25 25 25z"/><path d="M35 44.5L23.6 27.4h22.8z"/></symbol><symbol viewBox="0 0 44 38" id="btn-triangl" xmlns="http://www.w3.org/2000/svg"><path d="M22 27.5L10.6 10.4h22.8z"/></symbol><symbol viewBox="0 0 16 21" id="castle" xmlns="http://www.w3.org/2000/svg"><path d="M7.4 14.616a2.4 2.4 0 1 1 1.2 0V17.1H7.4zM6.8 12.3a1.2 1.2 0 1 0 2.4 0 1.2 1.2 0 0 0-2.4 0zm9-4.8v12a.6.6 0 0 1-.6.6H.8a.6.6 0 0 1-.6-.6v-12a.6.6 0 0 1 .6-.6h2.4V2.1A1.2 1.2 0 0 1 4.4.9h7.2a1.2 1.2 0 0 1 1.2 1.2v1.8h-1.2V2.1H4.4v4.8h10.8a.6.6 0 0 1 .6.6zm-1.2.6H1.4v10.8h13.2z"/></symbol><symbol viewBox="0 0 40 45" id="castle-big" xmlns="http://www.w3.org/2000/svg"><path d="M18.5 32c-2.925-.696-4.833-3.288-4.452-6.05.38-2.76 2.93-4.83 5.952-4.83 3.021 0 5.571 2.07 5.952 4.83.38 2.762-1.527 5.354-4.452 6.05v5.72h-3zM17 26.664c0 1.527 1.343 2.764 3 2.764s3-1.237 3-2.764c0-1.526-1.343-2.763-3-2.763s-3 1.237-3 2.763zM39.5 15.61v27.638c0 .763-.672 1.382-1.5 1.382H2c-.828 0-1.5-.619-1.5-1.382V15.61c0-.763.672-1.382 1.5-1.382h6V3.173C8 1.647 9.343.41 11 .41h18c1.657 0 3 1.238 3 2.764v11.055h6c.828 0 1.5.619 1.5 1.382zM11 14.228h18V3.173H11zm25.5 2.764h-33v24.874h33z"/></symbol><symbol viewBox="0 0 39 45" id="castle-big2" xmlns="http://www.w3.org/2000/svg"><path d="M18.066 32c-2.796-.696-4.62-3.288-4.256-6.05.364-2.76 2.802-4.83 5.69-4.83 2.888 0 5.326 2.07 5.69 4.83.363 2.762-1.46 5.354-4.256 6.05v5.72h-2.868zm-1.434-5.335c0 1.527 1.284 2.764 2.868 2.764 1.584 0 2.868-1.237 2.868-2.764 0-1.526-1.284-2.763-2.868-2.763-1.584 0-2.868 1.237-2.868 2.763zM38.14 15.61v27.638c0 .763-.642 1.382-1.434 1.382H2.294c-.792 0-1.434-.619-1.434-1.382V15.61c0-.763.642-1.382 1.434-1.382H8.03V3.173C8.03 1.647 9.313.41 10.897.41h17.206c1.584 0 2.868 1.238 2.868 2.764v11.055h5.735c.792 0 1.434.619 1.434 1.382zm-27.243-1.382h17.206V3.173H10.897zm24.375 2.764H3.728v24.874h31.544z"/></symbol><symbol viewBox="0 0 10 8" id="checkbox" xmlns="http://www.w3.org/2000/svg"><path d="M8.46.4L9.5 1.426 3.162 7.658.5 5.045l1.039-1.027L3.16 5.611z"/></symbol><symbol viewBox="0 0 70 70" id="chevrob-big-down" xmlns="http://www.w3.org/2000/svg"><path d="M35 60c13.807 0 25-11.193 25-25S48.807 10 35 10 10 21.193 10 35s11.193 25 25 25z"/><path d="M35 44.5L23.6 27.4h22.8z"/></symbol><symbol viewBox="0 0 15 8" id="chevron-down" xmlns="http://www.w3.org/2000/svg"><path d="M7.856 7.359a.45.45 0 0 1-.306-.122L.8.937 1.412.28l6.444 6.012L14.3.28l.612.657-6.75 6.3a.45.45 0 0 1-.306.121z"/></symbol><symbol viewBox="0 0 11 20" id="chevron-left" xmlns="http://www.w3.org/2000/svg"><path d="M1.662 19.252L.81 18.4l8.58-8.574L.81 1.252 1.662.4l9 9a.6.6 0 0 1 0 .846z"/></symbol><symbol viewBox="0 0 11 20" id="chevron-right" xmlns="http://www.w3.org/2000/svg"><path d="M9.774 19.246l-9-9a.6.6 0 0 1 0-.846l9-9 .846.846L2.046 9.82l8.58 8.574z"/></symbol><symbol viewBox="0 0 30 30" id="close" xmlns="http://www.w3.org/2000/svg"><path d="M30 1.765L16.765 15 30 28.235 28.235 30 15 16.765 1.765 30 0 28.235 13.235 15 0 1.765 1.765 0 15 13.235 28.235 0z"/></symbol><symbol viewBox="0 0 47 45" id="down" xmlns="http://www.w3.org/2000/svg"><path d="M46.441 26.665v16.583c0 .763-.642 1.382-1.434 1.382H1.993c-.792 0-1.434-.619-1.434-1.382V26.665h2.867v15.201h40.148v-15.2zm-23.959 7.89l-11.47-11.054 2.035-1.962 9.02 8.705V.41h2.867v29.835l9.033-8.692 2.022 1.949-11.471 11.055c-.27.259-.637.403-1.018.4a1.462 1.462 0 0 1-1.018-.4z"/></symbol><symbol viewBox="0 0 41 18" id="fw" xmlns="http://www.w3.org/2000/svg"><path d="M5.83 4.66h5.324v1.175H7.037v2.26h3.667v1.176H7.037v3.147H5.83zM28.781 4.66l1.483 5.94L31.8 4.66h1.307l1.548 6.018L36.14 4.66h1.23l-1.977 7.758h-1.46L32.46 6.644l-1.472 5.774h-1.471L27.54 4.66z"/><path d="M40.937 8.704c0 2.31-.952 4.477-2.68 6.102-3.344 3.146-8.087 3.328-11.535.442-.826-.757-1.668-1.523-2.51-2.289-.577-.525-1.155-1.05-1.73-1.575a.601.601 0 0 1-.176-.438c0-.154.052-.3.145-.399a.596.596 0 0 1 .415-.175.599.599 0 0 1 .427.143l4.178 3.816c3.03 2.536 7.031 2.377 9.967-.386 1.513-1.422 2.346-3.279 2.346-5.228 0-1.947-.833-3.792-2.347-5.195-1.569-1.454-3.383-2.206-5.248-2.176-1.969.032-3.865.893-5.637 2.56L15.305 14.423c-1.967 1.85-4.193 2.848-6.438 2.884-2.179.035-4.284-.83-6.089-2.504C1.051 13.204.1 11.054.1 8.751c0-2.31.952-4.477 2.68-6.102 3.344-3.146 8.088-3.328 11.536-.442.825.757 1.668 1.523 2.51 2.29.578.524 1.155 1.049 1.73 1.574.113.103.181.27.181.446 0 .155-.052.3-.143.4a.605.605 0 0 1-.418.178.604.604 0 0 1-.432-.142l-4.177-3.828C10.537.588 6.536.747 3.599 3.509 2.087 4.932 1.253 6.792 1.253 8.745c0 1.952.834 3.8 2.348 5.202 1.568 1.454 3.383 2.207 5.248 2.177 1.968-.032 3.864-.893 5.636-2.56L25.733 3.031C27.495 1.273 29.542.364 32.178.16c2.027.004 4.247.914 6.09 2.498 1.719 1.592 2.67 3.742 2.67 6.045z"/></symbol><symbol viewBox="0 0 26 25" id="fw-vert" xmlns="http://www.w3.org/2000/svg"><path d="M11.698 3.168h3.116v.681h-2.41v1.31h2.147v.682h-2.146v1.825h-.707zM11.02 17.593l.867 3.444.9-3.444h.765l.906 3.489.868-3.49h.719l-1.156 4.498h-.855l-.86-3.347-.862 3.347h-.862l-1.156-4.497zM7.329 23.74a.328.328 0 0 1-.16-.041A12.606 12.606 0 0 1 .574 12.615 12.62 12.62 0 0 1 7.106 1.567a.337.337 0 0 1 .456.132.334.334 0 0 1-.132.456 11.944 11.944 0 0 0-6.185 10.46c0 4.381 2.392 8.402 6.245 10.494.08.044.137.114.161.2a.334.334 0 0 1-.321.43M19.17 23.66a.334.334 0 0 1-.323-.426.336.336 0 0 1 .159-.202 11.958 11.958 0 0 0 6.103-10.416c0-4.38-2.392-8.4-6.245-10.494a.333.333 0 0 1-.134-.454.336.336 0 0 1 .455-.135 12.605 12.605 0 0 1 6.595 11.083c0 4.555-2.47 8.77-6.446 11a.336.336 0 0 1-.163.044"/><path d="M13.19 24.687c-1.374 0-2.662-.562-3.627-1.584-1.87-1.975-1.979-4.778-.263-6.816.45-.487.905-.985 1.36-1.483l.937-1.023a.36.36 0 0 1 .26-.103c.093 0 .178.03.236.086a.35.35 0 0 1 .106.244.355.355 0 0 1-.086.253l-2.268 2.47c-1.507 1.789-1.413 4.153.229 5.888.846.894 1.95 1.386 3.108 1.386 1.158 0 2.254-.492 3.089-1.387.863-.927 1.311-1.999 1.294-3.1-.02-1.164-.532-2.284-1.522-3.331L9.79 9.542c-1.1-1.163-1.693-2.478-1.715-3.805-.02-1.287.495-2.532 1.488-3.598A4.881 4.881 0 0 1 13.162.557c1.373 0 2.661.562 3.628 1.584 1.87 1.975 1.977 4.778.261 6.815l-1.36 1.485-.936 1.021a.362.362 0 0 1-.266.107.35.35 0 0 1-.236-.085.356.356 0 0 1-.107-.247.357.357 0 0 1 .085-.255l2.276-2.468c1.507-1.79 1.413-4.155-.23-5.89-.844-.894-1.95-1.386-3.11-1.386-1.161 0-2.26.494-3.094 1.388-.864.927-1.312 1.998-1.294 3.1.018 1.164.53 2.283 1.522 3.33l6.262 6.647c1.044 1.041 1.585 2.25 1.705 3.808-.002 1.198-.543 2.51-1.485 3.599a4.873 4.873 0 0 1-3.593 1.577z"/></symbol><symbol viewBox="0 0 25 31" id="ic-ava1" xmlns="http://www.w3.org/2000/svg"><defs><filter id="aqc"><feColorMatrix in="SourceGraphic" values="0 0 0 0 0.30588236 0 0 0 0 0.34509805 0 0 0 0 0.972549 0 0 0 1 0"/></filter><path d="M0 0h5.157v1.9H0V0z" id="aqa"/><path d="M0 30.943h24.429V0H0v30.943z" id="aqb"/><clipPath id="aqd"><use xlink:href="#aqa"/></clipPath><clipPath id="aqe"><use xlink:href="#aqb"/></clipPath></defs><g filter="url(#aqc)"><path d="M13.751 11.78c-.056.246-.117.48-.18.705l.888-.139 2.641.411v-.675l-2.642-.41-.707.109zM11.4 11.943l1.086-.192v-.622l-.92.162c-.053.226-.108.442-.166.652M17.1 11.328l-2.531-.46-.056-.01-.536.097c-.04.221-.086.435-.134.641l.67-.123 2.587.47v-.615zM17.1 10.567l-2.492-.524-.4.085c-.029.2-.06.393-.094.582l.495-.104 2.491.523v-.562z" fill-rule="evenodd"/><path d="M12.486 10.586l-.702.168c-.035.222-.072.437-.113.646l.815-.195v-.62zM17.1 10.073L14.51 9.5l-.33.074c-.019.18-.04.356-.066.527l.397-.087 2.589.572v-.513zM9.5 11.4l.814-.219v-.595l-.707.19c-.033.214-.068.423-.107.624M12.473 9.772l-.695.172c-.028.22-.059.432-.094.64l.789-.197v-.615zM10.298 9.776l-.694.195c-.025.208-.056.412-.088.61l.782-.218v-.587zM17.1 9.457l-2.663-.771-.285.084c-.01.202-.022.401-.038.597l.324-.095 2.662.77v-.585z" fill-rule="evenodd"/><path d="M12.69 9.247l-.616.173c-.018.207-.04.407-.064.605l.68-.191v-.587zM7.484 10.706V15.793h-.97v.493h11.672v-.493h-.97V12.65l-2.558-.313-.876.108c-.073.246-.148.479-.224.698l1.1-.136 1.782.218-1.782-.164-1.109.103a11.553 11.553 0 0 1-.618 1.454c-.12.234-.232.435-.332.602v-2.63l-.607.076.607-.094v-.643l-1.027.158a13.321 13.321 0 0 1-.432 1.353 11.71 11.71 0 0 1-.593 1.325c-.09.173-.177.325-.258.455v-3.526l-.052.01.052-.012v-.589l-.837.18a14.704 14.704 0 0 1-.51 1.852c-.074.214-.15.416-.229.604a10.99 10.99 0 0 1-.73 1.48V10.563l-.356.1.356-.11v-.51l-.5.155v.509zm7.174 3.055l.867.079-.867-.053-.86.053.86-.08zM10.25 9.25l-.623.194c-.018.196-.04.389-.062.577l.685-.214V9.25zM17.1 8.693l-2.46-.822-.243.082c-.001.182-.006.361-.011.539l.254-.087 2.46.824v-.536zM12.653 8.449l-.567.177c-.01.192-.023.383-.039.568l.606-.187v-.558z" fill-rule="evenodd"/><path d="M17.1 8.199l-2.473-.87-.241.085v.487l.242-.085 2.472.87v-.487zM12.63 8.317V7.92l-.543.184c0 .012 0 .023-.002.034-.002.17-.007.336-.015.5l.56-.19v-.131zM7.465 9.737v.527l.541-.186V9.55l-.541.187zM10.214 8.724l-.575.196c-.01.185-.024.364-.039.542l.614-.211v-.527zM12.08 7.316v.498l.54-.202v-.498l-.54.202zM7.465 9.216v.498l.541-.203v-.496l-.541.201zM17.1 7.43l-2.473-.916-.241.09v.442l.242-.09 2.472.915V7.43zM10.191 8.195l-.549.205c-.004.17-.01.34-.019.505l.568-.212v-.498zM7.465 8.697v.468l.541-.22v-.467l-.541.22zM10.18 7.391l-.54.22v.095c0 .127-.002.25-.005.374l.544-.221V7.39zM17.1 6.656L14.627 5.7l-.241.094v.401l.242-.093 2.472.955v-.4zM12.08 6.797v.468l.54-.219v-.468l-.54.219zM9.637 7.091v.438l.54-.235v-.437l-.54.234zM17.1 6.079l-2.473-1.193-.241.117v.435l.242-.118L17.1 6.514V6.08zM7.465 8.178v.437l.541-.236v-.437l-.541.236zM12.08 6.007v.437l.54-.235V5.77l-.54.237zM7.6 7.871l2.714-1.267v-.361L7.6 7.509v.362z" fill-rule="evenodd"/><path d="M17.1 5.58l-2.473-1.237-.241.122v.39l.242-.12L17.1 5.97V5.58zM12.08 5.488v.406l.54-.252v-.407l-.54.253zM9.638 6.053v.377l.539-.27v-.375l-.54.268zM17.1 4.808l-2.473-1.28-.241.127v.35l.242-.126L17.1 5.157v-.35zM12.08 4.697v.375l.54-.27v-.374l-.54.27zM17.1 4.033l-2.473-1.319-.241.13v.31l.242-.13L17.1 4.343v-.31zM12.08 4.177v.345l.54-.288v-.342l-.54.285zM9.638 5.266v.342l.539-.287v-.343l-.54.288zM17.1 3.528l-2.473-1.357-.241.133v.273l.242-.134L17.1 3.8v-.272zM9.771 5.157l2.715-1.607v-.293L9.77 4.865v.292zM17.1 2.751l-2.473-1.394-.241.138v.236l.242-.137L17.1 2.986V2.75zM12.08 2.872v.276l.54-.32v-.276l-.54.32zM12.08 2.355v.241l.54-.337v-.24l-.54.336zM17.1 2.21L14.627.542l-.241.164V.94l.242-.163L17.1 2.443v-.234z" fill-rule="evenodd"/><g transform="translate(11.943)"><path d="M0 0h5.157v1.9H0V0z" fill-rule="evenodd"/><g clip-path="url(#aqd)"><path d="M5.157 1.695L2.58 0 0 1.707V1.9L2.58.193 5.156 1.89v-.194z" fill-rule="evenodd"/></g></g><path d="M7.545 20.25c.204 0 .346.09.472.216l.117-.13a.765.765 0 0 0-.587-.25c-.442 0-.761.366-.761.816 0 .454.32.812.755.812.273 0 .443-.11.602-.276l-.113-.115c-.144.144-.28.227-.485.227-.331 0-.582-.286-.582-.652 0-.367.249-.649.582-.649M9.5 21.304h-.918v-.475h.812v-.14h-.812v-.464h.907v-.14H8.414v1.358H9.5v-.14zM10.811 20.49c0-.244-.186-.404-.475-.404H9.77v1.357h.149v-.527h.375l.38.527h.182l-.403-.554c.207-.04.357-.17.357-.398m-.488.287H9.92v-.55h.405c.213 0 .336.1.336.268 0 .177-.141.282-.338.282M11.751 21.443v-1.216h.463v-.141H11.13v.141h.464v1.216h.158z" fill-rule="evenodd"/><path d="M0 30.943h24.429V0H0v30.943z" fill-rule="evenodd"/><g clip-path="url(#aqe)" fill-rule="evenodd"><path d="M12.532 21.443h.179v-1.357h-.18v1.357zM13.3 21.443h.17v-.591h.819v-.14h-.819v-.485h.916v-.141H13.3v1.357zM14.431 21.443h.18v-1.357h-.18v1.357zM15.2 21.443h1.086v-.14h-.919v-.474h.813v-.14h-.813v-.464h.909v-.14H15.2v1.358zM16.557 20.086v1.357h.537c.485 0 .82-.296.82-.68 0-.385-.335-.677-.82-.677h-.537zm1.176.68c0 .303-.25.536-.64.536h-.362v-1.075h.363c.39 0 .64.238.64.539zM6.514 17.106h.666l.395 1.244.44-1.25h.54l.44 1.25.395-1.244h.653l-.76 2.165h-.548l-.458-1.237-.454 1.237h-.549l-.76-2.165zM10.383 19.271h.677V17.1h-.677v2.171zM11.4 17.1h1.116c.36 0 .61.086.769.235.138.125.209.293.209.506v.007c0 .331-.193.551-.486.666l.563.757h-.755l-.475-.657h-.287v.657H11.4V17.1zm1.085 1.042c.223 0 .351-.1.351-.257v-.007c0-.17-.135-.257-.354-.257h-.428v.521h.431zM13.571 17.1h1.884v.512h-1.242v.329h1.125v.474h-1.125v.344h1.258v.512h-1.9V17.1zM15.743 17.1h.881c.817 0 1.29.446 1.29 1.073v.006c0 .627-.48 1.092-1.303 1.092h-.868V17.1zm.891 1.637c.379 0 .63-.198.63-.548v-.006c0-.348-.251-.55-.63-.55h-.258v1.104h.258zM6.514 22.935h11.672v-.541H6.514v.541z"/><path d="M18.066 8.143v1.242c3.167 1.954 5.283 5.44 5.283 9.412 0 6.106-4.996 11.073-11.135 11.073-6.14 0-11.134-4.967-11.134-11.073 0-3.972 2.115-7.458 5.282-9.412V8.144C2.575 10.208 0 14.208 0 18.797c0 6.697 5.48 12.146 12.214 12.146 6.736 0 12.215-5.449 12.215-12.146 0-4.59-2.575-8.589-6.363-10.654"/><path d="M18.164 10.314v.66c2.324 1.755 3.829 4.534 3.829 7.657 0 5.297-4.326 9.606-9.643 9.606-5.316 0-9.643-4.31-9.643-9.606 0-3.123 1.505-5.902 3.829-7.657v-.66C3.9 12.15 2.171 15.192 2.171 18.631c0 5.591 4.567 10.14 10.179 10.14s10.179-4.549 10.179-10.14c0-3.44-1.729-6.483-4.365-8.317"/><path d="M7.6 24.157h.55c.326 0 .536.141.536.382v.003c0 .256-.234.39-.554.39h-.175v.31H7.6v-1.085zm.525.54c.127 0 .204-.056.204-.14v-.004c0-.093-.077-.143-.205-.143h-.167v.287h.168zM8.957 24.157h.297v.823h.517v.263h-.814v-1.086zM10.288 24.157h.325l.516 1.086h-.361l-.088-.192h-.468l-.087.192h-.354l.517-1.086zm.295.661l-.136-.306-.136.306h.272zM11.5 24.421h-.371v-.264h1.085v.264h-.37v.822H11.5v-.822z"/><path d="M12.168 25.243h.364v-1.086h-.364v1.086zM12.757 24.157h.297l.474.574v-.574h.315v1.086h-.28l-.49-.596v.596h-.316v-1.086zM14.114 24.634v-.748h.329v.74c0 .193.084.284.214.284s.215-.088.215-.274v-.75h.328v.738c0 .43-.215.619-.546.619-.332 0-.54-.192-.54-.61M15.471 24.157h.374l.305.42.305-.42h.374v1.086h-.352v-.623l-.327.424h-.007l-.325-.422v.62h-.347v-1.085z"/></g></g></symbol><symbol viewBox="0 0 39 15" id="ic-ava10" xmlns="http://www.w3.org/2000/svg"><defs><filter id="ara"><feColorMatrix in="SourceGraphic" values="0 0 0 0 0 0 0 0 0 0.98039216 0 0 0 0 0.5137255 0 0 0 1 0"/></filter></defs><g filter="url(#ara)" fill-rule="evenodd"><path d="M36.635 6.678c-.853-.476-1.953-.866-3.27-1.157-1.293-.288-2.616-.47-3.783-.632-.7-.096-2.582-1.273-3.624-2.005-.132-.083-3.288-2.05-6.837-2.647C15.598-.357 8.214.35 7.877.384l-3.835.59a.444.444 0 0 0 .134.877l3.811-.588.185-.017c-1.011.812-1.574 1.347-1.672 1.59-.178.448-.117 1.176-.103 1.318.022.218.2.387.418.399.097.004 4.535.234 9.435.494.076 1.204.218 4.036.09 6.806l-7.57-.201c0-.033.004-.065.004-.098a3.104 3.104 0 0 0-3.098-3.103 3.104 3.104 0 0 0-3.098 3.103l.002.056-.68-.062c-.301-.209-.809-.646-.904-1.012-.124-.473-.12-1.559-.102-2.088.17-.223.497-.7.638-1.226.527-.095 1.414-.486 1.892-1.98a.444.444 0 0 0-.844-.27c-.257.805-.643 1.147-.942 1.292.04-.512.095-1.11.125-1.42l2.551-1.675a.444.444 0 0 0-.485-.741L1.1 4.218a.443.443 0 0 0-.197.329C.897 4.609.753 6.08.717 6.784.693 7.232.279 7.81.122 7.997a.442.442 0 0 0-.107.267c-.007.178-.07 1.752.126 2.498.222.847 1.255 1.518 1.372 1.593.06.036.126.06.196.066l1.023.093a3.102 3.102 0 0 0 2.945 2.143c1.366 0 2.527-.89 2.937-2.122l7.95.21c.052.027.11.043.171.046h.026c.06 0 .118-.013.17-.035l12.389.33a3.1 3.1 0 0 0 2.691 1.571c1.211 0 2.26-.7 2.768-1.717.104.003.205.005.302.005 2.323 0 2.884-.77 2.976-.93a.443.443 0 0 0 .051-.141c.004-.018.08-.446.154-1.64.077-1.236-.31-2.82-1.627-3.556M5.677 13.771a2.217 2.217 0 0 1 0-4.433 2.217 2.217 0 0 1 0 4.433M7.262 3.688c-.001-.2.012-.4.046-.49.154-.239 1.398-1.263 2.471-2.082 1.558-.113 3.889-.246 5.993-.226.145 1.123.338 2.629.409 3.265-4.014-.212-7.695-.403-8.92-.467M16.668.91c.864.03 1.66.091 2.307.2 3.371.57 6.483 2.506 6.494 2.513.149.104.901.628 1.751 1.133-2.346-.136-6.32-.35-10.143-.553-.06-.588-.271-2.236-.409-3.293m15.344 12.86a2.218 2.218 0 0 1 0-4.432 2.217 2.217 0 0 1 0 4.433m5.368-3.593c-.049.792-.1 1.228-.124 1.418-.154.127-.7.463-2.19.461.027-.163.045-.33.045-.503a3.104 3.104 0 0 0-3.099-3.103 3.104 3.104 0 0 0-3.032 3.738l-11.752-.312c.124-2.735-.01-5.526-.087-6.783 5.62.299 11.535.62 12.038.675a.424.424 0 0 0 .183-.022c.034.007.07.017.1.022 1.15.158 2.455.338 3.713.617 1.215.27 2.263.638 3.03 1.066.959.537 1.232 1.803 1.175 2.726"/><path d="M9.294 6.786h.012c.252 0 .459-.168.465-.38.007-.217-.196-.396-.453-.401l-1.512-.033c-.267-.014-.47.165-.477.38-.007.216.196.396.453.401l1.512.033zM20.187 6.247H18.9c-.244 0-.442.18-.442.403 0 .223.198.403.442.403h1.288c.244 0 .442-.18.442-.403 0-.222-.198-.403-.442-.403"/></g></symbol><symbol viewBox="0 0 23 35" id="ic-ava11" xmlns="http://www.w3.org/2000/svg"><defs><filter id="asb"><feColorMatrix in="SourceGraphic" values="0 0 0 0 0 0 0 0 0 0.98039216 0 0 0 0 0.5137255 0 0 0 1 0"/></filter><path d="M0 0h14.114v4.762H0V0z" id="asa"/><clipPath id="asc"><use xlink:href="#asa"/></clipPath></defs><g filter="url(#asb)"><path d="M0 0v34.2l15.471-2.909v-5.75H14.28v4.795L1.191 32.797V1.403l13.088 2.46v4.796h1.192V2.908L0 0z" fill-rule="evenodd"/><path d="M11.306 6.227V8.54h1.18v-3.3L3.257 3.8v26.329l9.229-1.44v-3.3h-1.18v2.314l-6.87 1.072V5.155l6.87 1.072z" fill-rule="evenodd"/><g transform="translate(8.143 8.686)"><path d="M0 0h14.114v4.762H0V0z" fill-rule="evenodd"/><g clip-path="url(#asc)"><path d="M6.386 1.812a4.927 4.927 0 0 0-.263-.009c-.779 0-1.239.174-1.618.356-.064.03-.126.06-.186.091-.303.152-.554.275-1.007.309-.078.005-.16.009-.25.009-.03 0-.055-.003-.083-.003-.561-.013-.835-.146-1.174-.315C1.385 2.04.91 1.803 0 1.803v1.153c.621 0 .902.14 1.258.318.405.203.866.43 1.721.443.028.002.053.004.083.004.088 0 .17-.005.25-.01a3.314 3.314 0 0 0 1.193-.267c.13-.055.248-.113.362-.17.354-.177.636-.318 1.256-.318.096 0 .182.006.263.011.444.035.694.157.995.308.064.032.13.065.199.096.376.18.835.35 1.605.35.606 0 1.018-.106 1.35-.237.166-.067.314-.14.455-.21a2.73 2.73 0 0 1 .66-.258v1.746l2.465-2.381L11.65 0v1.843c-.491.069-.822.217-1.116.361-.03.015-.062.03-.091.046-.356.178-.638.318-1.258.318s-.902-.14-1.257-.318a6.918 6.918 0 0 0-.348-.166 3.352 3.352 0 0 0-1.194-.272" fill-rule="evenodd"/></g><path d="M14.114 8.414L11.65 6.033v1.844c-.49.068-.822.216-1.115.361l-.093.045c-.356.178-.636.317-1.257.317-.621 0-.902-.14-1.258-.317a6.491 6.491 0 0 0-.348-.165 3.327 3.327 0 0 0-1.192-.272 4.96 4.96 0 0 0-.264-.009c-.78 0-1.24.174-1.618.355-.064.03-.126.061-.186.091-.304.152-.555.275-1.007.309-.077.005-.159.008-.25.008l-.083-.002c-.56-.013-.836-.146-1.174-.315-.42-.209-.894-.446-1.804-.446V8.99c.62 0 .901.14 1.256.318.407.202.867.428 1.722.442.028.001.053.003.083.003.088 0 .17-.004.25-.008a3.31 3.31 0 0 0 1.193-.267c.129-.055.248-.113.361-.17.356-.177.637-.318 1.257-.318.096 0 .182.005.264.011.444.035.692.156.993.307l.199.096c.377.18.835.35 1.606.35.606 0 1.017-.106 1.35-.238.166-.066.315-.138.454-.208a2.82 2.82 0 0 1 .661-.26v1.748l2.464-2.382zM14.114 14.447l-2.464-2.381v1.844c-.49.068-.822.216-1.115.36-.031.015-.063.03-.093.046-.356.178-.636.317-1.257.317-.621 0-.902-.14-1.258-.317a6.491 6.491 0 0 0-.348-.165 3.327 3.327 0 0 0-1.192-.272 4.96 4.96 0 0 0-.264-.009c-.78 0-1.24.174-1.618.355l-.186.09c-.304.152-.555.275-1.007.31-.077.005-.159.008-.25.008l-.083-.002c-.56-.013-.836-.146-1.174-.315-.42-.209-.894-.446-1.804-.446v1.153c.62 0 .901.14 1.256.318.407.202.867.428 1.722.442.028.001.053.003.083.003.088 0 .17-.004.25-.008a3.31 3.31 0 0 0 1.193-.267 5.87 5.87 0 0 0 .361-.17c.356-.177.637-.318 1.257-.318.096 0 .182.005.264.011.444.035.692.156.993.307l.199.096c.377.18.835.35 1.606.35.606 0 1.017-.106 1.35-.238.166-.066.315-.138.454-.208a2.82 2.82 0 0 1 .661-.26v1.748l2.464-2.382z" fill-rule="evenodd"/></g></g></symbol><symbol viewBox="0 0 27 33" id="ic-ava12" xmlns="http://www.w3.org/2000/svg"><defs><filter id="ata"><feColorMatrix in="SourceGraphic" values="0 0 0 0 0 0 0 0 0 0.98039216 0 0 0 0 0.5137255 0 0 0 1 0"/></filter></defs><g filter="url(#ata)" fill-rule="evenodd"><path d="M17.922 20.629h1.07v-2.172h-1.07v2.172zM17.922 23.886h1.07v-2.172h-1.07v2.172zM17.922 26.871h1.07V24.7h-1.07v2.171zM21.18 18.457h1.069v-2.171h-1.07v2.171zM21.18 21.714h1.069v-2.171h-1.07v2.171zM21.18 24.971h1.069V22.8h-1.07v2.171zM21.18 28.229h1.069v-2.172h-1.07v2.172zM14.665 18.457h1.07v-2.171h-1.07v2.171zM14.665 21.714h1.07v-2.171h-1.07v2.171zM14.665 24.971h1.07V22.8h-1.07v2.171zM14.665 28.229h1.07v-2.172h-1.07v2.172z"/><path d="M25.514 15.2H26.6v-3.257h-5.428V9.772h-1.086V5.97c0-.9-.729-1.628-1.628-1.628H4.343V3.257H1.086V0H0v11.943h1.086V8.686h3.256V7.6h12.486v2.172h-1.085v2.171h-5.428V15.2H11.4v2.171h1.086v-2.17h5.428v2.17H19v-2.17h5.428v2.17h1.085v-2.17zM1.086 7.6h2.17V4.343h-2.17V7.6zm3.256-1.086V5.428h14.116c.299 0 .543.244.543.543v3.8h-1.087V6.515H4.342zm12.486 5.43h3.257v-1.086h-3.257v1.085zm-5.428 2.17h14.114V13.03H11.4v1.085zM24.437 20.629h1.07v-2.172h-1.07v2.172zM24.437 23.886h1.07v-2.172h-1.07v2.172zM24.437 26.871h1.07V24.7h-1.07v2.171zM11.408 20.629h1.07v-2.172h-1.07v2.172zM11.408 23.886h1.07v-2.172h-1.07v2.172zM11.408 26.871h1.07V24.7h-1.07v2.171zM17.922 30.4h1.07v-2.171h-1.07V30.4zM21.18 31.486h1.069v-2.172h-1.07v2.172zM14.665 31.486h1.07v-2.172h-1.07v2.172zM24.437 30.4h1.07v-2.171h-1.07V30.4zM11.408 30.4h1.07v-2.171h-1.07V30.4zM17.922 32.563h1.07v-1.07h-1.07v1.07zM24.437 32.563h1.07v-1.07h-1.07v1.07zM11.408 32.563h1.07v-1.07h-1.07v1.07zM.008 15.2h1.07v-2.171H.008V15.2zM.008 18.457h1.07v-2.171H.008v2.171zM.008 32.3h1.07V19.271H.008V32.3z"/></g></symbol><symbol viewBox="0 0 20 35" id="ic-ava2" xmlns="http://www.w3.org/2000/svg"><defs><filter id="aua"><feColorMatrix in="SourceGraphic" values="0 0 0 0 0.30588236 0 0 0 0 0.34509805 0 0 0 0 0.972549 0 0 0 1 0"/></filter></defs><g transform="translate(.125 .125)" filter="url(#aua)" fill-rule="evenodd"><path d="M1.827 0C.821 0 0 .854 0 1.9v30.4c0 1.045.821 1.9 1.827 1.9h15.347c1.005 0 1.826-.855 1.826-1.9V1.9C19 .854 18.179 0 17.174 0H1.827zm0 .76h15.347c.613 0 1.095.501 1.095 1.14v1.9H.731V1.9c0-.639.483-1.14 1.096-1.14zM.731 28.12h17.538V4.56H.731v23.56zM9.489 9.5a.362.362 0 0 0-.171.06l-5.116 3.039a.389.389 0 0 0-.182.32V19a.386.386 0 0 0 .182.32l5.116 3.04a.37.37 0 0 0 .16.06.379.379 0 0 0 .205-.06l5.116-3.04a.388.388 0 0 0 .183-.32v-6.08a.394.394 0 0 0-.183-.321l-5.116-3.04A.357.357 0 0 0 9.49 9.5zm.011.819l4.373 2.6-4.372 2.602-4.374-2.601 4.374-2.601zm-4.738 3.254l4.373 2.6v5.213l-4.373-2.6v-5.213zm9.477 0v5.213l-4.374 2.6v-5.213l4.374-2.6zM.73 28.88h17.538v3.42c0 .638-.482 1.14-1.095 1.14H1.827c-.613 0-1.096-.502-1.096-1.14v-3.42zm8.77 1.14c-.606 0-1.097.51-1.097 1.14 0 .629.491 1.14 1.096 1.14.606 0 1.096-.511 1.096-1.14 0-.63-.49-1.14-1.096-1.14z"/><path d="M1.827 0C.821 0 0 .854 0 1.9v30.4c0 1.045.821 1.9 1.827 1.9h15.347c1.005 0 1.826-.855 1.826-1.9V1.9C19 .854 18.179 0 17.174 0H1.827zm0 .76h15.347c.613 0 1.095.501 1.095 1.14v1.9H.731V1.9c0-.639.483-1.14 1.096-1.14zM.731 28.12h17.538V4.56H.731v23.56zM9.489 9.5a.362.362 0 0 0-.171.06l-5.116 3.039a.389.389 0 0 0-.182.32V19a.386.386 0 0 0 .182.32l5.116 3.04a.37.37 0 0 0 .16.06.379.379 0 0 0 .205-.06l5.116-3.04a.388.388 0 0 0 .183-.32v-6.08a.394.394 0 0 0-.183-.321l-5.116-3.04A.357.357 0 0 0 9.49 9.5zm.011.819l4.373 2.6-4.372 2.602-4.374-2.601 4.374-2.601zm-4.738 3.254l4.373 2.6v5.213l-4.373-2.6v-5.213zm9.477 0v5.213l-4.374 2.6v-5.213l4.374-2.6zM.73 28.88h17.538v3.42c0 .638-.482 1.14-1.095 1.14H1.827c-.613 0-1.096-.502-1.096-1.14v-3.42zm8.77 1.14c-.606 0-1.097.51-1.097 1.14 0 .629.491 1.14 1.096 1.14.606 0 1.096-.511 1.096-1.14 0-.63-.49-1.14-1.096-1.14z"/></g></symbol><symbol viewBox="0 0 22 34" id="ic-ava3" xmlns="http://www.w3.org/2000/svg"><defs><filter id="ava"><feColorMatrix in="SourceGraphic" values="0 0 0 0 0.30588236 0 0 0 0 0.34509805 0 0 0 0 0.972549 0 0 0 1 0"/></filter></defs><g filter="url(#ava)" fill-rule="evenodd"><path d="M20.68 0H1.035C.463 0 0 .47 0 1.052v30.502c0 .581.463 1.052 1.034 1.052h.775v.526c0 .29.232.525.517.525a.52.52 0 0 0 .518-.525v-.526H18.87v.526c0 .29.232.525.517.525a.52.52 0 0 0 .517-.525v-.526h.776c.57 0 1.033-.471 1.033-1.052V1.052C21.714.47 21.252 0 20.681 0zM1.035 24.191H20.68V1.051H1.034v23.14zm0 7.363H20.68v-6.31H1.034v6.31z"/><path d="M3.486 22.529H14.97a1.05 1.05 0 0 0 1.044-1.057V3.5c0-.584-.468-1.058-1.044-1.058H3.486A1.05 1.05 0 0 0 2.443 3.5v17.97a1.05 1.05 0 0 0 1.043 1.058zM14.97 6.672v2.114h-1.044v-.528a.525.525 0 0 0-.522-.53.525.525 0 0 0-.521.53v.528h-1.045v-.528a.525.525 0 0 0-.521-.53.525.525 0 0 0-.523.53v.528H9.75v-.528a.525.525 0 0 0-.521-.53.525.525 0 0 0-.523.53v.528H5.575v-.528a.525.525 0 0 0-.523-.53.526.526 0 0 0-.522.53v.528H3.486V6.672H14.97zm-1.566 10.57a.525.525 0 0 0-.521.53v.528h-1.045v-.528a.525.525 0 0 0-.521-.53.525.525 0 0 0-.523.53v.528H9.75v-.528a.525.525 0 0 0-.521-.53.525.525 0 0 0-.523.53v.528H7.663v-.528a.526.526 0 0 0-.523-.53.525.525 0 0 0-.522.53v.528H5.575v-.528a.525.525 0 0 0-.523-.53.526.526 0 0 0-.522.53v.528H3.486v-2.114H14.97V18.3h-1.044v-.528a.525.525 0 0 0-.522-.53zm1.566-7.399v2.114h-1.044v-.528a.525.525 0 0 0-.522-.529.525.525 0 0 0-.521.529v.528h-1.045v-.528a.525.525 0 0 0-.521-.529.525.525 0 0 0-.523.529v.528H9.75v-.528a.525.525 0 0 0-.521-.529.525.525 0 0 0-.523.529v.528H7.663v-.528a.526.526 0 0 0-.523-.529.525.525 0 0 0-.522.529v.528H5.575v-.528a.525.525 0 0 0-.523-.529.526.526 0 0 0-.522.529v.528H3.486V9.843H14.97zm0 3.172v2.114h-1.044V14.6a.525.525 0 0 0-.522-.529.525.525 0 0 0-.521.53v.528H9.75V14.6a.525.525 0 0 0-.521-.529.525.525 0 0 0-.523.53v.528H7.663V14.6a.526.526 0 0 0-.523-.529.525.525 0 0 0-.522.53v.528H5.575V14.6a.525.525 0 0 0-.523-.529.526.526 0 0 0-.522.53v.528H3.486v-2.114H14.97zm-1.044 8.457v-.53a.525.525 0 0 0-.522-.528.525.525 0 0 0-.521.529v.529h-1.045v-.53a.525.525 0 0 0-.521-.528.525.525 0 0 0-.523.529v.529H9.75v-.53a.525.525 0 0 0-.521-.528.525.525 0 0 0-.523.529v.529H5.575v-.53a.525.525 0 0 0-.523-.528.526.526 0 0 0-.522.529v.529H3.486v-2.115H14.97v2.115h-1.044zM14.97 3.5v2.113h-1.044v-.528a.525.525 0 0 0-.522-.529.525.525 0 0 0-.521.53v.527h-1.045v-.528a.525.525 0 0 0-.521-.529.525.525 0 0 0-.523.53v.527H9.75v-.528a.525.525 0 0 0-.521-.529.525.525 0 0 0-.523.53v.527H7.663v-.528a.526.526 0 0 0-.523-.529.525.525 0 0 0-.522.53v.527H5.575v-.528a.525.525 0 0 0-.523-.529.526.526 0 0 0-.522.53v.527H3.486V3.501H14.97zM18.186 9.229h.543a.543.543 0 0 0 0-1.086h-.543a.543.543 0 1 0 0 1.086M18.186 11.4h.543a.543.543 0 0 0 0-1.086h-.543a.543.543 0 1 0 0 1.086M18.186 18.729h.543a.543.543 0 0 0 0-1.086h-.543a.543.543 0 1 0 0 1.086M15.471 27.957h-1.085a.543.543 0 0 0 0 1.086h1.085a.543.543 0 1 0 0-1.086M5.202 26.871h-1.99c-.275 0-.498.244-.498.544v2.17c0 .3.223.544.497.544h1.991c.275 0 .498-.244.498-.544v-2.17c0-.3-.223-.544-.498-.544zM3.71 29.043h.995v-1.085H3.71v1.085zM9.274 26.871H7.283c-.275 0-.497.244-.497.544v2.17c0 .3.222.544.497.544h1.99c.275 0 .498-.244.498-.544v-2.17c0-.3-.223-.544-.497-.544zM7.78 29.043h.995v-1.085H7.78v1.085z"/></g></symbol><symbol viewBox="0 0 31 31" id="ic-ava4" xmlns="http://www.w3.org/2000/svg"><defs><filter id="awb"><feColorMatrix in="SourceGraphic" values="0 0 0 0 0.30588236 0 0 0 0 0.34509805 0 0 0 0 0.972549 0 0 0 1 0"/></filter><path d="M0 0h30.943v30.943H0V0z" id="awa"/><clipPath id="awc"><use xlink:href="#awa"/></clipPath></defs><g filter="url(#awb)"><path d="M0 0h30.943v30.943H0V0z" fill-rule="evenodd"/><g clip-path="url(#awc)"><path d="M15.472 0a.687.687 0 0 0-.688.687v6.19a.687.687 0 1 0 1.375 0V.686A.687.687 0 0 0 15.472 0zM5.018 4.33c-.177 0-.35.07-.484.204a.68.68 0 0 0 0 .967l4.372 4.383c.27.269.71.269.979 0a.696.696 0 0 0 0-.978L5.501 4.534a.684.684 0 0 0-.483-.204zm20.907 0c-.176 0-.349.07-.483.204l-4.384 4.372a.694.694 0 0 0 0 .978c.268.269.71.269.979 0l4.372-4.383a.68.68 0 0 0 0-.967.684.684 0 0 0-.484-.204zM.687 14.784a.688.688 0 0 0 0 1.375h6.19a.687.687 0 1 0 0-1.375H.686zm23.38 0a.688.688 0 1 0 0 1.375h6.188a.688.688 0 1 0 0-1.375h-6.188zM9.39 20.864c-.176 0-.349.06-.484.194L4.534 25.44a.68.68 0 0 0 0 .967c.268.269.699.269.967 0l4.384-4.373a.695.695 0 0 0 0-.977.699.699 0 0 0-.495-.194zm12.163 0c-.177 0-.36.06-.495.194a.694.694 0 0 0 0 .977l4.384 4.373c.268.269.699.269.967 0a.682.682 0 0 0 0-.967l-4.372-4.383a.675.675 0 0 0-.484-.194zm-6.082 2.514a.688.688 0 0 0-.687.689v6.188a.688.688 0 1 0 1.375 0v-6.188a.688.688 0 0 0-.687-.689z" fill-rule="evenodd"/></g><path d="M15.607 11.413a4.2 4.2 0 0 1 4.195 4.195 4.2 4.2 0 0 1-4.195 4.194 4.2 4.2 0 0 1-4.195-4.194 4.2 4.2 0 0 1 4.195-4.195m0-1.37a5.564 5.564 0 1 0 0 11.128 5.564 5.564 0 0 0 0-11.128" fill-rule="evenodd"/></g></symbol><symbol viewBox="0 0 28 28" id="ic-ava5" xmlns="http://www.w3.org/2000/svg"><defs><filter id="axa"><feColorMatrix in="SourceGraphic" values="0 0 0 0 0.30588236 0 0 0 0 0.34509805 0 0 0 0 0.972549 0 0 0 1 0"/></filter></defs><g transform="translate(.125 .125)" filter="url(#axa)" fill-rule="evenodd"><path d="M13.843 27.686a2.714 2.714 0 1 1 0-5.429 2.714 2.714 0 0 1 0 5.429m0-3.62a.905.905 0 1 0 0 1.81.905.905 0 0 0 0-1.81"/><path d="M13.843 27.686a2.714 2.714 0 1 1 0-5.429 2.714 2.714 0 0 1 0 5.429zm0-3.62a.905.905 0 1 0 0 1.81.905.905 0 0 0 0-1.81zM27.484 5.329a.926.926 0 0 1-1.23.23 22.606 22.606 0 0 0-24.84 0 .925.925 0 0 1-1.23-.23L.167 5.31a.919.919 0 0 1 .225-1.282c.005-.005.011-.008.018-.013a24.475 24.475 0 0 1 26.863 0 .92.92 0 0 1 .257 1.277l-.013.018-.034.019z"/><path d="M27.484 5.329a.926.926 0 0 1-1.23.23 22.606 22.606 0 0 0-24.84 0 .925.925 0 0 1-1.23-.23L.167 5.31a.919.919 0 0 1 .225-1.282c.005-.005.011-.008.018-.013a24.475 24.475 0 0 1 26.863 0 .92.92 0 0 1 .257 1.277l-.013.018-.034.019zM23.415 11.572a.93.93 0 0 1-1.233.232 15.423 15.423 0 0 0-16.438 0 .93.93 0 0 1-1.233-.232v-.022a.91.91 0 0 1 .225-1.275l.018-.013a17.313 17.313 0 0 1 18.449 0c.424.28.54.85.256 1.27l-.013.018-.03.022z"/><path d="M23.415 11.572a.93.93 0 0 1-1.233.232 15.423 15.423 0 0 0-16.438 0 .93.93 0 0 1-1.233-.232v-.022a.91.91 0 0 1 .225-1.275l.018-.013a17.313 17.313 0 0 1 18.449 0c.424.28.54.85.256 1.27l-.013.018-.03.022zM19.083 17.539a.941.941 0 0 1-1.237.241 8.267 8.267 0 0 0-8.037 0 .941.941 0 0 1-1.237-.241v-.019a.893.893 0 0 1 .328-1.302 10.179 10.179 0 0 1 9.917 0c.44.256.586.812.325 1.242l-.04.06-.019.019z"/><path d="M19.083 17.539a.941.941 0 0 1-1.237.241 8.267 8.267 0 0 0-8.037 0 .941.941 0 0 1-1.237-.241v-.019a.893.893 0 0 1 .328-1.302 10.179 10.179 0 0 1 9.917 0c.44.256.586.812.325 1.242l-.04.06-.019.019z"/></g></symbol><symbol viewBox="0 0 35 31" id="ic-ava6" xmlns="http://www.w3.org/2000/svg"><path d="M19.128 4.712a.492.492 0 0 1-.367.174h-2.78a.492.492 0 0 1-.366-.174.518.518 0 0 1-.144-.37c0-.145.048-.275.144-.39a.526.526 0 0 1 .366-.152h2.78c.15 0 .271.05.367.151a.6.6 0 0 1 .143.391.518.518 0 0 1-.143.37zm0 2.194a.483.483 0 0 1-.367.151h-2.78a.525.525 0 0 1-.366-.151.548.548 0 0 1-.144-.391c0-.145.048-.269.144-.37a.494.494 0 0 1 .366-.174h2.78c.136 0 .26.058.367.174a.518.518 0 0 1 .143.37.548.548 0 0 1-.143.39zM34.041.143a.51.51 0 0 1 .159.366v12.776a.512.512 0 0 1-.159.366.452.452 0 0 1-.337.141.521.521 0 0 1-.357-.141.507.507 0 0 1-.139-.366v-2.34h-9.516V23.62h9.516v-8.097c0-.135.047-.251.14-.346a.484.484 0 0 1 .356-.162c.133 0 .246.053.338.162a.45.45 0 0 1 .158.346v14.912a.512.512 0 0 1-.159.366.453.453 0 0 1-.337.143H14.771a.52.52 0 0 1-.357-.143.502.502 0 0 1-.14-.366c0-.136.047-.251.14-.346a.484.484 0 0 1 .357-.163h18.437v-5.29H.992v5.29h11.42c.132 0 .244.054.337.163.105.095.159.21.159.346a.516.516 0 0 1-.16.366.455.455 0 0 1-.336.143H.496a.524.524 0 0 1-.357-.143.506.506 0 0 1-.139-.366V7.1c0-.135.047-.258.139-.367a.521.521 0 0 1 .357-.142c.132 0 .245.048.337.142a.514.514 0 0 1 .159.367v2.828h10.467V1.017H.992V4.8a.51.51 0 0 1-.16.366.45.45 0 0 1-.336.142.522.522 0 0 1-.357-.142A.504.504 0 0 1 0 4.8V.509C0 .373.047.25.139.143A.522.522 0 0 1 .496 0h33.208c.132 0 .245.048.337.143zM29.895 3.8a.45.45 0 0 1 .343.152.555.555 0 0 1 .162.391.483.483 0 0 1-.162.369.426.426 0 0 1-.343.174h-2.788a.428.428 0 0 1-.345-.174.486.486 0 0 1-.162-.369c0-.145.054-.276.162-.39a.453.453 0 0 1 .345-.153h2.788zm.343 2.345a.483.483 0 0 1 .162.37.555.555 0 0 1-.162.39.45.45 0 0 1-.343.152h-2.788a.452.452 0 0 1-.345-.151.563.563 0 0 1-.162-.391c0-.145.054-.269.162-.37a.428.428 0 0 1 .345-.174h2.788a.423.423 0 0 1 .343.174zm-6.624 3.626h9.5V.814h-9.5v8.957zm6.624 8.262a.45.45 0 0 1-.343.153h-2.788a.453.453 0 0 1-.345-.152.559.559 0 0 1-.162-.391.49.49 0 0 1 .162-.37.428.428 0 0 1 .345-.173h2.788c.135 0 .25.058.343.173a.484.484 0 0 1 .162.37.554.554 0 0 1-.162.39zm-11.11.001a.484.484 0 0 1-.367.152h-2.78a.525.525 0 0 1-.366-.152.548.548 0 0 1-.144-.39c0-.145.048-.27.144-.37a.494.494 0 0 1 .366-.174h2.78c.136 0 .26.057.367.174a.518.518 0 0 1 .143.37c0 .158-.047.29-.143.39zm-6.642 5.58H22.8V10.857H12.486v12.757zm0-13.843H22.8V.814H12.486v8.957zM8.143 4.342a.522.522 0 0 1-.143.37.494.494 0 0 1-.368.174h-2.78a.493.493 0 0 1-.367-.174.522.522 0 0 1-.142-.37c0-.145.047-.275.142-.39a.527.527 0 0 1 .368-.152h2.779c.15 0 .273.05.368.151a.605.605 0 0 1 .143.391zM4.485 6.906a.552.552 0 0 1-.142-.391c0-.145.047-.269.142-.37a.496.496 0 0 1 .368-.174h2.779c.136 0 .258.058.368.174a.523.523 0 0 1 .143.37c0 .159-.049.29-.143.39a.484.484 0 0 1-.368.152h-2.78a.529.529 0 0 1-.367-.151zm-3.4 16.708H11.4V10.857H1.086v12.757zm3.4-5.58a.552.552 0 0 1-.142-.39c0-.145.047-.27.142-.37a.496.496 0 0 1 .368-.174h2.779c.136 0 .258.057.368.174a.522.522 0 0 1 .143.37c0 .158-.049.29-.143.39a.484.484 0 0 1-.368.152h-2.78a.529.529 0 0 1-.367-.152z" fill-rule="evenodd"/></symbol><symbol viewBox="0 0 22 18" id="ic-ava7" xmlns="http://www.w3.org/2000/svg"><defs><filter id="aza"><feColorMatrix in="SourceGraphic" values="0 0 0 0 0.30588236 0 0 0 0 0.34509805 0 0 0 0 0.972549 0 0 0 1 0"/></filter></defs><g filter="url(#aza)" fill-rule="evenodd"><path d="M17.746 14.796c1.096 0 1.678.215 1.957.873.162.38.21.998.21.998H1.265c.101-1.451.632-1.871 2.16-1.871h14.321zM0 17.29c0 .345.279.624.622.624h19.927a.623.623 0 0 0 .622-.624c0-2.605-.96-3.742-3.425-3.742H3.424C.96 13.548 0 14.685 0 17.29zM10.586 3.257c-5.833 0-9.341 3.477-9.341 8.42 0 .344.28.624.623.624h17.435c.344 0 .623-.28.623-.624 0-4.943-3.508-8.42-9.34-8.42zm-7.952 6.857c.647-3.388 3.463-5.61 7.952-5.61 4.894 0 7.799 2.641 8.073 6.55H2.509s.03-.443.125-.94z"/><path d="M9.975 1.253v2.192c0 .345.273.626.61.626a.62.62 0 0 0 .612-.626V1.253h1.22c.338 0 .612-.28.612-.627A.619.619 0 0 0 12.418 0H8.753a.619.619 0 0 0-.61.626c0 .347.273.627.61.627h1.222z"/></g></symbol><symbol viewBox="0 0 25 25" id="ic-ava8" xmlns="http://www.w3.org/2000/svg"><defs><filter id="bab"><feColorMatrix in="SourceGraphic" values="0 0 0 0 0.30588236 0 0 0 0 0.34509805 0 0 0 0 0.972549 0 0 0 1 0"/></filter><path d="M0 0h24.157v24.971H0V0z" id="baa"/><clipPath id="bac"><use xlink:href="#baa"/></clipPath></defs><g filter="url(#bab)"><path d="M0 0h24.157v24.971H0V0z" fill-rule="evenodd"/><g clip-path="url(#bac)"><path d="M23.44 24.971H.717A.718.718 0 0 1 0 24.253V3.498c0-.397.322-.718.717-.718H23.44c.396 0 .717.321.717.718v20.755c0 .397-.32.718-.717.718zM1.434 23.535h21.289V4.217H1.434v19.318zM23.365 9.649H.787a.717.717 0 1 1 0-1.436h22.578a.718.718 0 0 1 0 1.436zM4.694 6.94a.719.719 0 0 1-.718-.718V.718a.718.718 0 0 1 1.434 0v5.503c0 .397-.32.718-.716.718zm15.065 0a.718.718 0 0 1-.718-.718V.718a.718.718 0 1 1 1.435 0v5.503c0 .397-.32.718-.717.718zM10.85 19.76a.718.718 0 0 1-.507-.21L7.89 17.09a.717.717 0 1 1 1.014-1.015l1.947 1.951 4.403-4.41a.717.717 0 1 1 1.015 1.017l-4.91 4.916a.715.715 0 0 1-.508.211z" fill-rule="evenodd"/></g></g></symbol><symbol viewBox="0 0 30 18" id="ic-ava9" xmlns="http://www.w3.org/2000/svg"><defs><filter id="bbb"><feColorMatrix in="SourceGraphic" values="0 0 0 0 0 0 0 0 0 0.98039216 0 0 0 0 0.5137255 0 0 0 1 0"/></filter><path d="M0 0h29.857v17.643H0V0z" id="bba"/><clipPath id="bbc"><use xlink:href="#bba"/></clipPath></defs><g filter="url(#bbb)"><path d="M0 0h29.857v17.643H0V0z" fill-rule="evenodd"/><g clip-path="url(#bbc)"><path d="M24.143 6.226c-.53 0-1.043.079-1.53.214l-1.738-4.525h3.406a1.005 1.005 0 0 1 0 2.008.54.54 0 0 0 0 1.08c1.15 0 2.087-.934 2.087-2.084S25.432.835 24.28.835H20.09l-.029.002c-.023.002-.047.003-.07.007-.02.004-.038.01-.057.016l-.038.01-.006.004c-.02.008-.04.02-.06.03-.012.007-.025.012-.036.02-.016.01-.03.023-.045.035L19.71.99c-.012.012-.023.026-.034.04l-.032.04c-.01.014-.018.031-.027.048-.008.014-.017.027-.023.04-.007.018-.012.034-.016.051-.006.017-.012.034-.016.05-.004.015-.004.03-.006.044a.412.412 0 0 0-.006.063l-.001.009c0 .012.003.025.004.038 0 .02.002.04.005.06a.5.5 0 0 0 .017.06c.003.011.005.023.01.035l.835 2.177-8.825.165-.895-2.83h1.828a.54.54 0 1 0 0-1.08H8.371a.54.54 0 0 0 0 1.08h1.195l1.009 3.188-1.952 2.677a5.669 5.669 0 0 0-2.91-.804A5.719 5.719 0 0 0 0 11.85a5.717 5.717 0 0 0 5.714 5.707A5.717 5.717 0 0 0 11.4 12.39h.537c.1.329.3.61.57.81l-.315 1.056a.54.54 0 0 0 1.036.307l.315-1.056a1.57 1.57 0 0 0 1.354-2.204l6.042-6.207.665 1.732a5.71 5.71 0 0 0-3.174 5.107c0 3.147 2.564 5.708 5.714 5.708 3.15 0 5.713-2.56 5.713-5.708a5.718 5.718 0 0 0-5.713-5.709zM10.98 5.548l1.6 5.063a1.6 1.6 0 0 0-.588.699H11.4a5.687 5.687 0 0 0-1.904-3.728l1.484-2.034zm-.668 5.762H6.777l2.08-2.851a4.614 4.614 0 0 1 1.455 2.851zM5.714 16.48A4.635 4.635 0 0 1 1.08 11.85a4.635 4.635 0 0 1 4.633-4.628c.825 0 1.599.219 2.27.598l-2.707 3.712a.54.54 0 1 0 .436.858h4.6a4.636 4.636 0 0 1-4.6 4.089zm7.732-4.043a.503.503 0 1 1 0-1.005.503.503 0 0 1 0 1.005zm1.11-2.332l.146-.49a.54.54 0 1 0-1.037-.308l-.176.593-1.554-4.915 7.745-.144-5.124 5.264zm9.588 6.459a4.636 4.636 0 0 1-4.634-4.629 4.63 4.63 0 0 1 2.482-4.095l1.646 4.289a.541.541 0 0 0 1.01-.387l-1.646-4.287a4.632 4.632 0 0 1 1.142-.148 4.636 4.636 0 0 1 4.633 4.628 4.636 4.636 0 0 1-4.634 4.629z" fill-rule="evenodd"/></g></g></symbol><symbol viewBox="0 0 36 36" id="img" xmlns="http://www.w3.org/2000/svg"><path d="M14.794 10.519a4.275 4.275 0 1 1 8.55 0 4.275 4.275 0 0 1-8.55 0zm2.137 0a2.137 2.137 0 1 0 4.275 0 2.137 2.137 0 0 0-4.275 0zM35.1 1.969V34.03c0 .59-.478 1.069-1.069 1.069H1.97A1.068 1.068 0 0 1 .9 34.031V1.97C.9 1.379 1.378.9 1.969.9H34.03c.59 0 1.069.478 1.069 1.069zm-6.85 30.993L13.724 18.438 3.038 29.126v3.836zm4.712-5.974l-8.55-8.55-3.836 3.837 10.687 10.688h1.7zm0-23.95H3.037v23.074l9.94-9.929a1.069 1.069 0 0 1 1.507 0l4.585 4.585 4.595-4.585a1.069 1.069 0 0 1 1.507 0l7.792 7.791z"/></symbol><symbol viewBox="0 0 20 15" id="message" xmlns="http://www.w3.org/2000/svg"><path d="M18.4 13.5H1.6V2.1l8.046 5.898a.6.6 0 0 0 .708 0L18.4 2.1zm-1.23-12L10 6.756 2.83 1.5zM19 .3H1a.6.6 0 0 0-.6.6v13.2a.6.6 0 0 0 .6.6h18a.6.6 0 0 0 .6-.6V.9a.6.6 0 0 0-.6-.6z"/></symbol><symbol viewBox="0 0 52 57" id="play" xmlns="http://www.w3.org/2000/svg"><path d="M51.808 28.808l-51.2 28v-56z"/></symbol></svg>