<?xml version="1.0" encoding="utf-8"?>
<svg width="83px" height="83px" viewBox="0 0 83 83" version="1.1" xmlns:xlink="http://www.w3.org/1999/xlink" xmlns="http://www.w3.org/2000/svg">
  <path d="M0 10.3457L1.85107 8.49453L12.985 12.9871L8.49268 1.85118L10.3438 0L19.8726 9.52938L18.3747 11.0274L11.5957 4.24795L15.4888 13.912L13.9112 15.4911L4.30131 11.6252L11.024 18.3771L9.52884 19.8751L0 10.3457Z" transform="translate(0 62.797302)" id="Fill-13" fill="#1D1D1B" fill-rule="evenodd" stroke="none" />
  <path d="M6.76999 7.20465C7.64124 6.33335 7.6275 5.06762 6.63394 4.074L6.32062 3.76066L5.23224 5.28613C4.66056 6.10109 4.26616 6.93254 4.86395 7.53036C5.3408 8.00724 6.08975 7.88493 6.76999 7.20465M3.88413 4.37222L5.14978 2.58976L4.90655 2.34376C4.34724 1.78717 3.43476 1.77343 2.59236 2.61725C1.67988 3.52841 1.76096 4.56325 2.67344 5.33973L1.1618 6.63294C-0.606821 5.02639 -0.18631 2.86187 1.28548 1.39275C3.08021 -0.404833 4.97251 -0.39109 6.39071 1.02444L10.8129 5.4483L9.41124 6.85008L8.64855 6.08872C8.86705 6.87757 8.731 7.9399 7.83089 8.83732C6.28077 10.3889 4.552 10.0494 3.62577 9.12317C2.31889 7.81759 2.53739 6.26463 3.88413 4.37222" transform="translate(16.007812 59.92926)" id="Fill-15" fill="#1D1D1B" fill-rule="evenodd" stroke="none" />
  <path d="M2.58011 4.06019L4.07664 2.56358L10.6646 9.15196L9.16675 10.6486L2.58011 4.06019ZM0.38686 0.397688C0.918683 -0.132791 1.78856 -0.132791 2.32039 0.399062C2.85084 0.929541 2.85084 1.80085 2.32176 2.33132C1.80368 2.84943 0.932425 2.84943 0.400602 2.31758C-0.131221 1.7871 -0.131221 0.915798 0.38686 0.397688L0.38686 0.397688Z" transform="translate(19.310547 53.07184)" id="Fill-17" fill="#1D1D1B" fill-rule="evenodd" stroke="none" />
  <path d="M7.06487 11.6527C8.16837 10.5491 8.07355 8.93019 6.87523 7.7318C5.70439 6.5609 4.05808 6.43858 2.95596 7.54214C1.83871 8.65807 1.94728 10.3182 3.11949 11.4891C4.31643 12.6861 5.93664 12.7823 7.06487 11.6527M1.1997 6.41247C2.16715 5.44497 3.28302 5.11788 4.35629 5.21271L0.641769 1.49661L2.13829 0L11.6671 9.52938L10.1706 11.026L9.39417 10.2495C9.50136 11.338 9.16193 12.4415 8.19448 13.4076C6.39975 15.2039 3.59497 14.9592 1.62159 12.9857C-0.310565 11.0521 -0.596402 8.20868 1.1997 6.41247" transform="translate(26.37793 44.62439)" id="Fill-19" fill="#1D1D1B" fill-rule="evenodd" stroke="none" />
  <path d="M5.66539 2.34267C4.87659 1.60742 3.60956 1.62116 2.65723 2.57355C1.75849 3.47234 1.64855 4.69684 2.24908 5.75917L5.66539 2.34267ZM1.36271 1.28171C3.17531 -0.529617 5.63791 -0.379818 7.48761 1.46999L8.18296 2.16538L3.35121 6.99879C4.64435 7.96354 6.07354 7.8962 7.12069 6.84761C7.96584 6.00379 8.11425 4.79304 7.42027 3.82691L9.06796 2.69586C10.2786 4.37113 9.99281 6.64284 8.42758 8.20954C6.41434 10.2229 3.59582 10.047 1.6087 8.05974C-0.366056 6.08625 -0.609292 3.2552 1.36271 1.28171L1.36271 1.28171Z" transform="translate(34.47119 41.497253)" id="Fill-21" fill="#1D1D1B" fill-rule="evenodd" stroke="none" />
  <path d="M0 4.71782L1.4979 3.22121L2.19188 3.91523C2.09569 2.92023 2.41038 1.90051 3.294 1.01546C4.75068 -0.441297 6.57427 -0.305242 8.14088 1.26008L12.3872 5.50804L10.8893 7.00465L6.92881 3.04392C5.94762 2.06267 5.02277 1.98159 4.16526 2.83915C3.25278 3.75168 3.35035 5.07238 4.51981 6.24191L8.08591 9.80959L6.58938 11.3062L0 4.71782Z" transform="translate(40.499023 33.803467)" id="Fill-23" fill="#1D1D1B" fill-rule="evenodd" stroke="none" />
  <path d="M0 1.77668L1.49653 0.280068L5.12996 3.91371C5.03652 2.92147 5.34984 1.90036 6.23346 1.01532C7.69151 -0.441439 9.51372 -0.305383 11.079 1.26132L15.3253 5.50789L13.8288 7.00451L9.86827 3.04241C8.88845 2.06253 7.96223 1.98145 7.10472 2.83901C6.19361 3.75154 6.28843 5.07087 7.45926 6.24177L11.024 9.80807L9.52884 11.3061L0 1.77668Z" transform="translate(45.015137 26.348022)" id="Fill-25" fill="#1D1D1B" fill-rule="evenodd" stroke="none" />
  <path d="M5.66402 2.34252C4.87522 1.60727 3.60819 1.62238 2.65585 2.57477C1.75849 3.47219 1.64855 4.69669 2.24771 5.75902L5.66402 2.34252ZM1.36271 1.28156C3.17393 -0.529766 5.63654 -0.379967 7.48761 1.47121L8.18296 2.16661L3.34983 6.99864C4.64435 7.96477 6.07216 7.89605 7.12207 6.84746C7.96446 6.00364 8.11425 4.79289 7.4189 3.82676L9.06796 2.69708C10.2773 4.37098 9.99281 6.64407 8.42758 8.20939C6.41297 10.2241 3.59445 10.0468 1.6087 8.05959C-0.366056 6.0861 -0.609292 3.25505 1.36271 1.28156L1.36271 1.28156Z" transform="translate(56.769043 19.198608)" id="Fill-27" fill="#1D1D1B" fill-rule="evenodd" stroke="none" />
  <path d="M6.76917 7.20465C7.6418 6.33335 7.62806 5.06762 6.63312 4.074L6.32117 3.76066L5.23142 5.28613C4.65974 6.10247 4.26534 6.93254 4.86313 7.53173C5.33998 8.00724 6.0903 7.88493 6.76917 7.20465M3.88331 4.3736L5.15034 2.59114L4.90435 2.34514C4.34642 1.78717 3.43531 1.77343 2.59017 2.61725C1.67906 3.52978 1.76014 4.56463 2.674 5.3411L1.16235 6.63294C-0.607641 5.02777 -0.185756 2.86325 1.28603 1.39275C3.08076 -0.404833 4.97306 -0.39109 6.38988 1.02444L10.8121 5.4483L9.41042 6.85146L8.64773 6.08872C8.86623 6.87757 8.72881 7.9399 7.83144 8.83732C6.28132 10.3889 4.55255 10.0494 3.62633 9.12317C2.31945 7.81759 2.53657 6.26601 3.88331 4.3736" transform="translate(63.785645 12.148865)" id="Fill-29" fill="#1D1D1B" fill-rule="evenodd" stroke="none" />
  <path d="M7.06671 11.6527C8.17021 10.5505 8.07401 8.93019 6.87569 7.7318C5.70623 6.5609 4.05854 6.43996 2.95779 7.54214C1.84055 8.65807 1.94774 10.3182 3.11995 11.4891C4.31827 12.6875 5.9371 12.7823 7.06671 11.6527M1.20017 6.41247C2.16762 5.44634 3.28211 5.11926 4.35812 5.21408L0.642232 1.49798L2.13876 0L11.6676 9.52938L10.1711 11.026L9.39464 10.2509C9.5032 11.3393 9.16239 12.4429 8.19632 13.409C6.40021 15.2052 3.5968 14.9606 1.62205 12.9871C-0.311476 11.0535 -0.59594 8.21005 1.20017 6.41247" transform="translate(70.99805 0)" id="Fill-31" fill="#1D1D1B" fill-rule="evenodd" stroke="none" />
</svg>