<?xml version="1.0" encoding="utf-8"?>
<svg width="92px" height="94px" viewBox="0 0 92 94" version="1.1" xmlns:xlink="http://www.w3.org/1999/xlink" xmlns="http://www.w3.org/2000/svg">
  <defs>
    <path d="M0 0L9.7956 0L9.7956 13.416L0 13.416L0 0Z" id="path_1" />
    <clipPath id="mask_1">
      <use xlink:href="#path_1" />
    </clipPath>
  </defs>
  <path d="M2.02884 1.87101C4.17812 -0.279765 6.99527 -0.565619 9.25586 0.958477L8.34475 2.79729C6.80563 1.72121 4.92707 1.85727 3.45665 3.32777C1.51076 5.27515 1.72789 8.1062 3.58033 9.95738C5.77084 12.1494 8.60173 12.2854 10.6301 10.257C12.1953 8.69165 12.4812 6.39107 11.0932 4.67595L12.8769 3.51879C14.7953 5.92794 14.4271 9.34444 12.1005 11.6711C9.1473 14.6259 5.10297 14.4761 2.25971 11.6326C-0.558815 8.81396 -0.858395 4.75704 2.02884 1.87101" transform="translate(0 79.94159)" id="Fill-373" fill="#1D1D1B" fill-rule="evenodd" stroke="none" />
  <path d="M6.76862 7.20465C7.64124 6.33335 7.6275 5.06762 6.63394 4.074L6.32062 3.76066L5.23086 5.28613C4.65919 6.10109 4.26479 6.93254 4.86257 7.53036C5.3408 8.00724 6.08975 7.88493 6.76862 7.20465M3.88275 4.37222L5.14978 2.58976L4.90517 2.34376C4.34724 1.78717 3.43476 1.77343 2.59099 2.61725C1.67988 3.52841 1.75958 4.56325 2.67344 5.33973L1.1618 6.63294C-0.606821 5.02639 -0.18631 2.86325 1.28548 1.39275C3.08021 -0.404833 4.97251 -0.39109 6.38933 1.02444L10.8116 5.4483L9.40987 6.85008L8.64717 6.08872C8.86567 6.87757 8.72963 7.9399 7.83089 8.83732C6.28077 10.3889 4.552 10.0494 3.62577 9.12317C2.31889 7.81759 2.53602 6.26601 3.88275 4.37222" transform="translate(12.008789 75.03613)" id="Fill-375" fill="#1D1D1B" fill-rule="evenodd" stroke="none" />
  <path d="M0 4.71782L1.4979 3.22121L2.19188 3.91523C2.09569 2.92023 2.41038 1.90051 3.294 1.01546C4.75068 -0.441297 6.57427 -0.305242 8.14088 1.26008L12.3872 5.50804L10.8893 7.00465L6.92881 3.04392C5.94762 2.06267 5.02277 1.98159 4.16526 2.83915C3.25278 3.75168 3.35035 5.07238 4.51981 6.24191L8.08591 9.80959L6.58938 11.3062L0 4.71782Z" transform="translate(17.888672 67.52167)" id="Fill-377" fill="#1D1D1B" fill-rule="evenodd" stroke="none" />
  <path d="M6.76862 7.20465C7.64124 6.33335 7.6275 5.06762 6.63394 4.074L6.32062 3.76066L5.23086 5.28613C4.65919 6.10109 4.26479 6.93254 4.86257 7.53036C5.3408 8.00724 6.08975 7.88493 6.76862 7.20465M3.88275 4.37222L5.14978 2.58976L4.90517 2.34376C4.34724 1.78717 3.43476 1.77343 2.59099 2.61725C1.67988 3.52841 1.75958 4.56325 2.67344 5.33973L1.1618 6.63157C-0.606821 5.02639 -0.18631 2.86187 1.28548 1.39275C3.08021 -0.404833 4.97251 -0.39109 6.38933 1.02444L10.8116 5.4483L9.40987 6.85008L8.64717 6.08872C8.86567 6.87757 8.72963 7.9399 7.83089 8.83732C6.28077 10.3889 4.552 10.0494 3.62577 9.12317C2.31889 7.81621 2.53602 6.26463 3.88275 4.37222" transform="translate(26.333496 60.710632)" id="Fill-379" fill="#1D1D1B" fill-rule="evenodd" stroke="none" />
  <path d="M0 4.24045L1.49653 2.74384L2.12317 3.36915C1.97475 2.4841 2.21799 1.58531 2.98068 0.823947C4.17763 -0.37444 5.83906 -0.373066 7.65028 1.54545L6.39699 3.26058C6.31591 3.15063 6.21972 3.05581 6.14001 2.97472C5.28113 2.11716 4.50469 2.07593 3.89316 2.68887C3.18407 3.39663 3.26652 4.51256 4.44972 5.69721L8.08591 9.33222L6.58801 10.8288L0 4.24045Z" transform="translate(32.214844 53.672974)" id="Fill-381" fill="#1D1D1B" fill-rule="evenodd" stroke="none" />
  <path d="M7.85367 11.7612C8.88983 12.9047 10.1692 12.7686 11.0927 11.8437C12.1825 10.7539 12.1426 9.24215 10.9031 8.00391L9.94935 7.05015C10.0593 8.08637 9.73222 9.11984 8.83348 10.0186C7.36444 11.4878 5.51337 11.3531 3.93439 9.774L0 5.89436L1.4979 4.39638L5.11897 8.01765C6.1249 9.02501 7.06486 9.09235 7.9636 8.19356C8.90219 7.25492 8.806 5.90673 7.6228 4.72209L4.39613 1.49661L5.89403 0L12.3474 6.45233C14.3056 8.41208 14.4142 11.1882 12.4271 13.1768C10.6584 14.9455 8.24807 15.1777 6.62786 13.3664L7.85367 11.7612Z" transform="translate(38.499023 45.73413)" id="Fill-383" fill="#1D1D1B" fill-rule="evenodd" stroke="none" />
  <path d="M1.53775 10.6453L10.6708 16.104L5.28113 6.90172L6.89996 5.28142L16.2117 10.7539L10.6584 1.5241L12.1811 0L19.2597 11.9798L17.4485 13.7897L8.53253 8.52202L13.8013 17.4385L11.9777 19.2622L0 12.1831L1.53775 10.6453Z" transform="translate(45.93994 26.124268)" id="Fill-385" fill="#1D1D1B" fill-rule="evenodd" stroke="none" />
  <path d="M0 1.77682L1.4979 0.278835L5.13134 3.91385C5.03789 2.92023 5.35121 1.89913 6.23483 1.01546C7.69288 -0.441297 9.5151 -0.305242 11.0803 1.26008L15.3267 5.50666L13.8301 7.00327L9.86965 3.04255C8.88983 2.06267 7.9636 1.98159 7.10609 2.83915C6.19498 3.75168 6.2898 5.07101 7.46064 6.24191L11.0254 9.80821L9.52884 11.3062L0 1.77682Z" transform="translate(59.134277 23.334045)" id="Fill-387" fill="#1D1D1B" fill-rule="evenodd" stroke="none" />
  <path d="M6.77054 7.20465C7.6418 6.33335 7.62806 5.06762 6.63312 4.074L6.32117 3.76066L5.23279 5.28613C4.66112 6.10247 4.26672 6.93254 4.8645 7.53173C5.33998 8.00724 6.0903 7.88493 6.77054 7.20465M3.88468 4.3736L5.15034 2.59114L4.90573 2.34514C4.34642 1.78717 3.43531 1.77343 2.59154 2.61725C1.67906 3.52978 1.76151 4.56463 2.674 5.3411L1.16235 6.63294C-0.607641 5.02777 -0.185756 2.86325 1.28603 1.39275C3.08214 -0.404833 4.97444 -0.39109 6.38988 1.02444L10.8121 5.4483L9.41179 6.85146L8.6491 6.08872C8.86623 6.87757 8.73018 7.9399 7.83144 8.83732C6.28132 10.3889 4.55255 10.0494 3.62633 9.12317C2.32082 7.81759 2.53795 6.26601 3.88468 4.3736" transform="translate(70.518555 16.521729)" id="Fill-389" fill="#1D1D1B" fill-rule="evenodd" stroke="none" />
  <path d="M0 4.24045L1.4979 2.74247L2.12317 3.36915C1.97475 2.4841 2.21936 1.58531 2.98068 0.823947C4.179 -0.37444 5.83906 -0.373066 7.64891 1.54545L6.39837 3.26058C6.31591 3.15063 6.21972 3.05581 6.13864 2.97472C5.2825 2.11716 4.50469 2.07593 3.89179 2.68887C3.18407 3.39663 3.26652 4.51256 4.44972 5.69583L8.08591 9.33085L6.58801 10.8288L0 4.24045Z" transform="translate(76.40039 9.484741)" id="Fill-391" fill="#1D1D1B" fill-rule="evenodd" stroke="none" />
  <g id="Group-395" transform="translate(81.586426 0)">
    <path d="M0 0L9.7956 0L9.7956 13.416L0 13.416L0 0Z" id="Clip-394" fill="none" fill-rule="evenodd" stroke="none" />
    <g clip-path="url(#mask_1)">
      <path d="M0.595471 7.94354L1.71134 6.82761L1.16715 6.28339C-0.356863 4.75929 -0.425574 2.67586 1.18089 1.06931C2.58122 -0.332478 4.36633 -0.318735 5.71306 0.892021L4.66454 2.56592C3.95681 1.83204 3.14053 1.83067 2.54137 2.42986C1.88724 3.08403 1.8625 3.98282 2.58259 4.70432L3.20924 5.32963L6.51698 2.02169L7.82387 3.32865L4.51612 6.63658L9.79587 11.918L8.29797 13.416L3.01822 8.13457L1.90235 9.2505L0.595471 7.94354Z" id="Fill-393" fill="#1D1D1B" fill-rule="evenodd" stroke="none" />
    </g>
  </g>
</svg>