<?xml version="1.0" encoding="utf-8"?>
<svg width="97px" height="90px" viewBox="0 0 97 90" version="1.1" xmlns:xlink="http://www.w3.org/1999/xlink" xmlns="http://www.w3.org/2000/svg">
  <path d="M1.53775 10.6453L10.6708 16.104L5.2825 6.90172L6.89996 5.2828L16.2117 10.7539L10.6584 1.52547L12.1825 0L19.2597 11.9798L17.4498 13.7911L8.53528 8.52202L13.8027 17.4385L11.9791 19.2622L0 12.1831L1.53775 10.6453Z" transform="translate(0 70.63788)" id="Fill-73" fill="#1D1D1B" fill-rule="evenodd" stroke="none" />
  <path d="M5.66416 2.34252C4.87536 1.60727 3.6097 1.62101 2.65737 2.5734C1.75726 3.47219 1.64732 4.69669 2.24923 5.75902L5.66416 2.34252ZM1.36285 1.28156C3.17408 -0.529766 5.6353 -0.379967 7.48775 1.47121L8.18311 2.16661L3.34998 6.99864C4.64312 7.96477 6.07231 7.89605 7.12083 6.84746C7.96461 6.00364 8.11302 4.79289 7.42041 3.82676L9.06673 2.69571C10.2774 4.37098 9.99158 6.64407 8.42772 8.20939C6.41174 10.2241 3.59459 10.0468 1.60747 8.05959C-0.365914 6.0861 -0.609151 3.25505 1.36285 1.28156L1.36285 1.28156Z" transform="translate(16.788574 68.8609)" id="Fill-75" fill="#1D1D1B" fill-rule="evenodd" stroke="none" />
  <path d="M3.96785 6.79564C4.96141 7.48966 6.07728 7.48966 6.96365 6.60461C7.77856 5.78828 7.87476 5.01317 7.43775 4.57615C7.07084 4.20921 6.48542 4.16798 5.26099 5.17534C3.47863 6.63209 1.89827 6.65958 0.728814 5.48868C-0.414537 4.34526 -0.183668 2.48034 1.21804 1.07718C2.38887 -0.0923437 4.18498 -0.364455 5.73647 0.532962L4.85422 2.20823C4.03519 1.71898 3.23264 1.83992 2.60737 2.4666C2.0357 3.03831 1.84468 3.6375 2.2116 4.00444C2.53729 4.33152 2.97291 4.38649 3.98159 3.56878C5.96734 1.93612 7.58892 1.81381 8.82572 3.05205C10.1463 4.37275 9.92921 6.38747 8.33787 7.97891C6.77126 9.54423 4.59312 9.68166 2.83824 8.46953L3.96785 6.79564Z" transform="translate(23.80371 62.165955)" id="Fill-77" fill="#1D1D1B" fill-rule="evenodd" stroke="none" />
  <path d="M0.788802 5.88062L1.93215 4.7372L0 2.80494L1.49653 1.30696L3.42868 3.24059L6.66771 0L7.9746 1.30696L4.73556 4.54618L7.7451 7.55451C8.47894 8.28976 9.26911 8.26228 9.90812 7.62323C10.5623 6.96906 10.4661 6.03042 9.51372 5.21408L11.0776 3.92087C12.7816 5.45734 12.7266 7.52703 11.3236 8.93019C9.70336 10.5491 7.77121 10.5766 6.20598 9.01127L3.23766 6.04416L2.09431 7.18758L0.788802 5.88062Z" transform="translate(27.713867 54.317688)" id="Fill-79" fill="#1D1D1B" fill-rule="evenodd" stroke="none" />
  <path d="M11.4871 9.95645C13.2571 8.18635 13.1485 5.57381 11.2562 3.68141C9.36393 1.789 6.72268 1.65294 4.95406 3.42304L2.99305 5.38279L9.52746 11.9162L11.4871 9.95645ZM0 5.38279L3.4699 1.91131C6.17849 -0.797429 10.1404 -0.539061 12.8077 2.12982C15.4751 4.79734 15.706 8.73195 12.9987 11.4407L9.52746 14.9108L0 5.38279Z" transform="translate(36.433105 41.004456)" id="Fill-81" fill="#1D1D1B" fill-rule="evenodd" stroke="none" />
  <path d="M0 4.24045L1.4979 2.74384L2.12317 3.36915C1.97475 2.4841 2.21936 1.58531 2.98068 0.823947C4.179 -0.37444 5.83906 -0.373066 7.64891 1.54545L6.39837 3.26058C6.31591 3.15063 6.21972 3.05581 6.13864 2.97472C5.2825 2.11716 4.50469 2.07593 3.89179 2.68887C3.18407 3.39663 3.26652 4.51256 4.44972 5.69721L8.08453 9.33222L6.58801 10.8288L0 4.24045Z" transform="translate(48.827637 35.63202)" id="Fill-83" fill="#1D1D1B" fill-rule="evenodd" stroke="none" />
  <path d="M6.76999 7.20465C7.64124 6.33335 7.6275 5.06762 6.63394 4.074L6.32062 3.76066L5.23361 5.28476C4.66056 6.10109 4.26616 6.93254 4.86395 7.53036C5.3408 8.00724 6.08975 7.88493 6.76999 7.20465M3.88413 4.37222L5.14978 2.58976L4.90655 2.34376C4.34724 1.78717 3.43476 1.77343 2.59236 2.61725C1.67988 3.52841 1.76096 4.56325 2.67344 5.33973L1.1618 6.63157C-0.606821 5.02639 -0.18631 2.86187 1.28548 1.39275C3.08021 -0.404833 4.97388 -0.39109 6.39071 1.02444L10.8129 5.4483L9.41124 6.85008L8.64855 6.08872C8.86705 6.87757 8.731 7.9399 7.83089 8.83732C6.28077 10.3889 4.552 10.0494 3.62577 9.12317C2.32027 7.81621 2.53739 6.26463 3.88413 4.37222" transform="translate(55.978027 29.635986)" id="Fill-85" fill="#1D1D1B" fill-rule="evenodd" stroke="none" />
  <path d="M7.85367 11.7612C8.88708 12.9047 10.1679 12.7686 11.0927 11.8437C12.1811 10.7539 12.1399 9.24215 10.9031 8.00391L9.94935 7.05015C10.0579 8.08637 9.73085 9.11984 8.83211 10.0186C7.36307 11.4878 5.512 11.3531 3.93164 9.774L0 5.89299L1.49653 4.39638L5.11759 8.01765C6.1249 9.02501 7.06349 9.09235 7.96085 8.19494C8.90082 7.25492 8.806 5.90673 7.62142 4.72209L4.39613 1.49661L5.89265 0L12.3446 6.45233C14.3043 8.41208 14.4128 11.1882 12.4257 13.1768C10.6557 14.9455 8.24807 15.1777 6.62649 13.3664L7.85367 11.7612Z" transform="translate(61.86084 20.94513)" id="Fill-87" fill="#1D1D1B" fill-rule="evenodd" stroke="none" />
  <path d="M0.788802 5.88062L1.93215 4.7372L0 2.80494L1.49653 1.30696L3.42868 3.24059L6.66771 0L7.9746 1.30696L4.73419 4.54618L7.74373 7.55451C8.47894 8.28976 9.26774 8.26228 9.90812 7.62323C10.5609 6.96906 10.4661 6.03042 9.5151 5.21408L11.0776 3.92087C12.7802 5.45871 12.7253 7.52703 11.3236 8.92881C9.70337 10.5491 7.76984 10.5766 6.2046 9.01127L3.23766 6.04416L2.09431 7.18758L0.788802 5.88062Z" transform="translate(68.07764 13.952576)" id="Fill-89" fill="#1D1D1B" fill-rule="evenodd" stroke="none" />
  <path d="M7.01473 7.00806C8.1306 5.89213 8.07425 4.23198 6.89105 3.04733C5.70785 1.86269 4.01893 1.7816 2.90444 2.89753C1.77346 4.02858 1.85591 5.71484 3.03911 6.89949C4.22369 8.08413 5.88512 8.1391 7.01473 7.00806M1.46151 1.45452C3.50222 -0.586312 6.42931 -0.410402 8.38895 1.54935C10.3637 3.52421 10.4984 6.40886 8.45766 8.45107C6.4142 10.4933 3.51597 10.371 1.54259 8.39747C-0.41705 6.43635 -0.580582 3.49673 1.46151 1.45452" transform="translate(77.58301 7.791626)" id="Fill-91" fill="#1D1D1B" fill-rule="evenodd" stroke="none" />
  <path d="M0 4.71782L1.4979 3.22121L2.19051 3.91523C2.09569 2.92023 2.41038 1.90051 3.29263 1.01546C4.75068 -0.441297 6.57289 -0.305242 8.1395 1.26008L12.3872 5.50804L10.8893 7.00465L6.92744 3.04392C5.94762 2.06267 5.0214 1.98159 4.16526 2.83915C3.25278 3.75168 3.34897 5.07238 4.51843 6.24191L8.08453 9.80959L6.58801 11.3062L0 4.71782Z" transform="translate(83.97998 0)" id="Fill-93" fill="#1D1D1B" fill-rule="evenodd" stroke="none" />
</svg>