<?xml version="1.0" encoding="utf-8"?>
<svg width="101px" height="102px" viewBox="0 0 101 102" version="1.1" xmlns:xlink="http://www.w3.org/1999/xlink" xmlns="http://www.w3.org/2000/svg">
  <path d="M7.94849 4.91311L2.64125 2.65377L4.89909 7.96268L7.94849 4.91311ZM0 1.75635L1.75625 0L15.1769 5.63462L13.5306 7.2824L9.96309 5.75831L5.75798 9.96366L7.26962 13.5437L5.6343 15.1777L0 1.75635Z" transform="translate(0 86.130615)" id="Fill-259" fill="#1D1D1B" fill-rule="evenodd" stroke="none" />
  <path d="M1.39746 1.32546C2.92147 -0.198634 4.88111 -0.391036 6.50132 0.658928L5.63006 2.45513C4.77255 1.8422 3.68417 1.92466 2.84039 2.76847C1.76576 3.84317 1.91417 5.46347 2.98881 6.53817C4.26958 7.81764 5.90216 7.9537 7.03314 6.82403C7.9305 5.92661 8.08029 4.57842 7.25027 3.55732L9.00652 2.50873C10.3546 4.21149 10.1499 6.59314 8.50218 8.24093C6.44772 10.2955 3.60171 10.1457 1.60085 8.14473C-0.384899 6.15749 -0.6034 3.32644 1.39746 1.32546" transform="translate(10.671387 79.9646)" id="Fill-261" fill="#1D1D1B" fill-rule="evenodd" stroke="none" />
  <path d="M0.788802 5.88062L1.93215 4.7372L0 2.80494L1.4979 1.30696L3.43005 3.24059L6.66909 0L7.97597 1.30558L4.73694 4.54618L7.7451 7.55451C8.47894 8.28976 9.27049 8.26228 9.9095 7.62323C10.5623 6.96906 10.4674 6.03042 9.5151 5.21408L11.079 3.92087C12.7816 5.45871 12.728 7.52703 11.3249 8.92881C9.70474 10.5491 7.77259 10.5766 6.20598 9.01127L3.23904 6.04416L2.09569 7.18758L0.788802 5.88062Z" transform="translate(15.262695 71.83356)" id="Fill-263" fill="#1D1D1B" fill-rule="evenodd" stroke="none" />
  <path d="M7.01404 7.00859C8.12991 5.89266 8.07494 4.23113 6.89174 3.04649C5.70853 1.86184 4.01962 1.78213 2.90375 2.89806C1.77414 4.02774 1.85522 5.71537 3.0398 6.89864C4.22438 8.08329 5.88581 8.13826 7.01404 7.00859M1.46082 1.45505C3.50154 -0.587154 6.42863 -0.40987 8.38964 1.54988C10.363 3.52337 10.4991 6.40939 8.45697 8.4516C6.41351 10.4938 3.51528 10.3715 1.54327 8.39663C-0.417737 6.43688 -0.579895 3.49726 1.46082 1.45505" transform="translate(24.77002 65.67212)" id="Fill-265" fill="#1D1D1B" fill-rule="evenodd" stroke="none" />
  <path d="M0 4.71782L1.4979 3.21983L2.19188 3.91385C2.09706 2.92023 2.40901 1.90051 3.294 1.01546C4.75205 -0.441297 6.57427 -0.305242 8.1395 1.26008L12.3872 5.50666L10.8907 7.00465L6.92881 3.04255C5.949 2.06267 5.02277 1.98159 4.16526 2.83915C3.25415 3.75031 3.34897 5.07101 4.51843 6.24191L8.08591 9.80821L6.58801 11.3062L0 4.71782Z" transform="translate(31.166504 57.88098)" id="Fill-267" fill="#1D1D1B" fill-rule="evenodd" stroke="none" />
  <path d="M0 10.3443L1.85107 8.49316L12.985 12.9857L8.49405 1.8498L10.3438 0L19.8726 9.528L18.3747 11.026L11.5957 4.24658L15.4902 13.9106L13.9099 15.4911L4.30131 11.6252L11.024 18.3757L9.52884 19.8737L0 10.3443Z" transform="translate(39.191895 38.34784)" id="Fill-269" fill="#1D1D1B" fill-rule="evenodd" stroke="none" />
  <path d="M6.76917 7.20465C7.6418 6.33335 7.62806 5.06762 6.63312 4.074L6.32117 3.76066L5.23142 5.28613C4.65974 6.10247 4.26534 6.93254 4.86313 7.53173C5.33998 8.00724 6.0903 7.88493 6.76917 7.20465M3.88331 4.3736L5.15034 2.59114L4.90435 2.34514C4.34642 1.78717 3.43531 1.77343 2.59017 2.61725C1.67906 3.52978 1.76014 4.56463 2.674 5.3411L1.16235 6.63294C-0.607641 5.02776 -0.185756 2.86325 1.28603 1.39275C3.08076 -0.404833 4.97306 -0.39109 6.38988 1.02444L10.8121 5.4483L9.41042 6.85146L8.64773 6.08872C8.86623 6.87757 8.72881 7.9399 7.83144 8.83732C6.28132 10.3889 4.55118 10.0508 3.62495 9.12455C2.31945 7.81759 2.53657 6.26601 3.88331 4.3736" transform="translate(55.200684 35.47827)" id="Fill-271" fill="#1D1D1B" fill-rule="evenodd" stroke="none" />
  <path d="M2.57874 4.06019L4.07526 2.56358L10.6646 9.15196L9.16675 10.6486L2.57874 4.06019ZM0.38686 0.397687C0.917308 -0.132791 1.78856 -0.132791 2.32039 0.399062C2.85084 0.929541 2.85084 1.80085 2.32039 2.33132C1.80231 2.84943 0.931051 2.84943 0.400602 2.31896C-0.131221 1.7871 -0.131221 0.915798 0.38686 0.397687L0.38686 0.397687Z" transform="translate(58.504395 28.62085)" id="Fill-273" fill="#1D1D1B" fill-rule="evenodd" stroke="none" />
  <path d="M0 1.49798L1.4979 0L11.0254 9.52938L9.52884 11.0274L0 1.49798Z" transform="translate(61.297363 25.087402)" id="Fill-275" fill="#1D1D1B" fill-rule="evenodd" stroke="none" />
  <path d="M0 1.49661L1.4979 0L9.58381 8.08499L14.6877 2.98085L16.1306 4.42386L9.52884 11.026L0 1.49661Z" transform="translate(67.96338 18.421875)" id="Fill-277" fill="#1D1D1B" fill-rule="evenodd" stroke="none" />
  <path d="M2.57892 4.06019L4.07681 2.56358L10.6634 9.15196L9.16692 10.6486L2.57892 4.06019ZM0.385661 0.397688C0.917484 -0.132791 1.78874 -0.132791 2.32056 0.399062C2.84964 0.929541 2.84964 1.80085 2.32056 2.33132C1.80386 2.84943 0.931226 2.84943 0.400777 2.31758C-0.131046 1.7871 -0.131046 0.915798 0.385661 0.397688L0.385661 0.397688Z" transform="translate(76.160645 10.963074)" id="Fill-279" fill="#1D1D1B" fill-rule="evenodd" stroke="none" />
  <path d="M0 4.71727L1.4979 3.22066L2.19051 3.91468C2.09569 2.92106 2.40901 1.89996 3.29263 1.01491C4.75068 -0.440469 6.57289 -0.305787 8.1395 1.25954L12.3872 5.50749L10.8893 7.0041L6.92744 3.04338C5.94762 2.06213 5.0214 1.98242 4.16526 2.83861C3.25278 3.75114 3.34897 5.07184 4.51843 6.24137L8.08453 9.80904L6.58801 11.3057L0 4.71727Z" transform="translate(81.895996 7.149353)" id="Fill-281" fill="#1D1D1B" fill-rule="evenodd" stroke="none" />
  <path d="M5.66381 2.34252C4.87501 1.60727 3.60798 1.62238 2.65702 2.5734C1.75828 3.47219 1.64834 4.69669 2.2475 5.75902L5.66381 2.34252ZM1.36388 1.28156C3.17373 -0.529766 5.63633 -0.379967 7.4874 1.47121L8.18276 2.16661L3.34963 6.99864C4.64414 7.96477 6.07196 7.89605 7.12186 6.84746C7.96426 6.00364 8.11405 4.79289 7.42007 3.82676L9.06776 2.69571C10.2771 4.37098 9.99261 6.64407 8.42737 8.20939C6.41276 10.2241 3.59424 10.0468 1.60849 8.05959C-0.366261 6.0861 -0.609498 3.25505 1.36388 1.28156L1.36388 1.28156Z" transform="translate(90.70996 0)" id="Fill-283" fill="#1D1D1B" fill-rule="evenodd" stroke="none" />
</svg>