<?xml version="1.0" encoding="utf-8"?>
<svg width="112px" height="107px" viewBox="0 0 112 107" version="1.1" xmlns:xlink="http://www.w3.org/1999/xlink" xmlns="http://www.w3.org/2000/svg">
  <path d="M0 6.6571L6.65672 0L8.09965 1.44439L2.93946 6.6035L5.42954 9.09373L10.0304 4.49258L11.4747 5.93559L6.87385 10.5367L9.58243 13.2455L14.7413 8.08637L16.1842 9.52938L9.52884 16.1865L0 6.6571Z" transform="translate(0 90.781555)" id="Fill-227" fill="#1D1D1B" fill-rule="evenodd" stroke="none" />
  <path d="M6.76999 7.20465C7.64124 6.33335 7.6275 5.06762 6.63394 4.074L6.32062 3.76066L5.23224 5.28613C4.66056 6.10109 4.26616 6.93254 4.86395 7.53036C5.3408 8.00724 6.08975 7.88493 6.76999 7.20465M3.88413 4.37222L5.14978 2.58976L4.90655 2.34376C4.34724 1.78717 3.43476 1.77343 2.59236 2.61725C1.67988 3.52841 1.76096 4.56325 2.67344 5.33973L1.1618 6.63294C-0.606821 5.02639 -0.18631 2.86187 1.28548 1.39275C3.08021 -0.404833 4.97251 -0.39109 6.39071 1.02444L10.8129 5.4483L9.41124 6.85008L8.64855 6.08872C8.86705 6.87757 8.731 7.9399 7.83089 8.83732C6.28077 10.3889 4.552 10.0494 3.62577 9.12317C2.32027 7.81621 2.53739 6.26463 3.88413 4.37222" transform="translate(11.791016 88.44165)" id="Fill-229" fill="#1D1D1B" fill-rule="evenodd" stroke="none" />
  <path d="M0 1.49661L1.4979 0L11.0254 9.528L9.52884 11.026L0 1.49661Z" transform="translate(14.732422 81.207886)" id="Fill-231" fill="#1D1D1B" fill-rule="evenodd" stroke="none" />
  <path d="M2.57737 4.06019L4.07526 2.56358L10.6633 9.15196L9.16675 10.6486L2.57737 4.06019ZM0.38686 0.397687C0.915934 -0.132791 1.78856 -0.132791 2.32039 0.399062C2.84946 0.929541 2.84946 1.80085 2.32039 2.33132C1.80231 2.84806 0.932425 2.84806 0.400602 2.31758C-0.131221 1.78573 -0.131221 0.914423 0.38686 0.397687L0.38686 0.397687Z" transform="translate(18.250488 78.428955)" id="Fill-233" fill="#1D1D1B" fill-rule="evenodd" stroke="none" />
  <path d="M0 4.71782L1.4979 3.21983L2.19188 3.91385C2.09569 2.92023 2.41038 1.90051 3.294 1.01546C4.75068 -0.441297 6.57427 -0.305242 8.14088 1.26008L12.3872 5.50666L10.8893 7.00465L6.92881 3.04255C5.94762 2.06267 5.02277 1.98159 4.16526 2.83915C3.25278 3.75031 3.35035 5.07101 4.51981 6.24191L8.08591 9.80821L6.58801 11.3062L0 4.71782Z" transform="translate(23.984375 74.61542)" id="Fill-235" fill="#1D1D1B" fill-rule="evenodd" stroke="none" />
  <path d="M6.62069 8.27602C7.67059 7.22743 7.61562 5.70196 6.53961 4.62726C5.4636 3.55118 3.93959 3.49759 2.89106 4.54618C1.83016 5.60713 1.8975 7.11886 2.97351 8.19356C4.04952 9.26964 5.54742 9.35072 6.62069 8.27602M1.231 3.34779C2.10226 2.47648 3.15079 2.16314 4.17183 2.25935L3.40914 1.49661L4.90566 0L11.2765 6.36987C13.3324 8.42582 13.3722 11.2431 11.3576 13.2578C9.54778 15.0678 7.08518 15.2987 5.39626 13.53L6.64955 11.8698C7.61562 12.8621 8.97748 12.9995 10.0645 11.911C11.1804 10.7937 11.168 9.25452 9.84736 7.93519L8.89365 6.98281C8.98984 8.00253 8.66278 9.01127 7.80527 9.86883C5.99542 11.6788 3.31432 11.529 1.47561 9.69017C-0.320494 7.89396 -0.565105 5.144 1.231 3.34779" transform="translate(32.753906 65.65735)" id="Fill-237" fill="#1D1D1B" fill-rule="evenodd" stroke="none" />
  <path d="M12.2787 9.41477C13.2722 8.42115 13.1911 7.27774 12.3872 6.47515C11.6108 5.69867 10.4551 5.60384 9.46013 6.59746L6.80651 9.2526L9.62366 12.0699L12.2787 9.41477ZM7.96223 5.37296C8.88845 4.44668 8.82112 3.42558 8.0598 2.66284C7.36444 1.96882 6.34477 1.90148 5.39106 2.85387L2.90098 5.34547L5.44466 7.89067L7.96223 5.37296ZM0 5.4403L4.179 1.26106C5.89403 -0.454062 7.96223 -0.318006 9.33782 1.05629C10.2366 1.95508 10.5774 3.08475 10.3053 4.17457C11.6383 3.71143 13.0413 4.02477 14.0885 5.07199C15.6139 6.59746 15.6826 8.81557 13.9538 10.5444L9.52884 14.9697L0 5.4403Z" transform="translate(39.885254 52.10962)" id="Fill-239" fill="#1D1D1B" fill-rule="evenodd" stroke="none" />
  <path d="M0 4.24045L1.4979 2.74384L2.12317 3.36915C1.97338 2.4841 2.21799 1.58531 2.98068 0.823947C4.179 -0.37444 5.83906 -0.373066 7.64891 1.54545L6.39699 3.26058C6.31591 3.15201 6.21834 3.05581 6.13864 2.97472C5.28113 2.11716 4.50469 2.07593 3.89179 2.68887C3.18407 3.39663 3.26652 4.51256 4.44972 5.69721L8.08453 9.33222L6.58801 10.8288L0 4.24045Z" transform="translate(51.36914 47.706177)" id="Fill-241" fill="#1D1D1B" fill-rule="evenodd" stroke="none" />
  <path d="M7.01473 7.00859C8.1306 5.89266 8.07425 4.23251 6.89105 3.04786C5.70785 1.86322 4.01893 1.78213 2.90444 2.89806C1.77483 4.02774 1.85591 5.71537 3.03911 6.90002C4.22369 8.08466 5.88512 8.13826 7.01473 7.00859M1.46151 1.45505C3.5036 -0.587154 6.42931 -0.40987 8.38895 1.54988C10.3637 3.52474 10.4984 6.40939 8.45766 8.4516C6.4142 10.4938 3.51597 10.3715 1.54259 8.398C-0.41705 6.43688 -0.580582 3.49726 1.46151 1.45505" transform="translate(59.11914 40.87152)" id="Fill-243" fill="#1D1D1B" fill-rule="evenodd" stroke="none" />
  <path d="M6.77068 7.20465C7.64056 6.33335 7.62819 5.06762 6.63325 4.074L6.32131 3.76066L5.23292 5.28613C4.66125 6.10109 4.26685 6.93254 4.86463 7.53036C5.34011 8.00724 6.08906 7.88493 6.77068 7.20465M3.88481 4.37222L5.15047 2.58976L4.90586 2.34376C4.34655 1.78717 3.43407 1.77343 2.59167 2.61725C1.67919 3.52841 1.76165 4.56325 2.67413 5.33973L1.16249 6.63157C-0.607509 5.02639 -0.185623 2.86187 1.28479 1.39275C3.0809 -0.404833 4.9732 -0.39109 6.39002 1.02444L10.8123 5.4483L9.41193 6.85008L8.64923 6.08872C8.86636 6.87757 8.73031 7.9399 7.8302 8.83732C6.28008 10.3889 4.55269 10.0494 3.62646 9.12317C2.32095 7.81621 2.53808 6.26463 3.88481 4.37222" transform="translate(66.50586 33.72412)" id="Fill-245" fill="#1D1D1B" fill-rule="evenodd" stroke="none" />
  <path d="M7.06706 11.6527C8.16919 10.5505 8.07299 8.93019 6.87605 7.7318C5.70521 6.5609 4.05889 6.43996 2.9554 7.54214C1.83953 8.65807 1.94809 10.3182 3.11893 11.4891C4.31587 12.6875 5.93745 12.7823 7.06706 11.6527M1.19914 6.41247C2.16659 5.44634 3.28246 5.11926 4.3571 5.21408L0.641211 1.49798L2.13911 0L11.6679 9.52938L10.17 11.026L9.39362 10.2509C9.50218 11.3393 9.16137 12.4429 8.19667 13.4076C6.39919 15.2052 3.59578 14.9606 1.62103 12.9871C-0.311124 11.0535 -0.595587 8.20868 1.19914 6.41247" transform="translate(73.71924 21.575256)" id="Fill-247" fill="#1D1D1B" fill-rule="evenodd" stroke="none" />
  <path d="M1.48416 8.16745L7.28199 11.3242L4.15152 5.49994L5.49963 4.15175L11.3373 7.29614L8.15462 1.49661L9.64977 0L14.1819 8.64433L12.7266 10.1011L7.06486 7.05152L10.1005 12.7274L8.61498 14.2102L0 9.65169L1.48416 8.16745Z" transform="translate(79.9917 13.671509)" id="Fill-249" fill="#1D1D1B" fill-rule="evenodd" stroke="none" />
  <path d="M6.77089 7.20465C7.64078 6.33335 7.62703 5.06762 6.63347 4.074L6.32015 3.76066L5.23314 5.28613C4.66009 6.10247 4.26707 6.93254 4.86485 7.53036C5.34033 8.00724 6.08928 7.88493 6.77089 7.20465M3.88366 4.3736L5.14931 2.59114L4.90608 2.34514C4.34677 1.78717 3.43429 1.77343 2.59189 2.61725C1.67941 3.52978 1.76049 4.56463 2.67435 5.33973L1.16133 6.63294C-0.607291 5.02777 -0.185405 2.86325 1.28501 1.39275C3.08111 -0.404833 4.97341 -0.39109 6.39024 1.02444L10.8125 5.4483L9.41077 6.85146L8.64808 6.08872C8.86658 6.87757 8.73053 7.9399 7.83042 8.83732C6.2803 10.3889 4.55153 10.0494 3.62531 9.12317C2.3198 7.81759 2.53692 6.26601 3.88366 4.3736" transform="translate(91.53662 8.691406)" id="Fill-251" fill="#1D1D1B" fill-rule="evenodd" stroke="none" />
  <path d="M7.85366 11.7612C8.88845 12.906 10.1679 12.7686 11.0927 11.8437C12.1825 10.7553 12.1412 9.24215 10.9031 8.00391L9.94935 7.05152C10.0593 8.08637 9.73222 9.11984 8.83348 10.0186C7.36307 11.4891 5.51337 11.3531 3.93302 9.774L0 5.89436L1.4979 4.39775L5.11897 8.01765C6.1249 9.02501 7.06486 9.09373 7.96085 8.19494C8.90219 7.25492 8.806 5.90811 7.6228 4.72346L4.39613 1.49798L5.89403 0L12.346 6.45233C14.3056 8.41208 14.4128 11.1895 12.4271 13.1768C10.6571 14.9469 8.24807 15.1791 6.62649 13.3678L7.85366 11.7612Z" transform="translate(97.418945 0)" id="Fill-253" fill="#1D1D1B" fill-rule="evenodd" stroke="none" />
</svg>