<?xml version="1.0" encoding="utf-8"?>
<svg width="59px" height="54px" viewBox="0 0 59 54" version="1.1" xmlns:xlink="http://www.w3.org/1999/xlink" xmlns="http://www.w3.org/2000/svg">
  <path d="M8.43908 5.74465C9.4189 4.76477 9.47387 3.64884 8.5765 2.75005C7.70388 1.87875 6.57564 1.91998 5.59445 2.89985L2.93946 5.55499L5.78409 8.39979L8.43908 5.74465ZM0 5.60859L4.24634 1.36201C6.06993 -0.463057 8.4116 -0.408085 10.0717 1.25207C11.3785 2.55902 11.7056 4.24803 10.9292 5.81336L16.7971 7.89542L15.1631 9.52809L9.56869 7.49962L7.22702 9.84143L11.0254 13.64L9.52884 15.1366L0 5.60859Z" transform="translate(0 38.785217)" id="Fill-37" fill="#1D1D1B" fill-rule="evenodd" stroke="none" />
  <path d="M5.66381 2.34252C4.87501 1.60727 3.60936 1.62101 2.65702 2.5734C1.75828 3.47219 1.64834 4.69669 2.24888 5.75902L5.66381 2.34252ZM1.36388 1.28156C3.17373 -0.529766 5.63633 -0.379967 7.4874 1.47121L8.18276 2.16661L3.34963 6.99864C4.64414 7.96477 6.07196 7.89605 7.12186 6.84746C7.96426 6.00364 8.11405 4.79289 7.42007 3.82676L9.06776 2.69571C10.2771 4.37098 9.99261 6.64407 8.42874 8.20939C6.41276 10.2241 3.59424 10.0468 1.60849 8.05959C-0.366261 6.0861 -0.609498 3.25505 1.36388 1.28156L1.36388 1.28156Z" transform="translate(12.475098 34.746094)" id="Fill-39" fill="#1D1D1B" fill-rule="evenodd" stroke="none" />
  <path d="M6.76849 7.20467C7.64112 6.33337 7.62738 5.06764 6.63382 4.07402L6.3205 3.76068L5.23074 5.28615C4.65906 6.10111 4.26466 6.93256 4.86245 7.53038C5.34068 8.00726 6.08963 7.88495 6.76849 7.20467M3.88275 4.37222L5.14978 2.58976L4.90517 2.34376C4.34724 1.78717 3.43476 1.77343 2.59099 2.61725C1.67988 3.52841 1.75958 4.56325 2.67344 5.33973L1.1618 6.63294C-0.606821 5.02639 -0.18631 2.86187 1.28548 1.39275C3.08021 -0.404833 4.97251 -0.39109 6.38933 1.02444L10.8116 5.4483L9.40987 6.85008L8.64717 6.08872C8.86567 6.87757 8.72963 7.9399 7.83089 8.83732C6.28077 10.3889 4.552 10.0494 3.62577 9.12317C2.31889 7.81621 2.53602 6.26463 3.88275 4.37222" transform="translate(19.492188 27.69629)" id="Fill-41" fill="#1D1D1B" fill-rule="evenodd" stroke="none" />
  <path d="M7.06611 11.6527C8.16961 10.5505 8.07341 8.93017 6.87509 7.73178C5.70563 6.56088 4.05931 6.43995 2.95719 7.54213C1.83995 8.65806 1.94714 10.3182 3.11935 11.4891C4.31767 12.6875 5.9365 12.7823 7.06611 11.6527M1.20072 6.41247C2.1668 5.44634 3.28267 5.11926 4.35731 5.21408L0.641417 1.49798L2.13794 0L11.6668 9.52938L10.1703 11.026L9.39382 10.2509C9.50238 11.3393 9.16158 12.4429 8.1955 13.4076C6.40077 15.2052 3.59599 14.9606 1.62261 12.9871C-0.310917 11.0535 -0.596755 8.20868 1.20072 6.41247" transform="translate(26.705078 15.547485)" id="Fill-43" fill="#1D1D1B" fill-rule="evenodd" stroke="none" />
  <path d="M2.5796 4.06019L4.07749 2.56358L10.6641 9.15196L9.1676 10.6486L2.5796 4.06019ZM0.386341 0.397687C0.918164 -0.132791 1.78942 -0.132791 2.32124 0.399062C2.85032 0.929541 2.85032 1.80085 2.32124 2.33132C1.80454 2.84943 0.931906 2.84943 0.400083 2.31896C-0.13174 1.7871 -0.130365 0.915798 0.386341 0.397687L0.386341 0.397687Z" transform="translate(30.861328 12.7716675)" id="Fill-45" fill="#1D1D1B" fill-rule="evenodd" stroke="none" />
  <path d="M0 4.71782L1.4979 3.21983L2.19188 3.91385C2.09569 2.92023 2.40901 1.90051 3.294 1.01546C4.75068 -0.441297 6.57427 -0.305242 8.1395 1.26008L12.3872 5.50666L10.8907 7.00465L6.92881 3.04255C5.949 2.06267 5.02277 1.98159 4.16526 2.83915C3.25278 3.75168 3.34897 5.07101 4.51843 6.24191L8.08591 9.80821L6.58801 11.3062L0 4.71782Z" transform="translate(36.595703 8.958801)" id="Fill-47" fill="#1D1D1B" fill-rule="evenodd" stroke="none" />
  <path d="M6.62199 8.27603C7.67052 7.22744 7.61555 5.70334 6.53816 4.62726C5.4649 3.55256 3.94089 3.49759 2.89098 4.54618C1.83008 5.60851 1.89742 7.11887 2.97343 8.19357C4.04807 9.26964 5.54597 9.3521 6.62199 8.27603M1.23086 3.34779C2.10212 2.47648 3.15202 2.16314 4.17169 2.25935L3.409 1.49661L4.9069 0L11.2764 6.36987C13.3322 8.42582 13.3721 11.2431 11.3575 13.2578C9.54764 15.0678 7.08366 15.3001 5.39612 13.53L6.64941 11.8698C7.61549 12.8634 8.97596 12.9995 10.0657 11.911C11.1816 10.7951 11.1678 9.25589 9.84859 7.93519L8.89488 6.98281C8.98971 8.00253 8.66264 9.01127 7.80513 9.86883C5.99528 11.6802 3.31418 11.529 1.47685 9.69155C-0.320633 7.89534 -0.565244 5.144 1.23086 3.34779" transform="translate(45.365234 0)" id="Fill-49" fill="#1D1D1B" fill-rule="evenodd" stroke="none" />
</svg>