<?xml version="1.0" encoding="utf-8"?>
<svg width="129px" height="125px" viewBox="0 0 129 125" version="1.1" xmlns:xlink="http://www.w3.org/1999/xlink" xmlns="http://www.w3.org/2000/svg">
  <path d="M0 7.93519L1.49653 6.43858L5.42954 10.3718L10.3712 5.42985L6.43822 1.49661L7.93337 0L17.4622 9.528L15.9657 11.026L11.8155 6.87424L6.87385 11.8148L11.024 15.9666L9.52884 17.4646L0 7.93519Z" transform="translate(0 107.37268)" id="Fill-129" fill="#1D1D1B" fill-rule="evenodd" stroke="none" />
  <path d="M6.76999 7.20465C7.64124 6.33335 7.6275 5.06762 6.63394 4.074L6.32062 3.76066L5.23224 5.28613C4.65919 6.10247 4.26479 6.93254 4.86257 7.53173C5.3408 8.00724 6.08975 7.88493 6.76999 7.20465M3.88275 4.3736L5.14978 2.59114L4.90517 2.34514C4.34724 1.78717 3.43476 1.77343 2.59099 2.61725C1.67988 3.52978 1.75958 4.56463 2.67344 5.3411L1.1618 6.63294C-0.606821 5.02777 -0.18631 2.86325 1.28548 1.39275C3.08021 -0.404833 4.97251 -0.39109 6.39071 1.02444L10.8129 5.4483L9.40987 6.85146L8.64717 6.08872C8.86705 6.87757 8.72963 7.9399 7.83089 8.83732C6.28077 10.3889 4.552 10.0494 3.62577 9.12317C2.31889 7.81759 2.53602 6.26601 3.88275 4.3736" transform="translate(13.600586 104.50171)" id="Fill-131" fill="#1D1D1B" fill-rule="evenodd" stroke="none" />
  <path d="M7.85504 11.7612C8.88845 12.9047 10.1692 12.7686 11.0941 11.8437C12.1825 10.7539 12.1412 9.24215 10.9044 8.00391L9.95072 7.05015C10.0593 8.08637 9.73222 9.11984 8.83348 10.0186C7.36444 11.4878 5.51337 11.3531 3.93302 9.774L0 5.89436L1.4979 4.39638L5.11897 8.01765C6.12627 9.02501 7.06486 9.09235 7.96223 8.19356C8.90219 7.25492 8.80737 5.90673 7.6228 4.72209L4.3975 1.49661L5.89403 0L12.346 6.45233C14.3056 8.41208 14.4142 11.1882 12.4271 13.1768C10.6571 14.9455 8.24944 15.1777 6.62786 13.3664L7.85504 11.7612Z" transform="translate(19.481934 95.81079)" id="Fill-133" fill="#1D1D1B" fill-rule="evenodd" stroke="none" />
  <path d="M5.66416 2.34252C4.87399 1.60727 3.6097 1.62101 2.65737 2.5734C1.75726 3.47219 1.64732 4.69669 2.24923 5.75902L5.66416 2.34252ZM1.36285 1.28156C3.17408 -0.529766 5.6353 -0.379967 7.48775 1.47121L8.18311 2.16661L3.34998 6.99864C4.64312 7.96477 6.07231 7.89605 7.12083 6.84746C7.96461 6.00364 8.11302 4.79289 7.42041 3.82676L9.06673 2.69571C10.2774 4.37098 9.99158 6.64407 8.42772 8.20939C6.41174 10.2241 3.59459 10.0468 1.60747 8.05959C-0.365914 6.0861 -0.609151 3.25505 1.36285 1.28156L1.36285 1.28156Z" transform="translate(28.392578 89.74255)" id="Fill-135" fill="#1D1D1B" fill-rule="evenodd" stroke="none" />
  <path d="M3.96821 6.79525C4.96177 7.48927 6.07764 7.48927 6.96264 6.6056C7.77892 5.78927 7.87375 5.01279 7.43812 4.57714C7.0712 4.20883 6.48578 4.16897 5.25998 5.17633C3.47762 6.63309 1.89864 6.6592 0.727804 5.4883C-0.414173 4.34625 -0.183304 2.47996 1.21703 1.07818C2.38786 -0.0927264 4.18534 -0.364837 5.73683 0.533953L4.85321 2.20922C4.03555 1.7186 3.23301 1.84091 2.60636 2.46622C2.03469 3.03792 1.84367 3.63849 2.21059 4.00543C2.53765 4.33251 2.97328 4.38611 3.98196 3.5684C5.9677 1.93574 7.58791 1.81342 8.82608 3.05304C10.1467 4.37237 9.92958 6.38709 8.33686 7.9799C6.77025 9.54522 4.59348 9.68128 2.8386 8.47052L3.96821 6.79525Z" transform="translate(35.40674 83.04785)" id="Fill-137" fill="#1D1D1B" fill-rule="evenodd" stroke="none" />
  <path d="M9.36542 9.56264C10.0731 8.85488 10.4675 8.07978 10.5775 7.28956L4.64222 6.60928C3.97435 7.90249 4.08429 9.01842 4.96791 9.90347C6.13875 11.0744 7.79881 11.128 9.36542 9.56264M3.72974 4.52584C4.23271 3.5872 4.34264 2.74338 3.8383 2.23901C3.30786 1.70853 2.68121 1.73602 2.21947 2.19916C1.75636 2.6623 1.67391 3.36868 2.19199 3.8868C2.65373 4.34993 3.09073 4.4585 3.72974 4.52584M2.72244 6.26983C2.06831 6.0788 1.45678 5.76546 0.912591 5.22124C-0.340698 3.96788 -0.284355 2.14419 0.966185 0.892201C2.1645 -0.306187 3.9345 -0.306187 5.18641 0.945798C6.12638 1.88582 6.26105 3.30134 5.68938 4.74436L10.1954 5.27484C10.0195 4.96287 9.7873 4.64953 9.50146 4.36368C9.07958 3.94177 8.5615 3.5872 7.90737 3.28898L8.91605 1.51751C9.63751 1.94079 10.2628 2.43004 10.7795 2.94815C11.5697 3.737 12.1001 4.62204 12.3722 5.52083L15.4353 5.88777L13.6805 7.64412L12.5495 7.52181C12.3997 8.73257 11.8143 9.91584 10.7685 10.9644C8.37048 13.3612 5.5657 13.4973 3.44253 11.374C2.05594 9.98593 1.87867 8.1746 2.72244 6.26983" transform="translate(43.874023 69.16467)" id="Fill-139" fill="#1D1D1B" fill-rule="evenodd" stroke="none" />
  <path d="M0 7.93519L1.4979 6.43858L5.42954 10.3718L10.3712 5.42985L6.43959 1.49661L7.93474 0L17.4636 9.528L15.9671 11.026L11.8155 6.87424L6.87385 11.8148L11.0254 15.9666L9.52884 17.4646L0 7.93519Z" transform="translate(54.44287 52.92627)" id="Fill-141" fill="#1D1D1B" fill-rule="evenodd" stroke="none" />
  <path d="M6.76999 7.20465C7.64124 6.33335 7.6275 5.06762 6.63394 4.074L6.32062 3.76066L5.23224 5.28613C4.66056 6.10109 4.26616 6.93254 4.86395 7.53036C5.3408 8.00724 6.08975 7.88493 6.76999 7.20465M3.88413 4.37222L5.14978 2.58976L4.90655 2.34376C4.34724 1.78717 3.43476 1.77343 2.59236 2.61725C1.67988 3.52841 1.76096 4.56325 2.67344 5.33973L1.1618 6.63157C-0.606821 5.02639 -0.18631 2.86187 1.28548 1.39275C3.08021 -0.404833 4.97251 -0.39109 6.39071 1.02444L10.8129 5.4483L9.41124 6.85008L8.64855 6.08872C8.86705 6.87757 8.731 7.9399 7.83089 8.83732C6.28077 10.3889 4.552 10.0494 3.62577 9.12317C2.32027 7.81621 2.53739 6.26463 3.88413 4.37222" transform="translate(68.04346 50.05591)" id="Fill-143" fill="#1D1D1B" fill-rule="evenodd" stroke="none" />
  <path d="M0 4.24045L1.49515 2.74384L2.1218 3.37052C1.97338 2.4841 2.21662 1.58531 2.97931 0.823947C4.17763 -0.37444 5.83768 -0.373066 7.64891 1.54545L6.39562 3.26058C6.31316 3.15201 6.21834 3.05718 6.13726 2.9761C5.27975 2.11854 4.50332 2.07593 3.89179 2.68887C3.18269 3.39663 3.26515 4.51394 4.44835 5.69721L8.08453 9.33222L6.58663 10.8288L0 4.24045Z" transform="translate(73.92627 43.01819)" id="Fill-145" fill="#1D1D1B" fill-rule="evenodd" stroke="none" />
  <path d="M0 1.49661L1.4979 0L11.0254 9.528L9.52884 11.026L0 1.49661Z" transform="translate(77.311035 36.495605)" id="Fill-147" fill="#1D1D1B" fill-rule="evenodd" stroke="none" />
  <path d="M2.57737 4.06019L4.07526 2.56358L10.6633 9.15196L9.16675 10.6486L2.57737 4.06019ZM0.38686 0.397688C0.915934 -0.132791 1.78856 -0.132791 2.32039 0.399062C2.84946 0.929541 2.84946 1.80085 2.32039 2.33132C1.80231 2.84943 0.931051 2.84943 0.400602 2.31758C-0.131221 1.7871 -0.131221 0.915798 0.38686 0.397688L0.38686 0.397688Z" transform="translate(80.8291 33.716675)" id="Fill-149" fill="#1D1D1B" fill-rule="evenodd" stroke="none" />
  <path d="M0 4.71782L1.4979 3.22121L2.19051 3.91523C2.09569 2.92023 2.40901 1.90051 3.29263 1.01546C4.75068 -0.441297 6.57289 -0.305242 8.1395 1.26008L12.3872 5.50804L10.8893 7.00465L6.92744 3.04392C5.94762 2.06267 5.0214 1.98159 4.16526 2.83915C3.25278 3.75168 3.34897 5.07238 4.51843 6.24191L8.08453 9.80959L6.58801 11.3062L0 4.71782Z" transform="translate(86.5625 29.903076)" id="Fill-151" fill="#1D1D1B" fill-rule="evenodd" stroke="none" />
  <path d="M6.62069 8.27602C7.67059 7.22743 7.61425 5.70333 6.53824 4.62726C5.4636 3.55256 3.93959 3.49759 2.89106 4.54618C1.83016 5.60851 1.89612 7.11886 2.97351 8.19356C4.04815 9.26964 5.54605 9.35209 6.62069 8.27602M1.231 3.34779C2.10088 2.47648 3.15079 2.16314 4.17046 2.25935L3.40776 1.49661L4.90566 0L11.2765 6.36987C13.3324 8.42582 13.3722 11.2431 11.3576 13.2578C9.5464 15.0678 7.0838 15.3001 5.39626 13.53L6.64817 11.8698C7.61425 12.8634 8.9761 12.9995 10.0645 11.911C11.1804 10.7937 11.168 9.25589 9.84736 7.93519L8.89365 6.98281C8.98984 8.00253 8.66278 9.01127 7.80527 9.86883C5.99542 11.6802 3.31432 11.529 1.47561 9.69155C-0.320494 7.89534 -0.565105 5.144 1.231 3.34779" transform="translate(95.33203 20.945007)" id="Fill-153" fill="#1D1D1B" fill-rule="evenodd" stroke="none" />
  <path d="M0.788802 5.88062L1.93215 4.7372L0 2.80494L1.49653 1.30696L3.42868 3.24059L6.66771 0L7.9746 1.30696L4.73556 4.54618L7.7451 7.55451C8.47894 8.28976 9.26911 8.26365 9.90812 7.62323C10.5609 6.97044 10.4661 6.03042 9.51372 5.21408L11.0776 3.92087C12.7802 5.45871 12.7266 7.5284 11.3236 8.93019C9.70337 10.5491 7.77121 10.5766 6.20598 9.01127L3.23766 6.04416L2.09431 7.18758L0.788802 5.88062Z" transform="translate(100.56152 13.951904)" id="Fill-155" fill="#1D1D1B" fill-rule="evenodd" stroke="none" />
  <path d="M7.01523 7.00806C8.1311 5.89213 8.07613 4.2306 6.89292 3.04733C5.70835 1.86269 4.0208 1.7816 2.90494 2.89753C1.77533 4.0272 1.85503 5.71484 3.03961 6.89949C4.22556 8.08413 5.88562 8.13773 7.01523 7.00806M1.46201 1.45452C3.50272 -0.586312 6.42844 -0.410402 8.38945 1.54935C10.3642 3.52421 10.4989 6.40886 8.45816 8.45107C6.4147 10.4933 3.51647 10.371 1.54309 8.39747C-0.417925 6.43635 -0.580083 3.49673 1.46201 1.45452" transform="translate(110.06641 7.791626)" id="Fill-157" fill="#1D1D1B" fill-rule="evenodd" stroke="none" />
  <path d="M0 4.71782L1.49653 3.22121L2.19188 3.91523C2.09569 2.92023 2.40901 1.90051 3.294 1.01546C4.75068 -0.441297 6.57427 -0.305242 8.1395 1.26008L12.3858 5.50804L10.8893 7.00465L6.92882 3.04392C5.94762 2.06267 5.02277 1.98159 4.16389 2.83915C3.25278 3.75168 3.34897 5.07238 4.51843 6.24191L8.08591 9.80959L6.58801 11.3062L0 4.71782Z" transform="translate(116.46387 0)" id="Fill-159" fill="#1D1D1B" fill-rule="evenodd" stroke="none" />
</svg>