<?xml version="1.0" encoding="utf-8"?>
<svg width="80px" height="76px" viewBox="0 0 80 76" version="1.1" xmlns:xlink="http://www.w3.org/1999/xlink" xmlns="http://www.w3.org/2000/svg">
  <path d="M8.35526 5.76003C9.37767 4.73893 9.39142 3.66423 8.49268 2.76544C7.6228 1.89413 6.53304 1.89413 5.51337 2.91524L2.93946 5.48792L5.78409 8.33272L8.35526 5.76003ZM0 5.54152L4.16251 1.3774C6.0287 -0.487525 8.32777 -0.394073 9.9892 1.26745C11.6644 2.94135 11.7716 5.22818 9.89301 7.10684L7.22565 9.77573L11.0226 13.5743L9.52884 15.0709L0 5.54152Z" transform="translate(0 60.231323)" id="Fill-289" fill="#1D1D1B" fill-rule="evenodd" stroke="none" />
  <path d="M6.77089 7.20465C7.64078 6.33335 7.62703 5.06762 6.63347 4.074L6.32015 3.76066L5.23314 5.28613C4.66147 6.10109 4.26707 6.93254 4.86485 7.53036C5.34033 8.00724 6.08928 7.88493 6.77089 7.20465M3.88503 4.37222L5.14931 2.58976L4.90608 2.34376C4.34677 1.78717 3.43429 1.77343 2.59189 2.61725C1.67941 3.52841 1.76186 4.56325 2.67297 5.33973L1.16133 6.63157C-0.607291 5.02639 -0.185405 2.86187 1.28501 1.39275C3.07974 -0.404833 4.97204 -0.39109 6.39024 1.02444L10.8125 5.4483L9.41214 6.85008L8.64945 6.08872C8.86658 6.87757 8.73053 7.9399 7.83042 8.83732C6.2803 10.3889 4.55153 10.0494 3.62531 9.12317C2.31842 7.81759 2.5383 6.26463 3.88503 4.37222" transform="translate(11.858398 56.708496)" id="Fill-291" fill="#1D1D1B" fill-rule="evenodd" stroke="none" />
  <path d="M7.06706 11.6527C8.16781 10.5505 8.07299 8.93019 6.87605 7.7318C5.70384 6.5609 4.0589 6.43996 2.9554 7.54214C1.83816 8.65807 1.94809 10.3182 3.11893 11.4891C4.31587 12.6875 5.93745 12.7823 7.06706 11.6527M1.19914 6.41247C2.16659 5.44497 3.28246 5.11926 4.35573 5.21408L0.641211 1.49798L2.13911 0L11.6679 9.52938L10.17 11.026L9.39362 10.2509C9.5008 11.3393 9.16275 12.4415 8.19667 13.4076C6.39919 15.2052 3.59441 14.9606 1.62103 12.9871C-0.311124 11.0535 -0.595587 8.20868 1.19914 6.41247" transform="translate(19.072266 44.55963)" id="Fill-293" fill="#1D1D1B" fill-rule="evenodd" stroke="none" />
  <path d="M7.06636 11.6527C8.16986 10.5505 8.07503 8.93019 6.87534 7.7318C5.70588 6.5609 4.05819 6.43996 2.95744 7.54214C1.8402 8.65807 1.94739 10.3182 3.12097 11.4891C4.31792 12.6861 5.93675 12.7823 7.06636 11.6527M1.20119 6.41247C2.16864 5.44497 3.28176 5.11926 4.35777 5.21271L0.643254 1.49661L2.1384 0L11.6672 9.52938L10.1721 11.026L9.39566 10.2495C9.50285 11.3393 9.16204 12.4415 8.19596 13.4076C6.40123 15.2052 3.59645 14.9606 1.62307 12.9871C-0.311829 11.0535 -0.596292 8.20868 1.20119 6.41247" transform="translate(27.138184 36.49237)" id="Fill-295" fill="#1D1D1B" fill-rule="evenodd" stroke="none" />
  <path d="M2.57772 4.06036L4.07562 2.56238L10.6623 9.15076L9.16435 10.6487L2.57772 4.06036ZM0.384462 0.397859C0.916285 -0.13262 1.78617 -0.13262 2.31799 0.397859C2.84844 0.929712 2.84844 1.79964 2.31799 2.3315C1.80266 2.84823 0.930027 2.84823 0.400953 2.31638C-0.13087 1.7859 -0.13087 0.914595 0.384462 0.397859L0.384462 0.397859Z" transform="translate(31.296875 33.71698)" id="Fill-297" fill="#1D1D1B" fill-rule="evenodd" stroke="none" />
  <path d="M0 4.71782L1.4979 3.21983L2.19051 3.91385C2.09569 2.92023 2.40763 1.90051 3.29263 1.01546C4.75068 -0.441297 6.57289 -0.305242 8.13813 1.26008L12.3872 5.50666L10.8893 7.00465L6.92744 3.04255C5.94762 2.06267 5.0214 1.98159 4.16526 2.83915C3.25278 3.75031 3.3476 5.07101 4.51706 6.24191L8.08453 9.80821L6.58664 11.3062L0 4.71782Z" transform="translate(37.03125 29.903076)" id="Fill-299" fill="#1D1D1B" fill-rule="evenodd" stroke="none" />
  <path d="M6.62261 8.27602C7.66977 7.22743 7.61617 5.70333 6.53878 4.62726C5.46552 3.55256 3.94151 3.49759 2.89161 4.54618C1.83208 5.60713 1.89804 7.11886 2.97543 8.19356C4.0487 9.26964 5.5466 9.35072 6.62261 8.27602M1.23017 3.34779C2.1028 2.47648 3.15271 2.16314 4.17238 2.25935L3.40969 1.49661L4.90759 0L11.2771 6.36987C13.3329 8.42582 13.3728 11.2431 11.3595 13.2578C9.54833 15.0678 7.08435 15.3001 5.39543 13.53L6.6501 11.8698C7.61617 12.8634 8.97665 12.9995 10.0664 11.911C11.1823 10.7937 11.1672 9.25589 9.84928 7.93519L8.89557 6.98281C8.99039 8.00253 8.6647 9.01127 7.80582 9.86883C5.99734 11.6788 3.31349 11.529 1.47753 9.69155C-0.32132 7.89534 -0.564556 5.144 1.23017 3.34779" transform="translate(45.79883 20.944946)" id="Fill-301" fill="#1D1D1B" fill-rule="evenodd" stroke="none" />
  <path d="M0.788802 5.88062L1.93215 4.7372L0 2.80494L1.4979 1.30696L3.43005 3.24059L6.66909 0L7.97597 1.30696L4.73693 4.54618L7.74373 7.55451C8.47893 8.28976 9.27049 8.26228 9.9095 7.62323C10.5609 6.96906 10.4674 6.03042 9.5151 5.21408L11.079 3.92087C12.7816 5.45871 12.728 7.52703 11.3236 8.93019C9.70474 10.5491 7.77259 10.5766 6.2046 9.01127L3.23904 6.04416L2.09568 7.18758L0.788802 5.88062Z" transform="translate(51.02881 13.95166)" id="Fill-303" fill="#1D1D1B" fill-rule="evenodd" stroke="none" />
  <path d="M7.01473 7.00859C8.1306 5.89266 8.077 4.23113 6.89105 3.04786C5.70785 1.86322 4.01893 1.78213 2.90581 2.89806C1.77483 4.02774 1.85591 5.71537 3.03911 6.90002C4.22369 8.08466 5.88512 8.13826 7.01473 7.00859M1.46151 1.45505C3.5036 -0.587154 6.42931 -0.40987 8.38895 1.54988C10.3651 3.52474 10.4984 6.40939 8.45903 8.4516C6.41557 10.4938 3.51734 10.3715 1.54259 8.39663C-0.41705 6.43688 -0.580582 3.49726 1.46151 1.45505" transform="translate(60.53369 7.7908936)" id="Fill-305" fill="#1D1D1B" fill-rule="evenodd" stroke="none" />
  <path d="M0 4.71782L1.4979 3.21983L2.19325 3.91385C2.09569 2.92023 2.41038 1.90051 3.29538 1.01546C4.75068 -0.441297 6.57564 -0.305242 8.14088 1.26008L12.3872 5.50666L10.8893 7.00465L6.93019 3.04255C5.94762 2.06267 5.02415 1.98159 4.16526 2.83915C3.25278 3.75031 3.35035 5.07101 4.51981 6.24191L8.08728 9.80821L6.58938 11.3062L0 4.71782Z" transform="translate(66.93115 0)" id="Fill-307" fill="#1D1D1B" fill-rule="evenodd" stroke="none" />
</svg>