<?xml version="1.0" encoding="utf-8"?>
<svg width="86px" height="84px" viewBox="0 0 86 84" version="1.1" xmlns:xlink="http://www.w3.org/1999/xlink" xmlns="http://www.w3.org/2000/svg">
  <path d="M12.2773 9.41477C13.2708 8.42115 13.1898 7.27774 12.3872 6.47515C11.6122 5.69867 10.4551 5.60384 9.4615 6.59746L6.80788 9.2526L9.62229 12.0699L12.2773 9.41477ZM7.9636 5.37296C8.88708 4.44668 8.81974 3.42695 8.05842 2.66422C7.36307 1.9702 6.3434 1.90148 5.38969 2.85387L2.8996 5.34547L5.44328 7.89067L7.9636 5.37296ZM0 5.4403L4.179 1.26106C5.89403 -0.454062 7.9636 -0.318006 9.33782 1.05629C10.2379 1.95508 10.576 3.08613 10.3039 4.17457C11.6383 3.71143 13.04 4.02477 14.0885 5.07199C15.6139 6.59746 15.6812 8.81557 13.9525 10.5444L9.52884 14.9697L0 5.4403Z" transform="translate(0 68.557556)" id="Fill-349" fill="#1D1D1B" fill-rule="evenodd" stroke="none" />
  <path d="M7.01473 7.00806C8.1306 5.89213 8.07425 4.2306 6.89105 3.04733C5.70785 1.86269 4.01893 1.7816 2.90306 2.89753C1.77346 4.0272 1.85591 5.71484 3.03911 6.89949C4.22369 8.08413 5.88512 8.13773 7.01473 7.00806M1.46151 1.45452C3.50085 -0.586312 6.42931 -0.410402 8.38895 1.54935C10.3623 3.52421 10.4984 6.40886 8.45629 8.45107C6.4142 10.4933 3.51459 10.371 1.54259 8.39747C-0.41705 6.43635 -0.580582 3.49673 1.46151 1.45452" transform="translate(12.922852 63.631714)" id="Fill-351" fill="#1D1D1B" fill-rule="evenodd" stroke="none" />
  <path d="M0 4.71782L1.4979 3.22121L2.19051 3.91523C2.09569 2.92023 2.40763 1.90051 3.29263 1.01546C4.75068 -0.441297 6.57289 -0.305242 8.13813 1.26008L12.3872 5.50804L10.8893 7.00465L6.92744 3.04392C5.94762 2.06267 5.0214 1.98159 4.16526 2.83915C3.25278 3.75168 3.3476 5.07238 4.51706 6.24191L8.08453 9.80959L6.58664 11.3062L0 4.71782Z" transform="translate(19.320312 55.84021)" id="Fill-353" fill="#1D1D1B" fill-rule="evenodd" stroke="none" />
  <path d="M7.06543 11.6527C8.16893 10.5505 8.07411 8.93019 6.87441 7.7318C5.70495 6.5609 4.05864 6.43996 2.95651 7.54214C1.83927 8.65807 1.94646 10.3182 3.12005 11.4891C4.31699 12.6875 5.93582 12.7823 7.06543 11.6527M1.20026 6.41247C2.16771 5.44497 3.28358 5.11926 4.35684 5.21408L0.642328 1.49798L2.13748 0L11.6663 9.52938L10.1712 11.026L9.39473 10.2509C9.50192 11.3393 9.16112 12.4415 8.19504 13.4076C6.40031 15.2052 3.59553 14.9606 1.62215 12.9871C-0.310006 11.0535 -0.597218 8.20868 1.20026 6.41247" transform="translate(28.106934 43.750366)" id="Fill-355" fill="#1D1D1B" fill-rule="evenodd" stroke="none" />
  <path d="M5.24416 10.1474C7.08286 11.4131 8.94768 11.3183 10.3356 9.92884C11.6961 8.56829 11.8734 7.13902 10.9472 6.18663C10.1584 5.39641 8.93256 5.61492 7.08286 7.11153C4.65874 9.07128 2.63039 9.22245 0.944223 7.53482C-0.567418 6.02309 -0.227986 3.53149 1.70417 1.59922C3.48928 -0.184614 5.95325 -0.497953 7.9816 0.769149L7.0966 2.76875C5.732 1.89882 4.18188 1.97991 3.13473 3.02849C2.04497 4.11694 1.77425 5.36892 2.46823 6.06294C3.23092 6.82568 4.18463 6.71711 5.80209 5.39641C8.45708 3.23189 10.6338 2.8787 12.3887 4.63505C14.2137 6.45874 13.9966 9.15374 11.7772 11.3719C9.61417 13.5364 6.76817 13.7686 4.31793 12.0535L5.24416 10.1474Z" transform="translate(36.796387 33.514404)" id="Fill-357" fill="#1D1D1B" fill-rule="evenodd" stroke="none" />
  <path d="M0.788802 5.88062L1.93215 4.7372L0 2.80494L1.4979 1.30696L3.43005 3.24059L6.66909 0L7.9746 1.30696L4.73419 4.54618L7.74373 7.55451C8.47893 8.28976 9.26774 8.26228 9.9095 7.62323C10.5609 6.97044 10.4674 6.03042 9.5151 5.21408L11.079 3.92087C12.7816 5.45871 12.7253 7.52703 11.3236 8.93019C9.70199 10.5491 7.76984 10.5766 6.2046 9.01127L3.23904 6.04416L2.09568 7.18758L0.788802 5.88062Z" transform="translate(45.3584 27.849121)" id="Fill-359" fill="#1D1D1B" fill-rule="evenodd" stroke="none" />
  <path d="M0 4.24114L1.4979 2.74315L2.12317 3.36983C1.97338 2.48479 2.21936 1.586 2.98206 0.823261C4.179 -0.373752 5.84043 -0.373752 7.64891 1.54614L6.39837 3.26126C6.31591 3.15132 6.22109 3.05512 6.13864 2.97404C5.2825 2.11647 4.50607 2.07525 3.89179 2.68818C3.18544 3.39595 3.26652 4.51325 4.44972 5.69652L8.08453 9.33154L6.58663 10.8295L0 4.24114Z" transform="translate(53.506836 22.12854)" id="Fill-361" fill="#1D1D1B" fill-rule="evenodd" stroke="none" />
  <path d="M5.66554 2.34252C4.87673 1.60727 3.6097 1.62101 2.65737 2.5734C1.75726 3.47219 1.64732 4.69669 2.24923 5.75902L5.66554 2.34252ZM1.36285 1.28156C3.17545 -0.529766 5.63668 -0.379967 7.48775 1.47121L8.18311 2.16661L3.35135 6.99864C4.64312 7.96477 6.07368 7.89605 7.12083 6.84746C7.96598 6.00364 8.11302 4.79289 7.42041 3.82676L9.06673 2.69571C10.2788 4.37098 9.99158 6.64269 8.42772 8.20939C6.41174 10.2241 3.59596 10.0468 1.60747 8.05959C-0.365914 6.0861 -0.609151 3.25505 1.36285 1.28156L1.36285 1.28156Z" transform="translate(61.191406 15.631714)" id="Fill-363" fill="#1D1D1B" fill-rule="evenodd" stroke="none" />
  <path d="M5.66554 2.34267C4.87673 1.60742 3.6097 1.62116 2.65737 2.57355C1.75726 3.47234 1.65007 4.69684 2.24923 5.75917L5.66554 2.34267ZM1.36285 1.28171C3.17545 -0.529617 5.63805 -0.379818 7.48775 1.46999L8.18311 2.16538L3.35135 6.99879C4.64312 7.96354 6.07368 7.8962 7.12083 6.84761C7.96598 6.00379 8.11302 4.79304 7.42041 3.82691L9.06673 2.69586C10.2788 4.37113 9.99158 6.64284 8.42772 8.20954C6.41449 10.2229 3.59596 10.047 1.60747 8.05974C-0.365914 6.08625 -0.609151 3.2552 1.36285 1.28171L1.36285 1.28171Z" transform="translate(68.578125 8.24469)" id="Fill-365" fill="#1D1D1B" fill-rule="evenodd" stroke="none" />
  <path d="M0.788802 5.88062L1.93215 4.7372L0 2.80494L1.4979 1.30696L3.43005 3.24059L6.66909 0L7.97597 1.30696L4.73693 4.54618L7.74373 7.55451C8.47893 8.28976 9.27049 8.26228 9.9095 7.62323C10.5609 6.97044 10.4674 6.03042 9.5151 5.21408L11.079 3.92087C12.7816 5.45871 12.728 7.52703 11.3236 8.93019C9.70474 10.5491 7.77259 10.5766 6.2046 9.01127L3.23904 6.04416L2.09568 7.18758L0.788802 5.88062Z" transform="translate(73.20508 0)" id="Fill-367" fill="#1D1D1B" fill-rule="evenodd" stroke="none" />
</svg>