<?xml version="1.0" encoding="utf-8"?>
<svg width="56px" height="56px" viewBox="0 0 56 56" version="1.1" xmlns:xlink="http://www.w3.org/1999/xlink" xmlns="http://www.w3.org/2000/svg">
  <path d="M0 7.93519L1.49653 6.43858L5.42954 10.3718L10.3712 5.42985L6.43822 1.49661L7.93337 0L17.4622 9.528L15.9657 11.026L11.8155 6.87424L6.87385 11.8148L11.024 15.9666L9.52884 17.4646L0 7.93519Z" transform="translate(0 38.03479)" id="Fill-185" fill="#1D1D1B" fill-rule="evenodd" stroke="none" />
  <path d="M6.76999 7.20465C7.64124 6.33335 7.6275 5.06762 6.63394 4.074L6.32062 3.76066L5.23224 5.28613C4.65919 6.10247 4.26479 6.93254 4.86257 7.53173C5.3408 8.00724 6.08975 7.88493 6.76999 7.20465M3.88275 4.3736L5.14978 2.59114L4.90517 2.34514C4.34724 1.78717 3.43476 1.77343 2.59099 2.61725C1.67988 3.52978 1.75958 4.56463 2.67344 5.3411L1.1618 6.63294C-0.606821 5.02777 -0.18631 2.86325 1.28548 1.39275C3.08021 -0.404833 4.97251 -0.39109 6.39071 1.02444L10.8129 5.4483L9.40987 6.85146L8.64717 6.08872C8.86705 6.87757 8.72963 7.9399 7.83089 8.83732C6.28077 10.3889 4.552 10.0494 3.62577 9.12317C2.31889 7.81759 2.53602 6.26601 3.88275 4.3736" transform="translate(13.600098 35.16382)" id="Fill-187" fill="#1D1D1B" fill-rule="evenodd" stroke="none" />
  <path d="M0 4.71782L1.4979 3.21983L2.19188 3.91385C2.09569 2.92023 2.40901 1.90051 3.294 1.01546C4.75068 -0.441297 6.57427 -0.305242 8.1395 1.26008L12.3872 5.50666L10.8907 7.00465L6.92881 3.04255C5.949 2.06267 5.02277 1.98159 4.16526 2.83915C3.25278 3.75168 3.34897 5.07101 4.51843 6.24191L8.08591 9.80821L6.58801 11.3062L0 4.71782Z" transform="translate(19.481934 27.649475)" id="Fill-189" fill="#1D1D1B" fill-rule="evenodd" stroke="none" />
  <path d="M1.48278 8.16745L7.28199 11.3242L4.15014 5.49994L5.49825 4.15175L11.3373 7.29614L8.15325 1.49661L9.64977 0L14.1819 8.64433L12.7266 10.0997L7.06486 7.05152L10.1005 12.7274L8.61498 14.2102L0 9.65169L1.48278 8.16745Z" transform="translate(26.284668 15.913818)" id="Fill-191" fill="#1D1D1B" fill-rule="evenodd" stroke="none" />
  <path d="M5.66539 2.34267C4.87659 1.60742 3.60956 1.62116 2.65723 2.57355C1.75849 3.47234 1.64992 4.69684 2.24908 5.75917L5.66539 2.34267ZM1.36271 1.28171C3.17531 -0.529617 5.63791 -0.379818 7.48761 1.46999L8.18296 2.16538L3.35121 6.99879C4.64435 7.96354 6.07354 7.8962 7.12069 6.84761C7.96584 6.00379 8.11425 4.79304 7.42027 3.82691L9.06796 2.69586C10.2786 4.37113 9.99281 6.64284 8.42758 8.20954C6.41434 10.2229 3.59582 10.047 1.6087 8.05974C-0.366056 6.08625 -0.609292 3.2552 1.36271 1.28171L1.36271 1.28171Z" transform="translate(38.226074 10.569092)" id="Fill-193" fill="#1D1D1B" fill-rule="evenodd" stroke="none" />
  <path d="M0 1.49661L1.49653 0L11.024 9.52938L9.52884 11.026L0 1.49661Z" transform="translate(41.31494 3.1552124)" id="Fill-195" fill="#1D1D1B" fill-rule="evenodd" stroke="none" />
  <path d="M0 1.49661L1.49653 0L11.024 9.528L9.52884 11.026L0 1.49661Z" transform="translate(44.470215 0)" id="Fill-197" fill="#1D1D1B" fill-rule="evenodd" stroke="none" />
</svg>