<?xml version="1.0" encoding="utf-8"?>
<svg width="58px" height="53px" viewBox="0 0 58 53" version="1.1" xmlns:xlink="http://www.w3.org/1999/xlink" xmlns="http://www.w3.org/2000/svg">
  <path d="M0 1.49661L1.49653 0L9.58243 8.08499L14.6877 2.98085L16.1278 4.42386L9.52884 11.026L0 1.49661Z" transform="translate(0 41.917053)" id="Fill-55" fill="#1D1D1B" fill-rule="evenodd" stroke="none" />
  <path d="M6.77089 7.20465C7.64078 6.33335 7.62703 5.06762 6.63347 4.074L6.32015 3.76066L5.23314 5.28613C4.66009 6.10247 4.26569 6.93254 4.86348 7.53173C5.34033 8.00724 6.08928 7.88493 6.77089 7.20465M3.88366 4.3736L5.14931 2.59114L4.90608 2.34514C4.34677 1.78717 3.43429 1.77343 2.59189 2.61725C1.67941 3.52978 1.76049 4.56463 2.67297 5.3411L1.16133 6.63294C-0.607291 5.02777 -0.185405 2.86325 1.28501 1.39275C3.08111 -0.404833 4.97341 -0.39109 6.39024 1.02444L10.8125 5.4483L9.41077 6.85146L8.64808 6.08872C8.86658 6.87757 8.73053 7.9399 7.83042 8.83732C6.2803 10.3889 4.55153 10.0494 3.62531 9.12317C2.3198 7.81759 2.53692 6.26601 3.88366 4.3736" transform="translate(11.641602 34.566284)" id="Fill-57" fill="#1D1D1B" fill-rule="evenodd" stroke="none" />
  <path d="M0 4.71782L1.49653 3.22121L2.19051 3.91523C2.09569 2.92023 2.40901 1.90051 3.29263 1.01546C4.75068 -0.441297 6.57289 -0.305242 8.13813 1.26008L12.3858 5.50804L10.8893 7.00465L6.92744 3.04392C5.94762 2.06267 5.0214 1.98159 4.16389 2.83915C3.25278 3.75168 3.3476 5.07238 4.51706 6.24191L8.08453 9.80959L6.58663 11.3062L0 4.71782Z" transform="translate(17.523926 27.052002)" id="Fill-59" fill="#1D1D1B" fill-rule="evenodd" stroke="none" />
  <path d="M6.62275 8.27602C7.66991 7.22743 7.61631 5.70196 6.53892 4.62726C5.46566 3.55118 3.94027 3.49759 2.89175 4.54618C1.83085 5.60713 1.89818 7.11886 2.9742 8.19356C4.04884 9.26964 5.54674 9.35072 6.62275 8.27602M1.23031 3.34779C2.10294 2.47648 3.15147 2.16314 4.17252 2.25935L3.40983 1.49661L4.90772 0L11.2772 6.36987C13.3331 8.42582 13.3729 11.2431 11.3583 13.2578C9.54846 15.0678 7.08449 15.3001 5.39557 13.53L6.65024 11.8698C7.61631 12.8621 8.97679 12.9995 10.0665 11.911C11.1824 10.7937 11.1687 9.25452 9.84942 7.93519L8.89571 6.98281C8.99053 8.00253 8.66347 9.01127 7.80595 9.86883C5.99611 11.6788 3.31363 11.529 1.4763 9.69155C-0.32118 7.89534 -0.564417 5.144 1.23031 3.34779" transform="translate(26.291504 18.094604)" id="Fill-61" fill="#1D1D1B" fill-rule="evenodd" stroke="none" />
  <path d="M0 1.49798L1.4979 0L11.0254 9.52938L9.52884 11.0274L0 1.49798Z" transform="translate(29.913574 11.999268)" id="Fill-63" fill="#1D1D1B" fill-rule="evenodd" stroke="none" />
  <path d="M5.66416 2.34267C4.87536 1.60742 3.6097 1.62116 2.65737 2.57355C1.75726 3.47234 1.64869 4.69684 2.24923 5.75917L5.66416 2.34267ZM1.36285 1.28171C3.17408 -0.529617 5.63668 -0.379818 7.48775 1.46999L8.18311 2.16538L3.34998 6.99879C4.64312 7.96354 6.07231 7.8962 7.12083 6.84761C7.96461 6.00379 8.11302 4.79304 7.42041 3.82691L9.06673 2.69586C10.2774 4.37113 9.99158 6.64284 8.42772 8.20954C6.41311 10.2229 3.59596 10.047 1.60747 8.05974C-0.365914 6.08625 -0.609151 3.2552 1.36285 1.28171L1.36285 1.28171Z" transform="translate(37.370117 8.869751)" id="Fill-65" fill="#1D1D1B" fill-rule="evenodd" stroke="none" />
  <path d="M7.85366 11.7612C8.88845 12.9047 10.1679 12.7686 11.0927 11.8437C12.1825 10.7539 12.1412 9.24215 10.9031 8.00391L9.94935 7.05015C10.0593 8.08637 9.73222 9.11984 8.83348 10.0186C7.36307 11.4878 5.51337 11.3531 3.93302 9.774L0 5.89436L1.4979 4.39638L5.11897 8.01765C6.1249 9.02501 7.06486 9.09235 7.96223 8.19356C8.90219 7.25492 8.806 5.90673 7.6228 4.72209L4.39613 1.49661L5.89403 0L12.346 6.45233C14.3056 8.41208 14.4128 11.1882 12.4271 13.1768C10.6571 14.9455 8.24807 15.1777 6.62649 13.3664L7.85366 11.7612Z" transform="translate(43.39746 0)" id="Fill-67" fill="#1D1D1B" fill-rule="evenodd" stroke="none" />
</svg>