<?xml version="1.0" encoding="utf-8"?>
<svg width="112px" height="112px" viewBox="0 0 112 112" version="1.1" xmlns:xlink="http://www.w3.org/1999/xlink" xmlns="http://www.w3.org/2000/svg">
  <path d="M0 7.93519L1.49653 6.43858L5.42954 10.3718L10.3712 5.42985L6.43822 1.49661L7.93337 0L17.4622 9.528L15.9657 11.026L11.8155 6.87424L6.87385 11.8148L11.024 15.9666L9.52884 17.4646L0 7.93519Z" transform="translate(0 93.973694)" id="Fill-99" fill="#1D1D1B" fill-rule="evenodd" stroke="none" />
  <path d="M5.66554 2.34252C4.87536 1.60727 3.6097 1.62238 2.65737 2.57477C1.75726 3.47219 1.64869 4.69669 2.24923 5.75902L5.66554 2.34252ZM1.36285 1.28156C3.17545 -0.529766 5.63668 -0.379967 7.48775 1.47121L8.18311 2.16661L3.34998 6.99864C4.64312 7.96477 6.07368 7.89605 7.12083 6.84746C7.96598 6.00364 8.1144 4.79289 7.42041 3.82676L9.06673 2.69708C10.2774 4.37098 9.99158 6.64407 8.42772 8.20939C6.41311 10.2241 3.59596 10.0468 1.60747 8.05959C-0.365914 6.0861 -0.609151 3.25505 1.36285 1.28156L1.36285 1.28156Z" transform="translate(13.970703 90.76495)" id="Fill-101" fill="#1D1D1B" fill-rule="evenodd" stroke="none" />
  <path d="M6.77089 7.20465C7.64078 6.33335 7.62703 5.06762 6.63347 4.074L6.32015 3.76066L5.23314 5.28613C4.66009 6.10247 4.26569 6.93254 4.86348 7.53173C5.34033 8.00724 6.08928 7.88493 6.77089 7.20465M3.88366 4.3736L5.14931 2.59114L4.90608 2.34514C4.34677 1.78717 3.43429 1.77343 2.59189 2.61725C1.67941 3.52978 1.76049 4.56463 2.67297 5.3411L1.16133 6.63294C-0.607291 5.02776 -0.185405 2.86325 1.28501 1.39275C3.08111 -0.404833 4.97341 -0.39109 6.39024 1.02444L10.8125 5.4483L9.41077 6.85146L8.64808 6.08872C8.86658 6.87757 8.73053 7.9399 7.83042 8.83732C6.2803 10.3889 4.55153 10.0508 3.62531 9.12455C2.31842 7.81759 2.53692 6.26601 3.88366 4.3736" transform="translate(20.986816 83.71515)" id="Fill-103" fill="#1D1D1B" fill-rule="evenodd" stroke="none" />
  <path d="M0.788802 5.88062L1.93215 4.7372L0 2.80494L1.49653 1.30696L3.42868 3.24059L6.66771 0L7.9746 1.30696L4.73419 4.54618L7.74373 7.55451C8.47894 8.28976 9.26774 8.26228 9.90812 7.62323C10.5609 6.96906 10.4661 6.03042 9.51372 5.21408L11.0776 3.92087C12.7802 5.45871 12.7253 7.52703 11.3236 8.92881C9.70199 10.5491 7.76984 10.5766 6.2046 9.01127L3.23766 6.04416L2.09431 7.18758L0.788802 5.88062Z" transform="translate(25.536133 75.58295)" id="Fill-105" fill="#1D1D1B" fill-rule="evenodd" stroke="none" />
  <path d="M0 1.77668L1.49515 0.280068L5.12859 3.91508C5.03514 2.92147 5.34984 1.90036 6.23209 1.01532C7.69013 -0.441439 9.51235 -0.305383 11.079 1.26132L15.3253 5.50789L13.8288 7.00451L9.86827 3.04241C8.88708 2.06253 7.96085 1.98145 7.10472 2.83901C6.19223 3.75154 6.28706 5.07224 7.45789 6.24314L11.0226 9.80945L9.52884 11.3061L0 1.77668Z" transform="translate(30.745605 69.38501)" id="Fill-107" fill="#1D1D1B" fill-rule="evenodd" stroke="none" />
  <path d="M0 4.24045L1.49653 2.74384L2.12317 3.36915C1.97338 2.4841 2.21662 1.58531 2.97931 0.823947C4.17763 -0.37444 5.83768 -0.373066 7.64891 1.54545L6.39562 3.26058C6.31454 3.15201 6.21834 3.05581 6.13864 2.97472C5.27975 2.11716 4.50332 2.07593 3.89179 2.68887C3.18269 3.39663 3.26652 4.51256 4.44972 5.69721L8.08453 9.33222L6.58663 10.8288L0 4.24045Z" transform="translate(41.140625 62.406433)" id="Fill-109" fill="#1D1D1B" fill-rule="evenodd" stroke="none" />
  <path d="M7.01523 7.00806C8.1311 5.89213 8.07475 4.23198 6.89155 3.04733C5.70697 1.86269 4.01943 1.7816 2.90356 2.89753C1.77396 4.02858 1.85503 5.71484 3.03961 6.89949C4.22419 8.08413 5.88425 8.1391 7.01523 7.00806M1.46201 1.45452C3.50135 -0.586312 6.42844 -0.410402 8.38945 1.54935C10.3628 3.52421 10.4989 6.40886 8.45679 8.45107C6.4147 10.4933 3.51509 10.371 1.54309 8.39747C-0.417925 6.43635 -0.580083 3.49673 1.46201 1.45452" transform="translate(48.890137 55.572388)" id="Fill-111" fill="#1D1D1B" fill-rule="evenodd" stroke="none" />
  <path d="M1.48416 8.16745L7.28199 11.3242L4.15152 5.49994L5.49963 4.15175L11.3401 7.29614L8.15462 1.49661L9.65114 0L14.1847 8.64296L12.728 10.0997L7.06486 7.05152L10.1005 12.7274L8.61636 14.2102L0 9.65169L1.48416 8.16745Z" transform="translate(54.606445 43.527893)" id="Fill-113" fill="#1D1D1B" fill-rule="evenodd" stroke="none" />
  <path d="M0 7.7318L7.73136 0L9.17429 1.44301L6.05756 4.55992L14.1421 12.6463L12.6442 14.1443L4.55966 6.0579L1.4443 9.17481L0 7.7318Z" transform="translate(65.43359 28.738953)" id="Fill-115" fill="#1D1D1B" fill-rule="evenodd" stroke="none" />
  <path d="M1.41526 8.27515C-0.0826372 6.77717 -0.926408 4.13714 1.67362 1.53697C3.64699 -0.436521 6.19342 -0.505236 8.00327 1.30609C11.3935 4.69511 7.11827 8.75203 8.33034 11.4594L13.272 6.5188L14.7136 7.96181L7.97579 14.7L7.17324 13.896C3.34879 10.0714 9.09165 5.44272 6.53286 2.88516C5.49944 1.85031 4.17882 1.91765 3.11517 2.97998C1.66125 4.43674 2.23292 5.85226 3.11517 6.73594C3.36253 6.98194 3.61951 7.18533 3.87924 7.33513L2.12299 8.87434C1.87837 8.7108 1.64751 8.50603 1.41526 8.27515" transform="translate(75.6792 22.605774)" id="Fill-117" fill="#1D1D1B" fill-rule="evenodd" stroke="none" />
  <path d="M0 1.48424L1.48278 0L7.54034 13.0009L6.05619 14.4837L0 1.48424Z" transform="translate(85.44678 14.971863)" id="Fill-119" fill="#1D1D1B" fill-rule="evenodd" stroke="none" />
  <path d="M0 7.7318L7.73273 0L9.17704 1.44301L6.05756 4.55992L14.1435 12.6463L12.6469 14.1429L4.56103 6.0579L1.4443 9.17481L0 7.7318Z" transform="translate(87.947266 6.2233887)" id="Fill-121" fill="#1D1D1B" fill-rule="evenodd" stroke="none" />
  <path d="M6.10198 10.0255C6.18444 10.1066 6.23941 10.1891 6.31911 10.2715C7.32779 11.2789 8.70338 11.4287 9.99515 10.1355C11.2883 8.8409 11.3982 7.39788 10.3909 6.39052C9.40973 5.41065 8.09048 5.67039 6.85093 6.90863L5.95357 7.80742L4.57798 6.43175L5.408 5.57419C6.53761 4.41703 6.52524 3.36982 5.81752 2.66206C5.06857 1.91306 4.0063 2.02163 2.95914 3.06885C1.76083 4.26723 2.11537 5.49311 2.86295 6.24073L1.1067 7.50783C-0.391203 5.98236 -0.470907 3.61444 1.5011 1.64095C3.62427 -0.482338 5.81752 -0.361399 7.13815 0.9593C7.94069 1.76326 8.33509 2.78437 8.19767 3.92778C9.65572 3.50587 10.9626 3.88655 11.9287 4.85269C13.5475 6.47298 13.8608 9.15424 11.4243 11.5909C9.08404 13.9327 6.38782 13.6606 4.75525 11.863L6.10198 10.0255Z" transform="translate(98.35205 0)" id="Fill-123" fill="#1D1D1B" fill-rule="evenodd" stroke="none" />
</svg>