<?xml version="1.0" encoding="utf-8"?>
<svg width="113px" height="111px" viewBox="0 0 113 111" version="1.1" xmlns:xlink="http://www.w3.org/1999/xlink" xmlns="http://www.w3.org/2000/svg">
  <g id="Group-2">
    <path d="M0 1.49661L1.49515 0L9.58243 8.08499L14.6877 2.98085L16.1278 4.42386L9.52884 11.026L0 1.49661Z" transform="translate(0 99.34204)" id="Fill-400" fill="#1D1D1B" fill-rule="evenodd" stroke="none" />
    <path d="M2.57737 4.06036L4.07526 2.56238L10.6646 9.15076L9.16675 10.6487L2.57737 4.06036ZM0.38686 0.397859C0.918683 -0.13262 1.78856 -0.13262 2.32039 0.397859C2.85084 0.929712 2.85084 1.79964 2.32039 2.3315C1.80505 2.84823 0.932425 2.84823 0.400602 2.31638C-0.131221 1.7859 -0.131221 0.914595 0.38686 0.397859L0.38686 0.397859Z" transform="translate(8.196289 91.88306)" id="Fill-402" fill="#1D1D1B" fill-rule="evenodd" stroke="none" />
    <path d="M1.56798 5.29517L8.07354 8.07262L5.29624 1.56532L6.86148 0L10.7959 9.24352L9.23063 10.8088L0 6.86049L1.56798 5.29517Z" transform="translate(13.384766 86.47107)" id="Fill-404" fill="#1D1D1B" fill-rule="evenodd" stroke="none" />
    <path d="M5.66388 2.34267C4.87508 1.60742 3.60805 1.62116 2.65571 2.57355C1.75835 3.47234 1.64841 4.69684 2.24757 5.75917L5.66388 2.34267ZM1.36394 1.28171C3.17379 -0.529617 5.63639 -0.379818 7.48884 1.46999L8.1842 2.16538L3.34969 6.99879C4.64421 7.96354 6.07202 7.8962 7.12193 6.84761C7.96432 6.00379 8.11411 4.79304 7.41876 3.82691L9.06782 2.69586C10.2771 4.37113 9.99267 6.64284 8.42881 8.20954C6.41283 10.2229 3.5943 10.047 1.60856 8.05974C-0.364824 6.08625 -0.610809 3.2552 1.36394 1.28171L1.36394 1.28171Z" transform="translate(22.459473 81.20599)" id="Fill-406" fill="#1D1D1B" fill-rule="evenodd" stroke="none" />
    <path d="M0 4.24045L1.4979 2.74247L2.12317 3.36915C1.97338 2.4841 2.21662 1.58531 2.97931 0.823947C4.179 -0.37444 5.83768 -0.373066 7.64891 1.54545L6.39562 3.26058C6.31591 3.15063 6.21834 3.05581 6.13864 2.97472C5.27975 2.11716 4.50332 2.07593 3.89179 2.68887C3.18269 3.39663 3.26652 4.51256 4.44972 5.69583L8.08453 9.33085L6.58663 10.8288L0 4.24045Z" transform="translate(28.488281 73.9895)" id="Fill-408" fill="#1D1D1B" fill-rule="evenodd" stroke="none" />
    <path d="M8.72629 7.09967C9.84216 5.98374 9.73222 4.32221 8.54902 3.13894C7.35207 1.94056 5.7305 1.84573 4.60364 2.9754C3.50014 4.07759 3.59496 5.69788 4.79465 6.89627C5.97786 8.07954 7.6228 8.20185 8.72629 7.09967L8.72629 7.09967ZM0 5.09869L1.4979 3.60208L2.27433 4.37718C2.16714 3.28874 2.50795 2.18655 3.47403 1.22042C5.2825 -0.590901 8.07354 -0.332533 10.0469 1.64096C11.9928 3.58834 12.2938 6.41939 10.4812 8.23071C9.5151 9.19685 8.39923 9.52255 7.31222 9.41398L11.1504 13.2524L9.65252 14.7504L0 5.09869Z" transform="translate(34.811035 66.80469)" id="Fill-410" fill="#1D1D1B" fill-rule="evenodd" stroke="none" />
    <path d="M7.01473 7.00806C8.1306 5.89213 8.077 4.2306 6.8938 3.04733C5.70785 1.86269 4.02168 1.7816 2.90581 2.89753C1.77483 4.0272 1.85591 5.71484 3.03911 6.89949C4.22644 8.08413 5.88512 8.13773 7.01473 7.00806M1.46151 1.45452C3.5036 -0.586312 6.42931 -0.410402 8.38895 1.54935C10.3651 3.52421 10.4984 6.40886 8.45903 8.45107C6.41557 10.4933 3.51734 10.371 1.54259 8.39747C-0.41705 6.43635 -0.580582 3.49673 1.46151 1.45452" transform="translate(44.30371 59.087402)" id="Fill-412" fill="#1D1D1B" fill-rule="evenodd" stroke="none" />
    <path d="M7.01473 7.00859C8.12922 5.89266 8.07425 4.23113 6.89105 3.04786C5.70785 1.86322 4.01893 1.78213 2.90307 2.89806C1.77346 4.02774 1.85316 5.71537 3.03911 6.90002C4.22369 8.08466 5.88512 8.13826 7.01473 7.00859M1.46151 1.45505C3.50085 -0.587154 6.42656 -0.40987 8.38895 1.54988C10.3623 3.52474 10.4984 6.40939 8.45629 8.4516C6.4142 10.4938 3.51459 10.3715 1.54259 8.39663C-0.41705 6.43688 -0.580582 3.49726 1.46151 1.45505" transform="translate(52.12793 51.264526)" id="Fill-414" fill="#1D1D1B" fill-rule="evenodd" stroke="none" />
    <path d="M0 1.49798L1.4979 0L11.0254 9.52938L9.52884 11.0274L0 1.49798Z" transform="translate(55.583496 43.752808)" id="Fill-416" fill="#1D1D1B" fill-rule="evenodd" stroke="none" />
    <path d="M5.24527 10.1474C7.08123 11.4131 8.94605 11.3183 10.334 9.92884C11.6945 8.56829 11.8718 7.13902 10.9455 6.18663C10.1567 5.39641 8.93368 5.61492 7.08123 7.11153C4.65711 9.07128 2.63151 9.22245 0.942592 7.53482C-0.567675 6.02309 -0.226869 3.53149 1.70528 1.59922C3.48765 -0.184614 5.95162 -0.497953 7.97997 0.769149L7.09497 2.76875C5.73312 1.89882 4.183 1.97991 3.1331 3.02849C2.04609 4.11694 1.77262 5.36892 2.46798 6.06294C3.22929 6.82568 4.183 6.71711 5.80321 5.39641C8.45545 3.23189 10.635 2.8787 12.3898 4.63505C14.2121 6.45874 13.9949 9.15374 11.7783 11.3719C9.61254 13.5364 6.76928 13.7686 4.31905 12.0535L5.24527 10.1474Z" transform="translate(63.634766 33.514343)" id="Fill-418" fill="#1D1D1B" fill-rule="evenodd" stroke="none" />
    <path d="M0.786054 5.88062L1.93215 4.73583L0 2.80357L1.49515 1.30696L3.4273 3.23922L6.66634 0L7.97322 1.30558L4.73419 4.54618L7.74235 7.55451C8.47894 8.28839 9.26774 8.26228 9.90675 7.62323C10.5609 6.96906 10.4647 6.02904 9.51235 5.21408L11.0762 3.9195C12.7789 5.45733 12.7253 7.52703 11.3236 8.92881C9.70199 10.5491 7.76984 10.5766 6.2046 9.00989L3.23629 6.04279L2.09294 7.18758L0.786054 5.88062Z" transform="translate(72.197754 27.84906)" id="Fill-420" fill="#1D1D1B" fill-rule="evenodd" stroke="none" />
    <path d="M0 4.2409L1.49515 2.74429L2.12317 3.36959C1.97338 2.48455 2.21662 1.58576 2.97931 0.824396C4.17625 -0.373992 5.83768 -0.373992 7.64891 1.5459L6.39562 3.26102C6.31316 3.15246 6.21834 3.05625 6.13864 2.97517C5.27975 2.11761 4.50332 2.07638 3.89179 2.68932C3.18269 3.39708 3.26652 4.51301 4.44972 5.69765L8.08453 9.33267L6.58663 10.8293L0 4.2409Z" transform="translate(80.34619 22.12799)" id="Fill-422" fill="#1D1D1B" fill-rule="evenodd" stroke="none" />
    <path d="M5.66388 2.34252C4.87508 1.60727 3.60805 1.62101 2.65571 2.5734C1.75835 3.47219 1.64841 4.69669 2.24757 5.75902L5.66388 2.34252ZM1.36394 1.28156C3.17379 -0.529766 5.63639 -0.379967 7.48609 1.47121L8.18145 2.16661L3.34969 6.99864C4.64421 7.96477 6.07202 7.89605 7.12193 6.84746C7.96432 6.00364 8.11411 4.79289 7.41876 3.82676L9.06782 2.69571C10.2771 4.37098 9.99267 6.64269 8.42881 8.20939C6.41283 10.2227 3.5943 10.0468 1.60856 8.05959C-0.364824 6.0861 -0.610809 3.25505 1.36394 1.28156L1.36394 1.28156Z" transform="translate(88.029785 15.631653)" id="Fill-424" fill="#1D1D1B" fill-rule="evenodd" stroke="none" />
    <path d="M5.66279 2.34252C4.87399 1.60727 3.6097 1.62101 2.656 2.5734C1.75726 3.47219 1.64732 4.69669 2.24923 5.75902L5.66279 2.34252ZM1.36285 1.28156C3.1727 -0.529766 5.6353 -0.379967 7.48775 1.47121L8.18311 2.16661L3.3486 6.99864C4.64312 7.96477 6.07093 7.89605 7.12083 6.84746C7.96323 6.00364 8.11302 4.79289 7.42041 3.82676L9.06673 2.69571C10.276 4.37098 9.99158 6.64269 8.42772 8.20939C6.41174 10.2227 3.59596 10.0468 1.60747 8.05959C-0.365914 6.0861 -0.609151 3.25505 1.36285 1.28156L1.36285 1.28156Z" transform="translate(95.41748 8.244263)" id="Fill-426" fill="#1D1D1B" fill-rule="evenodd" stroke="none" />
    <path d="M0.788802 5.88062L1.93215 4.73583L0 2.80357L1.4979 1.30696L3.43005 3.23922L6.66909 0L7.9746 1.30558L4.73419 4.54618L7.74373 7.55451C8.47894 8.28839 9.26774 8.26228 9.9095 7.62323C10.5609 6.96906 10.4674 6.02904 9.5151 5.21408L11.079 3.9195C12.7789 5.45871 12.7253 7.52703 11.3236 8.92881C9.70199 10.5491 7.76984 10.5766 6.2046 9.00989L3.23904 6.04279L2.09294 7.18758L0.788802 5.88062Z" transform="translate(100.04443 0)" id="Fill-428" fill="#1D1D1B" fill-rule="evenodd" stroke="none" />
  </g>
</svg>