<?xml version="1.0" encoding="utf-8"?>
<svg width="138px" height="135px" viewBox="0 0 138 135" version="1.1" xmlns:xlink="http://www.w3.org/1999/xlink" xmlns="http://www.w3.org/2000/svg">
  <path d="M0 7.7318L7.72998 0L9.17429 1.44301L6.05481 4.56129L14.1421 12.6463L12.6442 14.1443L4.55966 6.0579L1.44156 9.17481L0 7.7318Z" transform="translate(0 120.551636)" id="Fill-313" fill="#1D1D1B" fill-rule="evenodd" stroke="none" />
  <path d="M7.01473 7.00859C8.1306 5.89266 8.07425 4.23113 6.89105 3.04786C5.70785 1.86322 4.01893 1.78076 2.90306 2.89806C1.77346 4.02774 1.85591 5.71537 3.03911 6.89864C4.22369 8.08329 5.88512 8.13826 7.01473 7.00859M1.46151 1.45505C3.5036 -0.587154 6.42931 -0.40987 8.38895 1.54988C10.3651 3.52337 10.4984 6.40939 8.45629 8.4516C6.41557 10.4938 3.51734 10.3715 1.54259 8.39663C-0.41705 6.43688 -0.580582 3.49726 1.46151 1.45505" transform="translate(11.437988 119.400635)" id="Fill-315" fill="#1D1D1B" fill-rule="evenodd" stroke="none" />
  <path d="M0.788802 5.88062L1.93215 4.7372L0 2.80494L1.4979 1.30696L3.43005 3.24059L6.66909 0L7.97597 1.30558L4.73693 4.54618L7.74373 7.55451C8.47893 8.28976 9.27049 8.26228 9.9095 7.62323C10.5609 6.96906 10.4674 6.03042 9.5151 5.21408L11.079 3.92087C12.7816 5.45734 12.728 7.52703 11.3236 8.92881C9.70474 10.5491 7.77259 10.5766 6.2046 9.01127L3.23904 6.04416L2.09568 7.18758L0.788802 5.88062Z" transform="translate(16.501465 110.99103)" id="Fill-317" fill="#1D1D1B" fill-rule="evenodd" stroke="none" />
  <path d="M0.788802 5.88062L1.93215 4.73583L0 2.80357L1.4979 1.30696L3.43005 3.23922L6.66909 0L7.97597 1.30558L4.73693 4.54618L7.7451 7.55451C8.47893 8.28839 9.27049 8.26228 9.9095 7.62323C10.5609 6.96906 10.4674 6.02904 9.5151 5.21408L11.079 3.9195C12.7816 5.45871 12.728 7.52703 11.3236 8.92881C9.70474 10.5491 7.77259 10.5766 6.20735 9.00989L3.23904 6.04279L2.09568 7.18758L0.788802 5.88062Z" transform="translate(23.018555 104.473816)" id="Fill-319" fill="#1D1D1B" fill-rule="evenodd" stroke="none" />
  <path d="M5.66554 2.34252C4.87673 1.60727 3.6097 1.62101 2.65737 2.5734C1.75726 3.47219 1.65007 4.69669 2.24923 5.75902L5.66554 2.34252ZM1.36285 1.28156C3.17545 -0.529766 5.63805 -0.379967 7.48775 1.47121L8.18311 2.16661L3.35135 6.99864C4.64312 7.96477 6.07368 7.89605 7.12083 6.84746C7.96598 6.00364 8.11577 4.79289 7.42041 3.82676L9.06948 2.69571C10.2788 4.37098 9.99158 6.64407 8.42772 8.20939C6.41449 10.2241 3.59596 10.0468 1.60747 8.05959C-0.365914 6.0861 -0.60915 3.25505 1.36285 1.28156L1.36285 1.28156Z" transform="translate(32.458008 98.65021)" id="Fill-321" fill="#1D1D1B" fill-rule="evenodd" stroke="none" />
  <path d="M0 4.71782L1.4979 3.21983L2.19325 3.91385C2.09569 2.92023 2.41038 1.90051 3.29538 1.01546C4.75068 -0.441297 6.57564 -0.305242 8.14088 1.26008L12.3872 5.50666L10.8893 7.00465L6.93019 3.04255C5.94762 2.06267 5.02415 1.98159 4.16526 2.83915C3.25278 3.75031 3.35035 5.07101 4.51981 6.24191L8.08728 9.80821L6.58938 11.3062L0 4.71782Z" transform="translate(38.48633 90.95691)" id="Fill-323" fill="#1D1D1B" fill-rule="evenodd" stroke="none" />
  <path d="M0 1.77805L1.4979 0.280068L5.13134 3.91508C5.03789 2.92147 5.34984 1.90036 6.23483 1.01532C7.69288 -0.441439 9.5151 -0.305383 11.0803 1.26132L15.328 5.50789L13.8301 7.0045L9.86965 3.04378C8.88983 2.06391 7.9636 1.98145 7.10746 2.83901C6.19498 3.75154 6.28843 5.07224 7.45926 6.24314L11.0254 9.80945L9.52884 11.3074L0 1.77805Z" transform="translate(43.000977 83.500854)" id="Fill-325" fill="#1D1D1B" fill-rule="evenodd" stroke="none" />
  <path d="M6.76999 7.20465C7.63987 6.33335 7.62888 5.06762 6.63257 4.074L6.32199 3.76066L5.23224 5.28613C4.66056 6.10109 4.26616 6.93254 4.86395 7.53036C5.33943 8.00724 6.08838 7.88493 6.76999 7.20465M3.88413 4.37222L5.15116 2.58976L4.90517 2.34376C4.34587 1.78717 3.43338 1.77343 2.59099 2.61725C1.6785 3.52841 1.76096 4.56325 2.67481 5.33973L1.16317 6.63157C-0.608196 5.02639 -0.184937 2.86187 1.2841 1.39275C3.08158 -0.404833 4.97388 -0.39109 6.38933 1.02444L10.8116 5.4483L9.41124 6.85008L8.64855 6.08872C8.86567 6.87757 8.72963 7.9399 7.82951 8.83732C6.27939 10.3889 4.55337 10.0494 3.62715 9.12317C2.32027 7.81621 2.53739 6.26463 3.88413 4.37222" transform="translate(54.385254 76.68994)" id="Fill-327" fill="#1D1D1B" fill-rule="evenodd" stroke="none" />
  <path d="M0 7.81377L1.44156 6.37213L2.17676 7.10738C1.93215 6.15362 2.13691 5.24246 2.87212 4.50721C3.74475 3.63591 4.75068 3.38991 5.78409 3.88053C5.44603 2.80446 5.63705 1.7435 6.49319 0.885936C7.71624 -0.338563 9.16055 -0.339938 10.6722 1.17179L15.2593 5.70422L13.8013 7.16098L9.5948 2.95425C8.71255 2.06921 8.03094 2.04309 7.37819 2.69589C6.68283 3.38991 6.72406 4.32993 7.7025 5.44586L11.652 9.31175L10.2366 10.7273L6.03145 6.52193C5.14508 5.63688 4.44972 5.62314 3.7846 6.28967C3.06314 7.01118 3.1291 8.05977 4.32879 9.25816L8.0172 12.9468L6.57564 14.3884L0 7.81377Z" transform="translate(60.280273 66.092285)" id="Fill-329" fill="#1D1D1B" fill-rule="evenodd" stroke="none" />
  <path d="M2.0283 1.87101C4.17758 -0.279765 6.99611 -0.565619 9.2567 0.958477L8.34422 2.79729C6.80646 1.72121 4.92653 1.85727 3.45612 3.32777C1.51022 5.27377 1.7301 8.10482 3.5798 9.956C5.77305 12.148 8.60394 12.2841 10.6309 10.257C12.1948 8.69027 12.482 6.39108 11.0954 4.67458L12.8778 3.51879C14.7962 5.92794 14.4279 9.34444 12.1013 11.6711C9.14676 14.6259 5.10381 14.4761 2.25917 11.6313C-0.559353 8.81259 -0.857559 4.75704 2.0283 1.87101" transform="translate(73.50293 50.467773)" id="Fill-331" fill="#1D1D1B" fill-rule="evenodd" stroke="none" />
  <path d="M7.01473 7.00859C8.1306 5.89266 8.077 4.23113 6.89105 3.04649C5.70785 1.86184 4.01893 1.78213 2.90306 2.89806C1.77483 4.02774 1.85591 5.71537 3.03911 6.90002C4.22369 8.08466 5.88512 8.13826 7.01473 7.00859M1.46151 1.45505C3.5036 -0.587154 6.42931 -0.40987 8.38895 1.54988C10.3623 3.52474 10.4984 6.40939 8.45629 8.4516C6.41557 10.4938 3.51734 10.3715 1.54259 8.39663C-0.41705 6.43688 -0.580582 3.49726 1.46151 1.45505" transform="translate(86.04297 44.79132)" id="Fill-333" fill="#1D1D1B" fill-rule="evenodd" stroke="none" />
  <path d="M12.3872 6.58838L10.8893 8.08499L10.194 7.39097C10.2915 8.38596 9.97683 9.40569 9.09459 10.2907C7.63654 11.7475 5.81157 11.6114 4.24634 10.0461L0 5.79954L1.4979 4.30155L5.45977 8.26228C6.43959 9.24352 7.36582 9.32461 8.22196 8.46705C9.13444 7.55451 9.03687 6.23381 7.86741 5.06291L4.30268 1.49661L5.79783 0L12.3872 6.58838Z" transform="translate(92.43994 35.918945)" id="Fill-335" fill="#1D1D1B" fill-rule="evenodd" stroke="none" />
  <path d="M0 4.24114L1.4979 2.74315L2.12592 3.36983C1.97475 2.48479 2.21936 1.586 2.98206 0.823261C4.179 -0.373752 5.84043 -0.373752 7.65165 1.54614L6.39837 3.26126C6.31866 3.15132 6.22109 3.05512 6.14139 2.97404C5.2825 2.11647 4.50607 2.07525 3.89454 2.68818C3.18544 3.39595 3.26927 4.51325 4.45247 5.69652L8.08728 9.33154L6.58938 10.8295L0 4.24114Z" transform="translate(99.89404 30.021606)" id="Fill-337" fill="#1D1D1B" fill-rule="evenodd" stroke="none" />
  <path d="M0.788802 5.88062L1.93215 4.7372L0 2.80494L1.4979 1.30696L3.43005 3.24059L6.66909 0L7.9746 1.30696L4.73419 4.54618L7.74373 7.55451C8.47893 8.28976 9.26774 8.26228 9.9095 7.62323C10.5609 6.96906 10.4674 6.03042 9.5151 5.21408L11.079 3.92087C12.7816 5.45871 12.7253 7.52703 11.3236 8.92881C9.70199 10.5491 7.76984 10.5766 6.2046 9.01127L3.23904 6.04416L2.09568 7.18758L0.788802 5.88062Z" transform="translate(104.96973 22.518555)" id="Fill-339" fill="#1D1D1B" fill-rule="evenodd" stroke="none" />
  <path d="M8.44183 5.74465C9.42165 4.76477 9.47524 3.64884 8.5765 2.75005C7.70662 1.87875 6.57701 1.91998 5.5972 2.89985L2.9422 5.55499L5.78684 8.39979L8.44183 5.74465ZM0 5.60859L4.24909 1.36201C6.0713 -0.463057 8.41297 -0.408085 10.073 1.25207C11.3813 2.55902 11.7084 4.24803 10.9319 5.81336L16.7971 7.89542L15.1659 9.52809L9.56869 7.501L7.22839 9.84143L11.0267 13.64L9.52884 15.1366L0 5.60859Z" transform="translate(113.68652 8.979431)" id="Fill-341" fill="#1D1D1B" fill-rule="evenodd" stroke="none" />
  <path d="M7.06706 11.6527C8.17056 10.5505 8.07299 8.93019 6.87605 7.7318C5.70658 6.5609 4.05889 6.43996 2.9554 7.54214C1.83816 8.65807 1.94809 10.3182 3.11893 11.4891C4.31587 12.6875 5.93745 12.7823 7.06706 11.6527M1.19914 6.41247C2.16659 5.44634 3.28246 5.11926 4.35847 5.21408L0.641211 1.49798L2.13911 0L11.6679 9.52938L10.17 11.026L9.39362 10.2509C9.50355 11.3393 9.16275 12.4429 8.19667 13.409C6.39919 15.2052 3.59716 14.9606 1.62103 12.9871C-0.311124 11.0535 -0.595587 8.20868 1.19914 6.41247" transform="translate(126.13574 0)" id="Fill-343" fill="#1D1D1B" fill-rule="evenodd" stroke="none" />
</svg>