<?xml version="1.0" encoding="utf-8"?>
<svg width="29px" height="28px" viewBox="0 0 29 28" version="1.1" xmlns:xlink="http://www.w3.org/1999/xlink" xmlns="http://www.w3.org/2000/svg">
  <path d="M5.66539 2.34267C4.87659 1.60742 3.60956 1.62116 2.65723 2.57355C1.75849 3.47234 1.64992 4.69684 2.24908 5.75917L5.66539 2.34267ZM1.36271 1.28171C3.17531 -0.529617 5.63791 -0.379818 7.48761 1.46999L8.18296 2.16538L3.35121 6.99879C4.64435 7.96354 6.07354 7.8962 7.12069 6.84761C7.96584 6.00379 8.11425 4.79304 7.42027 3.82691L9.06796 2.69586C10.2786 4.37113 9.99281 6.64284 8.42758 8.20954C6.41434 10.2229 3.59582 10.047 1.6087 8.05974C-0.366056 6.08625 -0.609292 3.2552 1.36271 1.28171L1.36271 1.28171Z" transform="translate(14.481934 7.2164307)" id="Fill-5" fill="#1D1D1B" fill-rule="evenodd" stroke="none" />
  <path d="M0 4.24045L1.4979 2.74384L2.12317 3.36915C1.97475 2.4841 2.21936 1.58531 2.98206 0.823947C4.179 -0.37444 5.84043 -0.373066 7.65028 1.54545L6.39837 3.26058C6.31591 3.15063 6.22109 3.05581 6.14001 2.97472C5.2825 2.11716 4.50607 2.07593 3.89316 2.68887C3.18544 3.39663 3.26652 4.51256 4.44972 5.69721L8.08591 9.33222L6.58938 10.8288L0 4.24045Z" transform="translate(20.509277 0)" id="Fill-7" fill="#1D1D1B" fill-rule="evenodd" stroke="none" />
  <path d="M0 1.49308L1.49327 0L11 9.50555L9.5081 11L0 1.49308Z" transform="translate(0 16.801453)" id="Fill-3" fill="#1D1D1B" fill-rule="evenodd" stroke="none" />
  <path d="M1.59504 5.38881L8.22444 8.21538L5.39707 1.59301L6.99211 0L11 9.40699L9.40356 11L0 6.98182L1.59504 5.38881Z" transform="translate(5 11.801453)" id="Fill-4" fill="#1D1D1B" fill-rule="evenodd" stroke="none" />
</svg>