<?xml version="1.0" encoding="utf-8"?>
<svg width="74px" height="68px" viewBox="0 0 74 68" version="1.1" xmlns:xlink="http://www.w3.org/1999/xlink" xmlns="http://www.w3.org/2000/svg">
  <path d="M7.86143 15.2094C10.6154 17.1073 13.4105 16.9644 15.4925 14.8837C17.5318 12.8429 17.7957 10.7004 16.4104 9.27246C15.2259 8.08781 13.3885 8.4149 10.6154 10.6591C6.9833 13.5987 3.94353 13.8214 1.41497 11.2913C-0.851122 9.02646 -0.341287 5.29387 2.55694 2.39685C5.22842 -0.276161 8.92095 -0.746171 11.9621 1.15173L10.636 4.15045C8.59664 2.84487 6.27008 2.96581 4.6966 4.538C3.0654 6.16929 2.65726 8.04796 3.69892 9.0883C4.84227 10.2303 6.27008 10.0682 8.69695 8.08781C12.6767 4.84447 15.9405 4.31399 18.5721 6.94577C21.3054 9.68062 20.9797 13.7197 17.6541 17.0455C14.411 20.2902 10.1454 20.6365 6.47347 18.0666L7.86143 15.2094Z" transform="translate(0 47.34723)" id="Fill-448" fill="#1D1D1B" fill-rule="evenodd" stroke="none" />
  <path d="M0 2.24423L2.24547 0L16.5264 14.2817L14.2823 16.5273L0 2.24423Z" transform="translate(10.740234 39.885986)" id="Fill-450" fill="#1D1D1B" fill-rule="evenodd" stroke="none" />
  <path d="M10.5142 10.5062C12.188 8.83366 12.1055 6.34344 10.33 4.56784C8.55454 2.79363 6.0246 2.66994 4.35218 4.34383C2.65777 6.03697 2.78145 8.56705 4.55556 10.3426C6.33243 12.1182 8.82114 12.1993 10.5142 10.5062M2.19053 2.18069C5.25092 -0.87987 9.63605 -0.614631 12.5755 2.32362C15.5328 5.28248 15.7376 9.60739 12.6772 12.668C9.61681 15.7285 5.27153 15.5457 2.31146 12.5869C-0.625245 9.64725 -0.869856 5.24125 2.19053 2.18069" transform="translate(22.016113 34.68457)" id="Fill-452" fill="#1D1D1B" fill-rule="evenodd" stroke="none" />
  <path d="M18.5657 9.8757L16.3216 12.1199L15.2799 11.0796C15.4242 12.5693 14.9543 14.0989 13.6268 15.4265C11.4445 17.6089 8.7098 17.4041 6.36401 15.0582L0 8.69243L2.2441 6.4482L8.17935 12.3852C9.64977 13.8543 11.0364 13.9766 12.3226 12.6916C13.6886 11.3242 13.5471 9.34522 11.7908 7.59024L6.44784 2.2456L8.69057 0L18.5657 9.8757Z" transform="translate(31.614746 21.37677)" id="Fill-454" fill="#1D1D1B" fill-rule="evenodd" stroke="none" />
  <path d="M9.92455 12.4044C11.4967 10.8336 11.4156 8.54951 9.80224 6.93608C8.18891 5.32403 5.90495 5.24432 4.3356 6.81514C2.74287 8.40658 2.84594 10.67 4.45653 12.2821C6.06849 13.8941 8.31259 14.0165 9.92455 12.4044M1.84551 5.01893C3.15102 3.71335 4.72175 3.24334 6.25263 3.38627L5.11066 2.24423L7.35476 0L16.9015 9.54862C19.9825 12.6298 20.0443 16.853 17.0251 19.8737C14.3111 22.5866 10.6185 22.9329 8.08721 20.2805L9.96577 17.7917C11.4142 19.2814 13.4535 19.4848 15.0875 17.8521C16.7599 16.1796 16.7393 13.8735 14.7604 11.8945L13.3312 10.4666C13.4742 11.9976 12.9863 13.508 11.7 14.7929C8.98595 17.5058 4.96911 17.2818 2.21243 14.5263C-0.47967 11.8341 -0.847961 7.71256 1.84551 5.01893" transform="translate(44.7666 9.562256)" id="Fill-456" fill="#1D1D1B" fill-rule="evenodd" stroke="none" />
  <path d="M0 2.66342L2.2441 0.419188L7.69151 5.8669C7.54859 4.37716 8.01857 2.84757 9.34469 1.52137C11.5283 -0.66101 14.263 -0.457614 16.6088 1.88831L22.9728 8.25406L20.7287 10.4983L14.7921 4.56132C13.3231 3.0922 11.9365 2.96988 10.6502 4.25485C9.28423 5.62228 9.42577 7.60127 11.1807 9.35625L16.525 14.7023L14.2823 16.9465L0 2.66342Z" transform="translate(50.20459 0)" id="Fill-458" fill="#1D1D1B" fill-rule="evenodd" stroke="none" />
</svg>