<?xml version="1.0" encoding="utf-8"?>
<svg width="58px" height="58px" viewBox="0 0 58 58" version="1.1" xmlns:xlink="http://www.w3.org/1999/xlink" xmlns="http://www.w3.org/2000/svg">
  <path d="M5.24363 10.1474C7.08234 11.4131 8.94715 11.3183 10.3351 9.92884C11.6956 8.56829 11.8729 7.13902 10.9466 6.18526C10.1578 5.39503 8.93341 5.61492 7.08234 7.11153C4.65821 9.07128 2.63124 9.22245 0.943698 7.53482C-0.567943 6.02309 -0.227137 3.53149 1.70502 1.59922C3.48875 -0.184614 5.95273 -0.497953 7.98108 0.769149L7.09608 2.76875C5.73285 1.89882 4.18273 1.97991 3.1342 3.02849C2.04582 4.11694 1.77373 5.36892 2.46771 6.06294C3.2304 6.82568 4.18411 6.71711 5.80156 5.39641C8.45656 3.23189 10.6333 2.8787 12.3896 4.63505C14.2132 6.45874 13.996 9.15374 11.778 11.3719C9.61365 13.5364 6.76764 13.7686 4.31741 12.0535L5.24363 10.1474Z" transform="translate(0 44.532776)" id="Fill-165" fill="#1D1D1B" fill-rule="evenodd" stroke="none" />
  <path d="M7.01473 7.00806C8.1306 5.89213 8.07563 4.23198 6.89105 3.04733C5.70785 1.86269 4.02031 1.7816 2.90581 2.89753C1.77483 4.02858 1.85591 5.71484 3.03911 6.89949C4.22506 8.08413 5.88512 8.1391 7.01473 7.00806M1.46151 1.45452C3.5036 -0.586312 6.42931 -0.410402 8.38895 1.54935C10.3651 3.52421 10.4984 6.40886 8.45903 8.45107C6.41557 10.4933 3.51734 10.371 1.54259 8.39747C-0.41705 6.43635 -0.580582 3.49673 1.46151 1.45452" transform="translate(11.509277 39.263977)" id="Fill-167" fill="#1D1D1B" fill-rule="evenodd" stroke="none" />
  <path d="M12.3872 6.58838L10.8893 8.08499L10.1953 7.39097C10.2915 8.38459 9.97683 9.40569 9.09459 10.2907C7.63654 11.7461 5.81432 11.6114 4.24771 10.0461L0 5.79816L1.4979 4.30155L5.45977 8.26228C6.43959 9.24352 7.36582 9.32461 8.22196 8.46705C9.13444 7.55451 9.03824 6.23381 7.86741 5.06291L4.30268 1.49661L5.79921 0L12.3872 6.58838Z" transform="translate(17.90625 30.391602)" id="Fill-169" fill="#1D1D1B" fill-rule="evenodd" stroke="none" />
  <path d="M0.788802 5.88062L1.93215 4.7372L0 2.80494L1.4979 1.30696L3.43005 3.24059L6.66909 0L7.9746 1.30696L4.73556 4.54618L7.74373 7.55451C8.47894 8.28976 9.26911 8.26228 9.9095 7.62323C10.5609 6.97044 10.4674 6.03042 9.5151 5.21408L11.079 3.92087C12.7816 5.45871 12.7266 7.52703 11.3236 8.93019C9.70337 10.5491 7.77121 10.5766 6.2046 9.01127L3.23904 6.04416L2.09569 7.18758L0.788802 5.88062Z" transform="translate(24.029297 23.398499)" id="Fill-171" fill="#1D1D1B" fill-rule="evenodd" stroke="none" />
  <path d="M0 1.77682L1.49653 0.280209L5.12996 3.91385C5.03651 2.92023 5.35121 1.89913 6.23346 1.01546C7.69151 -0.441297 9.51372 -0.305242 11.0803 1.26008L15.3267 5.50666L13.8288 7.00465L9.86827 3.04255C8.88845 2.06267 7.96223 1.98159 7.10609 2.83915C6.19361 3.75168 6.28843 5.07101 7.45926 6.24191L11.024 9.80821L9.52884 11.3062L0 1.77682Z" transform="translate(29.237305 17.201843)" id="Fill-173" fill="#1D1D1B" fill-rule="evenodd" stroke="none" />
  <path d="M6.7693 7.20465C7.64193 6.33335 7.62819 5.06762 6.63325 4.074L6.32131 3.76066L5.23155 5.28476C4.65987 6.10109 4.26547 6.93254 4.86326 7.53036C5.34011 8.00724 6.08906 7.88493 6.7693 7.20465M3.88344 4.37222L5.15047 2.58976L4.90449 2.34376C4.34655 1.78717 3.43407 1.77343 2.5903 2.61725C1.67919 3.52841 1.76027 4.56325 2.67413 5.33973L1.16249 6.63157C-0.607509 5.02639 -0.185623 2.86187 1.28479 1.39275C3.0809 -0.404833 4.9732 -0.39109 6.38864 1.02444L10.8109 5.4483L9.41055 6.85008L8.64786 6.08872C8.86499 6.87757 8.72894 7.9399 7.83157 8.83732C6.28008 10.3889 4.55131 10.0494 3.62509 9.12317C2.31958 7.81759 2.53671 6.26463 3.88344 4.37222" transform="translate(40.621094 10.39032)" id="Fill-175" fill="#1D1D1B" fill-rule="evenodd" stroke="none" />
  <path d="M0 1.49661L1.49653 0L11.024 9.528L9.52884 11.026L0 1.49661Z" transform="translate(43.563477 3.1559448)" id="Fill-177" fill="#1D1D1B" fill-rule="evenodd" stroke="none" />
  <path d="M0 1.49661L1.49653 0L11.024 9.528L9.52884 11.026L0 1.49661Z" transform="translate(46.71826 0)" id="Fill-179" fill="#1D1D1B" fill-rule="evenodd" stroke="none" />
</svg>