<?xml version="1.0" encoding="utf-8"?>
<svg width="83px" height="76px" viewBox="0 0 83 76" version="1.1" xmlns:xlink="http://www.w3.org/1999/xlink" xmlns="http://www.w3.org/2000/svg">
  <path d="M1.53775 10.6453L10.6708 16.104L5.2825 6.90172L6.89996 5.2828L16.2117 10.7539L10.6584 1.52547L12.1825 0L19.2597 11.9798L17.4512 13.7911L8.53528 8.52202L13.804 17.4385L11.9791 19.2622L0 12.1831L1.53775 10.6453Z" transform="translate(0 56.032288)" id="Fill-203" fill="#1D1D1B" fill-rule="evenodd" stroke="none" />
  <path d="M5.66554 2.34252C4.87673 1.60727 3.6097 1.62101 2.65737 2.5734C1.75726 3.47219 1.64732 4.69669 2.24923 5.75902L5.66554 2.34252ZM1.36285 1.28156C3.17545 -0.529766 5.63668 -0.379967 7.48775 1.47121L8.18311 2.16661L3.35135 6.99864C4.64312 7.96477 6.07368 7.89605 7.12083 6.84746C7.96598 6.00364 8.11302 4.79289 7.42041 3.82676L9.06673 2.69571C10.2788 4.37098 9.99158 6.64407 8.42772 8.20939C6.41174 10.2241 3.59596 10.0468 1.60747 8.05959C-0.365914 6.0861 -0.609151 3.25505 1.36285 1.28156L1.36285 1.28156Z" transform="translate(16.788574 54.25531)" id="Fill-205" fill="#1D1D1B" fill-rule="evenodd" stroke="none" />
  <path d="M3.96774 6.79564C4.9613 7.48966 6.07717 7.48966 6.96354 6.60461C7.77845 5.78828 7.87602 5.01317 7.43764 4.57615C7.07073 4.20921 6.48531 4.16798 5.26088 5.17534C3.47989 6.63209 1.89817 6.65958 0.728705 5.48868C-0.414646 4.34526 -0.183777 2.48034 1.2193 1.07718C2.39014 -0.0923437 4.18487 -0.364455 5.73636 0.532962L4.85411 2.20823C4.03508 1.71898 3.23253 1.83992 2.60726 2.4666C2.03559 3.03831 1.84457 3.6375 2.21286 4.00444C2.53718 4.33152 2.97418 4.38649 3.98148 3.56878C5.96723 1.93612 7.58881 1.81381 8.82561 3.05205C10.1462 4.37275 9.9291 6.38747 8.33776 7.97891C6.77252 9.54423 4.59301 9.68166 2.83813 8.46953L3.96774 6.79564Z" transform="translate(23.80371 47.560364)" id="Fill-207" fill="#1D1D1B" fill-rule="evenodd" stroke="none" />
  <path d="M0.788802 5.88062L1.93215 4.7372L0 2.80494L1.49515 1.30696L3.4273 3.24059L6.66634 0L7.9746 1.30696L4.73419 4.54618L7.74373 7.55451C8.47893 8.28976 9.26774 8.26228 9.90675 7.62323C10.5609 6.96906 10.4647 6.03042 9.51235 5.21408L11.0762 3.92087C12.7816 5.45734 12.7253 7.52703 11.3236 8.93019C9.70199 10.5491 7.76984 10.5766 6.2046 9.01127L3.23629 6.04416L2.09294 7.18758L0.788802 5.88062Z" transform="translate(27.715332 39.712097)" id="Fill-209" fill="#1D1D1B" fill-rule="evenodd" stroke="none" />
  <path d="M0 6.65572L6.65672 0L8.10103 1.44301L2.9422 6.60213L5.42954 9.09235L10.0332 4.4912L11.4747 5.93422L6.87385 10.5354L9.58243 13.2441L14.7413 8.08637L16.1842 9.528L9.52884 16.1851L0 6.65572Z" transform="translate(36.432617 25.12561)" id="Fill-211" fill="#1D1D1B" fill-rule="evenodd" stroke="none" />
  <path d="M6.77089 7.20465C7.64078 6.33335 7.62703 5.06762 6.63347 4.074L6.32015 3.76066L5.23314 5.28613C4.66147 6.10109 4.26707 6.93254 4.86485 7.53036C5.34033 8.00724 6.08928 7.88493 6.77089 7.20465M3.88503 4.37222L5.14931 2.58976L4.90608 2.34376C4.34677 1.78717 3.43429 1.77343 2.59189 2.61725C1.67941 3.52841 1.76186 4.56325 2.67297 5.33973L1.16133 6.63294C-0.607291 5.02639 -0.185405 2.86187 1.28501 1.39275C3.07974 -0.404833 4.97204 -0.39109 6.39024 1.02444L10.8125 5.4483L9.41214 6.85008L8.64945 6.08872C8.86658 6.87757 8.73053 7.9399 7.83042 8.83732C6.2803 10.3889 4.55153 10.0494 3.62531 9.12317C2.31842 7.81759 2.5383 6.26463 3.88503 4.37222" transform="translate(48.22461 22.784973)" id="Fill-213" fill="#1D1D1B" fill-rule="evenodd" stroke="none" />
  <path d="M0 1.49661L1.4979 0L11.0254 9.528L9.52884 11.026L0 1.49661Z" transform="translate(51.16504 15.551331)" id="Fill-215" fill="#1D1D1B" fill-rule="evenodd" stroke="none" />
  <path d="M2.57737 4.06036L4.07526 2.56238L10.6646 9.15076L9.16675 10.6487L2.57737 4.06036ZM0.38686 0.397859C0.918683 -0.13262 1.78856 -0.13262 2.32039 0.397859C2.85084 0.929712 2.85084 1.79964 2.32039 2.3315C1.80505 2.84823 0.932425 2.84823 0.400602 2.31638C-0.131221 1.7859 -0.131221 0.914595 0.38686 0.397859L0.38686 0.397859Z" transform="translate(54.683594 12.772156)" id="Fill-217" fill="#1D1D1B" fill-rule="evenodd" stroke="none" />
  <path d="M0 4.71782L1.4979 3.22121L2.19325 3.91523C2.09569 2.92023 2.41038 1.90051 3.29538 1.01546C4.75068 -0.441297 6.57564 -0.305242 8.14088 1.26008L12.3872 5.50804L10.8893 7.00465L6.93019 3.04392C5.94762 2.06267 5.02415 1.98159 4.16526 2.83915C3.25278 3.75168 3.35035 5.07238 4.51981 6.24191L8.08728 9.80959L6.58938 11.3062L0 4.71782Z" transform="translate(60.416992 8.95813)" id="Fill-219" fill="#1D1D1B" fill-rule="evenodd" stroke="none" />
  <path d="M6.62289 8.27602C7.67005 7.22743 7.61645 5.70196 6.53906 4.62726C5.4658 3.55118 3.93904 3.49759 2.89188 4.54618C1.82961 5.60713 1.89832 7.11886 2.97296 8.19356C4.04898 9.26964 5.54688 9.35072 6.62289 8.27602M1.23045 3.34779C2.10308 2.47648 3.15024 2.16314 4.17266 2.25935L3.40997 1.49661L4.90786 0L11.2774 6.36987C13.3332 8.42582 13.3731 11.2431 11.3571 13.2578C9.5486 15.0678 7.08463 15.3001 5.39571 13.53L6.65037 11.8698C7.61645 12.8634 8.97693 12.9995 10.0667 11.911C11.1826 10.7937 11.1674 9.25452 9.84956 7.93519L8.89585 6.98281C8.99067 8.00253 8.66223 9.01127 7.80609 9.86883C5.99487 11.6788 3.31377 11.529 1.47506 9.69155C-0.321041 7.89534 -0.564278 5.144 1.23045 3.34779" transform="translate(69.18701 0)" id="Fill-221" fill="#1D1D1B" fill-rule="evenodd" stroke="none" />
</svg>