<?xml version="1.0" encoding="utf-8"?>
<svg width="79px" height="79px" viewBox="0 0 79 79" version="1.1" xmlns:xlink="http://www.w3.org/1999/xlink" xmlns="http://www.w3.org/2000/svg">
  <path d="M2.1 14.34L2.1 8.34L8.04 8.34L8.04 6.3L2.1 6.3L2.1 2.4L4.74 2.4C6.02 2.4 7.68 2.4 9.18 2.06L8.88 0C7.76 0.24 6.42 0.34 4.74 0.34L0 0.34L0 14.34L2.1 14.34ZM13.92 14.46C15.1 14.46 16 14.08 16.6 13.34L16.6 14.34L18.58 14.34L18.58 7.56C18.58 5.34 17.06 3.94 14.52 3.94C12.44 3.94 10.9 4.78 10.44 6.48L12.28 7.2C12.56 6.14 13.36 5.84 14.44 5.84C15.68 5.84 16.58 6.36 16.58 7.48L16.58 8.54C16.08 8.22 15.56 8.14 14.88 8.14L12.98 8.14C11.12 8.14 10.02 9.36 10.02 10.98C10.02 12.78 11.42 14.46 13.92 14.46ZM14.12 12.6C12.6 12.6 12 11.82 12 10.94C12 10.32 12.34 9.94 12.98 9.94L15.52 9.94C16.2 9.94 16.58 10.24 16.58 10.86C16.58 11.86 15.6 12.6 14.12 12.6ZM23.2 14.34L23.2 8.4C23.2 6.88 24.18 6.04 25.72 6.04L26.72 6.04L26.72 4.06L25.78 4.06C24.62 4.06 23.78 4.4 23.2 5.12L23.2 4.12L21.2 4.12L21.2 14.34L23.2 14.34ZM30.28 14.34L30.28 8.4C30.28 6.88 31.26 6.04 32.8 6.04L33.8 6.04L33.8 4.06L32.86 4.06C31.7 4.06 30.86 4.4 30.28 5.12L30.28 4.12L28.28 4.12L28.28 14.34L30.28 14.34ZM37.48 2.46L37.48 0.22L35.34 0.22L35.34 2.46L37.48 2.46ZM37.42 14.34L37.42 4.12L35.4 4.12L35.4 14.34L37.42 14.34ZM42.18 14.34L42.18 8.46C42.18 7.02 42.94 5.94 44.7 5.94C46 5.94 46.7 6.62 46.7 7.7L46.7 14.34L48.72 14.34L48.72 7.62C48.72 5.48 47.48 3.94 45.04 3.94C43.7 3.94 42.8 4.3 42.18 5.12L42.18 4.12L40.18 4.12L40.18 14.34L42.18 14.34ZM55.44 18.78C58.52 18.78 60.44 17.54 60.44 15.38C60.44 13.7 59.32 12.72 57.24 12.72L53.7 12.72C53.06 12.72 52.76 12.3 52.76 11.8C52.76 11.34 53.02 10.94 53.46 10.78C54.02 11.06 54.68 11.22 55.4 11.22C57.74 11.22 59.26 9.72 59.26 7.58C59.26 6.94 59.14 6.36 58.88 5.88C60.12 5.42 60.8 4.34 60.8 2.86L58.86 2.86C58.86 3.76 58.44 4.44 57.68 4.56C57.06 4.16 56.28 3.94 55.4 3.94C53.08 3.94 51.54 5.44 51.54 7.58C51.54 8.42 51.78 9.14 52.2 9.74C51.3 10.12 50.86 10.94 50.86 11.8C50.86 12.5 51.18 13.18 51.78 13.58C51.02 13.88 50.56 14.58 50.56 15.58C50.56 17.48 52.32 18.78 55.44 18.78ZM55.4 9.38C54.16 9.38 53.46 8.66 53.46 7.58C53.46 6.5 54.16 5.8 55.4 5.8C56.64 5.8 57.36 6.5 57.36 7.58C57.36 8.66 56.64 9.38 55.4 9.38ZM55.44 16.98C53.52 16.98 52.54 16.5 52.54 15.44C52.54 14.98 52.76 14.54 53.56 14.54L57.06 14.54C58.16 14.54 58.48 14.86 58.48 15.42C58.48 16.48 57.38 16.98 55.44 16.98ZM66.04 14.46C67.38 14.46 68.38 13.94 69.02 13.08L69.02 14.34L71.02 14.34L71.02 0.34L69 0.34L69 5.28C68.36 4.44 67.36 3.94 66.04 3.94C63.24 3.94 61.4 6.04 61.4 9.18C61.4 12.34 63.24 14.46 66.04 14.46ZM66.22 12.46C64.38 12.46 63.44 11.06 63.44 9.16C63.44 7.26 64.36 5.92 66.18 5.92C67.98 5.92 69 7.28 69 9.2C69 11.12 68.02 12.46 66.22 12.46ZM77.68 14.46C80.52 14.46 82.36 12.38 82.36 9.2C82.36 6 80.52 3.94 77.68 3.94C74.86 3.94 73.02 6 73.02 9.2C73.02 12.38 74.86 14.46 77.68 14.46ZM77.68 12.46C75.98 12.46 75.06 11.28 75.06 9.2C75.06 7.12 75.98 5.94 77.68 5.94C79.4 5.94 80.32 7.12 80.32 9.2C80.32 11.28 79.4 12.46 77.68 12.46ZM86.36 14.34L86.36 8.46C86.36 7.02 87.12 5.94 88.88 5.94C90.18 5.94 90.88 6.62 90.88 7.7L90.88 14.34L92.9 14.34L92.9 7.62C92.9 5.48 91.66 3.94 89.22 3.94C87.88 3.94 86.98 4.3 86.36 5.12L86.36 4.12L84.36 4.12L84.36 14.34L86.36 14.34Z" transform="matrix(0.70710677 -0.70710677 0.70710677 0.70710677 0 65.69025)" id="Farringdon" fill="#191919" stroke="none" />
</svg>